<?xml version="1.0" encoding="UTF-8"?>
<svg width="162px" height="162px" viewBox="0 0 162 162" version="1.1" xmlns="http://www.w3.org/2000/svg" xmlns:xlink="http://www.w3.org/1999/xlink">
    <!-- Generator: Sketch 60.1 (88133) - https://sketch.com -->
    <title>ecommerce_01</title>
    <desc>Created with Sketch.</desc>
    <g id="Page-1" stroke="none" stroke-width="1" fill="none" fill-rule="evenodd">
        <g id="11_Ecommerce" transform="translate(-126.000000, -1453.000000)">
            <g id="Group-16" transform="translate(108.000000, 1454.000000)">
                <g id="Group-3">
                    <g id="Group-15" transform="translate(19.000000, 0.000000)">
                        <g id="ecommerce_01">
                            <path d="M80,160 C124.18278,160 160,124.18278 160,80 C160,35.81722 124.18278,0 80,0 C35.81722,0 0,35.81722 0,80 C0,124.18278 35.81722,160 80,160 Z" id="Oval" stroke="#06CCFF" stroke-linecap="round" stroke-dasharray="3,7"></path>
                            <g id="factory-(2)" transform="translate(41.000000, 35.000000)" fill="#FFFFFF" fill-rule="nonzero">
                                <path d="M46.7045161,25.8322581 L36.1290323,25.8064516 L36.1290323,43.8709677 L33.3974194,43.8709677 L32.1070968,33.5483871 L22.0864516,33.5483871 L20.796129,43.8709677 L17.8929032,43.8709677 L15.6554839,28.2077419 C17.2916129,27.8206452 18.7225806,26.8077419 19.6258065,25.3793548 C20.3574194,25.6606452 21.1380645,25.8064516 21.9354839,25.8064516 C25.4929032,25.8064516 28.3870968,22.9122581 28.3870968,19.3548387 C28.3870968,18.7612903 28.3019355,18.1754839 28.1432258,17.6103226 C30.5458065,16.6709677 32.2580645,14.3445161 32.2580645,11.6129032 C32.2580645,10.4774194 31.96,9.36129032 31.3935484,8.38580645 L29.1612903,9.67870968 C29.4980645,10.2632258 29.6774194,10.9316129 29.6774194,11.6129032 C29.6774194,13.7470968 27.9406452,15.483871 25.8064516,15.483871 C25.1251613,15.483871 24.4567742,15.3045161 23.8722581,14.9677419 L22.5793548,17.2 C23.4812903,17.7225806 24.5045161,18.0051613 25.5496774,18.0477419 C25.7006452,18.4670968 25.8064516,18.9032258 25.8064516,19.3548387 C25.8064516,21.4890323 24.0696774,23.2258065 21.9354839,23.2258065 C21.1587097,23.2258065 20.4103226,22.996129 19.7690323,22.5625806 L18.3819355,21.6232258 L17.8270968,23.2051613 C17.283871,24.7612903 15.8232258,25.8064516 14.1935484,25.8064516 L10.3225806,25.8064516 C8.1883871,25.8064516 6.4516129,24.0696774 6.4516129,21.9354839 C6.4516129,19.8012903 8.1883871,18.0645161 10.3225806,18.0645161 L10.3225806,15.483871 C9.88645161,15.483871 9.46064516,15.5303226 9.04903226,15.6129032 C9.04645161,15.5690323 9.03225806,15.5277419 9.03225806,15.483871 C9.03225806,13.3496774 10.7690323,11.6129032 12.9032258,11.6129032 C13.596129,11.6129032 14.2670968,11.8051613 14.8929032,12.1845161 L17.2451613,13.5819355 L16.8322581,10.8606452 C16.8051613,10.683871 16.7741935,10.5070968 16.7741935,10.3225806 C16.7741935,8.1883871 18.5109677,6.4516129 20.6451613,6.4516129 C22.7793548,6.4516129 24.516129,8.1883871 24.516129,10.3225806 L27.0967742,10.3225806 C27.0967742,8.86451613 26.5922581,7.53290323 25.7729032,6.4516129 L25.8064516,6.4516129 C25.8064516,4.31741935 27.5432258,2.58064516 29.6774194,2.58064516 C30.6206452,2.58064516 31.5316129,2.92387097 32.236129,3.5483871 L33.9445161,1.61419355 C32.7677419,0.572903226 31.2516129,0 29.6774194,0 C26.7729032,0 24.3406452,1.94193548 23.5341935,4.58580645 C22.6606452,4.14322581 21.6890323,3.87096774 20.6451613,3.87096774 C17.4735484,3.87096774 14.8296774,6.17032258 14.2929032,9.18967742 C13.836129,9.08645161 13.3690323,9.03225806 12.9032258,9.03225806 C9.34580645,9.03225806 6.4516129,11.9264516 6.4516129,15.483871 C6.4516129,15.8941935 6.50322581,16.3006452 6.57935484,16.7019355 C4.94580645,17.8735484 3.87096774,19.7767742 3.87096774,21.9354839 C3.87096774,23.4606452 4.42451613,24.843871 5.31225806,25.9496774 L2.75096774,43.8709677 L0,43.8709677 L0,80 L27.0967742,80 L28.3870968,80 L52.9032258,80 L54.1935484,80 L80,80 L80,32.4903226 L46.7045161,25.8322581 Z M7.57032258,28.3870968 L13.0748387,28.3870968 L15.2864516,43.8709677 L5.35870968,43.8709677 L7.57032258,28.3870968 Z M25.8064516,77.4193548 L2.58064516,77.4193548 L2.58064516,51.6129032 L25.8064516,51.6129032 L25.8064516,77.4193548 Z M25.8064516,49.0322581 L2.58064516,49.0322581 L2.58064516,46.4516129 L25.8064516,46.4516129 L25.8064516,49.0322581 Z M27.0967742,43.8709677 L23.3974194,43.8709677 L24.3651613,36.1290323 L29.8283871,36.1290323 L30.796129,43.8709677 L28.3870968,43.8709677 L27.0967742,43.8709677 Z M51.6129032,77.4193548 L28.3870968,77.4193548 L28.3870968,51.6129032 L51.6129032,51.6129032 L51.6129032,77.4193548 Z M51.6129032,49.0322581 L28.3870968,49.0322581 L28.3870968,46.4516129 L51.6129032,46.4516129 L51.6129032,49.0322581 Z M59.3548387,77.4193548 L54.1935484,77.4193548 L54.1935484,43.8709677 L38.7096774,43.8709677 L38.7096774,38.7096774 L59.3548387,38.7096774 L59.3548387,77.4193548 Z M69.6774194,77.4193548 L61.9354839,77.4193548 L61.9354839,74.8387097 L69.6774194,74.8387097 L69.6774194,77.4193548 Z M69.6774194,72.2580645 L61.9354839,72.2580645 L61.9354839,69.6774194 L69.6774194,69.6774194 L69.6774194,72.2580645 Z M69.6774194,67.0967742 L61.9354839,67.0967742 L61.9354839,64.516129 L69.6774194,64.516129 L69.6774194,67.0967742 Z M69.6774194,61.9354839 L61.9354839,61.9354839 L61.9354839,59.3548387 L69.6774194,59.3548387 L69.6774194,61.9354839 Z M69.6774194,56.7741935 L61.9354839,56.7741935 L61.9354839,54.1935484 L69.6774194,54.1935484 L69.6774194,56.7741935 Z M69.6774194,51.6129032 L61.9354839,51.6129032 L61.9354839,49.0322581 L69.6774194,49.0322581 L69.6774194,51.6129032 Z M69.6774194,46.4516129 L61.9354839,46.4516129 L61.9354839,43.8709677 L69.6774194,43.8709677 L69.6774194,46.4516129 Z M69.6774194,41.2903226 L61.9354839,41.2903226 L61.9354839,38.7096774 L69.6774194,38.7096774 L69.6774194,41.2903226 Z M77.4193548,77.4193548 L72.2580645,77.4193548 L72.2580645,38.7096774 L77.4193548,38.7096774 L77.4193548,77.4193548 Z M77.4193548,36.1290323 L38.7096774,36.1290323 L38.7096774,28.3870968 L46.323871,28.3870968 L77.4193548,34.6064516 L77.4193548,36.1290323 Z" id="Shape"></path>
                                <path d="M5.16129032,54.1935484 L5.16129032,61.9354839 L12.9032258,61.9354839 L12.9032258,54.1935484 L5.16129032,54.1935484 Z M10.3225806,59.3548387 L7.74193548,59.3548387 L7.74193548,56.7741935 L10.3225806,56.7741935 L10.3225806,59.3548387 Z" id="Shape"></path>
                                <path d="M15.483871,54.1935484 L15.483871,61.9354839 L23.2258065,61.9354839 L23.2258065,54.1935484 L15.483871,54.1935484 Z M20.6451613,59.3548387 L18.0645161,59.3548387 L18.0645161,56.7741935 L20.6451613,56.7741935 L20.6451613,59.3548387 Z" id="Shape"></path>
                                <path d="M5.16129032,64.516129 L5.16129032,72.2580645 L12.9032258,72.2580645 L12.9032258,64.516129 L5.16129032,64.516129 Z M10.3225806,69.6774194 L7.74193548,69.6774194 L7.74193548,67.0967742 L10.3225806,67.0967742 L10.3225806,69.6774194 Z" id="Shape"></path>
                                <path d="M15.483871,64.516129 L15.483871,72.2580645 L23.2258065,72.2580645 L23.2258065,64.516129 L15.483871,64.516129 Z M20.6451613,69.6774194 L18.0645161,69.6774194 L18.0645161,67.0967742 L20.6451613,67.0967742 L20.6451613,69.6774194 Z" id="Shape"></path>
                                <path d="M30.9677419,54.1935484 L30.9677419,61.9354839 L38.7096774,61.9354839 L38.7096774,54.1935484 L30.9677419,54.1935484 Z M36.1290323,59.3548387 L33.5483871,59.3548387 L33.5483871,56.7741935 L36.1290323,56.7741935 L36.1290323,59.3548387 Z" id="Shape"></path>
                                <path d="M41.2903226,54.1935484 L41.2903226,61.9354839 L49.0322581,61.9354839 L49.0322581,54.1935484 L41.2903226,54.1935484 Z M46.4516129,59.3548387 L43.8709677,59.3548387 L43.8709677,56.7741935 L46.4516129,56.7741935 L46.4516129,59.3548387 Z" id="Shape"></path>
                                <path d="M30.9677419,64.516129 L30.9677419,72.2580645 L38.7096774,72.2580645 L38.7096774,64.516129 L30.9677419,64.516129 Z M36.1290323,69.6774194 L33.5483871,69.6774194 L33.5483871,67.0967742 L36.1290323,67.0967742 L36.1290323,69.6774194 Z" id="Shape"></path>
                                <path d="M41.2903226,64.516129 L41.2903226,72.2580645 L49.0322581,72.2580645 L49.0322581,64.516129 L41.2903226,64.516129 Z M46.4516129,69.6774194 L43.8709677,69.6774194 L43.8709677,67.0967742 L46.4516129,67.0967742 L46.4516129,69.6774194 Z" id="Shape"></path>
                            </g>
                        </g>
                    </g>
                </g>
            </g>
        </g>
    </g>
</svg>