<?xml version="1.0" encoding="UTF-8"?>
<svg width="162px" height="162px" viewBox="0 0 162 162" version="1.1" xmlns="http://www.w3.org/2000/svg" xmlns:xlink="http://www.w3.org/1999/xlink">
    <!-- Generator: Sketch 60.1 (88133) - https://sketch.com -->
    <title>ecommerce_02</title>
    <desc>Created with Sketch.</desc>
    <g id="Page-1" stroke="none" stroke-width="1" fill="none" fill-rule="evenodd">
        <g id="11_Ecommerce" transform="translate(-331.000000, -1453.000000)">
            <g id="Group-16" transform="translate(108.000000, 1454.000000)">
                <g id="Group-3">
                    <g id="Group-15" transform="translate(19.000000, 0.000000)">
                        <g id="ecommerce_02" transform="translate(205.000000, 0.000000)">
                            <path d="M80,160 C124.18278,160 160,124.18278 160,80 C160,35.81722 124.18278,0 80,0 C35.81722,0 0,35.81722 0,80 C0,124.18278 35.81722,160 80,160 Z" id="Oval" stroke="#06CCFF" stroke-linecap="round" stroke-dasharray="3,7"></path>
                            <g id="truck-(2)" transform="translate(39.000000, 61.000000)" fill="#FFFFFF" fill-rule="nonzero">
                                <path d="M15.8423162,37.1733088 L15.8289154,37.1733088 C15.1436581,37.1733088 14.5948897,37.7288603 14.5948897,38.4141176 C14.5948897,39.099375 15.1570588,39.6549265 15.8423162,39.6549265 C16.5275735,39.6549265 17.083125,39.099375 17.083125,38.4141176 C17.083125,37.7288603 16.5275735,37.1733088 15.8423162,37.1733088 Z" id="Path"></path>
                                <path d="M26.4518934,37.1733088 L26.4386581,37.1733088 C25.7534007,37.1733088 25.2044669,37.7288603 25.2044669,38.4141176 C25.2044669,39.099375 25.766636,39.6549265 26.4518934,39.6549265 C27.1371507,39.6549265 27.6927022,39.099375 27.6927022,38.4141176 C27.6927022,37.7288603 27.1371507,37.1733088 26.4518934,37.1733088 Z" id="Path"></path>
                                <path d="M70.2163787,37.1733088 L70.2031434,37.1733088 C69.517886,37.1733088 68.9689522,37.7288603 68.9689522,38.4141176 C68.9689522,39.099375 69.5311213,39.6549265 70.2163787,39.6549265 C70.901636,39.6549265 71.4571875,39.099375 71.4571875,38.4141176 C71.4571875,37.7288603 70.901636,37.1733088 70.2163787,37.1733088 Z" id="Path"></path>
                                <path d="M83.5654963,22.1717647 L81.8971875,20.5034559 L78.53625,10.4204779 C79.0377022,10.2611581 79.4011765,9.79213235 79.4011765,9.23806985 C79.4011765,8.5528125 78.845625,7.99726103 78.1603676,7.99726103 L66.1392463,7.99726103 L66.1392463,2.60751838 C66.1392463,1.19200368 64.9877757,0.0405330882 63.572261,0.0405330882 L2.56698529,0.0405330882 C1.15147059,0.0405330882 0,1.19216912 0,2.60751838 L0,31.7837316 C0,33.1992463 1.15147059,34.3507169 2.56698529,34.3507169 L3.97852941,34.3507169 L3.97852941,37.0877757 C3.97852941,38.5032904 5.13,39.654761 6.54551471,39.654761 L9.40284926,39.654761 C9.98454044,42.6724081 12.6440074,44.9594669 15.8289154,44.9594669 C18.009761,44.9594669 19.9436029,43.8864154 21.1336213,42.2415993 C22.3238051,43.8864154 24.2576471,44.9594669 26.4384926,44.9594669 C29.6234007,44.9594669 32.2830331,42.6724081 32.8645588,39.654761 L63.7769118,39.654761 C64.3586029,42.6724081 67.0180699,44.9594669 70.2029779,44.9594669 C73.8122426,44.9594669 76.7484926,42.0230515 76.7484926,38.4139522 C76.7484926,38.3854963 76.7466728,38.3575368 76.7463419,38.3292463 L82.1387316,38.3292463 C83.5542463,38.3292463 84.705717,37.1777757 84.705717,35.762261 L84.705717,24.9245404 C84.705717,23.8847426 84.3008824,22.9071507 83.5654963,22.1717647 Z M9.40284926,37.1733088 L6.54551471,37.1733088 C6.49836397,37.1733088 6.46014706,37.1350919 6.46014706,37.0879412 L6.46014706,34.3508824 L10.702886,34.3508824 C10.0609743,35.1592279 9.60551471,36.1214338 9.40284926,37.1733088 Z M15.8289154,42.4781801 C13.5880147,42.4781801 11.7650184,40.6550184 11.7650184,38.4142831 C11.7650184,36.1819853 13.5744485,34.3647794 15.8036029,34.3508824 L15.8545588,34.3508824 C18.0837132,34.364614 19.8931434,36.1818199 19.8931434,38.4142831 C19.8929779,40.6550184 18.0698162,42.4781801 15.8289154,42.4781801 Z M26.4386581,42.4781801 C24.1977574,42.4781801 22.3745956,40.6550184 22.3745956,38.4142831 C22.3745956,36.1819853 24.1840257,34.3647794 26.4131801,34.3508824 L26.464136,34.3508824 C28.6932904,34.364614 30.5027206,36.1818199 30.5027206,38.4142831 C30.5025551,40.6550184 28.6795588,42.4781801 26.4386581,42.4781801 Z M63.7770772,37.1733088 L32.8647243,37.1733088 C32.6620588,36.1214338 32.2065993,35.1590625 31.5645221,34.3507169 L55.6148713,34.3507169 C56.3001287,34.3507169 56.8556801,33.7951654 56.8556801,33.1099081 C56.8556801,32.4246507 56.3001287,31.8690993 55.6148713,31.8690993 L2.56698529,31.8690993 C2.51983456,31.8690993 2.48161765,31.8308824 2.48161765,31.7837316 L2.48161765,2.60751838 C2.48161765,2.56036765 2.51983456,2.52215074 2.56698529,2.52215074 L63.5720956,2.52215074 C63.6192463,2.52215074 63.6574632,2.56036765 63.6574632,2.60751838 L63.6574632,31.8692647 L60.920239,31.8692647 C60.2349816,31.8692647 59.6794301,32.4248162 59.6794301,33.1100735 C59.6794301,33.7953309 60.2349816,34.3508824 60.920239,34.3508824 L65.077114,34.3508824 C64.4350368,35.1592279 63.9797426,36.1214338 63.7770772,37.1733088 Z M79.5331985,21.2590257 L71.5293199,21.2590257 C71.4821691,21.2590257 71.4439522,21.2208088 71.4439522,21.1736581 L71.4439522,15.7834191 L77.7080515,15.7834191 L79.5331985,21.2590257 Z M70.2031434,42.4781801 C67.9622426,42.4781801 66.1392463,40.6550184 66.1392463,38.4142831 C66.1392463,36.1819853 67.9486765,34.3647794 70.1778309,34.3508824 L70.2033088,34.3508824 C70.2061213,34.3508824 70.2089338,34.3505515 70.2119118,34.350386 C72.4488419,34.3550184 74.2673713,36.1761949 74.2673713,38.4141176 C74.2670404,40.6550184 72.4440441,42.4781801 70.2031434,42.4781801 Z M82.2242647,35.7625919 C82.2242647,35.8097426 82.1860478,35.8479596 82.1388971,35.8479596 L76.2240441,35.8479596 C75.2239522,33.5107721 72.9019853,31.8687684 70.2031434,31.8687684 C70.1945404,31.8687684 70.1862684,31.8694301 70.1776654,31.8694301 L66.1392463,31.8694301 L66.1392463,10.5647426 L66.1392463,10.5640809 C66.1392463,10.5169301 66.1774632,10.4787132 66.224614,10.4787132 L75.9398162,10.4787132 L76.8808456,13.3018015 L70.2031434,13.3018015 C69.517886,13.3018015 68.9623346,13.8573529 68.9623346,14.5426103 L68.9623346,21.1736581 C68.9623346,22.5891728 70.1138051,23.7406434 71.5293199,23.7406434 L81.6248713,23.7406434 L81.8108272,23.9265993 C82.0773529,24.1932904 82.2242647,24.5476654 82.2242647,24.9247059 L82.2242647,27.8907353 L80.8127206,27.8907353 C80.1274632,27.8907353 79.5719118,28.4462868 79.5719118,29.1315441 C79.5719118,29.8168015 80.1274632,30.3723529 80.8127206,30.3723529 L82.2242647,30.3723529 L82.2242647,35.7625919 Z" id="Shape"></path>
                                <path d="M59.5934007,26.5643934 L6.54551471,26.5643934 C5.86025735,26.5643934 5.30470588,27.1199449 5.30470588,27.8052022 C5.30470588,28.4904596 5.86025735,29.046011 6.54551471,29.046011 L59.5934007,29.046011 C60.2786581,29.046011 60.8342096,28.4904596 60.8342096,27.8052022 C60.8342096,27.1199449 60.2786581,26.5643934 59.5934007,26.5643934 Z" id="Path"></path>
                            </g>
                        </g>
                    </g>
                </g>
            </g>
        </g>
    </g>
</svg>