<?xml version="1.0" encoding="UTF-8"?>
<svg width="162px" height="162px" viewBox="0 0 162 162" version="1.1" xmlns="http://www.w3.org/2000/svg" xmlns:xlink="http://www.w3.org/1999/xlink">
    <!-- Generator: Sketch 60.1 (88133) - https://sketch.com -->
    <title>ecommerce_06</title>
    <desc>Created with Sketch.</desc>
    <g id="Page-1" stroke="none" stroke-width="1" fill="none" fill-rule="evenodd">
        <g id="11_Ecommerce" transform="translate(-1152.000000, -1453.000000)">
            <g id="Group-16" transform="translate(108.000000, 1454.000000)">
                <g id="Group-3">
                    <g id="Group-15" transform="translate(19.000000, 0.000000)">
                        <g id="ecommerce_06" transform="translate(1026.000000, 0.000000)">
                            <path d="M80,160 C124.18278,160 160,124.18278 160,80 C160,35.81722 124.18278,0 80,0 C35.81722,0 0,35.81722 0,80 C0,124.18278 35.81722,160 80,160 Z" id="Oval" stroke="#06CCFF" stroke-linecap="round" stroke-dasharray="3,7"></path>
                            <g id="shop-(1)" transform="translate(47.000000, 40.000000)" fill="#FFFFFF" fill-rule="nonzero">
                                <path d="M33.8492839,31.3854981 L43.1826172,15.1689453 C43.8821615,13.7687174 44.3492839,12.2522786 44.3492839,10.7358399 L44.3492839,9.91894531 C44.2325033,4.31917325 39.4490559,-0.114501917 33.8492839,0.00227864583 C28.248942,-0.114501917 23.4654948,4.31917325 23.3492839,9.91894531 L23.3492839,10.7358399 C23.3492839,12.2522786 23.6990559,13.8854981 24.5159505,15.2857259 L33.8492839,31.3854981 Z M25.6826172,9.80216475 C25.7988281,5.48583992 29.5323893,2.10205071 33.8492839,2.21883142 C38.1656087,2.10205071 41.89917,5.48583992 42.0159505,9.80216475 L42.0159505,10.6190592 C42.0159505,11.7857259 41.7823892,12.9523925 41.1990559,14.0022786 L33.8492839,26.7188314 L26.498942,14.0022786 C25.9156087,12.9523925 25.6826172,11.7857259 25.6826172,10.6190592 L25.6826172,9.80216475 Z" id="Shape"></path>
                                <path d="M33.8492839,13.8854981 C36.4156087,13.8854981 38.5159505,11.7857259 38.5159505,9.21883142 C38.5159505,6.65250658 36.4156087,4.55216475 33.8492839,4.55216475 C31.2823893,4.55216475 29.1826172,6.65250658 29.1826172,9.21883142 C29.1826172,11.7857259 31.2823893,13.8854981 33.8492839,13.8854981 Z M33.8492839,6.88549808 C35.1321615,6.88549808 36.1826172,7.93538404 36.1826172,9.21883142 C36.1826172,10.5022786 35.1321615,11.5521647 33.8492839,11.5521647 C32.5658366,11.5521647 31.5159505,10.5022786 31.5159505,9.21883142 C31.5159505,7.93538404 32.5658366,6.88549808 33.8492839,6.88549808 Z" id="Shape"></path>
                                <path d="M61.8492839,20.6525066 L61.8492839,15.0521647 L45.5159505,15.0521647 L45.5159505,17.3854981 L59.5159505,17.3854981 L59.5159505,19.7188314 L43.1826172,19.7188314 L43.1826172,22.0521647 L59.9825033,22.0521647 L65.3492839,32.7857259 L65.3492839,33.7188314 L2.34928385,33.7188314 L2.34928385,32.7857259 L7.71549479,22.0521647 L24.5159505,22.0521647 L24.5159505,19.7188314 L8.18261719,19.7188314 L8.18261719,17.3854981 L22.1826172,17.3854981 L22.1826172,15.0521647 L5.84928385,15.0521647 L5.84928385,20.6525066 L0.0159505208,32.3191732 L0.0159505208,38.9688314 C0.0159505208,40.7188314 0.949055917,42.3520507 2.34928385,43.2857259 L2.34928385,69.8854981 L65.3492839,69.8854981 L65.3492839,43.2857259 C66.748942,42.3520507 67.6826172,40.7188314 67.6826172,38.9688314 L67.6826172,32.3191732 L61.8492839,20.6525066 Z M46.0992839,41.8854981 C44.4654948,41.8854981 43.1826172,40.6020507 43.1826172,38.9688314 L43.1826172,36.0521647 L49.0159505,36.0521647 L49.0159505,38.9688314 C49.0159505,40.6020507 47.7325033,41.8854981 46.0992839,41.8854981 Z M10.5159505,36.0521647 L16.3492839,36.0521647 L16.3492839,38.9688314 C16.3492839,40.6020507 15.0658366,41.8854981 13.4326172,41.8854981 C11.7988281,41.8854981 10.5159505,40.6020507 10.5159505,38.9688314 L10.5159505,36.0521647 Z M18.6826172,36.0521647 L24.5159505,36.0521647 L24.5159505,38.9688314 C24.5159505,40.6020507 23.2325033,41.8854981 21.5992839,41.8854981 C19.9654948,41.8854981 18.6826172,40.6020507 18.6826172,38.9688314 L18.6826172,36.0521647 Z M26.8492839,36.0521647 L32.6826172,36.0521647 L32.6826172,38.9688314 C32.6826172,40.6020507 31.39917,41.8854981 29.7659505,41.8854981 C28.1321615,41.8854981 26.8492839,40.6020507 26.8492839,38.9688314 L26.8492839,36.0521647 Z M35.0159505,36.0521647 L40.8492839,36.0521647 L40.8492839,38.9688314 C40.8492839,40.6020507 39.5658366,41.8854981 37.9326172,41.8854981 C36.2988281,41.8854981 35.0159505,40.6020507 35.0159505,38.9688314 L35.0159505,36.0521647 Z M51.3492839,36.0521647 L57.1826172,36.0521647 L57.1826172,38.9688314 C57.1826172,40.6020507 55.89917,41.8854981 54.2659505,41.8854981 C52.6321615,41.8854981 51.3492839,40.6020507 51.3492839,38.9688314 L51.3492839,36.0521647 Z M8.18261719,36.0521647 L8.18261719,38.9688314 C8.18261719,40.6020507 6.89916996,41.8854981 5.26595052,41.8854981 C3.63216146,41.8854981 2.34928385,40.6020507 2.34928385,38.9688314 L2.34928385,36.0521647 L8.18261719,36.0521647 Z M5.26595052,44.2188314 C6.89916996,44.2188314 8.41560869,43.5187174 9.34928385,42.2358399 C11.0992839,44.4523925 14.3657226,44.9189453 16.5822754,43.1689453 C16.9326172,42.935384 17.1656087,42.585612 17.5159505,42.2358399 C19.2659505,44.4523925 22.5323893,44.9189453 24.748942,43.1689453 C25.0992839,42.935384 25.3322754,42.585612 25.6826172,42.2358399 C27.4326172,44.4523925 30.6990559,44.9189453 32.9156087,43.1689453 C33.2659505,42.935384 33.498942,42.585612 33.8492839,42.2358399 C35.5992839,44.4523925 38.8657226,44.9189453 41.0822754,43.1689453 C41.4326172,42.935384 41.6656087,42.585612 42.0159505,42.2358399 C42.8322754,43.2857259 44.1157226,43.9858399 45.5159505,44.2188314 L45.5159505,62.8854981 L4.68261719,62.8854981 L4.68261719,44.1020507 C4.91560869,44.2188314 5.03238925,44.2188314 5.26595052,44.2188314 Z M4.68261719,65.2188314 L45.5159505,65.2188314 L45.5159505,67.5521647 L4.68261719,67.5521647 L4.68261719,65.2188314 Z M63.0159505,67.5521647 L47.8492839,67.5521647 L47.8492839,43.8690592 C48.7823893,43.5187174 49.5992839,42.935384 50.1826172,42.2358399 C51.9326172,44.4523925 55.1990559,44.9189453 57.4156087,43.1689453 C57.7659505,42.935384 57.998942,42.585612 58.3492839,42.2358399 C59.2823893,43.5187174 60.7988281,44.2188314 62.4326172,44.2188314 C62.6656087,44.2188314 62.7823893,44.2188314 63.0159505,44.1020507 L63.0159505,67.5521647 Z M65.3492839,38.9688314 C65.3492839,40.6020507 64.0658366,41.8854981 62.4326172,41.8854981 C60.7988281,41.8854981 59.5159505,40.6020507 59.5159505,38.9688314 L59.5159505,36.0521647 L65.3492839,36.0521647 L65.3492839,38.9688314 Z" id="Shape"></path>
                                <polygon id="Path" points="50.1826172 52.3854981 52.5159505 52.3854981 52.5159505 54.7188314 50.1826172 54.7188314"></polygon>
                                <path d="M43.1826172,46.5521648 L7.01595052,46.5521648 L7.01595052,59.3854981 L43.1826172,59.3854981 L43.1826172,46.5521648 Z M40.8492839,57.0521648 L9.34928385,57.0521648 L9.34928385,48.8854981 L40.8492839,48.8854981 L40.8492839,57.0521648 Z" id="Shape"></path>
                            </g>
                        </g>
                    </g>
                </g>
            </g>
        </g>
    </g>
</svg>