<?xml version="1.0" encoding="UTF-8"?>
<svg width="162px" height="162px" viewBox="0 0 162 162" version="1.1" xmlns="http://www.w3.org/2000/svg" xmlns:xlink="http://www.w3.org/1999/xlink">
    <!-- Generator: Sketch 60.1 (88133) - https://sketch.com -->
    <title>ecommerce_05</title>
    <desc>Created with Sketch.</desc>
    <g id="Page-1" stroke="none" stroke-width="1" fill="none" fill-rule="evenodd">
        <g id="11_Ecommerce" transform="translate(-947.000000, -1453.000000)">
            <g id="Group-16" transform="translate(108.000000, 1454.000000)">
                <g id="Group-3">
                    <g id="Group-15" transform="translate(19.000000, 0.000000)">
                        <g id="ecommerce_05" transform="translate(821.000000, 0.000000)">
                            <path d="M80,160 C124.18278,160 160,124.18278 160,80 C160,35.81722 124.18278,0 80,0 C35.81722,0 0,35.81722 0,80 C0,124.18278 35.81722,160 80,160 Z" id="Oval" stroke="#06CCFF" stroke-linecap="round" stroke-dasharray="3,7"></path>
                            <g id="wagon" transform="translate(44.000000, 60.000000)" fill="#FFFFFF" fill-rule="nonzero" stroke="#01044B" stroke-width="0.5">
                                <path d="M74.3186989,32.1 L72.7373995,32.1 L72.7373995,1.69995 C72.7373995,0.81555 72.030136,0.0999 71.1561001,0.0999 L4.74374989,0.0999 C3.86971397,0.0999 3.16245051,0.81555 3.16245051,1.69995 L3.16245051,32.1 L1.58129938,32.1 C0.70726346,32.1 0,32.81565 0,33.70005 C0,34.58445 0.70726346,35.3001 1.58129938,35.3001 L4.04211963,35.3001 C3.49747785,36.24525 3.16245051,37.32915 3.16245051,38.50005 C3.16245051,42.0297 5.9990647,44.9001 9.48749978,44.9001 C12.9759349,44.9001 15.812549,42.02985 15.812549,38.50005 C15.812549,37.32915 15.47767,36.2451 14.9328799,35.3001 L16.6920699,35.3001 C16.1474281,36.24525 15.8124008,37.32915 15.8124008,38.50005 C15.8124008,42.0297 18.649015,44.9001 22.1374501,44.9001 C25.6258851,44.9001 28.4624993,42.0297 28.4624993,38.50005 C28.4624993,37.32915 28.1276202,36.2451 27.5828302,35.3001 L27.8077136,35.3001 L30.5069073,38.0313 C30.8033917,38.3313 31.2048315,38.50005 31.6249499,38.50005 L44.2749001,38.50005 C44.6948703,38.50005 45.0964583,38.3313 45.3929427,38.0313 L48.0921364,35.3001 L48.3170198,35.3001 C47.772378,36.24525 47.4373507,37.32915 47.4373507,38.50005 C47.4373507,42.0297 50.2739649,44.9001 53.7623999,44.9001 C57.250835,44.9001 60.0874492,42.02985 60.0874492,38.50005 C60.0874492,37.32915 59.7525701,36.2451 59.2077801,35.3001 L60.9669701,35.3001 C60.4223283,36.24525 60.087301,37.32915 60.087301,38.50005 C60.087301,42.0297 62.9239151,44.9001 66.4123502,44.9001 C69.9007853,44.9001 72.7373995,42.02985 72.7373995,38.50005 C72.7373995,37.32915 72.4025204,36.2451 71.8577304,35.3001 L74.3185506,35.3001 C75.1925865,35.3001 75.89985,34.58445 75.89985,33.70005 C75.89985,32.81565 75.1927348,32.1 74.3186989,32.1 Z M9.48749978,41.7 C7.7441717,41.7 6.32504927,40.26405 6.32504927,38.50005 C6.32504927,36.73605 7.7441717,35.29995 9.48749978,35.29995 C11.2308279,35.29995 12.6499503,36.7359 12.6499503,38.4999 C12.6499503,40.2639 11.2308279,41.7 9.48749978,41.7 Z M22.1374501,41.7 C20.394122,41.7 18.9749996,40.26405 18.9749996,38.50005 C18.9749996,36.73605 20.394122,35.3001 22.1374501,35.3001 C23.8807782,35.3001 25.2999006,36.73605 25.2999006,38.50005 C25.2999006,40.26405 23.8809264,41.7 22.1374501,41.7 Z M25.3000488,32.1 L6.32504927,32.1 L6.32504927,3.3 L25.3000488,3.3 L25.3000488,32.1 Z M47.4374989,32.1 L28.4624993,32.1 L28.4624993,3.3 L47.4374989,3.3 L47.4374989,32.1 Z M53.7625482,41.7 C52.0192201,41.7 50.6000977,40.26405 50.6000977,38.50005 C50.6000977,36.73605 52.0192201,35.3001 53.7625482,35.3001 C55.5058763,35.3001 56.9249987,36.7359 56.9249987,38.50005 C56.9249987,40.2642 55.5058763,41.7 53.7625482,41.7 Z M66.4124985,41.7 C64.6691704,41.7 63.2500479,40.26405 63.2500479,38.50005 C63.2500479,36.73605 64.6691704,35.3001 66.4124985,35.3001 C68.1558265,35.3001 69.574949,36.73605 69.574949,38.50005 C69.574949,40.26405 68.1558265,41.7 66.4124985,41.7 Z M69.574949,32.1 L50.5999494,32.1 L50.5999494,3.3 L69.574949,3.3 L69.574949,32.1 Z" id="Shape"></path>
                                <path d="M11.0875474,9.70005 L20.0125526,9.70005 C20.8347687,9.70005 21.5001,8.9844 21.5001,8.1 C21.5001,7.2156 20.8347687,6.49995 20.0125526,6.49995 L11.0875474,6.49995 C10.2653313,6.49995 9.6,7.2156 9.6,8.1 C9.6,8.9844 10.2653313,9.70005 11.0875474,9.70005 Z" id="Path"></path>
                                <path d="M11.0875474,16.09995 L20.0125526,16.09995 C20.8347687,16.09995 21.5001,15.3843 21.5001,14.4999 C21.5001,13.6155 20.8347687,12.89985 20.0125526,12.89985 L11.0875474,12.89985 C10.2653313,12.9 9.6,13.61565 9.6,14.50005 C9.6,15.38445 10.2653313,16.09995 11.0875474,16.09995 Z" id="Path"></path>
                                <path d="M11.0875474,22.5 L20.0125526,22.5 C20.8347687,22.5 21.5001,21.78435 21.5001,20.89995 C21.5001,20.01555 20.8347687,19.2999 20.0125526,19.2999 L11.0875474,19.2999 C10.2653313,19.2999 9.6,20.01555 9.6,20.89995 C9.6,21.78435 10.2653313,22.5 11.0875474,22.5 Z" id="Path"></path>
                                <path d="M11.0875474,28.90005 L20.0125526,28.90005 C20.8347687,28.90005 21.5001,28.1844 21.5001,27.3 C21.5001,26.4156 20.8347687,25.69995 20.0125526,25.69995 L11.0875474,25.69995 C10.2653313,25.69995 9.6,26.4156 9.6,27.3 C9.6,28.1844 10.2653313,28.90005 11.0875474,28.90005 Z" id="Path"></path>
                                <path d="M33.4874974,9.70005 L42.4125026,9.70005 C43.2347187,9.70005 43.90005,8.9844 43.90005,8.1 C43.90005,7.2156 43.2347187,6.49995 42.4125026,6.49995 L33.4874974,6.49995 C32.6652813,6.49995 31.99995,7.2156 31.99995,8.1 C31.99995,8.9844 32.6652813,9.70005 33.4874974,9.70005 Z" id="Path"></path>
                                <path d="M33.4874974,16.09995 L42.4125026,16.09995 C43.2347187,16.09995 43.90005,15.3843 43.90005,14.4999 C43.90005,13.6155 43.2347187,12.89985 42.4125026,12.89985 L33.4874974,12.89985 C32.6652813,12.89985 31.99995,13.6155 31.99995,14.4999 C31.99995,15.38445 32.6652813,16.09995 33.4874974,16.09995 Z" id="Path"></path>
                                <path d="M33.4874974,22.5 L42.4125026,22.5 C43.2347187,22.5 43.90005,21.78435 43.90005,20.89995 C43.90005,20.01555 43.2347187,19.2999 42.4125026,19.2999 L33.4874974,19.2999 C32.6652813,19.2999 31.99995,20.01555 31.99995,20.89995 C31.99995,21.78435 32.6652813,22.5 33.4874974,22.5 Z" id="Path"></path>
                                <path d="M33.4874974,28.90005 L42.4125026,28.90005 C43.2347187,28.90005 43.90005,28.1844 43.90005,27.3 C43.90005,26.4156 43.2347187,25.69995 42.4125026,25.69995 L33.4874974,25.69995 C32.6652813,25.69995 31.99995,26.4156 31.99995,27.3 C31.99995,28.1844 32.6652813,28.90005 33.4874974,28.90005 Z" id="Path"></path>
                                <path d="M55.8874474,9.70005 L64.8124526,9.70005 C65.6346687,9.70005 66.3,8.9844 66.3,8.1 C66.3,7.2156 65.6346687,6.49995 64.8124526,6.49995 L55.8874474,6.49995 C55.0652313,6.49995 54.3999,7.2156 54.3999,8.1 C54.3999,8.9844 55.0653707,9.70005 55.8874474,9.70005 Z" id="Path"></path>
                                <path d="M55.8874474,16.09995 L64.8124526,16.09995 C65.6346687,16.09995 66.3,15.3843 66.3,14.4999 C66.3,13.6155 65.6346687,12.89985 64.8124526,12.89985 L55.8874474,12.89985 C55.0652313,12.89985 54.3999,13.6155 54.3999,14.4999 C54.4000395,15.38445 55.0653707,16.09995 55.8874474,16.09995 Z" id="Path"></path>
                                <path d="M55.8874474,22.5 L64.8124526,22.5 C65.6346687,22.5 66.3,21.78435 66.3,20.89995 C66.3,20.01555 65.6346687,19.2999 64.8124526,19.2999 L55.8874474,19.2999 C55.0652313,19.2999 54.3999,20.01555 54.3999,20.89995 C54.4000395,21.78435 55.0653707,22.5 55.8874474,22.5 Z" id="Path"></path>
                                <path d="M55.8874474,28.90005 L64.8124526,28.90005 C65.6346687,28.90005 66.3,28.1844 66.3,27.3 C66.3,26.4156 65.6346687,25.69995 64.8124526,25.69995 L55.8874474,25.69995 C55.0652313,25.69995 54.3999,26.4156 54.3999,27.3 C54.3999,28.1844 55.0653707,28.90005 55.8874474,28.90005 Z" id="Path"></path>
                            </g>
                        </g>
                    </g>
                </g>
            </g>
        </g>
    </g>
</svg>