<?xml version="1.0" encoding="UTF-8"?>
<svg width="162px" height="162px" viewBox="0 0 162 162" version="1.1" xmlns="http://www.w3.org/2000/svg" xmlns:xlink="http://www.w3.org/1999/xlink">
    <!-- Generator: Sketch 60.1 (88133) - https://sketch.com -->
    <title>ecommerce_04</title>
    <desc>Created with Sketch.</desc>
    <g id="Page-1" stroke="none" stroke-width="1" fill="none" fill-rule="evenodd">
        <g id="11_Ecommerce" transform="translate(-741.000000, -1453.000000)">
            <g id="Group-16" transform="translate(108.000000, 1454.000000)">
                <g id="Group-3">
                    <g id="Group-15" transform="translate(19.000000, 0.000000)">
                        <g id="ecommerce_04" transform="translate(615.000000, 0.000000)">
                            <path d="M80,160 C124.18278,160 160,124.18278 160,80 C160,35.81722 124.18278,0 80,0 C35.81722,0 0,35.81722 0,80 C0,124.18278 35.81722,160 80,160 Z" id="Oval" stroke="#06CCFF" stroke-linecap="round" stroke-dasharray="3,7"></path>
                            <g id="boat" transform="translate(82.666667, 76.500000) scale(-1, 1) translate(-82.666667, -76.500000) translate(43.166667, 39.000000)" fill="#FFFFFF" fill-rule="nonzero">
                                <path d="M12.47314,57.7682166 C10.6603392,57.7682166 9.19086433,59.2376915 9.19086433,61.0504923 C9.19086433,62.8632932 10.6603392,64.3327681 12.47314,64.3327681 C14.2859409,64.3327681 15.7554158,62.8632932 15.7554158,61.0504923 C15.7554158,59.2378556 14.2859409,57.7682166 12.47314,57.7682166 Z M12.47314,61.7069475 C12.1106127,61.7069475 11.8166849,61.4130197 11.8166849,61.0504923 C11.8166849,60.687965 12.1106127,60.3940372 12.47314,60.3940372 C12.8356674,60.3940372 13.1295952,60.687965 13.1295952,61.0504923 C13.1295952,61.4131838 12.8356674,61.7069475 12.47314,61.7069475 Z" id="Shape"></path>
                                <path d="M24.9457877,61.7069475 L23.6328775,61.7069475 C22.9078228,61.7069475 22.3199672,62.2948031 22.3199672,63.0198578 L22.3199672,64.3327681 C22.3199672,65.0578228 22.9078228,65.6456783 23.6328775,65.6456783 L24.9457877,65.6456783 C25.6708425,65.6456783 26.258698,65.0578228 26.258698,64.3327681 L26.258698,63.0198578 C26.258698,62.2948031 25.6708425,61.7069475 24.9457877,61.7069475 Z" id="Path"></path>
                                <path d="M31.5103392,61.7069475 L30.1974289,61.7069475 C29.4723742,61.7069475 28.8845186,62.2948031 28.8845186,63.0198578 L28.8845186,64.3327681 C28.8845186,65.0578228 29.4723742,65.6456783 30.1974289,65.6456783 L31.5103392,65.6456783 C32.2353939,65.6456783 32.8232495,65.0578228 32.8232495,64.3327681 L32.8232495,63.0198578 C32.8232495,62.2948031 32.2353939,61.7069475 31.5103392,61.7069475 Z" id="Path"></path>
                                <path d="M38.0748906,61.7069475 L36.7619803,61.7069475 C36.0369256,61.7069475 35.44907,62.2948031 35.44907,63.0198578 L35.44907,64.3327681 C35.44907,65.0578228 36.0369256,65.6456783 36.7619803,65.6456783 L38.0748906,65.6456783 C38.7999453,65.6456783 39.3878009,65.0578228 39.3878009,64.3327681 L39.3878009,63.0198578 C39.3878009,62.2948031 38.7999453,61.7069475 38.0748906,61.7069475 Z" id="Path"></path>
                                <rect id="Rectangle" x="13.1295952" y="35.4487418" width="2.62582057" height="5.25164114"></rect>
                                <rect id="Rectangle" x="18.3812363" y="35.4487418" width="2.62582057" height="5.25164114"></rect>
                                <rect id="Rectangle" x="23.6328775" y="35.4487418" width="2.62582057" height="5.25164114"></rect>
                                <rect id="Rectangle" x="28.8845186" y="35.4487418" width="2.62582057" height="5.25164114"></rect>
                                <rect id="Rectangle" x="26.258698" y="22.3196389" width="2.62582057" height="5.25164114"></rect>
                                <rect id="Rectangle" x="31.5103392" y="22.3196389" width="2.62582057" height="5.25164114"></rect>
                                <rect id="Rectangle" x="36.7619803" y="22.3196389" width="2.62582057" height="5.25164114"></rect>
                                <rect id="Rectangle" x="42.0136214" y="22.3196389" width="2.62582057" height="5.25164114"></rect>
                                <rect id="Rectangle" x="23.6328775" y="48.5778446" width="2.62582057" height="5.25164114"></rect>
                                <rect id="Rectangle" x="28.8845186" y="48.5778446" width="2.62582057" height="5.25164114"></rect>
                                <rect id="Rectangle" x="39.3878009" y="48.5778446" width="2.62582057" height="5.25164114"></rect>
                                <rect id="Rectangle" x="44.639442" y="48.5778446" width="2.62582057" height="5.25164114"></rect>
                                <rect id="Rectangle" x="49.8910832" y="48.5778446" width="2.62582057" height="5.25164114"></rect>
                                <rect id="Rectangle" x="55.1427243" y="48.5778446" width="2.62582057" height="5.25164114"></rect>
                                <rect id="Rectangle" x="39.3878009" y="35.4487418" width="2.62582057" height="5.25164114"></rect>
                                <rect id="Rectangle" x="44.639442" y="35.4487418" width="2.62582057" height="5.25164114"></rect>
                                <rect id="Rectangle" x="49.8910832" y="35.4487418" width="2.62582057" height="5.25164114"></rect>
                                <rect id="Rectangle" x="55.1427243" y="35.4487418" width="2.62582057" height="5.25164114"></rect>
                                <path d="M77.4621991,27.5712801 C78.1872538,27.5712801 78.7751094,26.9834245 78.7751094,26.2583698 L78.7751094,18.3809081 C78.7751094,17.6558534 78.1872538,17.0679978 77.4621991,17.0679978 L76.1492888,17.0679978 L76.1492888,0.000164113786 L73.5234683,0.000164113786 L73.5234683,17.0679978 L69.5847374,17.0679978 L69.5847374,2.62598468 L66.9589168,2.62598468 L66.9589168,17.0679978 L63.020186,17.0679978 L63.020186,10.5034464 L60.3943654,10.5034464 L60.3943654,17.0679978 L57.7685449,17.0679978 C57.0434902,17.0679978 56.4556346,17.6558534 56.4556346,18.3809081 L56.4556346,26.2583698 C56.4556346,26.9834245 57.0434902,27.5712801 57.7685449,27.5712801 L60.3943654,27.5712801 L60.3943654,30.1971007 L49.8910832,30.1971007 L49.8910832,18.3809081 C49.8910832,17.6558534 49.3032276,17.0679978 48.5781729,17.0679978 L22.3199672,17.0679978 C21.5949125,17.0679978 21.0070569,17.6558534 21.0070569,18.3809081 L21.0070569,30.1971007 L9.19086433,30.1971007 C8.46580963,30.1971007 7.87795405,30.7849562 7.87795405,31.5100109 L7.87795405,52.5165755 L1.31340263,52.5165755 C0.588347921,52.5164114 0,53.1039387 0,53.8291575 C0,53.9962254 0.0316739606,54.1616521 0.0937089716,54.3167396 L7.97117068,74.0103939 C8.17040481,74.5092998 8.6535558,74.8362145 9.19086433,74.8362145 L77.4621991,74.8362145 C78.1872538,74.8362145 78.7751094,74.2483589 78.7751094,73.5233042 L78.7751094,57.7683807 C78.7751094,57.043326 78.1872538,56.4554705 77.4621991,56.4554705 L74.8363786,56.4554705 L74.8363786,27.5714442 L77.4621991,27.5714442 L77.4621991,27.5712801 Z M60.3943654,32.8229212 L60.3943654,43.3262035 L36.7619803,43.3262035 L36.7619803,32.8229212 L60.3943654,32.8229212 L60.3943654,32.8229212 Z M60.3943654,45.9520241 L60.3943654,56.4553063 L36.7619803,56.4553063 L36.7619803,45.9520241 L60.3943654,45.9520241 Z M23.6328775,19.6938184 L47.2652626,19.6938184 L47.2652626,30.1971007 L23.6328775,30.1971007 L23.6328775,19.6938184 Z M10.5037746,32.8229212 L34.1361597,32.8229212 L34.1361597,43.3262035 L10.5037746,43.3262035 L10.5037746,32.8229212 Z M10.5037746,45.9520241 L34.1361597,45.9520241 L34.1361597,56.4553063 L23.0223742,56.4553063 L21.0070569,53.4356127 L21.0070569,48.5778446 L18.3812363,48.5778446 L18.3812363,52.5165755 L15.7554158,52.5165755 L15.7554158,48.5778446 L13.1295952,48.5778446 L13.1295952,52.5165755 L10.5037746,52.5165755 L10.5037746,45.9520241 Z M76.1492888,59.0811269 L76.1492888,72.2102298 L10.0797046,72.2102298 L3.25257112,55.1423961 L18.9917396,55.1423961 L21.2236871,58.4968818 C21.4680525,58.8631838 21.8796499,59.0824398 22.3199672,59.0811269 L76.1492888,59.0811269 Z M63.020186,56.4553063 L63.020186,27.5712801 L72.210558,27.5712801 L72.210558,56.4553063 L63.020186,56.4553063 Z M59.0814551,24.9454595 L59.0814551,23.6325492 L66.9589168,23.6325492 L66.9589168,21.0067287 L59.0814551,21.0067287 L59.0814551,19.6938184 L76.1492888,19.6938184 L76.1492888,24.9454595 L59.0814551,24.9454595 Z" id="Shape"></path>
                                <rect id="Rectangle" x="65.6460066" y="30.1971007" width="3.93873085" height="2.62582057"></rect>
                                <rect id="Rectangle" x="65.6460066" y="35.4487418" width="3.93873085" height="2.62582057"></rect>
                                <rect id="Rectangle" x="65.6460066" y="40.7003829" width="3.93873085" height="2.62582057"></rect>
                            </g>
                        </g>
                    </g>
                </g>
            </g>
        </g>
    </g>
</svg>