<?xml version="1.0" encoding="UTF-8"?>
<svg width="162px" height="162px" viewBox="0 0 162 162" version="1.1" xmlns="http://www.w3.org/2000/svg" xmlns:xlink="http://www.w3.org/1999/xlink">
    <!-- Generator: Sketch 60.1 (88133) - https://sketch.com -->
    <title>ecommerce_03</title>
    <desc>Created with Sketch.</desc>
    <g id="Page-1" stroke="none" stroke-width="1" fill="none" fill-rule="evenodd">
        <g id="11_Ecommerce" transform="translate(-536.000000, -1453.000000)">
            <g id="Group-16" transform="translate(108.000000, 1454.000000)">
                <g id="Group-3">
                    <g id="Group-15" transform="translate(19.000000, 0.000000)">
                        <g id="ecommerce_03" transform="translate(410.000000, 0.000000)">
                            <path d="M80,160 C124.18278,160 160,124.18278 160,80 C160,35.81722 124.18278,0 80,0 C35.81722,0 0,35.81722 0,80 C0,124.18278 35.81722,160 80,160 Z" id="Oval" stroke="#06CCFF" stroke-linecap="round" stroke-dasharray="3,7"></path>
                            <g id="container" transform="translate(45.000000, 41.000000)" fill="#FFFFFF" fill-rule="nonzero">
                                <path d="M71.25,6.25 L66.25,6.25 C66.25,5.55964406 65.6903559,5 65,5 L62.5,5 L62.5,2.5 L60,2.5 L60,5 L57.5,5 L57.5,0 L55,0 L55,5 L52.5,5 C51.8096441,5 51.25,5.55964406 51.25,6.25 L51.25,8.75 L16.25,8.75 L16.25,6.25 L13.75,6.25 L13.75,8.75 L11.25,8.75 L11.25,3.75 L8.75,3.75 L8.75,8.75 L5,8.75 C4.30964406,8.75 3.75,9.30964406 3.75,10 L3.75,15 C3.75,15.6903559 4.30964406,16.25 5,16.25 L8.75,16.25 L8.75,32.658125 C6.23422983,33.3076941 4.63522643,35.7759147 5.07073782,38.3374317 C5.5062492,40.8989487 7.83112278,42.7000283 10.420207,42.4816655 C13.0092913,42.2633027 14.9996644,40.0982762 15,37.5 L12.5,37.5 C12.5,38.8807119 11.3807119,40 10,40 C8.61928813,40 7.5,38.8807119 7.5,37.5 C7.5,36.1192881 8.61928813,35 10,35 C10.6903559,35 11.25,34.4403559 11.25,33.75 L11.25,16.25 L51.25,16.25 L51.25,18.75 C51.25,19.4403559 51.8096441,20 52.5,20 L53.75,20 L53.75,67.5 L47.5,67.5 C46.8096441,67.5 46.25,68.0596441 46.25,68.75 L46.25,73.75 C46.25,74.4403559 46.8096441,75 47.5,75 L70,75 C70.6903559,75 71.25,74.4403559 71.25,73.75 L71.25,68.75 C71.25,68.0596441 70.6903559,67.5 70,67.5 L63.75,67.5 L63.75,20 L65,20 C65.6903559,20 66.25,19.4403559 66.25,18.75 L66.25,18.34625 L71.7142187,16.160625 C72.1888093,15.9707981 72.5,15.5111462 72.5,15 L72.5,7.5 C72.5,6.80964406 71.9403559,6.25 71.25,6.25 Z M26.7678125,11.25 L33.2321875,11.25 L35.7321875,13.75 L29.2678125,13.75 L26.7678125,11.25 Z M25.7321875,13.75 L19.2678125,13.75 L16.7678125,11.25 L23.2321875,11.25 L25.7321875,13.75 Z M36.7678125,11.25 L43.2321875,11.25 L45.7321875,13.75 L39.2678125,13.75 L36.7678125,11.25 Z M6.25,13.75 L6.25,11.25 L8.75,11.25 L8.75,13.75 L6.25,13.75 Z M11.25,11.25 L13.2321875,11.25 L15.7321875,13.75 L11.25,13.75 L11.25,11.25 Z M49.2678125,13.75 L46.7678125,11.25 L51.25,11.25 L51.25,13.75 L49.2678125,13.75 Z M56.25,40.7321875 L56.25,34.2678125 L61.25,39.2678125 L61.25,45.7321875 L56.25,40.7321875 Z M61.25,49.2678125 L61.25,55.7321875 L56.25,50.7321875 L56.25,44.2678125 L61.25,49.2678125 Z M56.25,54.2678125 L61.25,59.2678125 L61.25,65.7321875 L56.25,60.7321875 L56.25,54.2678125 Z M61.25,35.7321875 L56.25,30.7321875 L56.25,24.2678125 L61.25,29.2678125 L61.25,35.7321875 Z M56.25,64.2678125 L59.4821875,67.5 L56.25,67.5 L56.25,64.2678125 Z M68.75,72.5 L48.75,72.5 L48.75,70 L68.75,70 L68.75,72.5 Z M61.25,25.7321875 L56.25,20.7321875 L56.25,20 L61.25,20 L61.25,25.7321875 Z M63.75,17.5 L53.75,17.5 L53.75,7.5 L63.75,7.5 L63.75,17.5 Z M70,14.1535937 L66.25,15.6535937 L66.25,8.75 L70,8.75 L70,14.1535937 Z" id="Shape"></path>
                                <polygon id="Path" points="5 65 7.5 65 7.5 70 5 70"></polygon>
                                <polygon id="Path" points="10 65 12.5 65 12.5 70 10 70"></polygon>
                                <polygon id="Path" points="15 65 17.5 65 17.5 70 15 70"></polygon>
                                <path d="M46.25,48.75 C46.25,48.0596441 45.6903559,47.5 45,47.5 L41.25,47.5 L41.25,36.25 C41.25,35.5596441 40.6903559,35 40,35 L20,35 C19.3096441,35 18.75,35.5596441 18.75,36.25 L18.75,47.5 L5,47.5 C4.30964406,47.5 3.75,48.0596441 3.75,48.75 L3.75,60 L1.25,60 C0.559644063,60 0,60.5596441 0,61.25 L0,73.75 C0,74.4403559 0.559644063,75 1.25,75 L41.25,75 C41.9403559,75 42.5,74.4403559 42.5,73.75 L42.5,62.5 L45,62.5 C45.6903559,62.5 46.25,61.9403559 46.25,61.25 L46.25,48.75 Z M21.25,37.5 L38.75,37.5 L38.75,47.5 L21.25,47.5 L21.25,37.5 Z M6.25,50 L23.75,50 L23.75,60 L6.25,60 L6.25,50 Z M2.5,62.5 L20,62.5 L20,72.5 L2.5,72.5 L2.5,62.5 Z M40,72.5 L22.5,72.5 L22.5,62.5 L40,62.5 L40,72.5 Z M43.75,60 L26.25,60 L26.25,50 L43.75,50 L43.75,60 Z" id="Shape"></path>
                                <polygon id="Path" points="28.75 52.5 31.25 52.5 31.25 57.5 28.75 57.5"></polygon>
                                <polygon id="Path" points="33.75 52.5 36.25 52.5 36.25 57.5 33.75 57.5"></polygon>
                                <polygon id="Path" points="38.75 52.5 41.25 52.5 41.25 57.5 38.75 57.5"></polygon>
                                <polygon id="Path" points="8.75 52.5 11.25 52.5 11.25 57.5 8.75 57.5"></polygon>
                                <polygon id="Path" points="13.75 52.5 16.25 52.5 16.25 57.5 13.75 57.5"></polygon>
                                <polygon id="Path" points="18.75 52.5 21.25 52.5 21.25 57.5 18.75 57.5"></polygon>
                                <polygon id="Path" points="23.75 40 26.25 40 26.25 45 23.75 45"></polygon>
                                <polygon id="Path" points="28.75 40 31.25 40 31.25 45 28.75 45"></polygon>
                                <polygon id="Path" points="33.75 40 36.25 40 36.25 45 33.75 45"></polygon>
                                <polygon id="Path" points="25 65 27.5 65 27.5 70 25 70"></polygon>
                                <polygon id="Path" points="30 65 32.5 65 32.5 70 30 70"></polygon>
                                <polygon id="Path" points="35 65 37.5 65 37.5 70 35 70"></polygon>
                            </g>
                        </g>
                    </g>
                </g>
            </g>
        </g>
    </g>
</svg>