<?xml version="1.0" encoding="UTF-8"?>
<svg width="27px" height="20px" viewBox="0 0 27 20" version="1.1" xmlns="http://www.w3.org/2000/svg" xmlns:xlink="http://www.w3.org/1999/xlink">
    <!-- Generator: Sketch 60.1 (88133) - https://sketch.com -->
    <title>email</title>
    <desc>Created with Sketch.</desc>
    <g id="Page-1" stroke="none" stroke-width="1" fill="none" fill-rule="evenodd">
        <g id="10_Blog_open" transform="translate(-779.000000, -1854.000000)" fill="#06CCFF">
            <g id="Group-7" transform="translate(642.000000, 1852.000000)">
                <path d="M163.775495,20.6805307 L155.187345,11.071619 L163.682383,3.63921744 L163.775495,20.6805307 Z M150.611942,12.8163139 L162.432512,2.47360224 C161.947442,2.20805522 139.275545,2.20805522 138.792437,2.47360224 L150.611942,12.8163139 Z M153.907427,12.1905939 L151.171289,14.5861789 C151.011244,14.7255953 150.811957,14.7952194 150.611942,14.7952194 C150.411815,14.7952194 150.212528,14.7255953 150.052483,14.5861789 L147.315728,12.1904817 L138.618937,21.9222167 L162.604891,21.9222167 L153.907427,12.1905939 Z M137.541557,3.63916138 C137.372764,3.90707227 137.31664,20.4426926 137.448557,20.6805868 L146.035699,11.0699933 L137.541557,3.63916138 Z" id="email"></path>
            </g>
        </g>
    </g>
</svg>