<?xml version="1.0" encoding="UTF-8"?>
<svg width="18px" height="13px" viewBox="0 0 18 13" version="1.1" xmlns="http://www.w3.org/2000/svg" xmlns:xlink="http://www.w3.org/1999/xlink">
    <!-- Generator: sketchtool 60.1 (101010) - https://sketch.com -->
    <title>0E9F33DB-06A1-482C-85C6-7626C35BED53</title>
    <desc>Created with sketchtool.</desc>
    <g id="Page-1" stroke="none" stroke-width="1" fill="none" fill-rule="evenodd">
        <g id="01_Freightol" transform="translate(-99.000000, -4409.000000)" fill="#01044B">
            <g id="Group-42" transform="translate(0.000000, 4175.000000)">
                <g id="Group-21" transform="translate(99.000000, 54.000000)">
                    <g id="Group-41" transform="translate(0.000000, 141.000000)">
                        <g id="Group-36" transform="translate(0.000000, 33.000000)">
                            <g id="email" transform="translate(0.000000, 6.000000)">
                                <path d="M17.3333452,10.8332738 C17.3333452,11.2132627 17.2264611,11.5655303 17.0552392,11.8754658 L11.5823917,5.75213242 L16.9959028,1.01579245 C17.2064918,1.34998406 17.3333452,1.74254757 17.3333452,2.16676193 L17.3333452,10.8332738 Z M8.66669049,6.86394914 L16.1994158,0.272997571 C15.890302,0.103776229 15.542214,0 15.1667262,0 L2.16665476,0 C1.7907026,0 1.44250745,0.103776229 1.13464392,0.272997571 L8.66669049,6.86394914 Z M10.766757,6.46520549 L9.02313774,7.99180563 C8.92114765,8.08064953 8.79415128,8.12501786 8.66669049,8.12501786 C8.53915825,8.12501786 8.41216188,8.08064953 8.31017182,7.99180563 L6.56615959,6.46513404 L1.02408026,12.6667372 C1.35627137,12.875147 1.74558405,13 2.16661904,13 L15.1667262,13 C15.5876897,13 15.9771811,12.875147 16.309265,12.6667372 L10.766757,6.46520549 Z M0.337513877,1.01575673 C0.12696066,1.34994834 0,1.74251184 0,2.16676193 L0,10.8333095 C0,11.2132984 0.106384031,11.565566 0.278248898,11.8755015 L5.75045341,5.75109644 L0.337513877,1.01575673 Z" id="Shape"></path>
                            </g>
                        </g>
                    </g>
                </g>
            </g>
        </g>
    </g>
</svg>