<?xml version="1.0" encoding="UTF-8"?>
<svg width="13px" height="25px" viewBox="0 0 13 25" version="1.1" xmlns="http://www.w3.org/2000/svg" xmlns:xlink="http://www.w3.org/1999/xlink">
    <!-- Generator: Sketch 60.1 (88133) - https://sketch.com -->
    <title>fb</title>
    <desc>Created with Sketch.</desc>
    <g id="Page-1" stroke="none" stroke-width="1" fill="none" fill-rule="evenodd">
        <g id="10_Blog_open" transform="translate(-642.000000, -1852.000000)" fill="#06CCFF">
            <g id="Group-7" transform="translate(642.000000, 1852.000000)">
                <path d="M0.396825,13.3151213 L3.09365125,13.3151213 L3.09365125,24.5967738 C3.09365125,24.8196575 3.2715275,25 3.49047625,25 L8.063195,25 C8.28254,25 8.46002,24.8196575 8.46002,24.5967738 L8.46002,13.3682462 L11.5602188,13.3682462 C11.7621038,13.3682462 11.9315475,13.214315 11.9547625,13.0110887 L12.425595,8.85756 C12.4383925,8.74334625 12.4027775,8.62883125 12.3275787,8.54294375 C12.2523812,8.45746 12.1442463,8.40826625 12.0314487,8.40826625 L8.46002,8.40826625 L8.46002,5.8046375 C8.46002,5.01985875 8.87629,4.62177375 9.69623,4.62177375 L12.0314487,4.62177375 C12.2503962,4.62177375 12.4282738,4.44143125 12.4282738,4.21854875 L12.4282738,0.40635125 C12.4282738,0.1834675 12.2503962,0.003125 12.0314487,0.003125 L8.8134925,0.003125 C8.790575,0.00201625 8.7402775,0 8.66617125,0 C8.1078375,0 6.16706375,0.11139125 4.6340275,1.544355 C2.93551625,3.13246 3.1715275,5.0340725 3.228075,5.36360875 L3.228075,8.40826625 L0.396825,8.40826625 C0.17748,8.40826625 0,8.58860875 0,8.8114925 L0,12.911895 C0,13.134375 0.17748,13.3151213 0.396825,13.3151213 Z" id="fb"></path>
            </g>
        </g>
    </g>
</svg>