<?xml version="1.0" encoding="UTF-8"?>
<svg width="101px" height="85px" viewBox="0 0 101 85" version="1.1" xmlns="http://www.w3.org/2000/svg" xmlns:xlink="http://www.w3.org/1999/xlink">
    <!-- Generator: Sketch 60.1 (88133) - https://sketch.com -->
    <title>ic_auto</title>
    <desc>Created with Sketch.</desc>
    <g id="Page-1" stroke="none" stroke-width="1" fill="none" fill-rule="evenodd">
        <g id="03_Terrestre" transform="translate(-670.000000, -1360.000000)">
            <g id="ic_auto" transform="translate(670.000000, 1360.000000)">
                <g id="car-(4)">
                    <path d="M38.6712677,0.378242397 C38.1528907,0.0844954464 37.5135591,0.0844954464 36.9951821,0.378242397 L1.05437876,20.353035 C0.501443324,20.6640612 0.172557075,21.2342759 0.172557075,21.8563283 L0.172557075,72.4326415 C0.155858676,73.36572 0.898865669,74.1265871 1.83194422,74.1265871 C1.84922345,74.1265871 1.86650268,74.1265871 1.86650268,74.1265871 L73.7999471,74.1265871 C74.7330257,74.1432855 75.4939693,73.4002785 75.4939693,72.4672 C75.4939693,72.4499207 75.4939693,72.4326415 75.4939693,72.4326415 L75.4939693,21.8736075 C75.5050505,21.4473864 63.2308167,14.2822647 38.6712677,0.378242397 Z M62.0327899,70.687439 L13.6509392,70.687439 L13.6509392,63.6029537 L62.0327899,63.6029537 L62.0327899,70.687439 Z M62.0327899,60.1471073 L13.6509392,60.1471073 L13.6509392,53.5809989 L62.0327899,53.5809989 L62.0327899,60.1471073 Z M62.0327899,50.1251525 L13.6509392,50.1251525 L13.6509392,43.5590442 L62.0327899,43.5590442 L62.0327899,50.1251525 Z M62.0327899,40.1031977 L13.6509392,40.1031977 L13.6509392,33.5370894 L62.0327899,33.5370894 L62.0327899,40.1031977 Z M72.0547447,70.687439 L65.4886364,70.687439 L65.4886364,31.8610038 C65.4886364,30.910646 64.7801878,30.0812429 63.8125508,30.0812429 L11.8711782,30.0812429 C10.9208205,30.0812429 10.1950927,30.910646 10.1950927,31.8610038 L10.1950927,70.687439 L3.62898439,70.687439 L3.62898439,22.875803 L37.8418645,3.85136811 L72.0547447,22.875803 L72.0547447,70.687439 Z" id="Shape" fill="#B2B2B2"></path>
                    <circle id="Oval" stroke="#B2B2B2" stroke-width="3" cx="37" cy="19" r="4"></circle>
                </g>
                <g id="Group-8" transform="translate(7.674419, 46.627907)">
                    <g id="car-(3)" transform="translate(0.000000, 0.436047)" fill="#B2B2B2">
                        <polygon id="Path" points="38.5080036 13.9416021 44.6690336 13.9416021 44.6690336 17.0227438 38.5080036 17.0227438"></polygon>
                        <path d="M91.0973764,9.33618525 L80.6342804,7.84199449 C78.7264294,6.66995719 76.7465013,5.62076459 74.7051509,4.70005732 C67.9637433,1.64649297 60.646972,0.0708235994 53.2455881,0.0789401322 L51.4279905,0.0789401322 C42.6934928,0.0852390705 34.098762,2.27701131 26.4272456,6.45435248 L21.1468106,9.33493182 C14.9657245,9.40450182 8.9037224,11.0484878 3.53366096,14.1095732 C1.35128997,15.3612086 0.00376054723,17.6833467 0,20.198526 L0,29.3448035 C0,30.1959407 0.689433659,30.8853745 1.54057077,30.8853745 L6.71257688,30.8853745 C8.39479485,35.6844595 13.6489061,38.2115472 18.4479911,36.5293291 C21.0897756,35.6036077 23.1662244,33.5265321 24.0919459,30.8853745 L65.2448677,30.8853745 C66.9270858,35.6844595 72.1811971,38.2115472 76.9802821,36.5293291 C79.6214397,35.6036077 81.6985153,33.5265321 82.6242367,30.8853745 L83.1770372,30.8853745 C83.3732124,30.8853745 83.5675072,30.8483957 83.7498938,30.7756918 L88.7388865,28.7738271 C90.9676375,27.891352 92.4273565,25.7340515 92.4192426,23.3379561 L92.4192426,10.8610871 C92.4192426,10.0951891 91.8557533,9.4452412 91.0973764,9.33618525 Z" id="Shape"></path>
                    </g>
                    <g id="Group-5" transform="translate(2.779797, 3.488372)" fill="#FFFFFF">
                        <g id="Group-2" transform="translate(0.300718, 0.107131)">
                            <path d="M46.2096043,24.6454032 L21.5642312,24.6454032 C21.5642312,19.5410871 17.4270026,15.4032315 12.3226865,15.4032315 C7.21837037,15.4032315 3.08051498,19.5410871 3.08051498,24.6454032 L4.54747351e-13,24.6454032 L4.54747351e-13,17.0390697 C0.00188031373,15.6282376 0.757750227,14.325208 1.98243519,13.6244928 C7.00903316,10.7545684 12.6962342,9.24408205 18.4837164,9.24220173 L46.2096043,9.24220173 L46.2096043,24.6454032 Z" id="Path"></path>
                            <path d="M46.2096043,6.16168675 L24.5250354,6.16168675 L24.8221187,5.99935642 C31.4074636,2.42056906 38.7223547,0.391753708 46.2096043,0.067719929 L46.2096043,6.16168675 Z" id="Path"></path>
                            <path d="M49.2901193,-5.77315973e-14 L50.1619394,-5.77315973e-14 C56.3693494,-0.00686413734 62.5203512,1.17144066 68.2858967,3.47226869 L65.5964788,6.16168675 L49.2901193,6.16168675 L49.2901193,-5.77315973e-14 Z" id="Path"></path>
                            <path d="M18.3589916,25.8776091 C17.6777057,29.2113342 14.4229521,31.3617405 11.089227,30.6804547 C7.7548751,29.9991688 5.60446881,26.7444153 6.28575465,23.4100634 C6.96766722,20.0763382 10.2224208,17.9259319 13.556146,18.6072178 C16.4248167,19.1932364 18.4843431,21.7171904 18.4837166,24.6454032 C18.4837166,25.0590634 18.4417236,25.4720967 18.3589916,25.8776091 Z" id="Path"></path>
                            <path d="M76.8912824,25.8776091 C76.2099965,29.2113342 72.955243,31.3617405 69.6208911,30.6804547 C66.2871659,29.9991688 64.1367598,26.7444153 64.8180455,23.4100634 C65.4993313,20.0763382 68.7547118,17.9259319 72.0884368,18.6072178 C74.9571077,19.1932364 77.016634,21.7171904 77.0160074,24.6454032 C77.0160074,25.0590634 76.9740144,25.4720967 76.8912824,25.8776091 Z" id="Path"></path>
                            <path d="M86.258194,10.7821458 L81.637093,10.7821458 L81.637093,13.8632875 L86.258194,13.8632875 L86.258194,20.1784998 C86.2619394,21.3135583 85.5699987,22.3351736 84.5145384,22.7519677 L80.0965222,24.5263191 C80.0965222,24.3846719 80.0783461,24.2442781 80.0689447,24.1026308 C80.0595435,23.9609836 80.0564097,23.7948928 80.0413675,23.6407103 C80.0256985,23.4865278 79.9949874,23.3323454 79.9705438,23.1787898 C79.9454735,23.0246072 79.9272975,22.8704249 79.8965864,22.7306578 C79.8658753,22.5902641 79.8207488,22.4348281 79.7806363,22.2881667 C79.7405238,22.1421322 79.7098125,21.9942173 79.6634325,21.8506898 C79.6176791,21.707789 79.5618976,21.570529 79.5098769,21.4301352 C79.457229,21.2903682 79.4095956,21.1455872 79.3556943,21.0064469 C79.3017931,20.8679335 79.2290893,20.7419552 79.1645332,20.6109628 C79.0999771,20.4799703 79.0366746,20.3364428 78.9645974,20.2041968 C78.8918935,20.0719509 78.8104149,19.9591346 78.7408449,19.8362899 C78.6719015,19.7128187 78.5872893,19.5724249 78.499543,19.4464466 C78.4111702,19.3198414 78.3296917,19.220187 78.2450794,19.106117 C78.160467,18.9920472 78.0645731,18.8579209 77.9661722,18.7394637 C77.8677711,18.6210065 77.7756378,18.5282464 77.6797439,18.4310988 C77.5844767,18.3345782 77.4779278,18.2035857 77.3720057,18.0957833 C77.2654568,17.987981 77.1607882,17.9027419 77.0548662,17.8074747 C76.9483174,17.7122075 76.8342474,17.5993911 76.7170438,17.4991099 C76.6004667,17.3994553 76.4813828,17.3223642 76.3648058,17.2346181 C76.247602,17.146872 76.1303984,17.0528582 76.0075537,16.9707531 C75.8840825,16.8892745 75.745569,16.8171973 75.6133231,16.7307048 C75.4804504,16.6442121 75.372648,16.5765223 75.2479233,16.5107127 C75.1231985,16.4442765 74.9677625,16.3747063 74.8261152,16.3070165 C74.684468,16.2393266 74.5735317,16.1791579 74.4425393,16.1240032 C74.311547,16.0682218 74.1341745,16.0099331 73.9806188,15.9547785 C73.8264363,15.898997 73.7261551,15.8557508 73.5951627,15.8143847 C73.4196705,15.7604836 73.239791,15.7216245 73.0605383,15.6771248 C72.9433345,15.6495473 72.831145,15.6125687 72.7126876,15.5881251 C72.5234068,15.5492661 72.3291118,15.5279564 72.1366971,15.4997523 C72.0226272,15.4847101 71.9135715,15.4596398 71.7995014,15.4489848 C71.4911366,15.4182737 71.1833984,15.4013514 70.8599914,15.4013514 C65.7575556,15.4063654 61.6228339,19.5410871 61.6178199,24.6435229 L49.290746,24.6435229 L49.290746,9.24157485 L66.2338915,9.24157485 C66.6425377,9.24157485 67.0342613,9.07924469 67.3225699,8.79030919 L71.316898,4.79598131 C72.9934751,5.5938442 74.6236723,6.48572053 76.1999684,7.46722344 C76.3817283,7.58066657 76.5847978,7.6552508 76.7972688,7.6859619 L86.258194,9.03662515 L86.258194,10.7821458 Z" id="Path"></path>
                        </g>
                    </g>
                </g>
            </g>
        </g>
    </g>
</svg>