<?xml version="1.0" encoding="UTF-8"?>
<svg width="95px" height="95px" viewBox="0 0 95 95" version="1.1" xmlns="http://www.w3.org/2000/svg" xmlns:xlink="http://www.w3.org/1999/xlink">
    <!-- Generator: Sketch 60.1 (88133) - https://sketch.com -->
    <title>ic_aduana</title>
    <desc>Created with Sketch.</desc>
    <g id="Page-1" stroke="none" stroke-width="1" fill="none" fill-rule="evenodd">
        <g id="06_Courier" transform="translate(-294.000000, -1776.000000)" fill="#B2B2B2">
            <g id="ic_aduana" transform="translate(294.000000, 1776.000000)">
                <path d="M93.4677419,45.9677419 L72.016129,45.9677419 L72.016129,39.8387097 C72.016129,39.0833065 71.4645161,38.4397581 70.7167742,38.3248387 L52.0967742,35.4595161 L52.0967742,32.8071774 C55.6562097,31.3607258 58.3775,28.2885484 59.3550806,24.516129 L59.7580645,24.516129 C62.2924194,24.516129 64.3548387,22.4537097 64.3548387,19.9193548 C64.3548387,17.385 62.2924194,15.3225806 59.7580645,15.3225806 L59.7580645,10.7258065 C59.7580645,4.81282258 54.9452419,0 49.0322581,0 L45.9677419,0 C40.0547581,0 35.2419355,4.81282258 35.2419355,10.7258065 L35.2419355,15.3225806 C32.7075806,15.3225806 30.6451613,17.385 30.6451613,19.9193548 C30.6451613,22.4537097 32.7075806,24.516129 35.2419355,24.516129 L35.6449194,24.516129 C36.6209677,28.2885484 39.3422581,31.3607258 42.9032258,32.8071774 L42.9032258,35.4595161 L24.2832258,38.3248387 C23.5354839,38.4397581 22.983871,39.0833065 22.983871,39.8387097 L22.983871,45.9677419 L1.53225806,45.9677419 C0.684919355,45.9677419 0,46.6526613 0,47.5 L0,53.6290323 C0,54.476371 0.684919355,55.1612903 1.53225806,55.1612903 L6.12903226,55.1612903 L6.12903226,93.4677419 C6.12903226,94.3150806 6.81395161,95 7.66129032,95 L87.3387097,95 C88.1860484,95 88.8709677,94.3150806 88.8709677,93.4677419 L88.8709677,55.1612903 L93.4677419,55.1612903 C94.3150806,55.1612903 95,54.476371 95,53.6290323 L95,47.5 C95,46.6526613 94.3150806,45.9677419 93.4677419,45.9677419 Z M61.2903226,19.9193548 C61.2903226,20.7651613 60.603871,21.4516129 59.7580645,21.4516129 L59.7580645,18.3870968 C60.603871,18.3870968 61.2903226,19.0735484 61.2903226,19.9193548 Z M45.9677419,3.06451613 L49.0322581,3.06451613 C52.9456452,3.06451613 56.1833065,6.0141129 56.6383871,9.80491935 L52.2070968,12.0205645 L48.348871,9.44943548 C48.0929839,9.27935484 47.7957258,9.19354839 47.5,9.19354839 C47.2042742,9.19354839 46.9070161,9.27935484 46.6495968,9.45096774 L42.791371,12.0220968 L38.3600806,9.80645161 C38.8166935,6.0141129 42.0543548,3.06451613 45.9677419,3.06451613 Z M33.7096774,19.9193548 C33.7096774,19.0735484 34.396129,18.3870968 35.2419355,18.3870968 L35.2419355,21.4516129 C34.396129,21.4516129 33.7096774,20.7651613 33.7096774,19.9193548 Z M38.3064516,21.4516129 L38.3064516,13.205 L42.2183065,15.1601613 C42.7101613,15.4037903 43.2970161,15.3685484 43.753629,15.0651613 L47.5,12.5675806 L51.246371,15.0651613 C51.5022581,15.2352419 51.7995161,15.3225806 52.0967742,15.3225806 C52.3296774,15.3225806 52.5656452,15.2689516 52.7816935,15.1616935 L56.6935484,13.205 L56.6935484,21.4516129 C56.6935484,26.5218548 52.5702419,30.6451613 47.5,30.6451613 C42.4297581,30.6451613 38.3064516,26.5218548 38.3064516,21.4516129 Z M47.5,33.7096774 C48.0194355,33.7096774 48.5296774,33.6667742 49.0322581,33.6039516 L49.0322581,35.8272581 L47.5,36.5933871 L45.9677419,35.8272581 L45.9677419,33.6039516 C46.4703226,33.6667742 46.9805645,33.7096774 47.5,33.7096774 Z M26.0483871,41.1533871 L44.1857258,38.3616129 L46.8150806,39.6762903 C47.0295968,39.7850806 47.2655645,39.8387097 47.5,39.8387097 C47.7344355,39.8387097 47.9704032,39.7850806 48.1849194,39.6778226 L50.8142742,38.3631452 L68.9516129,41.1533871 L68.9516129,45.9677419 L62.8225806,45.9677419 L62.8225806,42.9032258 L59.7580645,42.9032258 L59.7580645,45.9677419 L35.2419355,45.9677419 L35.2419355,42.9032258 L32.1774194,42.9032258 L32.1774194,45.9677419 L26.0483871,45.9677419 L26.0483871,41.1533871 Z M85.8064516,91.9354839 L9.19354839,91.9354839 L9.19354839,55.1612903 L85.8064516,55.1612903 L85.8064516,91.9354839 Z M91.9354839,52.0967742 L3.06451613,52.0967742 L3.06451613,49.0322581 L91.9354839,49.0322581 L91.9354839,52.0967742 Z" id="Shape"></path>
                <path d="M18.3870968,76.6129032 L76.6129032,76.6129032 C77.4602419,76.6129032 78.1451613,75.9279839 78.1451613,75.0806452 L78.1451613,62.8225806 C78.1451613,61.9752419 77.4602419,61.2903226 76.6129032,61.2903226 L18.3870968,61.2903226 C17.5397581,61.2903226 16.8548387,61.9752419 16.8548387,62.8225806 L16.8548387,75.0806452 C16.8548387,75.9279839 17.5397581,76.6129032 18.3870968,76.6129032 Z M19.9193548,64.3548387 L75.0806452,64.3548387 L75.0806452,73.5483871 L19.9193548,73.5483871 L19.9193548,64.3548387 Z" id="Shape"></path>
                <path d="M56.6935484,79.6774194 L38.3064516,79.6774194 C37.4591129,79.6774194 36.7741935,80.3623387 36.7741935,81.2096774 L36.7741935,87.3387097 C36.7741935,88.1860484 37.4591129,88.8709677 38.3064516,88.8709677 L56.6935484,88.8709677 C57.5408871,88.8709677 58.2258065,88.1860484 58.2258065,87.3387097 L58.2258065,81.2096774 C58.2258065,80.3623387 57.5408871,79.6774194 56.6935484,79.6774194 Z M55.1612903,85.8064516 L39.8387097,85.8064516 L39.8387097,82.7419355 L55.1612903,82.7419355 L55.1612903,85.8064516 Z" id="Shape"></path>
            </g>
        </g>
    </g>
</svg>