<?xml version="1.0" encoding="UTF-8"?>
<svg width="90px" height="90px" viewBox="0 0 90 90" version="1.1" xmlns="http://www.w3.org/2000/svg" xmlns:xlink="http://www.w3.org/1999/xlink">
    <!-- Generator: Sketch 60.1 (88133) - https://sketch.com -->
    <title>ic_conexion</title>
    <desc>Created with Sketch.</desc>
    <g id="Page-1" stroke="none" stroke-width="1" fill="none" fill-rule="evenodd">
        <g id="04_Aereo" transform="translate(-1065.000000, -1424.000000)" fill="#B2B2B2">
            <g id="ic_conexion" transform="translate(1065.000000, 1424.000000)">
                <path d="M72.5806452,33.3870968 C68.2998387,33.3870968 64.3804839,34.946129 61.3437097,37.5169355 L50.0037097,26.1769355 C52.3146774,23.4072581 53.7096774,19.8479032 53.7096774,15.9677419 C53.7096774,14.3404839 53.4614516,12.7712903 53.0070968,11.2906452 L69.0909677,8.81564516 C70.1129032,10.4864516 71.936129,11.6129032 74.0322581,11.6129032 C77.2345161,11.6129032 79.8387097,9.00870968 79.8387097,5.80645161 C79.8387097,2.60419355 77.2345161,0 74.0322581,0 C70.83,0 68.2258065,2.60419355 68.2258065,5.80645161 C68.2258065,5.87612903 68.2432258,5.94 68.246129,6.00967742 L51.8603226,8.53112903 C49.1806452,3.46354839 43.8619355,0 37.7419355,0 C28.9379032,0 21.7741935,7.16370968 21.7741935,15.9677419 C21.7741935,21.2501613 24.363871,25.9272581 28.3267742,28.8362903 L16.4583871,55.2106452 C7.3016129,55.7129032 0,63.3004839 0,72.5806452 C0,82.1859677 7.81403226,90 17.4193548,90 C27.0246774,90 34.8387097,82.1859677 34.8387097,72.5806452 C34.8387097,71.4687097 34.7225806,70.3829032 34.5222581,69.3275806 L57.6841935,59.7904839 C59.3346774,62.5151613 61.6993548,64.7564516 64.53,66.2385484 L57.2051613,78.4466129 C57.0091935,78.4262903 56.816129,78.3870968 56.6129032,78.3870968 C53.4106452,78.3870968 50.8064516,80.9912903 50.8064516,84.1935484 C50.8064516,87.3958065 53.4106452,90 56.6129032,90 C59.8151613,90 62.4193548,87.3958065 62.4193548,84.1935484 C62.4193548,82.2469355 61.4482258,80.531129 59.9748387,79.4772581 L67.2343548,67.3780645 C68.9196774,67.923871 70.7153226,68.2258065 72.5806452,68.2258065 C82.1859677,68.2258065 90,60.4117742 90,50.8064516 C90,41.201129 82.1859677,33.3870968 72.5806452,33.3870968 Z M74.0322581,2.90322581 C75.6333871,2.90322581 76.9354839,4.20532258 76.9354839,5.80645161 C76.9354839,7.40758065 75.6333871,8.70967742 74.0322581,8.70967742 C72.431129,8.70967742 71.1290323,7.40758065 71.1290323,5.80645161 C71.1290323,4.20532258 72.431129,2.90322581 74.0322581,2.90322581 Z M56.6129032,87.0967742 C55.0117742,87.0967742 53.7096774,85.7946774 53.7096774,84.1935484 C53.7096774,82.5924194 55.0117742,81.2903226 56.6129032,81.2903226 C58.2140323,81.2903226 59.516129,82.5924194 59.516129,84.1935484 C59.516129,85.7946774 58.2140323,87.0967742 56.6129032,87.0967742 Z M79.6775806,54.5240323 C79.7806452,53.298871 79.8387097,52.0533871 79.8387097,50.8064516 C79.8387097,49.5595161 79.7806452,48.3140323 79.6775806,47.088871 C84.303871,47.9743548 87.0967742,49.6030645 87.0967742,50.8064516 C87.0967742,52.0098387 84.303871,53.6385484 79.6775806,54.5240323 Z M72.5806452,65.3225806 C71.3772581,65.3225806 69.7485484,62.5296774 68.8630645,57.9033871 C70.0882258,58.0064516 71.3337097,58.0645161 72.5806452,58.0645161 C73.8275806,58.0645161 75.0730645,58.0064516 76.2982258,57.9033871 C75.4127419,62.5296774 73.7840323,65.3225806 72.5806452,65.3225806 Z M72.5806452,55.1612903 C71.1087097,55.1612903 69.7282258,55.0814516 68.4377419,54.9493548 C68.3056452,53.658871 68.2258065,52.2783871 68.2258065,50.8064516 C68.2258065,49.3345161 68.3056452,47.9540323 68.4377419,46.6635484 C69.7282258,46.5314516 71.1087097,46.4516129 72.5806452,46.4516129 C74.0525806,46.4516129 75.4330645,46.5314516 76.7235484,46.6635484 C76.8556452,47.9540323 76.9354839,49.3345161 76.9354839,50.8064516 C76.9354839,52.2783871 76.8556452,53.658871 76.7235484,54.9493548 C75.4330645,55.0814516 74.0525806,55.1612903 72.5806452,55.1612903 Z M58.0645161,50.8064516 C58.0645161,49.6030645 60.8574194,47.9743548 65.4837097,47.088871 C65.3806452,48.3140323 65.3225806,49.5595161 65.3225806,50.8064516 C65.3225806,52.0533871 65.3806452,53.298871 65.4837097,54.5240323 C60.8574194,53.6385484 58.0645161,52.0098387 58.0645161,50.8064516 Z M72.5806452,36.2903226 C73.7840323,36.2903226 75.4127419,39.0832258 76.2982258,43.7095161 C75.0730645,43.6064516 73.8275806,43.5483871 72.5806452,43.5483871 C71.3337097,43.5483871 70.0882258,43.6064516 68.8630645,43.7095161 C69.7485484,39.0832258 71.3772581,36.2903226 72.5806452,36.2903226 Z M86.3317742,46.1917742 C84.4606452,45.2206452 82.016129,44.5093548 79.3117742,44.073871 C78.8762903,41.3695161 78.1664516,38.9264516 77.193871,37.053871 C81.4891935,38.4996774 84.8874194,41.8979032 86.3317742,46.1917742 Z M67.9659677,37.0553226 C66.9948387,38.9264516 66.2835484,41.3709677 65.8480645,44.0753226 C63.1437097,44.5108065 60.7006452,45.2206452 58.8280645,46.1932258 C60.273871,41.8979032 63.6720968,38.4996774 67.9659677,37.0553226 L67.9659677,37.0553226 Z M34.1608065,23.0385484 C35.3453226,23.1575806 36.5487097,23.2258065 37.7419355,23.2258065 C38.9351613,23.2258065 40.1385484,23.1575806 41.3230645,23.0385484 C40.4230645,26.8185484 38.9104839,29.0322581 37.7419355,29.0322581 C36.5733871,29.0322581 35.0608065,26.8185484 34.1608065,23.0385484 Z M24.6774194,15.9677419 C24.6774194,14.7991935 26.891129,13.2866129 30.671129,12.3866129 C30.5520968,13.571129 30.483871,14.7745161 30.483871,15.9677419 C30.483871,17.1609677 30.5520968,18.3643548 30.671129,19.548871 C26.891129,18.648871 24.6774194,17.1362903 24.6774194,15.9677419 L24.6774194,15.9677419 Z M33.3870968,15.9677419 C33.3870968,14.4943548 33.4756452,13.1196774 33.6309677,11.8567742 C34.893871,11.7014516 36.2685484,11.6129032 37.7419355,11.6129032 C39.2153226,11.6129032 40.59,11.7014516 41.8529032,11.8567742 C42.0082258,13.1196774 42.0967742,14.4943548 42.0967742,15.9677419 C42.0967742,17.441129 42.0082258,18.8158065 41.8529032,20.0787097 C40.59,20.2340323 39.2153226,20.3225806 37.7419355,20.3225806 C36.2685484,20.3225806 34.893871,20.2340323 33.6309677,20.0787097 C33.4756452,18.8158065 33.3870968,17.441129 33.3870968,15.9677419 L33.3870968,15.9677419 Z M37.7419355,2.90322581 C38.9104839,2.90322581 40.4230645,5.11693548 41.3230645,8.89693548 C40.1385484,8.77790323 38.9351613,8.70967742 37.7419355,8.70967742 C36.5487097,8.70967742 35.3453226,8.77790323 34.1608065,8.89693548 C35.0608065,5.11693548 36.5733871,2.90322581 37.7419355,2.90322581 Z M50.8064516,15.9677419 C50.8064516,17.1362903 48.5927419,18.648871 44.8127419,19.548871 C44.9317742,18.3643548 45,17.1609677 45,15.9677419 C45,14.7745161 44.9317742,13.571129 44.8127419,12.3866129 C48.5927419,13.2866129 50.8064516,14.7991935 50.8064516,15.9677419 Z M44.3641935,22.59 C46.4298387,22.1820968 48.3314516,21.581129 49.8730645,20.7914516 C48.5448387,24.1185484 45.8927419,26.7706452 42.5656452,28.098871 C43.3553226,26.5572581 43.9562903,24.6556452 44.3641935,22.59 L44.3641935,22.59 Z M49.8730645,11.1440323 C48.3314516,10.3543548 46.4312903,9.7533871 44.3641935,9.34548387 C43.9562903,7.27983871 43.3553226,5.37822581 42.5656452,3.8366129 C45.8927419,5.16483871 48.5448387,7.81693548 49.8730645,11.1440323 Z M32.9182258,3.8366129 C32.1285484,5.37822581 31.5275806,7.2783871 31.1196774,9.34548387 C29.0540323,9.7533871 27.1524194,10.3543548 25.6108065,11.1440323 C26.9390323,7.81693548 29.591129,5.16483871 32.9182258,3.8366129 Z M25.6108065,20.7914516 C27.1524194,21.581129 29.0525806,22.1820968 31.1196774,22.59 C31.5275806,24.6556452 32.1285484,26.5572581 32.9182258,28.098871 C29.591129,26.7706452 26.9390323,24.1185484 25.6108065,20.7914516 L25.6108065,20.7914516 Z M24.5162903,76.2982258 C24.6193548,75.0730645 24.6774194,73.8275806 24.6774194,72.5806452 C24.6774194,71.3337097 24.6193548,70.0882258 24.5162903,68.8630645 C29.1425806,69.7485484 31.9354839,71.3772581 31.9354839,72.5806452 C31.9354839,73.7840323 29.1425806,75.4127419 24.5162903,76.2982258 Z M17.4193548,87.0967742 C16.2159677,87.0967742 14.5872581,84.303871 13.7017742,79.6775806 C14.9269355,79.7806452 16.1724194,79.8387097 17.4193548,79.8387097 C18.6662903,79.8387097 19.9117742,79.7806452 21.1369355,79.6775806 C20.2514516,84.303871 18.6227419,87.0967742 17.4193548,87.0967742 Z M17.4193548,76.9354839 C15.9474194,76.9354839 14.5669355,76.8556452 13.2764516,76.7235484 C13.1443548,75.4330645 13.0645161,74.0525806 13.0645161,72.5806452 C13.0645161,71.1087097 13.1443548,69.7282258 13.2764516,68.4377419 C14.5669355,68.3056452 15.9474194,68.2258065 17.4193548,68.2258065 C18.8912903,68.2258065 20.2717742,68.3056452 21.5622581,68.4377419 C21.6943548,69.7282258 21.7741935,71.1087097 21.7741935,72.5806452 C21.7741935,74.0525806 21.6943548,75.4330645 21.5622581,76.7235484 C20.2717742,76.8556452 18.8912903,76.9354839 17.4193548,76.9354839 Z M2.90322581,72.5806452 C2.90322581,71.3772581 5.69612903,69.7485484 10.3224194,68.8630645 C10.2193548,70.0882258 10.1612903,71.3337097 10.1612903,72.5806452 C10.1612903,73.8275806 10.2193548,75.0730645 10.3224194,76.2982258 C5.69612903,75.4127419 2.90322581,73.7840323 2.90322581,72.5806452 Z M17.4193548,58.0645161 C18.6227419,58.0645161 20.2514516,60.8574194 21.1369355,65.4837097 C19.9117742,65.3806452 18.6662903,65.3225806 17.4193548,65.3225806 C16.1724194,65.3225806 14.9269355,65.3806452 13.7017742,65.4837097 C14.5872581,60.8574194 16.2159677,58.0645161 17.4193548,58.0645161 Z M24.1519355,65.8480645 C23.7164516,63.1437097 23.0066129,60.7006452 22.0340323,58.8280645 C26.3293548,60.273871 29.726129,63.6706452 31.1719355,67.9659677 C29.2993548,66.9948387 26.8548387,66.285 24.1519355,65.8480645 Z M12.8046774,58.8295161 C11.8335484,60.7006452 11.1222581,63.1451613 10.6867742,65.8495161 C7.98241935,66.285 5.53935484,66.9948387 3.66677419,67.9674194 C5.11258065,63.6720968 8.51080645,60.273871 12.8046774,58.8295161 Z M3.66822581,77.1953226 C5.53935484,78.1664516 7.98387097,78.8777419 10.6882258,79.3132258 C11.1237097,82.0175806 11.8335484,84.4606452 12.806129,86.3332258 C8.51080645,84.8874194 5.11258065,81.4891935 3.66822581,77.1953226 Z M22.0340323,86.3317742 C23.0051613,84.4606452 23.7164516,82.016129 24.1519355,79.3117742 C26.8562903,78.8762903 29.2993548,78.1664516 31.1719355,77.193871 C29.726129,81.4891935 26.3279032,84.8874194 22.0340323,86.3317742 L22.0340323,86.3317742 Z M33.7267742,66.5158065 C31.5,60.551129 26.1087097,56.1309677 19.5953226,55.3122581 L30.8322581,30.3416129 C32.9269355,31.3519355 35.2654839,31.9354839 37.7419355,31.9354839 C41.6220968,31.9354839 45.1814516,30.5404839 47.9525806,28.2309677 L59.2925806,39.5709677 C56.7203226,42.6062903 55.1612903,46.5256452 55.1612903,50.8064516 C55.1612903,53.0593548 55.6054839,55.2062903 56.3879032,57.1848387 L33.7267742,66.5158065 Z M58.8295161,55.421129 C60.7006452,56.3922581 63.1451613,57.1035484 65.8495161,57.5390323 C66.285,60.2433871 66.9948387,62.6864516 67.9674194,64.5590323 C63.6720968,63.1132258 60.273871,59.715 58.8295161,55.421129 Z M77.1953226,64.5575806 C78.1664516,62.6864516 78.8777419,60.2419355 79.3132258,57.5375806 C82.0175806,57.1020968 84.4606452,56.3922581 86.3332258,55.4196774 C84.8874194,59.715 81.4891935,63.1132258 77.1953226,64.5575806 Z" id="Shape"></path>
            </g>
        </g>
    </g>
</svg>