<?xml version="1.0" encoding="UTF-8"?>
<svg width="95px" height="95px" viewBox="0 0 95 95" version="1.1" xmlns="http://www.w3.org/2000/svg" xmlns:xlink="http://www.w3.org/1999/xlink">
    <!-- Generator: Sketch 60.1 (88133) - https://sketch.com -->
    <title>ic_cargas</title>
    <desc>Created with Sketch.</desc>
    <g id="Page-1" stroke="none" stroke-width="1" fill="none" fill-rule="evenodd">
        <g id="03_Terrestre" transform="translate(-673.000000, -1747.000000)" fill="#B2B2B2">
            <g id="ic_cargas" transform="translate(673.000000, 1747.000000)">
                <path d="M47.5,22.983871 C48.3458065,22.983871 49.0322581,22.2989516 49.0322581,21.4516129 L49.0322581,16.8548387 C49.3632258,16.8548387 49.6865323,16.7475806 49.9516129,16.5483871 L56.0806452,11.9516129 C56.4667742,11.6620161 56.6935484,11.2069355 56.6935484,10.7258065 L56.6935484,9.19354839 L93.4677419,9.19354839 C94.3135484,9.19354839 95,8.50862903 95,7.66129032 L95,1.53225806 C95,0.684919355 94.3135484,0 93.4677419,0 L55.1612903,0 L39.8387097,0 L1.53225806,0 C0.686451613,0 0,0.684919355 0,1.53225806 L0,7.66129032 C0,8.50862903 0.686451613,9.19354839 1.53225806,9.19354839 L38.3064516,9.19354839 L38.3064516,10.7258065 C38.3064516,11.2069355 38.5332258,11.6620161 38.9193548,11.9516129 L45.0483871,16.5483871 C45.3134677,16.7475806 45.6367742,16.8548387 45.9677419,16.8548387 L45.9677419,20.1139516 C43.3276613,20.7942742 41.3709677,23.1983871 41.3709677,26.0483871 C41.3709677,26.1954839 41.4046774,26.3333871 41.413871,26.4774194 L11.8872581,36.8109677 C8.68330645,37.0070968 6.12903226,39.6502419 6.12903226,42.9032258 L6.12903226,45.9677419 L1.53225806,45.9677419 C0.686451613,45.9677419 0,46.6526613 0,47.5 L0,53.6290323 C0,54.476371 0.686451613,55.1612903 1.53225806,55.1612903 L3.06451613,55.1612903 L3.06451613,85.8064516 L1.53225806,85.8064516 C0.686451613,85.8064516 0,86.491371 0,87.3387097 L0,93.4677419 C0,94.3150806 0.686451613,95 1.53225806,95 L93.4677419,95 C94.3135484,95 95,94.3150806 95,93.4677419 L95,87.3387097 C95,86.491371 94.3135484,85.8064516 93.4677419,85.8064516 L91.9354839,85.8064516 L91.9354839,55.1612903 L93.4677419,55.1612903 C94.3135484,55.1612903 95,54.476371 95,53.6290323 L95,47.5 C95,46.6526613 94.3135484,45.9677419 93.4677419,45.9677419 L88.8709677,45.9677419 L88.8709677,42.9032258 C88.8709677,39.6502419 86.3166935,37.0070968 83.1112097,36.8109677 L53.5845968,26.4774194 C53.5953226,26.3333871 53.6290323,26.1954839 53.6290323,26.0483871 L53.6290323,24.516129 L50.5645161,24.516129 L50.5645161,26.0483871 C50.5645161,27.7384677 49.1900806,29.1129032 47.5,29.1129032 C45.8099194,29.1129032 44.4354839,27.7384677 44.4354839,26.0483871 C44.4354839,24.3583065 45.8099194,22.983871 47.5,22.983871 Z M17.4891935,3.06451613 L20.8172581,3.06451613 L23.8817742,6.12903226 L20.5537097,6.12903226 L17.4891935,3.06451613 Z M16.2204839,6.12903226 L12.8924194,6.12903226 L9.82790323,3.06451613 L13.1559677,3.06451613 L16.2204839,6.12903226 Z M25.1504839,3.06451613 L28.4785484,3.06451613 L31.5430645,6.12903226 L28.215,6.12903226 L25.1504839,3.06451613 Z M3.06451613,3.06451613 L5.49467742,3.06451613 L8.55919355,6.12903226 L3.06451613,6.12903226 L3.06451613,3.06451613 Z M35.8762903,6.12903226 L32.8117742,3.06451613 L38.3064516,3.06451613 L38.3064516,6.12903226 L35.8762903,6.12903226 Z M77.5108065,6.12903226 L74.1827419,6.12903226 L71.1182258,3.06451613 L74.4462903,3.06451613 L77.5108065,6.12903226 Z M78.7795161,3.06451613 L82.1075806,3.06451613 L85.1720968,6.12903226 L81.8440323,6.12903226 L78.7795161,3.06451613 Z M69.8495161,6.12903226 L66.5214516,6.12903226 L63.4569355,3.06451613 L66.785,3.06451613 L69.8495161,6.12903226 Z M62.1882258,6.12903226 L56.6935484,6.12903226 L56.6935484,3.06451613 L59.1237097,3.06451613 L62.1882258,6.12903226 Z M91.9354839,6.12903226 L89.5053226,6.12903226 L86.4408065,3.06451613 L91.9354839,3.06451613 L91.9354839,6.12903226 Z M45.9677419,3.06451613 L49.0322581,3.06451613 L49.0322581,4.59677419 C49.0322581,5.44258065 48.3442742,6.12903226 47.5,6.12903226 C46.6557258,6.12903226 45.9677419,5.44258065 45.9677419,4.59677419 L45.9677419,3.06451613 Z M41.3709677,9.95967742 L41.3709677,3.06451613 L42.9032258,3.06451613 L42.9032258,4.59677419 C42.9032258,7.13112903 44.9656452,9.19354839 47.5,9.19354839 C50.0343548,9.19354839 52.0967742,7.13112903 52.0967742,4.59677419 L52.0967742,3.06451613 L53.6290323,3.06451613 L53.6290323,9.95967742 L48.5220161,13.7903226 L46.4795161,13.7903226 L41.3709677,9.95967742 Z M9.19354839,42.9032258 C9.19354839,41.2131452 10.5679839,39.8387097 12.2580645,39.8387097 C13.9481452,39.8387097 15.3225806,41.2131452 15.3225806,42.9032258 L15.3225806,45.9677419 L9.19354839,45.9677419 L9.19354839,42.9032258 Z M91.9354839,91.9354839 L3.06451613,91.9354839 L3.06451613,88.8709677 L91.9354839,88.8709677 L91.9354839,91.9354839 Z M88.8709677,85.8064516 L6.12903226,85.8064516 L6.12903226,55.1612903 L88.8709677,55.1612903 L88.8709677,85.8064516 Z M91.9354839,52.0967742 L3.06451613,52.0967742 L3.06451613,49.0322581 L91.9354839,49.0322581 L91.9354839,52.0967742 Z M85.8064516,42.9032258 L85.8064516,45.9677419 L79.6774194,45.9677419 L79.6774194,42.9032258 C79.6774194,41.2131452 81.0518548,39.8387097 82.7419355,39.8387097 C84.4320161,39.8387097 85.8064516,41.2131452 85.8064516,42.9032258 Z M47.5,32.1774194 C49.6451613,32.1774194 51.531371,31.065 52.6254032,29.3902419 L78.5420161,38.4612097 C77.3606452,39.5797581 76.6129032,41.1518548 76.6129032,42.9032258 L76.6129032,45.9677419 L18.3870968,45.9677419 L18.3870968,42.9032258 C18.3870968,41.1518548 17.6393548,39.5797581 16.4564516,38.4612097 L42.3730645,29.3902419 C43.468629,31.065 45.3548387,32.1774194 47.5,32.1774194 L47.5,32.1774194 Z" id="Shape"></path>
                <polygon id="Path" points="81.2096774 41.3709677 84.2741935 41.3709677 84.2741935 44.4354839 81.2096774 44.4354839"></polygon>
                <polygon id="Path" points="10.7258065 41.3709677 13.7903226 41.3709677 13.7903226 44.4354839 10.7258065 44.4354839"></polygon>
                <path d="M10.7258065,84.2741935 L84.2741935,84.2741935 C85.12,84.2741935 85.8064516,83.5892742 85.8064516,82.7419355 L85.8064516,58.2258065 C85.8064516,57.3784677 85.12,56.6935484 84.2741935,56.6935484 L10.7258065,56.6935484 C9.88,56.6935484 9.19354839,57.3784677 9.19354839,58.2258065 L9.19354839,82.7419355 C9.19354839,83.5892742 9.88,84.2741935 10.7258065,84.2741935 Z M70.483871,81.2096774 L67.4193548,81.2096774 L67.4193548,59.7580645 L70.483871,59.7580645 L70.483871,81.2096774 Z M73.5483871,59.7580645 L76.6129032,59.7580645 L76.6129032,81.2096774 L73.5483871,81.2096774 L73.5483871,59.7580645 Z M64.3548387,81.2096774 L61.2903226,81.2096774 L61.2903226,59.7580645 L64.3548387,59.7580645 L64.3548387,81.2096774 Z M58.2258065,81.2096774 L55.1612903,81.2096774 L55.1612903,59.7580645 L58.2258065,59.7580645 L58.2258065,81.2096774 Z M52.0967742,81.2096774 L49.0322581,81.2096774 L49.0322581,59.7580645 L52.0967742,59.7580645 L52.0967742,81.2096774 Z M45.9677419,81.2096774 L42.9032258,81.2096774 L42.9032258,59.7580645 L45.9677419,59.7580645 L45.9677419,81.2096774 Z M39.8387097,81.2096774 L36.7741935,81.2096774 L36.7741935,59.7580645 L39.8387097,59.7580645 L39.8387097,81.2096774 Z M33.7096774,81.2096774 L30.6451613,81.2096774 L30.6451613,59.7580645 L33.7096774,59.7580645 L33.7096774,81.2096774 Z M27.5806452,81.2096774 L24.516129,81.2096774 L24.516129,59.7580645 L27.5806452,59.7580645 L27.5806452,81.2096774 Z M21.4516129,81.2096774 L18.3870968,81.2096774 L18.3870968,59.7580645 L21.4516129,59.7580645 L21.4516129,81.2096774 Z M82.7419355,81.2096774 L79.6774194,81.2096774 L79.6774194,59.7580645 L82.7419355,59.7580645 L82.7419355,81.2096774 Z M12.2580645,59.7580645 L15.3225806,59.7580645 L15.3225806,81.2096774 L12.2580645,81.2096774 L12.2580645,59.7580645 Z" id="Shape"></path>
            </g>
        </g>
    </g>
</svg>