<?xml version="1.0" encoding="UTF-8"?>
<svg width="90px" height="90px" viewBox="0 0 90 90" version="1.1" xmlns="http://www.w3.org/2000/svg" xmlns:xlink="http://www.w3.org/1999/xlink">
    <!-- Generator: Sketch 60.1 (88133) - https://sketch.com -->
    <title>ic_clase</title>
    <desc>Created with Sketch.</desc>
    <g id="Page-1" stroke="none" stroke-width="1" fill="none" fill-rule="evenodd">
        <g id="04_Aereo" transform="translate(-1064.000000, -1774.000000)" fill="#B2B2B2">
            <g id="ic_clase" transform="translate(1064.000000, 1774.000000)">
                <path d="M88.5483871,17.4193548 L85.571129,17.4193548 C84.8264516,7.69209677 76.6901613,0 66.7741935,0 C56.8582258,0 48.7219355,7.69209677 47.9772581,17.4193548 L1.4516129,17.4193548 C0.650322581,17.4193548 0,18.0696774 0,18.8709677 L0,88.5483871 C0,89.3496774 0.650322581,90 1.4516129,90 L88.5483871,90 C89.3496774,90 90,89.3496774 90,88.5483871 L90,18.8709677 C90,18.0696774 89.3496774,17.4193548 88.5483871,17.4193548 Z M66.7741935,2.90322581 C75.5782258,2.90322581 82.7419355,10.0669355 82.7419355,18.8709677 C82.7419355,27.675 75.5782258,34.8387097 66.7741935,34.8387097 C57.9701613,34.8387097 50.8064516,27.675 50.8064516,18.8709677 C50.8064516,10.0669355 57.9701613,2.90322581 66.7741935,2.90322581 Z M55.1612903,33.7151613 L55.1612903,47.9032258 C55.1612903,48.4475806 55.4646774,48.9454839 55.9480645,49.1937097 C56.4314516,49.4433871 57.0135484,49.3998387 57.4562903,49.0848387 L66.7741935,42.4291935 L76.0920968,49.0848387 C76.3432258,49.2633871 76.6379032,49.3548387 76.9354839,49.3548387 C77.1619355,49.3548387 77.3898387,49.301129 77.6003226,49.1937097 C78.0837097,48.9454839 78.3870968,48.4475806 78.3870968,47.9032258 L78.3870968,33.7151613 C79.4496774,32.8819355 80.4280645,31.95 81.2903226,30.9120968 L81.2903226,81.2903226 L8.70967742,81.2903226 L8.70967742,26.1290323 L49.3591935,26.1290323 C50.6148387,29.1324194 52.6340323,31.7322581 55.1612903,33.7151613 Z M58.0645161,35.595 C60.6730645,36.9595161 63.6314516,37.7419355 66.7741935,37.7419355 C69.9169355,37.7419355 72.8753226,36.9595161 75.483871,35.595 L75.483871,45.0827419 L67.6175806,39.4635484 C67.1124194,39.1035484 66.4359677,39.1035484 65.9308065,39.4635484 L58.0645161,45.0827419 L58.0645161,35.595 Z M87.0967742,87.0967742 L2.90322581,87.0967742 L2.90322581,20.3225806 L47.9772581,20.3225806 C48.0527419,21.3140323 48.2066129,22.2822581 48.4316129,23.2258065 L7.25806452,23.2258065 C6.45677419,23.2258065 5.80645161,23.876129 5.80645161,24.6774194 L5.80645161,82.7419355 C5.80645161,83.5432258 6.45677419,84.1935484 7.25806452,84.1935484 L82.7419355,84.1935484 C83.5432258,84.1935484 84.1935484,83.5432258 84.1935484,82.7419355 L84.1935484,26.1290323 L84.1891935,26.1290323 C84.9454839,24.318871 85.4143548,22.365 85.571129,20.3225806 L87.0967742,20.3225806 L87.0967742,87.0967742 Z" id="Shape"></path>
                <path d="M66.7741935,31.9354839 C73.9770968,31.9354839 79.8387097,26.073871 79.8387097,18.8709677 C79.8387097,11.6680645 73.9770968,5.80645161 66.7741935,5.80645161 C59.5712903,5.80645161 53.7096774,11.6680645 53.7096774,18.8709677 C53.7096774,26.073871 59.5712903,31.9354839 66.7741935,31.9354839 Z M66.7741935,8.70967742 C72.3774194,8.70967742 76.9354839,13.2677419 76.9354839,18.8709677 C76.9354839,24.4741935 72.3774194,29.0322581 66.7741935,29.0322581 C61.1709677,29.0322581 56.6129032,24.4741935 56.6129032,18.8709677 C56.6129032,13.2677419 61.1709677,8.70967742 66.7741935,8.70967742 Z" id="Shape"></path>
                <path d="M65.3225806,15.7775806 L65.3225806,26.1290323 L68.2258065,26.1290323 L68.2258065,13.0645161 C68.2258065,12.528871 67.931129,12.0367742 67.4593548,11.7841935 C66.9875806,11.5301613 66.4141935,11.5591935 65.97,11.8567742 L61.6151613,14.76 L63.225,17.1754839 L65.3225806,15.7775806 Z" id="Path"></path>
                <path d="M72.5806452,66.7741935 L17.4193548,66.7741935 C16.6180645,66.7741935 15.9677419,67.4245161 15.9677419,68.2258065 L15.9677419,74.0322581 C15.9677419,74.8335484 16.6180645,75.483871 17.4193548,75.483871 L72.5806452,75.483871 C73.3819355,75.483871 74.0322581,74.8335484 74.0322581,74.0322581 L74.0322581,68.2258065 C74.0322581,67.4245161 73.3819355,66.7741935 72.5806452,66.7741935 Z M71.1290323,72.5806452 L18.8709677,72.5806452 L18.8709677,69.6774194 L71.1290323,69.6774194 L71.1290323,72.5806452 Z" id="Shape"></path>
                <polygon id="Path" points="15.9677419 56.6129032 40.6451613 56.6129032 40.6451613 59.516129 15.9677419 59.516129"></polygon>
                <polygon id="Path" points="49.3548387 56.6129032 74.0322581 56.6129032 74.0322581 59.516129 49.3548387 59.516129"></polygon>
                <path d="M14.516129,43.5483871 L43.5483871,43.5483871 C44.3496774,43.5483871 45,42.8980645 45,42.0967742 L45,36.2903226 C45,35.4890323 44.3496774,34.8387097 43.5483871,34.8387097 L36.1437097,34.8387097 C35.4701613,31.5304839 32.5364516,29.0322581 29.0322581,29.0322581 C25.5280645,29.0322581 22.5943548,31.5304839 21.9208065,34.8387097 L14.516129,34.8387097 C13.7148387,34.8387097 13.0645161,35.4890323 13.0645161,36.2903226 L13.0645161,42.0967742 C13.0645161,42.8980645 13.7148387,43.5483871 14.516129,43.5483871 Z M15.9677419,37.7419355 L23.2258065,37.7419355 C24.0270968,37.7419355 24.6774194,37.0916129 24.6774194,36.2903226 C24.6774194,33.8893548 26.6312903,31.9354839 29.0322581,31.9354839 C31.4332258,31.9354839 33.3870968,33.8893548 33.3870968,36.2903226 C33.3870968,37.0916129 34.0374194,37.7419355 34.8387097,37.7419355 L42.0967742,37.7419355 L42.0967742,40.6451613 L15.9677419,40.6451613 L15.9677419,37.7419355 Z" id="Shape"></path>
            </g>
        </g>
    </g>
</svg>