<?xml version="1.0" encoding="UTF-8"?>
<svg width="95px" height="95px" viewBox="0 0 95 95" version="1.1" xmlns="http://www.w3.org/2000/svg" xmlns:xlink="http://www.w3.org/1999/xlink">
    <!-- Generator: Sketch 60.1 (88133) - https://sketch.com -->
    <title>ic_costes</title>
    <desc>Created with Sketch.</desc>
    <g id="Page-1" stroke="none" stroke-width="1" fill="none" fill-rule="evenodd">
        <g id="05_Tren" transform="translate(-675.000000, -1804.000000)" fill="#B2B2B2">
            <g id="ic_costes" transform="translate(675.000000, 1804.000000)">
                <path d="M94.3608048,11.3434205 L83.6565795,0.639195171 C83.058672,0.0412877264 82.0922334,0.0412877264 81.494326,0.639195171 L70.7901006,11.3434205 C70.3527565,11.7807646 70.2212475,12.4383099 70.4582696,13.0102213 C70.6937626,13.5821328 71.2534406,13.9537223 71.8712274,13.9537223 L77.9879276,13.9537223 L77.9879276,30.7746479 L81.0462777,30.7746479 L81.0462777,12.4245473 C81.0462777,11.5789135 80.3627364,10.8953722 79.5171026,10.8953722 L75.5626559,10.8953722 L82.5754527,3.88257545 L89.5882495,10.8953722 L85.6338028,10.8953722 C84.788169,10.8953722 84.1046278,11.5789135 84.1046278,12.4245473 L84.1046278,46.0663984 L64.2253521,46.0663984 C63.3797183,46.0663984 62.6961771,46.7499396 62.6961771,47.5955734 L62.6961771,61.3581489 L42.8169014,61.3581489 C41.9712676,61.3581489 41.2877264,62.0416901 41.2877264,62.8873239 L41.2877264,76.6498994 L27.4288129,76.6498994 C27.4853924,76.1422133 27.5251509,75.632998 27.5251509,75.1207243 C27.5251509,67.5314286 21.3518712,61.3581489 13.7625755,61.3581489 C6.17327968,61.3581489 0,67.5314286 0,75.1207243 C0,82.7100201 6.17327968,88.8832998 13.7625755,88.8832998 C15.8927163,88.8832998 17.9876861,88.3725553 19.8792757,87.435171 L19.8792757,91.9416499 L0,91.9416499 L0,95 L21.4084507,95 C22.2540845,95 22.9376258,94.3164588 22.9376258,93.4708249 L22.9376258,79.7082495 L42.8169014,79.7082495 C43.6625352,79.7082495 44.3460765,79.0247082 44.3460765,78.1790744 L44.3460765,64.416499 L64.2253521,64.416499 C65.0709859,64.416499 65.7545272,63.7329577 65.7545272,62.8873239 L65.7545272,49.1247485 L85.6338028,49.1247485 C86.4794366,49.1247485 87.1629779,48.4412072 87.1629779,47.5955734 L87.1629779,13.9537223 L93.2796781,13.9537223 C93.8974648,13.9537223 94.4571429,13.5821328 94.6926358,13.0102213 C94.9296579,12.4383099 94.7981489,11.7807646 94.3608048,11.3434205 Z M21.4084507,76.6498994 C20.5628169,76.6498994 19.8792757,77.3334406 19.8792757,78.1790744 L19.8792757,83.8630181 C18.0794366,85.1276459 15.9905835,85.8249497 13.7625755,85.8249497 C7.86148893,85.8249497 3.0583501,81.0218109 3.0583501,75.1207243 C3.0583501,69.2196378 7.86148893,64.416499 13.7625755,64.416499 C19.663662,64.416499 24.4668008,69.2196378 24.4668008,75.1207243 C24.4668008,75.6345272 24.4209256,76.1437425 24.3475252,76.6498994 L21.4084507,76.6498994 Z" id="Shape"></path>
                <polygon id="Path" points="77.9879276 33.832998 81.0462777 33.832998 81.0462777 36.8913481 77.9879276 36.8913481"></polygon>
                <polygon id="Path" points="77.9879276 39.9496982 81.0462777 39.9496982 81.0462777 43.0080483 77.9879276 43.0080483"></polygon>
                <path d="M44.3460765,24.6579477 L50.4627767,24.6579477 L50.4627767,41.4788732 L53.5211268,41.4788732 L53.5211268,23.1287726 C53.5211268,22.2831388 52.8375855,21.5995976 51.9919517,21.5995976 L48.037505,21.5995976 L55.0503018,14.5868008 L62.0630986,21.5995976 L58.1086519,21.5995976 C57.2630181,21.5995976 56.5794769,22.2831388 56.5794769,23.1287726 L56.5794769,58.2997988 L59.637827,58.2997988 L59.637827,24.6579477 L65.7545272,24.6579477 C66.3723139,24.6579477 66.931992,24.2863581 67.1674849,23.7144467 C67.404507,23.1425352 67.272998,22.4849899 66.8356539,22.0476459 L56.1314286,11.3434205 C55.5335211,10.7455131 54.5670825,10.7455131 53.9691751,11.3434205 L43.2649497,22.0476459 C42.8276056,22.4849899 42.6960966,23.1425352 42.9331187,23.7144467 C43.1686117,24.2863581 43.7282897,24.6579477 44.3460765,24.6579477 Z" id="Path"></path>
                <polygon id="Path" points="50.4627767 44.5372233 53.5211268 44.5372233 53.5211268 47.5955734 50.4627767 47.5955734"></polygon>
                <polygon id="Path" points="50.4627767 50.6539235 53.5211268 50.6539235 53.5211268 53.7122736 50.4627767 53.7122736"></polygon>
                <path d="M12.2334004,21.5995976 L15.2917505,21.5995976 L15.2917505,18.5412475 L16.8209256,18.5412475 C17.4387123,18.5412475 17.9983903,18.1696579 18.2338833,17.5977465 C18.4709054,17.025835 18.3393964,16.3682897 17.9020523,15.9309457 L14.3956539,12.4245473 L18.3501006,12.4245473 L18.3501006,9.36619718 L15.2917505,9.36619718 L15.2917505,6.30784708 L12.2334004,6.30784708 L12.2334004,9.36619718 L10.7042254,9.36619718 C10.0864386,9.36619718 9.52676056,9.73778672 9.29126761,10.3096982 C9.05424547,10.8816097 9.18575453,11.5391549 9.62309859,11.976499 L13.129497,15.4828974 L9.1750503,15.4828974 L9.1750503,18.5412475 L12.2334004,18.5412475 L12.2334004,21.5995976 Z" id="Path"></path>
                <path d="M13.7625755,27.7162978 C21.3518712,27.7162978 27.5251509,21.5430181 27.5251509,13.9537223 C27.5251509,6.36442656 21.3518712,0.191146881 13.7625755,0.191146881 C6.17327968,0.191146881 0,6.36442656 0,13.9537223 C0,21.5430181 6.17327968,27.7162978 13.7625755,27.7162978 Z M13.7625755,3.24949698 C19.663662,3.24949698 24.4668008,8.05263581 24.4668008,13.9537223 C24.4668008,19.8548089 19.663662,24.6579477 13.7625755,24.6579477 C7.86148893,24.6579477 3.0583501,19.8548089 3.0583501,13.9537223 C3.0583501,8.05263581 7.86148893,3.24949698 13.7625755,3.24949698 Z" id="Shape"></path>
                <path d="M12.2334004,52.1830986 L15.2917505,52.1830986 L15.2917505,49.1247485 L16.8209256,49.1247485 C17.4387123,49.1247485 17.9983903,48.753159 18.2338833,48.1812475 C18.4709054,47.609336 18.3393964,46.9517907 17.9020523,46.5144467 L14.3956539,43.0080483 L18.3501006,43.0080483 L18.3501006,39.9496982 L15.2917505,39.9496982 L15.2917505,36.8913481 L12.2334004,36.8913481 L12.2334004,39.9496982 L10.7042254,39.9496982 C10.0864386,39.9496982 9.52676056,40.3212877 9.29126761,40.8931992 C9.05424547,41.4651107 9.18575453,42.1226559 9.62309859,42.56 L13.129497,46.0663984 L9.1750503,46.0663984 L9.1750503,49.1247485 L12.2334004,49.1247485 L12.2334004,52.1830986 Z" id="Path"></path>
                <path d="M13.7625755,58.2997988 C21.3518712,58.2997988 27.5251509,52.1265191 27.5251509,44.5372233 C27.5251509,36.9479276 21.3518712,30.7746479 13.7625755,30.7746479 C6.17327968,30.7746479 0,36.9479276 0,44.5372233 C0,52.1265191 6.17327968,58.2997988 13.7625755,58.2997988 Z M13.7625755,33.832998 C19.663662,33.832998 24.4668008,38.6361368 24.4668008,44.5372233 C24.4668008,50.4383099 19.663662,55.2414487 13.7625755,55.2414487 C7.86148893,55.2414487 3.0583501,50.4383099 3.0583501,44.5372233 C3.0583501,38.6361368 7.86148893,33.832998 13.7625755,33.832998 Z" id="Shape"></path>
                <path d="M15.2917505,67.4748491 L12.2334004,67.4748491 L12.2334004,70.5331992 L10.7042254,70.5331992 C10.0864386,70.5331992 9.52676056,70.9047887 9.29126761,71.4767002 C9.05424547,72.0486117 9.18575453,72.7061569 9.62309859,73.143501 L13.129497,76.6498994 L9.1750503,76.6498994 L9.1750503,79.7082495 L12.2334004,79.7082495 L12.2334004,82.7665996 L15.2917505,82.7665996 L15.2917505,79.7082495 L16.8209256,79.7082495 C17.4387123,79.7082495 17.9983903,79.33666 18.2338833,78.7647485 C18.4709054,78.192837 18.3393964,77.5352918 17.9020523,77.0979477 L14.3956539,73.5915493 L18.3501006,73.5915493 L18.3501006,70.5331992 L15.2917505,70.5331992 L15.2917505,67.4748491 Z" id="Path"></path>
            </g>
        </g>
    </g>
</svg>