<?xml version="1.0" encoding="UTF-8"?>
<svg width="72px" height="92px" viewBox="0 0 72 92" version="1.1" xmlns="http://www.w3.org/2000/svg" xmlns:xlink="http://www.w3.org/1999/xlink">
    <!-- Generator: Sketch 60.1 (88133) - https://sketch.com -->
    <title>ic_documento</title>
    <desc>Created with Sketch.</desc>
    <g id="Page-1" stroke="none" stroke-width="1" fill="none" fill-rule="evenodd">
        <g id="05_Tren" transform="translate(-1076.000000, -1443.000000)" fill="#B2B2B2">
            <g id="ic_documento" transform="translate(1076.000000, 1443.000000)">
                <path d="M70.1751152,0 L1.49308756,0 C0.667410138,0 0,0.663290323 0,1.48387097 L0,90.516129 C0,91.3367097 0.667410138,92 1.49308756,92 L55.2442396,92 C55.6578249,92 56.0310968,91.8323226 56.3013456,91.5637419 L71.2277419,76.7294839 C71.4994839,76.4594194 71.6682028,76.0884516 71.6682028,75.6774194 L71.6682028,1.48387097 C71.6682028,0.663290323 71.0007926,0 70.1751152,0 Z M2.98617512,89.0322581 L2.98617512,2.96774194 L68.6820276,2.96774194 L68.6820276,74.1935484 L55.2442396,74.1935484 C54.4185622,74.1935484 53.7511521,74.8568387 53.7511521,75.6774194 L53.7511521,77.1612903 L35.8341014,77.1612903 L35.8341014,80.1290323 L53.7511521,80.1290323 L53.7511521,83.0967742 L35.8341014,83.0967742 L35.8341014,86.0645161 L53.7511521,86.0645161 L53.7511521,89.0322581 L2.98617512,89.0322581 Z M66.5708018,77.1612903 L56.7373272,86.9340645 L56.7373272,77.1612903 L66.5708018,77.1612903 Z" id="Shape"></path>
                <path d="M19.4101382,69.7419355 L13.437788,69.7419355 C12.6121106,69.7419355 11.9447005,70.4052258 11.9447005,71.2258065 L11.9447005,80.1290323 C11.9447005,80.9496129 12.6121106,81.6129032 13.437788,81.6129032 L19.4101382,81.6129032 C20.2358157,81.6129032 20.9032258,80.9496129 20.9032258,80.1290323 L20.9032258,77.1612903 L17.9170507,77.1612903 L17.9170507,78.6451613 L14.9308756,78.6451613 L14.9308756,72.7096774 L17.9170507,72.7096774 L17.9170507,74.1935484 L20.9032258,74.1935484 L20.9032258,71.2258065 C20.9032258,70.4052258 20.2358157,69.7419355 19.4101382,69.7419355 Z" id="Path"></path>
                <path d="M17.1705069,46 L13.437788,46 C12.6121106,46 11.9447005,46.6632903 11.9447005,47.483871 L11.9447005,56.3870968 C11.9447005,57.2076774 12.6121106,57.8709677 13.437788,57.8709677 L17.1705069,57.8709677 C19.2294747,57.8709677 20.9032258,56.2075484 20.9032258,54.1612903 C20.9032258,53.3273548 20.6240184,52.5557419 20.1551889,51.9354839 C20.6240184,51.3152258 20.9032258,50.5436129 20.9032258,49.7096774 C20.9032258,47.6634194 19.2294747,46 17.1705069,46 Z M17.1705069,54.9032258 L14.9308756,54.9032258 L14.9308756,53.4193548 L17.1705069,53.4193548 C17.581106,53.4193548 17.9170507,53.7532258 17.9170507,54.1612903 C17.9170507,54.5693548 17.581106,54.9032258 17.1705069,54.9032258 Z M17.1705069,50.4516129 L14.9308756,50.4516129 L14.9308756,48.9677419 L17.1705069,48.9677419 C17.581106,48.9677419 17.9170507,49.3016129 17.9170507,49.7096774 C17.9170507,50.1177419 17.581106,50.4516129 17.1705069,50.4516129 Z" id="Shape"></path>
                <path d="M16.4239631,17.8064516 C10.6621382,17.8064516 5.97235023,22.4672903 5.97235023,28.1935484 C5.97235023,33.9198065 10.6621382,38.5806452 16.4239631,38.5806452 C22.185788,38.5806452 26.875576,33.9198065 26.875576,28.1935484 C26.875576,22.4672903 22.185788,17.8064516 16.4239631,17.8064516 Z M11.9909862,34.1290323 L14.9308756,34.1290323 L14.9308756,31.1612903 L17.9170507,31.1612903 L17.9170507,34.1290323 L20.8569401,34.1290323 C19.6131982,35.0490323 18.0887558,35.6129032 16.4239631,35.6129032 C14.7591705,35.6129032 13.2347281,35.0490323 11.9909862,34.1290323 Z M17.9170507,28.1935484 L14.9308756,28.1935484 L14.9308756,25.2258065 L17.9170507,25.2258065 L17.9170507,28.1935484 Z M20.9032258,34.0904516 L20.9032258,23.7419355 C20.9032258,22.9213548 20.2358157,22.2580645 19.4101382,22.2580645 L13.437788,22.2580645 C12.6121106,22.2580645 11.9447005,22.9213548 11.9447005,23.7419355 L11.9447005,34.0904516 C10.1425438,32.7341935 8.95852535,30.6063226 8.95852535,28.1935484 C8.95852535,24.1025161 12.3075207,20.7741935 16.4239631,20.7741935 C20.5404055,20.7741935 23.8894009,24.1025161 23.8894009,28.1935484 C23.8894009,30.6078065 22.7053825,32.7356774 20.9032258,34.0904516 Z" id="Shape"></path>
                <path d="M16.4239631,41.5483871 C10.6621382,41.5483871 5.97235023,46.2092258 5.97235023,51.9354839 C5.97235023,57.6617419 10.6621382,62.3225806 16.4239631,62.3225806 C22.185788,62.3225806 26.875576,57.6617419 26.875576,51.9354839 C26.875576,46.2092258 22.185788,41.5483871 16.4239631,41.5483871 Z M16.4239631,59.3548387 C12.3075207,59.3548387 8.95852535,56.0265161 8.95852535,51.9354839 C8.95852535,47.8444516 12.3075207,44.516129 16.4239631,44.516129 C20.5404055,44.516129 23.8894009,47.8444516 23.8894009,51.9354839 C23.8894009,56.0265161 20.5404055,59.3548387 16.4239631,59.3548387 Z" id="Shape"></path>
                <path d="M16.4239631,65.2903226 C10.6621382,65.2903226 5.97235023,69.9511613 5.97235023,75.6774194 C5.97235023,81.4036774 10.6621382,86.0645161 16.4239631,86.0645161 C22.185788,86.0645161 26.875576,81.4036774 26.875576,75.6774194 C26.875576,69.9511613 22.185788,65.2903226 16.4239631,65.2903226 Z M16.4239631,83.0967742 C12.3075207,83.0967742 8.95852535,79.7684516 8.95852535,75.6774194 C8.95852535,71.5863871 12.3075207,68.2580645 16.4239631,68.2580645 C20.5404055,68.2580645 23.8894009,71.5863871 23.8894009,75.6774194 C23.8894009,79.7684516 20.5404055,83.0967742 16.4239631,83.0967742 Z" id="Shape"></path>
                <polygon id="Path" points="5.97235023 5.93548387 65.6958525 5.93548387 65.6958525 8.90322581 5.97235023 8.90322581"></polygon>
                <polygon id="Path" points="62.7096774 11.8709677 65.6958525 11.8709677 65.6958525 14.8387097 62.7096774 14.8387097"></polygon>
                <polygon id="Path" points="5.97235023 11.8709677 59.7235023 11.8709677 59.7235023 14.8387097 5.97235023 14.8387097"></polygon>
                <polygon id="Path" points="29.8617512 35.6129032 32.8479263 35.6129032 32.8479263 38.5806452 29.8617512 38.5806452"></polygon>
                <polygon id="Path" points="35.8341014 35.6129032 65.6958525 35.6129032 65.6958525 38.5806452 35.8341014 38.5806452"></polygon>
                <polygon id="Path" points="29.8617512 29.6774194 32.8479263 29.6774194 32.8479263 32.6451613 29.8617512 32.6451613"></polygon>
                <polygon id="Path" points="35.8341014 29.6774194 65.6958525 29.6774194 65.6958525 32.6451613 35.8341014 32.6451613"></polygon>
                <polygon id="Path" points="29.8617512 59.3548387 32.8479263 59.3548387 32.8479263 62.3225806 29.8617512 62.3225806"></polygon>
                <polygon id="Path" points="35.8341014 59.3548387 65.6958525 59.3548387 65.6958525 62.3225806 35.8341014 62.3225806"></polygon>
                <polygon id="Path" points="29.8617512 53.4193548 32.8479263 53.4193548 32.8479263 56.3870968 29.8617512 56.3870968"></polygon>
                <polygon id="Path" points="35.8341014 53.4193548 65.6958525 53.4193548 65.6958525 56.3870968 35.8341014 56.3870968"></polygon>
                <polygon id="Path" points="29.8617512 83.0967742 32.8479263 83.0967742 32.8479263 86.0645161 29.8617512 86.0645161"></polygon>
                <polygon id="Path" points="29.8617512 77.1612903 32.8479263 77.1612903 32.8479263 80.1290323 29.8617512 80.1290323"></polygon>
            </g>
        </g>
    </g>
</svg>