<?xml version="1.0" encoding="UTF-8"?>
<svg width="96px" height="95px" viewBox="0 0 96 95" version="1.1" xmlns="http://www.w3.org/2000/svg" xmlns:xlink="http://www.w3.org/1999/xlink">
    <!-- Generator: Sketch 60.1 (88133) - https://sketch.com -->
    <title>Group 9</title>
    <desc>Created with Sketch.</desc>
    <g id="Page-1" stroke="none" stroke-width="1" fill="none" fill-rule="evenodd">
        <g id="02_Maritimo" transform="translate(-1061.000000, -1444.000000)" fill="#B2B2B2">
            <g id="Group-19" transform="translate(901.000000, 1444.000000)">
                <g id="Group-9" transform="translate(160.000000, 0.000000)">
                    <g id="data-warehouse">
                        <path d="M94.7808871,20.4908871 C82.6454032,7.46822581 65.4825806,0 47.6915323,0 C29.9004839,0 12.736129,7.46822581 0.602177419,20.4908871 C0.337096774,20.7743548 0.19,21.1482258 0.19,21.5358871 L0.191532258,93.4677419 C0.191532258,94.3135484 0.877983871,95 1.72379032,95 L17.046371,95 L35.4334677,95 L53.8205645,95 L93.6592742,95 C94.5050806,95 95.1915323,94.3135484 95.1915323,93.4677419 L95.1930645,21.5358871 C95.1930645,21.1482258 95.0459677,20.7743548 94.7808871,20.4908871 Z M89.9864516,20.003629 L5.39508065,20.003629 C16.7429839,9.19814516 31.9583065,3.06451613 47.6915323,3.06451613 C63.4247581,3.06451613 78.6400806,9.19814516 89.9864516,20.003629 Z M15.5141129,35.2419355 L15.5141129,30.6451613 C15.5141129,29.8008871 16.2020968,29.1129032 17.046371,29.1129032 L78.3366935,29.1129032 C79.1809677,29.1129032 79.8689516,29.8008871 79.8689516,30.6451613 L79.8689516,35.2419355 L15.5141129,35.2419355 Z M76.8044355,38.3064516 L76.8044355,41.3709677 L18.578629,41.3709677 L18.578629,38.3064516 L76.8044355,38.3064516 Z M53.8205645,73.5483871 L36.9657258,73.5483871 L36.9657258,56.6935484 C36.9657258,55.8477419 36.2792742,55.1612903 35.4334677,55.1612903 L18.578629,55.1612903 L18.578629,50.5645161 L76.8044355,50.5645161 L76.8044355,91.9354839 L55.3528226,91.9354839 L55.3528226,75.0806452 C55.3528226,74.2348387 54.666371,73.5483871 53.8205645,73.5483871 Z M43.0947581,76.6129032 L46.1592742,76.6129032 L46.1592742,79.6774194 L43.0947581,79.6774194 L43.0947581,76.6129032 Z M24.7076613,76.6129032 L27.7721774,76.6129032 L27.7721774,79.6774194 L24.7076613,79.6774194 L24.7076613,76.6129032 Z M18.578629,73.5483871 L18.578629,58.2258065 L21.6431452,58.2258065 L21.6431452,62.8225806 C21.6431452,63.6683871 22.3295968,64.3548387 23.1754032,64.3548387 L29.3044355,64.3548387 C30.1502419,64.3548387 30.8366935,63.6683871 30.8366935,62.8225806 L30.8366935,58.2258065 L33.9012097,58.2258065 L33.9012097,73.5483871 L18.578629,73.5483871 Z M76.8044355,47.5 L18.578629,47.5 L18.578629,44.4354839 L76.8044355,44.4354839 L76.8044355,47.5 Z M24.7076613,58.2258065 L27.7721774,58.2258065 L27.7721774,61.2903226 L24.7076613,61.2903226 L24.7076613,58.2258065 Z M18.578629,76.6129032 L21.6431452,76.6129032 L21.6431452,81.2096774 C21.6431452,82.0554839 22.3295968,82.7419355 23.1754032,82.7419355 L29.3044355,82.7419355 C30.1502419,82.7419355 30.8366935,82.0554839 30.8366935,81.2096774 L30.8366935,76.6129032 L33.9012097,76.6129032 L33.9012097,91.9354839 L18.578629,91.9354839 L18.578629,76.6129032 Z M36.9657258,91.9354839 L36.9657258,76.6129032 L40.0302419,76.6129032 L40.0302419,81.2096774 C40.0302419,82.0554839 40.7166935,82.7419355 41.5625,82.7419355 L47.6915323,82.7419355 C48.5373387,82.7419355 49.2237903,82.0554839 49.2237903,81.2096774 L49.2237903,76.6129032 L52.2883065,76.6129032 L52.2883065,91.9354839 L36.9657258,91.9354839 Z M79.8689516,91.9354839 L79.8689516,42.9032258 L79.8689516,38.3064516 L81.4012097,38.3064516 C82.2470161,38.3064516 82.9334677,37.62 82.9334677,36.7741935 L82.9334677,30.6451613 C82.9334677,28.1108065 80.8710484,26.0483871 78.3366935,26.0483871 L17.046371,26.0483871 C14.5120161,26.0483871 12.4495968,28.1108065 12.4495968,30.6451613 L12.4495968,36.7741935 C12.4495968,37.62 13.1360484,38.3064516 13.9818548,38.3064516 L15.5141129,38.3064516 L15.5141129,42.9032258 L15.5141129,56.6935484 L15.5141129,75.0806452 L15.5141129,91.9354839 L3.25604839,91.9354839 L3.25451613,23.0666129 L92.1285484,23.0666129 L92.1285484,50.5629839 L84.4657258,50.5629839 C83.6199194,50.5629839 82.9334677,51.2494355 82.9334677,52.0952419 L82.9334677,67.4178226 C82.9334677,68.263629 83.6199194,68.9500806 84.4657258,68.9500806 L92.1270161,68.9500806 L92.1270161,91.9339516 L79.8689516,91.9339516 L79.8689516,91.9354839 Z M92.1270161,61.2903226 L92.1270161,65.8870968 L85.9979839,65.8870968 L85.9979839,53.6290323 L92.1285484,53.6290323 L92.1285484,58.2258065 L89.0640323,58.2258065 L89.0640323,61.2903226 L92.1270161,61.2903226 Z" id="Shape"></path>
                        <polygon id="Path" points="32.3689516 11.5550285 63.0141129 11.5550285 63.0141129 14.6195446 32.3689516 14.6195446"></polygon>
                        <polygon id="Path" points="21.6431452 85.8064516 30.8366935 85.8064516 30.8366935 88.8709677 21.6431452 88.8709677"></polygon>
                        <polygon id="Path" points="21.6431452 67.4193548 30.8366935 67.4193548 30.8366935 70.483871 21.6431452 70.483871"></polygon>
                        <polygon id="Path" points="40.0302419 85.8064516 49.2237903 85.8064516 49.2237903 88.8709677 40.0302419 88.8709677"></polygon>
                    </g>
                </g>
            </g>
        </g>
    </g>
</svg>