<?xml version="1.0" encoding="UTF-8"?>
<svg width="100px" height="100px" viewBox="0 0 100 100" version="1.1" xmlns="http://www.w3.org/2000/svg" xmlns:xlink="http://www.w3.org/1999/xlink">
    <!-- Generator: Sketch 60.1 (88133) - https://sketch.com -->
    <title>ic_almacen</title>
    <desc>Created with Sketch.</desc>
    <g id="Page-1" stroke="none" stroke-width="1" fill="none" fill-rule="evenodd">
        <g id="08_Logística" transform="translate(-1038.000000, -5396.000000)" fill="#FFFFFF" fill-rule="nonzero">
            <g id="Group-45" transform="translate(-5.000000, 1895.000000)">
                <g id="Group-29">
                    <g id="Group-25" transform="translate(5.000000, 2964.000000)">
                        <g id="ic_almacen" transform="translate(1038.000000, 537.000000)">
                            <polygon id="Path" points="83.8709677 70.9677419 87.0967742 70.9677419 87.0967742 74.1935484 83.8709677 74.1935484"></polygon>
                            <path d="M100,45.1612903 L96.7741935,45.1612903 L96.7741935,17.7419355 C96.7741935,16.8516129 96.0532258,16.1290323 95.1612903,16.1290323 L88.7096774,16.1290323 C87.8177419,16.1290323 87.0967742,16.8516129 87.0967742,17.7419355 L87.0967742,19.3548387 L66.7967742,19.3548387 L74.8612903,11.2903226 L83.8709677,11.2903226 C84.3,11.2903226 84.7096774,11.1209677 85.0112903,10.8177419 L90.3225806,5.50645161 L90.3225806,9.67741935 L93.5483871,9.67741935 L93.5483871,1.61290323 C93.5483871,0.722580645 92.8274194,0 91.9354839,0 L83.8709677,0 L83.8709677,3.22580645 L88.0419355,3.22580645 L83.2032258,8.06451613 L74.1935484,8.06451613 C73.7645161,8.06451613 73.3548387,8.23387097 73.0532258,8.53709677 L62.2354839,19.3548387 L54.8387097,19.3548387 L54.8387097,11.2903226 C54.8387097,10.4 54.1177419,9.67741935 53.2258065,9.67741935 L1.61290323,9.67741935 C0.720967742,9.67741935 0,10.4 0,11.2903226 L0,56.4516129 C0,57.3419355 0.720967742,58.0645161 1.61290323,58.0645161 L6.4516129,58.0645161 L6.4516129,72.5806452 C6.4516129,77.0274194 10.0693548,80.6451613 14.516129,80.6451613 L36.4290323,80.6451613 L37.3741935,81.5903226 C39.2758065,83.4919355 40.3225806,86.0193548 40.3225806,88.7096774 C40.3225806,91.4 39.2758065,93.9274194 37.3741935,95.8290323 L36.4290323,96.7741935 L20.9677419,96.7741935 L20.9677419,100 L79.0322581,100 L79.0322581,96.7741935 L63.5709677,96.7741935 L62.6258065,95.8290323 C60.7241935,93.9274194 59.6774194,91.4 59.6774194,88.7096774 C59.6774194,86.0193548 60.7241935,83.4919355 62.6258065,81.5903226 L63.5709677,80.6451613 L85.483871,80.6451613 C89.9306452,80.6451613 93.5483871,77.0274194 93.5483871,72.5806452 L93.5483871,48.3870968 L100,48.3870968 L100,45.1612903 Z M93.5483871,19.3548387 L93.5483871,45.1612903 L90.3225806,45.1612903 L90.3225806,19.3548387 L93.5483871,19.3548387 Z M51.6129032,12.9032258 L51.6129032,22.5806452 L3.22580645,22.5806452 L3.22580645,12.9032258 L51.6129032,12.9032258 Z M3.22580645,25.8064516 L51.6129032,25.8064516 L51.6129032,54.8387097 L3.22580645,54.8387097 L3.22580645,25.8064516 Z M59.1919355,96.7741935 L40.8080645,96.7741935 C42.5774194,94.4677419 43.5483871,91.666129 43.5483871,88.7096774 C43.5483871,85.7532258 42.5774194,82.9516129 40.8080645,80.6451613 L59.1919355,80.6451613 C57.4225806,82.9516129 56.4516129,85.7532258 56.4516129,88.7096774 C56.4516129,91.666129 57.4225806,94.4677419 59.1919355,96.7741935 Z M85.483871,77.4193548 L14.516129,77.4193548 C11.8483871,77.4193548 9.67741935,75.2483871 9.67741935,72.5806452 L9.67741935,67.7419355 L90.3225806,67.7419355 L90.3225806,72.5806452 C90.3225806,75.2483871 88.1516129,77.4193548 85.483871,77.4193548 Z M90.3225806,64.516129 L9.67741935,64.516129 L9.67741935,58.0645161 L53.2258065,58.0645161 C54.1177419,58.0645161 54.8387097,57.3419355 54.8387097,56.4516129 L54.8387097,22.5806452 L59.0096774,22.5806452 L58.5370968,23.0532258 L60.8177419,25.333871 L63.5709677,22.5806452 L87.0967742,22.5806452 L87.0967742,45.1612903 L83.8709677,45.1612903 L83.8709677,27.4193548 C83.8709677,26.5290323 83.15,25.8064516 82.2580645,25.8064516 L75.8064516,25.8064516 C74.9145161,25.8064516 74.1935484,26.5290323 74.1935484,27.4193548 L74.1935484,45.1612903 L70.9677419,45.1612903 L70.9677419,33.8709677 C70.9677419,32.9806452 70.2467742,32.2580645 69.3548387,32.2580645 L62.9032258,32.2580645 C62.0112903,32.2580645 61.2903226,32.9806452 61.2903226,33.8709677 L61.2903226,45.1612903 L58.0645161,45.1612903 L58.0645161,48.3870968 L90.3225806,48.3870968 L90.3225806,64.516129 Z M80.6451613,45.1612903 L77.4193548,45.1612903 L77.4193548,29.0322581 L80.6451613,29.0322581 L80.6451613,45.1612903 Z M67.7419355,45.1612903 L64.516129,45.1612903 L64.516129,35.483871 L67.7419355,35.483871 L67.7419355,45.1612903 Z" id="Shape"></path>
                            <polygon id="Path" points="6.4516129 16.1290323 9.67741935 16.1290323 9.67741935 19.3548387 6.4516129 19.3548387"></polygon>
                            <polygon id="Path" points="12.9032258 16.1290323 16.1290323 16.1290323 16.1290323 19.3548387 12.9032258 19.3548387"></polygon>
                            <polygon id="Path" points="19.3548387 16.1290323 22.5806452 16.1290323 22.5806452 19.3548387 19.3548387 19.3548387"></polygon>
                            <path d="M46.7741935,29.0322581 L8.06451613,29.0322581 C7.17258065,29.0322581 6.4516129,29.7548387 6.4516129,30.6451613 L6.4516129,37.0967742 C6.4516129,37.9870968 7.17258065,38.7096774 8.06451613,38.7096774 L46.7741935,38.7096774 C47.666129,38.7096774 48.3870968,37.9870968 48.3870968,37.0967742 L48.3870968,30.6451613 C48.3870968,29.7548387 47.666129,29.0322581 46.7741935,29.0322581 Z M9.67741935,32.2580645 L19.3548387,32.2580645 L19.3548387,35.483871 L9.67741935,35.483871 L9.67741935,32.2580645 Z M45.1612903,35.483871 L22.5806452,35.483871 L22.5806452,32.2580645 L45.1612903,32.2580645 L45.1612903,35.483871 Z" id="Shape"></path>
                            <polygon id="Path" points="6.4516129 41.9354839 41.9354839 41.9354839 41.9354839 45.1612903 6.4516129 45.1612903"></polygon>
                            <polygon id="Path" points="12.9032258 48.3870968 48.3870968 48.3870968 48.3870968 51.6129032 12.9032258 51.6129032"></polygon>
                        </g>
                    </g>
                </g>
            </g>
        </g>
    </g>
</svg>