<?xml version="1.0" encoding="UTF-8"?>
<svg width="75px" height="100px" viewBox="0 0 75 100" version="1.1" xmlns="http://www.w3.org/2000/svg" xmlns:xlink="http://www.w3.org/1999/xlink">
    <!-- Generator: Sketch 60.1 (88133) - https://sketch.com -->
    <title>ic_elevados</title>
    <desc>Created with Sketch.</desc>
    <g id="Page-1" stroke="none" stroke-width="1" fill="none" fill-rule="evenodd">
        <g id="02_Maritimo" transform="translate(-683.000000, -1441.000000)" fill="#B2B2B2">
            <g id="Group-18" transform="translate(587.000000, 1441.000000)">
                <g id="ic_elevados" transform="translate(96.000000, 0.000000)">
                    <g id="certificate">
                        <path d="M73.7193548,13.3741935 L60.8193548,0.474193548 C60.5274194,0.180645161 60.1241935,0 59.6774194,0 L1.61290323,0 C0.720967742,0 0,0.722580645 0,1.61290323 L0,98.3870968 C0,99.2790323 0.720967742,100 1.61290323,100 L72.5806452,100 C73.4725806,100 74.1935484,99.2790323 74.1935484,98.3870968 L74.1935484,14.516129 C74.1935484,14.0693548 74.0129032,13.666129 73.7193548,13.3741935 L73.7193548,13.3741935 Z M61.2903226,5.50645161 L68.6870968,12.9032258 L61.2903226,12.9032258 L61.2903226,5.50645161 Z M70.9677419,96.7741935 L3.22580645,96.7741935 L3.22580645,3.22580645 L58.0645161,3.22580645 L58.0645161,14.516129 C58.0645161,15.4064516 58.7854839,16.1290323 59.6774194,16.1290323 L70.9677419,16.1290323 L70.9677419,96.7741935 Z" id="Shape"></path>
                        <path d="M37.0967742,35.483871 C42.433871,35.483871 46.7741935,31.1435484 46.7741935,25.8064516 C46.7741935,20.4693548 42.433871,16.1290323 37.0967742,16.1290323 C31.7596774,16.1290323 27.4193548,20.4693548 27.4193548,25.8064516 C27.4193548,31.1435484 31.7596774,35.483871 37.0967742,35.483871 Z M37.0967742,19.3548387 C40.6548387,19.3548387 43.5483871,22.2483871 43.5483871,25.8064516 C43.5483871,29.3645161 40.6548387,32.2580645 37.0967742,32.2580645 C33.5387097,32.2580645 30.6451613,29.3645161 30.6451613,25.8064516 C30.6451613,22.2483871 33.5387097,19.3548387 37.0967742,19.3548387 Z" id="Shape"></path>
                        <path d="M16.1290323,46.7741935 L22.5806452,46.7741935 L22.5806452,53.2258065 C22.5806452,53.8774194 22.9725806,54.4677419 23.5758065,54.716129 C23.7758065,54.8 23.9854839,54.8387097 24.1935484,54.8387097 C24.6129032,54.8387097 25.0258065,54.6741935 25.333871,54.366129 L37.0967742,42.6032258 L48.8596774,54.366129 C49.1677419,54.6741935 49.5806452,54.8387097 50,54.8387097 C50.2080645,54.8387097 50.4177419,54.8 50.6177419,54.716129 C51.2209677,54.4677419 51.6129032,53.8774194 51.6129032,53.2258065 L51.6129032,46.7741935 L58.0645161,46.7741935 C58.716129,46.7741935 59.3064516,46.3806452 59.5548387,45.7790323 C59.8048387,45.1758065 59.666129,44.4822581 59.2048387,44.0209677 L50.2677419,35.083871 C52.1241935,32.4564516 53.2258065,29.2612903 53.2258065,25.8064516 C53.2258065,16.9129032 45.9903226,9.67741935 37.0967742,9.67741935 C28.2032258,9.67741935 20.9677419,16.9129032 20.9677419,25.8064516 C20.9677419,29.2612903 22.0693548,32.4564516 23.9258065,35.083871 L14.9887097,44.0209677 C14.5274194,44.4822581 14.3887097,45.1758065 14.6387097,45.7790323 C14.8870968,46.3806452 15.4774194,46.7741935 16.1290323,46.7741935 Z M50,43.5483871 C49.1080645,43.5483871 48.3870968,44.2709677 48.3870968,45.1612903 L48.3870968,49.3322581 L40.5967742,41.5419355 C43.4806452,40.9 46.0693548,39.483871 48.1467742,37.5241935 L54.1709677,43.5483871 L50,43.5483871 Z M37.0967742,12.9032258 C44.2112903,12.9032258 50,18.6919355 50,25.8064516 C50,32.9209677 44.2112903,38.7096774 37.0967742,38.7096774 C29.9822581,38.7096774 24.1935484,32.9209677 24.1935484,25.8064516 C24.1935484,18.6919355 29.9822581,12.9032258 37.0967742,12.9032258 Z M26.0467742,37.5241935 C28.1241935,39.483871 30.7129032,40.9 33.5967742,41.5419355 L25.8064516,49.3322581 L25.8064516,45.1612903 C25.8064516,44.2709677 25.0854839,43.5483871 24.1935484,43.5483871 L20.0225806,43.5483871 L26.0467742,37.5241935 Z" id="Shape"></path>
                        <path d="M9.67741935,59.6774194 L9.67741935,72.5806452 C9.67741935,73.4725806 10.3983871,74.1935484 11.2903226,74.1935484 L62.9032258,74.1935484 C63.7951613,74.1935484 64.516129,73.4725806 64.516129,72.5806452 L64.516129,59.6774194 C64.516129,58.7854839 63.7951613,58.0645161 62.9032258,58.0645161 L11.2903226,58.0645161 C10.3983871,58.0645161 9.67741935,58.7854839 9.67741935,59.6774194 Z M12.9032258,61.2903226 L61.2903226,61.2903226 L61.2903226,70.9677419 L12.9032258,70.9677419 L12.9032258,61.2903226 Z" id="Shape"></path>
                        <polygon id="Path" points="9.67741935 77.4193548 64.516129 77.4193548 64.516129 80.6451613 9.67741935 80.6451613"></polygon>
                        <polygon id="Path" points="9.67741935 83.8709677 64.516129 83.8709677 64.516129 87.0967742 9.67741935 87.0967742"></polygon>
                    </g>
                </g>
            </g>
        </g>
    </g>
</svg>