<?xml version="1.0" encoding="UTF-8"?>
<svg width="105px" height="105px" viewBox="0 0 105 105" version="1.1" xmlns="http://www.w3.org/2000/svg" xmlns:xlink="http://www.w3.org/1999/xlink">
    <!-- Generator: Sketch 60.1 (88133) - https://sketch.com -->
    <title>ic_eco</title>
    <desc>Created with Sketch.</desc>
    <g id="Page-1" stroke="none" stroke-width="1" fill="none" fill-rule="evenodd">
        <g id="02_Maritimo" transform="translate(-1057.000000, -1744.000000)" fill="#B2B2B2">
            <g id="Group-16" transform="translate(926.000000, 1744.000000)">
                <g id="ic_eco" transform="translate(131.000000, 0.000000)">
                    <path d="M103.306452,11.8548387 C97.4078226,11.8548387 92.2899194,15.2300806 89.7580645,20.1464516 C87.2262097,15.2300806 82.1083065,11.8548387 76.2096774,11.8548387 C75.2748387,11.8548387 74.516129,12.6118548 74.516129,13.5483871 L74.516129,16.9354839 C74.516129,24.7681452 80.4554032,31.2324194 88.0645161,32.0775 L88.0645161,41.8221774 C80.3605645,31.2798387 68.0941935,24.2820968 54.1935484,23.7520161 L54.1935484,20.2226613 C61.8026613,19.3775806 67.7419355,12.9133065 67.7419355,5.08064516 L67.7419355,1.69354839 C67.7419355,0.757016129 66.9832258,0 66.0483871,0 C60.1497581,0 55.0318548,3.37524194 52.5,8.2916129 C49.9681452,3.37524194 44.8502419,0 38.9516129,0 C38.0167742,0 37.2580645,0.757016129 37.2580645,1.69354839 L37.2580645,5.08064516 C37.2580645,12.9133065 43.1973387,19.3775806 50.8064516,20.2226613 L50.8064516,23.7520161 C36.9058065,24.2804032 24.6394355,31.2798387 16.9354839,41.8221774 L16.9354839,32.0775 C24.5445968,31.2324194 30.483871,24.7681452 30.483871,16.9354839 L30.483871,13.5483871 C30.483871,12.6118548 29.7251613,11.8548387 28.7903226,11.8548387 C22.8916935,11.8548387 17.7737903,15.2300806 15.2419355,20.1464516 C12.7100806,15.2300806 7.59217742,11.8548387 1.69354839,11.8548387 C0.758709677,11.8548387 0,12.6118548 0,13.5483871 L0,16.9354839 C0,24.7681452 5.93927419,31.2324194 13.5483871,32.0775 L13.5483871,47.2415323 C10.3103226,53.3687903 8.46774194,60.3428226 8.46774194,67.7419355 C8.46774194,68.6784677 9.22645161,69.4354839 10.1612903,69.4354839 L15.2842742,69.4354839 C16.1733871,89.1958065 32.5229032,105 52.5,105 C72.4770968,105 88.8266129,89.1958065 89.7157258,69.4354839 L94.8387097,69.4354839 C95.7735484,69.4354839 96.5322581,68.6784677 96.5322581,67.7419355 C96.5322581,60.3428226 94.6896774,53.3687903 91.4516129,47.2415323 L91.4516129,32.0775 C99.0607258,31.2324194 105,24.7681452 105,16.9354839 L105,13.5483871 C105,12.6118548 104.24129,11.8548387 103.306452,11.8548387 Z M27.0967742,15.3621774 L27.0967742,16.9354839 C27.0967742,22.8984677 22.6732258,27.8453226 16.9354839,28.6700806 L16.9354839,27.0967742 C16.9354839,21.1337903 21.3590323,16.1869355 27.0967742,15.3621774 L27.0967742,15.3621774 Z M3.38709677,16.9354839 L3.38709677,15.3621774 C9.12483871,16.1869355 13.5483871,21.1337903 13.5483871,27.0967742 L13.5483871,28.6700806 C7.81064516,27.8453226 3.38709677,22.8984677 3.38709677,16.9354839 L3.38709677,16.9354839 Z M64.3548387,3.50733871 L64.3548387,5.08064516 C64.3548387,11.043629 59.9312903,15.9904839 54.1935484,16.8152419 L54.1935484,15.2419355 C54.1935484,9.27895161 58.6170968,4.33209677 64.3548387,3.50733871 Z M40.6451613,5.08064516 L40.6451613,3.50733871 C46.3829032,4.33040323 50.8064516,9.27895161 50.8064516,15.2419355 L50.8064516,16.8152419 C45.0687097,15.9904839 40.6451613,11.043629 40.6451613,5.08064516 Z M18.6290323,67.7419355 C18.6290323,58.5815323 22.2989516,50.2729839 28.226371,44.1694355 L35.0683065,51.011371 C35.3833065,51.3280645 35.5645161,51.7633065 35.5645161,52.2087097 L35.5645161,55.8870968 C35.5645161,58.6882258 37.8440323,60.9677419 40.6451613,60.9677419 C41.5783065,60.9677419 42.3387097,61.7264516 42.3387097,62.6612903 L42.3387097,67.7419355 C42.3387097,68.6767742 41.5783065,69.4354839 40.6451613,69.4354839 L33.8709677,69.4354839 C31.0698387,69.4354839 28.7903226,71.715 28.7903226,74.516129 C28.7903226,75.4509677 28.0299194,76.2096774 27.0967742,76.2096774 L19.7433871,76.2096774 C19.0422581,73.4983065 18.6290323,70.6700806 18.6290323,67.7419355 Z M20.8120161,79.5967742 L27.0967742,79.5967742 C29.8979032,79.5967742 32.1774194,77.3172581 32.1774194,74.516129 C32.1774194,73.5812903 32.9378226,72.8225806 33.8709677,72.8225806 L40.6451613,72.8225806 C43.4462903,72.8225806 45.7258065,70.5430645 45.7258065,67.7419355 L45.7258065,62.6612903 C45.7258065,59.8601613 43.4462903,57.5806452 40.6451613,57.5806452 C39.7120161,57.5806452 38.9516129,56.8219355 38.9516129,55.8870968 L38.9516129,52.2087097 C38.9516129,50.8521774 38.4232258,49.5752419 37.4629839,48.6166935 L30.7023387,41.8560484 C36.5992742,36.8820968 44.1999194,33.8709677 52.5,33.8709677 C53.0724194,33.8709677 53.6295968,33.9285484 54.1935484,33.9573387 L54.1935484,40.6451613 C54.1935484,43.4462903 56.4730645,45.7258065 59.2741935,45.7258065 C60.2073387,45.7258065 60.9677419,46.4845161 60.9677419,47.4193548 L60.9677419,52.5 C60.9677419,54.3679839 59.448629,55.8870968 57.5806452,55.8870968 C53.8446774,55.8870968 50.8064516,58.9253226 50.8064516,62.6612903 C50.8064516,66.3972581 53.8446774,69.4354839 57.5806452,69.4354839 L59.6857258,69.4354839 C61.1523387,69.4354839 62.5308871,70.0062097 63.5673387,71.0426613 C65.1677419,72.6447581 66.0483871,74.7701613 66.0483871,77.0818548 C66.0483871,79.3427419 65.1677419,81.4698387 63.5690323,83.0685484 C61.8907258,84.7451613 60.9677419,86.973871 60.9677419,89.3482258 L60.9677419,90.1679032 C60.9677419,92.5405645 61.8907258,94.7709677 63.5690323,96.4458871 L65.94,98.8168548 C62.8035484,100.180161 59.4266129,101.087903 55.8870968,101.441855 L55.8870968,92.2983871 C55.8870968,89.1179032 54.3679839,86.0779839 51.8225806,84.1693548 C49.2077419,82.2065323 45.483629,82.7383065 43.5241935,85.3531452 C42.6825,86.4725806 41.088871,86.7029032 39.8627419,85.785 C37.2868548,83.8509677 33.6897581,84.3082258 31.6778226,86.8231452 L28.1518548,91.2314516 C24.9629032,87.9256452 22.4564516,83.9745968 20.8120161,79.5967742 L20.8120161,79.5967742 Z M30.6278226,93.5600806 L34.3231452,88.9417742 C35.1868548,87.8629839 36.7279839,87.6699194 37.9354839,88.5725806 C40.5503226,90.5337097 44.2727419,90.0019355 46.233871,87.3887903 C47.0755645,86.2676613 48.6691935,86.0373387 49.7903226,86.8790323 C51.4872581,88.1525806 52.5,90.1780645 52.5,92.2983871 L52.5,101.612903 C44.1643548,101.612903 36.5349194,98.5729839 30.6278226,93.5600806 Z M69.1289516,97.2164516 L65.9637097,94.0495161 C64.9255645,93.0147581 64.3548387,91.6362097 64.3548387,90.1679032 L64.3548387,89.3482258 C64.3548387,87.8799194 64.9255645,86.501371 65.9637097,85.4649194 C68.2025806,83.2243548 69.4354839,80.2470968 69.4354839,77.0327419 C69.4354839,73.8675 68.2025806,70.8902419 65.9620161,68.6479839 C64.2837097,66.971371 62.055,66.0483871 59.6857258,66.0483871 L57.5806452,66.0483871 C55.7126613,66.0483871 54.1935484,64.5292742 54.1935484,62.6612903 C54.1935484,60.7933065 55.7126613,59.2741935 57.5806452,59.2741935 C61.3166129,59.2741935 64.3548387,56.2359677 64.3548387,52.5 L64.3548387,47.4193548 C64.3548387,44.6182258 62.0753226,42.3387097 59.2741935,42.3387097 C58.3410484,42.3387097 57.5806452,41.58 57.5806452,40.6451613 L57.5806452,34.2943548 C73.848871,36.7584677 86.3709677,50.7962903 86.3709677,67.7419355 C86.3709677,80.3741129 79.4070968,91.3940323 69.1289516,97.2164516 L69.1289516,97.2164516 Z M89.7157258,66.0483871 C88.8266129,46.2880645 72.4770968,30.483871 52.5,30.483871 C32.5229032,30.483871 16.1733871,46.2880645 15.2842742,66.0483871 L11.8904032,66.0483871 C12.7812097,44.4200806 30.6566129,27.0967742 52.5,27.0967742 C74.3433871,27.0967742 92.2187903,44.4200806 93.1095968,66.0483871 L89.7157258,66.0483871 Z M77.9032258,16.9354839 L77.9032258,15.3621774 C83.6409677,16.1852419 88.0645161,21.1337903 88.0645161,27.0967742 L88.0645161,28.6700806 C82.3267742,27.8453226 77.9032258,22.8984677 77.9032258,16.9354839 L77.9032258,16.9354839 Z M101.612903,16.9354839 C101.612903,22.8984677 97.1893548,27.8453226 91.4516129,28.6700806 L91.4516129,27.0967742 C91.4516129,21.1337903 95.8751613,16.1869355 101.612903,15.3621774 L101.612903,16.9354839 Z" id="Shape"></path>
                </g>
            </g>
        </g>
    </g>
</svg>