<?xml version="1.0" encoding="UTF-8"?>
<svg width="121px" height="102px" viewBox="0 0 121 102" version="1.1" xmlns="http://www.w3.org/2000/svg" xmlns:xlink="http://www.w3.org/1999/xlink">
    <!-- Generator: Sketch 60.1 (88133) - https://sketch.com -->
    <title>ic_europe</title>
    <desc>Created with Sketch.</desc>
    <g id="Page-1" stroke="none" stroke-width="1" fill="none" fill-rule="evenodd">
        <g id="03_Terrestre" transform="translate(-1049.000000, -1354.000000)" fill="#B2B2B2" stroke="#FFFFFF">
            <g id="ic_europe" transform="translate(1050.000000, 1355.000000)">
                <path d="M118.172791,66.165814 C117.014884,64.6553488 115.132791,64.3655814 113.758372,64.1539535 C113.414186,64.1006977 113.057674,64.0460465 112.855581,63.9897674 C111.162326,63.5197674 109.934651,62.6669767 109.305349,61.5230233 C108.737442,60.4916279 108.671163,59.2372093 109.107442,57.7953488 C109.248372,57.3293023 109.492791,56.7937209 109.751163,56.2265116 C110.518837,54.5432558 111.473488,52.4483721 110.516279,50.215814 C109.703256,48.3204651 108.043953,46.6169767 106.580465,45.1139535 C106.565116,45.0981395 106.549535,45.0823256 106.534186,45.0665116 C106.579302,45.0288372 106.624651,44.9909302 106.669535,44.9534884 C107.973721,43.8632558 109.322093,42.735814 110.673721,41.7239535 C110.804884,41.6255814 111.039535,41.4804651 111.266047,41.3397674 C111.776279,41.0237209 112.354186,40.6653488 112.814884,40.2139535 C114.305814,38.7532558 114.936744,36.5809302 114.385116,34.8081395 C113.892558,33.2246512 112.572326,32.1365116 110.762558,31.8225581 C110.257209,31.7346512 109.667442,31.6848837 108.984419,31.6267442 C108.224186,31.5623256 106.61093,31.4255814 105.796744,31.1690698 C106.01186,30.332093 106.393488,28.6818605 105.030233,27.1202326 C104.337907,26.3269767 103.511628,26.0839535 102.914884,25.9930233 C102.888837,25.7011628 102.846512,25.3318605 102.743023,24.8990698 C102.087442,22.1555814 100.434651,20.0367442 98.9765116,18.1669767 C98.69,17.7995349 98.4034884,17.4325581 98.1251163,17.0609302 C97.6967442,16.49 97.1883721,15.9146512 96.6497674,15.3055814 C95.7460465,14.2832558 94.6211628,13.0106977 94.3374419,12.1611628 C94.1165116,11.4990698 94.237907,10.465814 94.3667442,9.37162791 C94.5330233,7.96209302 94.7211628,6.36465116 94.2706977,4.77302326 C93.492093,2.02255814 91.1018605,0.180930233 88.3165116,0.180930233 C88.3053488,0.180930233 88.2939535,0.180930233 88.2827907,0.180930233 C84.4725581,0.201162791 82.9906977,3.16093023 82.0106977,5.11883721 C80.7132558,7.70953488 79.4367442,10.355814 78.2023256,12.9148837 C77.5788372,14.2076744 76.9551163,15.5004651 76.3267442,16.7906977 C76.0562791,17.3465116 75.7755814,18.05 75.45,18.8646512 C74.905814,20.2276744 74.2286047,21.9237209 73.45,23.2469767 C72.5006977,24.8609302 71.944186,25.0030233 71.9481395,25.0034884 C71.5911628,24.995814 71.422093,24.9302326 71.3939535,24.9106977 C71.0632558,24.5655814 71.1172093,22.6423256 71.1402326,21.8211628 C71.1874419,20.1455814 71.2360465,18.4132558 70.4574419,17.0116279 C68.9776744,14.3467442 65.1734884,13.497907 62.3960465,12.8781395 C61.9255814,12.7732558 61.4811628,12.6739535 61.1439535,12.5848837 C60.0690698,12.3011628 59.2932558,12.0960465 58.3983721,12.3267442 C57.257907,12.6209302 56.6990698,13.4232558 56.2062791,14.1309302 C56.0990698,14.2851163 55.9751163,14.4632558 55.8255814,14.6676744 L50.584186,21.8402326 C49.9139535,22.7572093 49.2813953,23.7467442 48.6118605,24.7944186 C46.8967442,27.4774419 45.1237209,30.2513953 42.9272093,31.402093 C42.6881395,31.5274419 42.4662791,31.6416279 42.2606977,31.747907 C39.225814,33.3148837 38.4590698,34.0772093 37.895814,37.9769767 L37.85,38.2902326 C37.5381395,40.4016279 37.0667442,43.5927907 39.0044186,45.5567442 C39.7404651,46.3027907 41.1037209,47.1272093 43.4134884,46.817907 C44.0597674,46.7313953 44.5893023,46.5030233 45.0144186,46.2825581 C45.1681395,46.6286047 45.3955814,47.0109302 45.7532558,47.3681395 C46.7909302,48.4039535 48.172093,48.9476744 49.6472093,48.8997674 C51.3413953,48.844186 52.997907,48.032093 54.1927907,46.672093 C55.6465116,45.0169767 56.914186,42.0495349 56.5234884,39.5809302 C56.3251163,38.3269767 55.8990698,37.5560465 55.6169767,37.0460465 C55.5939535,37.0044186 55.5672093,36.955814 55.5427907,36.9111628 C55.5527907,36.8774419 55.5665116,36.835814 55.5844186,36.785814 C56.2727907,34.8686047 58.1723256,32.5288372 58.957907,32.3497674 C59.4765116,32.6506977 60.1067442,34.3383721 60.4506977,35.2583721 C60.8097674,36.2190698 61.1806977,37.2123256 61.6967442,38.0411628 C61.7197674,38.0783721 61.7762791,38.1881395 61.8174419,38.2681395 C62,38.6237209 62.3555814,39.3151163 62.984186,39.8474419 C62.5509302,40.0444186 62.1002326,40.2760465 61.6737209,40.5816279 C59.655814,42.0274419 58.0686047,44.0206977 57.32,46.0502326 C57.0395349,46.81 56.9162791,47.5286047 56.8074419,48.1625581 C56.7004651,48.7872093 56.607907,49.3267442 56.3895349,49.7404651 C55.9116279,50.6465116 55.265814,51.2962791 54.3569767,51.7853488 C53.9932558,51.9811628 53.5788372,52.1530233 53.125814,52.2960465 C51.8981395,52.6834884 51.2172093,53.9927907 51.6046512,55.2204651 C51.992093,56.447907 53.3018605,57.1283721 54.5290698,56.7416279 C55.2604651,56.5109302 55.9460465,56.2244186 56.5665116,55.8904651 C58.2809302,54.9681395 59.6088372,53.6302326 60.5132558,51.9148837 C61.0772093,50.8453488 61.2574419,49.7948837 61.4023256,48.9506977 C61.487907,48.452093 61.562093,48.0213953 61.6937209,47.664186 C62.1151163,46.5223256 63.147907,45.2604651 64.3890698,44.3711628 C64.6027907,44.217907 65.017907,44.0423256 65.4195349,43.872093 C66.7067442,43.3272093 69.1023256,42.3125581 69.1716279,39.495814 C69.195814,38.5274419 68.0104651,35.6516279 67.0006977,34.9027907 C66.4606977,34.5023256 65.7844186,34.347907 65.1390698,34.4686047 C65.0318605,34.1974419 64.9246512,33.9102326 64.8186047,33.6267442 C64.047907,31.5639535 63.0888372,28.9965116 60.6713953,28.0090698 C59.502093,27.5313953 58.2234884,27.5727907 56.9744186,28.1290698 C53.8316279,29.5293023 51.6976744,33.8183721 51.1976744,35.2102326 C50.4995349,37.1548837 51.0074419,38.3418605 51.5381395,39.3018605 C51.7323256,39.6530233 51.8495349,39.8648837 51.92,40.3093023 C52.0497674,41.1313953 51.4527907,42.7283721 50.6913953,43.5953488 C50.3586047,43.974186 49.8888372,44.2272093 49.4953488,44.2402326 C49.3762791,44.2434884 49.2888372,44.2244186 49.2176744,44.1918605 C49.0488372,43.612093 48.6530233,42.3204651 47.1769767,41.6237209 C45.3527907,40.7627907 43.8476744,41.6011628 43.1244186,42.004186 C42.9981395,42.0746512 42.8290698,42.1686047 42.7453488,42.2032558 C42.5353488,42.2283721 42.395814,42.2260465 42.3111628,42.2181395 C42.0811628,41.5555814 42.3655814,39.6293023 42.4630233,38.9709302 L42.5109302,38.6430233 C42.5702326,38.2325581 42.7506977,36.9834884 42.9016279,36.747907 C43.0365116,36.5937209 43.7613953,36.2197674 44.4006977,35.8895349 C44.6137209,35.7795349 44.8434884,35.6609302 45.0913953,35.5309302 C48.3855814,33.8055814 50.5932558,30.3516279 52.5409302,27.3044186 C53.1702326,26.3195349 53.7646512,25.3895349 54.3493023,24.5897674 L59.5906977,17.4172093 C59.6834884,17.2904651 59.767907,17.1723256 59.8453488,17.0623256 C59.8823256,17.072093 59.9193023,17.0816279 59.9546512,17.0911628 C60.3790698,17.2032558 60.8665116,17.3118605 61.3823256,17.4269767 C62.5046512,17.6772093 65.92,18.4393023 66.3769767,19.2613953 C66.5397674,19.6211628 66.5032558,20.9153488 66.4813953,21.6886047 C66.4225581,23.774186 66.35,26.3695349 68.0174419,28.1225581 C68.9567442,29.1097674 70.2455814,29.627907 71.8481395,29.6625581 C71.8837209,29.6634884 71.9188372,29.6637209 71.954186,29.6637209 C76.1581395,29.6630233 78.335814,24.2102326 79.7806977,20.5916279 C80.0597674,19.8923256 80.3232558,19.232093 80.5193023,18.8297674 C81.1497674,17.5344186 81.7760465,16.2362791 82.402093,14.9383721 C83.6293023,12.3946512 84.8981395,9.76395349 86.1802326,7.20395349 C87.162093,5.24232558 87.52,4.84511628 88.3086047,4.84093023 C88.3113953,4.84093023 88.3137209,4.84093023 88.3165116,4.84093023 C89.0032558,4.84093023 89.5795349,5.31116279 89.7860465,6.04046512 C89.9837209,6.73883721 89.8644186,7.75162791 89.7381395,8.82418605 C89.5634884,10.3062791 89.365814,11.9860465 89.9169767,13.6360465 C90.5013953,15.3851163 91.9125581,16.982093 93.157907,18.3909302 C93.6325581,18.927907 94.0806977,19.4348837 94.3965116,19.8565116 C94.6927907,20.2511628 94.9969767,20.6418605 95.3016279,21.0323256 C96.5813953,22.6727907 97.79,24.2223256 98.2104651,25.9813953 C98.252093,26.1565116 98.2667442,26.3274419 98.2848837,26.5439535 C98.3467442,27.2837209 98.4504651,28.522093 99.7865116,29.7169767 C100.245581,30.1276744 100.74186,30.3374419 101.173488,30.4493023 C100.982558,31.2997674 100.829302,32.6669767 101.868372,33.9937209 C103.299302,35.8213953 106.233721,36.0704651 108.591395,36.2704651 C109.086977,36.3123256 109.557907,36.3525581 109.869302,36.3986047 C109.811628,36.5483721 109.70907,36.7295349 109.557674,36.8781395 C109.44186,36.9846512 109.047209,37.2293023 108.811163,37.3755814 C108.49907,37.5690698 108.176512,37.7693023 107.881163,37.9902326 C106.429302,39.0774419 105.032093,40.2453488 103.680698,41.3751163 C103.024419,41.9237209 102.345581,42.4911628 101.679302,43.0332558 C101.196279,43.4260465 100.890698,43.9955814 100.830465,44.6148837 C100.769767,45.234186 100.959535,45.8518605 101.356977,46.3306977 C101.915581,47.0032558 102.559767,47.6648837 103.242326,48.3653488 C104.423023,49.5776744 105.761395,50.9518605 106.233256,52.0518605 C106.377907,52.3890698 105.835116,53.5797674 105.51093,54.2909302 C105.2,54.9730233 104.878372,55.6781395 104.646744,56.4430233 C103.844651,59.0937209 104.043488,61.6272093 105.222326,63.7690698 C106.453023,66.0053488 108.721628,67.6786047 111.61,68.4802326 C111.836977,68.5434884 112.070698,68.5937209 112.305581,68.6374419 C111.562326,68.7123256 110.764419,68.7455814 109.980233,68.7783721 C109.152791,68.8130233 108.297209,68.8488372 107.494884,68.9348837 C106.687209,69.0213953 105.857674,69.1544186 105.055581,69.2832558 C103.564186,69.5225581 102.02186,69.7706977 100.746279,69.6909302 C99.7023256,69.6262791 98.2832558,69.0393023 96.9111628,68.4718605 C94.4713953,67.4627907 91.7060465,66.3190698 89.0209302,67.1651163 C87.8355814,67.5388372 86.9432558,68.0244186 86.2262791,68.4144186 C84.8730233,69.1511628 84.6990698,69.2462791 83.2483721,68.364186 C82.187907,67.7193023 80.5823256,66.9306977 78.8874419,67.5223256 C77.0225581,68.1737209 76.3660465,69.9597674 75.7311628,71.6869767 C75.6604651,71.8797674 75.5874419,72.0786047 75.5104651,72.2823256 C75.3644186,72.6693023 75.1697674,73.1125581 74.9639535,73.582093 C74.0137209,75.7483721 72.712093,78.7153488 73.9839535,81.5160465 C74.2055814,82.0044186 74.4476744,82.4039535 74.6511628,82.7311628 C73.9853488,83.2095349 72.7383721,83.45 71.53,83.6827907 C70.642093,83.8539535 69.724186,84.0309302 68.8693023,84.3286047 C68.2176744,84.5553488 66.2348837,85.2460465 65.697907,87.152093 C65.1709302,89.0230233 66.3904651,90.5104651 67.2809302,91.5967442 C67.6248837,92.0162791 68.0144186,92.4918605 68.1548837,92.8030233 C68.3623256,93.2990698 67.9951163,94.6344186 67.5688372,95.0902326 C66.7925581,94.5511628 65.9076744,93.0665116 65.1944186,91.8704651 C64.7853488,91.184186 64.3988372,90.5362791 63.9874419,89.9572093 C63.772093,89.654186 63.5209302,89.3534884 63.2781395,89.0627907 C63.0153488,88.7481395 62.5781395,88.2246512 62.4811628,88.0090698 C62.4553488,87.8623256 62.4802326,87.4676744 62.4967442,87.2034884 C62.5323256,86.6402326 62.5765116,85.9390698 62.4327907,85.207907 C61.8395349,82.1851163 54.7102326,74.6637209 50.3213953,73.9765116 C48.5448837,73.697907 47.0023256,74.4095349 46.1918605,75.877907 C45.532093,77.0730233 45.727907,78.5911628 47.0513953,82.3586047 C46.9939535,82.3039535 46.9448837,82.257907 46.9011628,82.2186047 C46.365814,81.732093 45.992093,80.9190698 45.5969767,80.0586047 C45.0797674,78.9327907 44.4934884,77.6562791 43.3269767,76.8218605 C41.8895349,75.7930233 40.0816279,75.7553488 37.9548837,76.7109302 C37.7148837,76.8186047 37.49,76.9230233 37.2772093,77.022093 C35.9167442,77.654186 35.6716279,77.7683721 34.6274419,77.4811628 C31.5334884,76.6290698 29.3362791,76.3367442 27.0737209,79.8972093 C26.6211628,80.6090698 26.6060465,80.6148837 25.8176744,80.9132558 C25.3855814,81.0767442 24.7939535,81.3006977 24.0562791,81.6723256 C22.3574419,82.527907 21.1765116,83.7974419 20.1348837,84.9174419 L19.9102326,85.1583721 C19.4723256,85.6276744 19.0472093,86.1462791 18.5972093,86.6953488 C17.4795349,88.06 15.9516279,89.9246512 14.7872093,89.9246512 C14.7786047,89.9246512 14.7697674,89.9246512 14.7613953,89.9244186 C14.17,89.91 13.5960465,89.82 12.9888372,89.7244186 C12.0672093,89.5797674 11.0227907,89.415814 9.78255814,89.4955814 C9.36139535,89.5230233 9.13,89.5097674 9.01837209,89.4969767 C8.93465116,89.3981395 8.81069767,89.2334884 8.70604651,89.0946512 C8.43581395,88.7362791 8.1,88.2906977 7.6144186,87.7662791 C6.93255814,87.0295349 6.19302326,86.495814 5.59860465,86.0674419 C5.28488372,85.8411628 4.8244186,85.5088372 4.66837209,85.3274419 C4.67674419,85.2555814 4.70465116,85.107907 4.7972093,84.864186 C5.55418605,82.8755814 6.7244186,80.814186 7.85604651,78.8206977 C8.28744186,78.0606977 8.73348837,77.2753488 9.14976744,76.5051163 C9.80581395,75.292093 10.2655814,74.9686047 10.4813953,74.8837209 C10.8290698,74.7474419 11.4890698,74.8795349 12.3390698,75.257907 C14,75.9962791 15.6837209,76.8086047 17.3118605,77.5944186 C18.1523256,78 18.9932558,78.4055814 19.835814,78.804186 C20.3981395,79.07 21.0427907,79.1004651 21.6272093,78.8883721 C22.2118605,78.6765116 22.6874419,78.2397674 22.9481395,77.6755814 C23.1960465,77.1397674 23.5155814,76.5516279 23.8537209,75.9290698 C24.622093,74.5139535 25.4934884,72.9102326 25.8604651,71.25 C26.0306977,70.4788372 25.99,69.7953488 25.9572093,69.2460465 C25.935814,68.8862791 25.9172093,68.575814 25.9697674,68.4 C26.2267442,67.5393023 27.1234884,66.8465116 28.1618605,66.044186 L28.4995349,65.7823256 C30.2302326,64.4316279 32.8632558,62.4467442 35.7318605,60.8123256 C36.8502326,60.1751163 37.2402326,58.7513953 36.6030233,57.6330233 C35.965814,56.5144186 34.5427907,56.1244186 33.4234884,56.7616279 C30.292093,58.5460465 27.4765116,60.6667442 25.6311628,62.1067442 L25.3111628,62.3546512 C23.92,63.4295349 22.1886047,64.7672093 21.502093,67.065814 C21.2139535,68.0313953 21.2655814,68.8939535 21.3030233,69.5237209 C21.3204651,69.8109302 21.337907,70.1076744 21.307907,70.2437209 C21.0883721,71.2383721 20.4395349,72.4455814 19.802093,73.6197674 C19.6472093,73.5451163 19.4923256,73.4702326 19.3374419,73.3955814 C17.6767442,72.5944186 15.96,71.7660465 14.2330233,70.997907 C10.2155814,69.2109302 7.21069767,70.2872093 5.04837209,74.287907 C4.65488372,75.0153488 4.24046512,75.7455814 3.80162791,76.5188372 C2.58325581,78.6646512 1.32348837,80.8837209 0.439767442,83.205814 C-1.01976744,87.0418605 1.51186047,88.8674419 2.87162791,89.8483721 C3.36302326,90.2027907 3.82767442,90.537907 4.19325581,90.9330233 C4.51883721,91.2844186 4.75488372,91.5976744 4.98302326,91.9004651 C6.03209302,93.2927907 7.07372093,94.3411628 10.0827907,94.147907 C10.8083721,94.1002326 11.4834884,94.2072093 12.2651163,94.33 C12.9611628,94.4393023 13.75,94.5632558 14.6483721,94.5851163 C18.0937209,94.667907 20.4686047,91.767907 22.2034884,89.6502326 C22.6037209,89.1611628 22.982093,88.6995349 23.3169767,88.3409302 L23.5481395,88.0925581 C24.4351163,87.1390698 25.2009302,86.3151163 26.1532558,85.835814 C26.6725581,85.574186 27.0765116,85.4213953 27.4672093,85.2734884 C28.8297674,84.757907 29.812093,84.2793023 31.0081395,82.3974419 C31.337907,81.8786047 31.5304651,81.6630233 31.6167442,81.5802326 C31.9883721,81.59 32.9572093,81.8569767 33.3890698,81.975814 C36.0834884,82.7176744 37.6174419,82.0046512 39.2418605,81.2497674 C39.4376744,81.1586047 39.6439535,81.0627907 39.8648837,80.9634884 C40.2893023,80.7727907 40.5486047,80.7104651 40.6797674,80.6906977 C40.8760465,80.9504651 41.1623256,81.5737209 41.3602326,82.004186 C41.8795349,83.1351163 42.5262791,84.5425581 43.765814,85.6688372 C43.8765116,85.7693023 44.2095349,86.0983721 44.5627907,86.4469767 C45.4481395,87.3211628 46.7860465,88.642093 48.0104651,89.7390698 C49.8997674,91.4311628 51.2546512,92.5023256 52.8395349,91.9944186 C53.4555814,91.7969767 53.97,91.347907 54.2506977,90.7625581 C54.7862791,89.6460465 54.5444186,89.0144186 52.97,84.9051163 C52.414186,83.4553488 51.4413953,80.9155814 50.8923256,79.1474419 C51.6711628,79.6060465 52.7651163,80.395814 54.1530233,81.7037209 C56.3497674,83.7734884 57.6455814,85.6090698 57.864186,86.1504651 C57.8809302,86.3167442 57.8595349,86.6560465 57.8434884,86.9102326 C57.7974419,87.6416279 57.74,88.5516279 58.0625581,89.4997674 C58.4013953,90.4967442 59.0909302,91.3223256 59.6993023,92.0506977 C59.8932558,92.2827907 60.0762791,92.502093 60.1862791,92.6567442 C60.4893023,93.0832558 60.8293023,93.6534884 61.1893023,94.2572093 C62.2051163,95.9609302 63.3565116,97.8916279 65.0248837,98.9976744 C65.8504651,99.5448837 66.7423256,99.8165116 67.62,99.8165116 C68.6374419,99.8165116 69.6353488,99.4511628 70.4874419,98.7281395 C72.5867442,96.9439535 73.4827907,93.2806977 72.4046512,90.8890698 C72.01,90.014186 71.4125581,89.2851163 70.8851163,88.6418605 C70.8730233,88.6269767 70.8606977,88.6118605 70.8481395,88.5965116 C71.3083721,88.4737209 71.8483721,88.3695349 72.4118605,88.2609302 C74.1832558,87.9193023 76.1911628,87.5323256 77.7516279,86.2216279 C80.75,83.7032558 79.2865116,81.3560465 78.6616279,80.3537209 C78.497907,80.0911628 78.3432558,79.8432558 78.227907,79.5886047 C77.8167442,78.6827907 78.6018605,76.8930233 79.2325581,75.4551163 C79.4534884,74.9513953 79.6816279,74.4306977 79.8711628,73.9293023 C79.9530233,73.7127907 80.0309302,73.5013953 80.1060465,73.2962791 C80.2353488,72.9444186 80.3937209,72.5144186 80.535814,72.1818605 C80.62,72.2267442 80.7162791,72.2816279 80.825814,72.3483721 C84.5695349,74.6246512 86.7234884,73.4518605 88.4544186,72.51 C89.077907,72.1706977 89.6669767,71.85 90.4218605,71.612093 C91.4909302,71.2748837 93.4234884,72.0751163 95.1288372,72.7804651 C96.8539535,73.4939535 98.6376744,74.2318605 100.457209,74.3448837 C102.25,74.455814 104.051628,74.1667442 105.794186,73.8869767 C106.571163,73.7623256 107.305116,73.6444186 107.991163,73.5709302 C108.642791,73.5011628 109.386977,73.47 110.174651,73.4372093 C111.954419,73.3627907 113.971395,73.2783721 115.72814,72.6867442 C117.340233,72.1434884 118.499767,71.0609302 118.909535,69.7165116 C119.273488,68.5218605 119.012093,67.2606977 118.172791,66.165814 Z" id="Path"></path>
                <path d="M46.495814,55.2665116 C46.3983721,53.9832558 45.272093,53.0211628 43.9851163,53.1197674 L43.9511628,53.1223256 C42.6672093,53.2197674 41.7155814,54.3388372 41.8132558,55.6225581 C41.9060465,56.8460465 42.9365116,57.7762791 44.1446512,57.7762791 C44.2039535,57.7762791 44.2637209,57.774186 44.3239535,57.7693023 L44.357907,57.7667442 C45.6416279,57.6693023 46.5934884,56.5502326 46.495814,55.2665116 Z" id="Path"></path>
                <path d="M33.9190698,49.9311628 C33.702093,48.7269767 33.3169767,47.535814 32.9444186,46.3839535 C32.457907,44.8788372 31.9986047,43.4574419 31.974186,42.242093 C31.9674419,41.9116279 32.1681395,41.1776744 32.3290698,40.5881395 C32.8497674,38.6813953 33.6367442,35.8 31.4511628,33.712093 C29.5632558,31.907907 26.0323256,31.61 23.6686047,32.2460465 C21.7023256,32.7748837 20.3623256,33.9523256 19.8948837,35.5613953 C19.392093,37.2916279 19.6904651,38.9125581 19.9537209,40.3427907 C20.162093,41.4744186 20.3418605,42.4516279 20.1004651,43.2474419 C19.6560465,44.7130233 18.9748837,46.1830233 18.2537209,47.7397674 C17.89,48.5246512 17.5144186,49.335814 17.1716279,50.1467442 C17.1281395,50.2495349 17.0155814,50.4806977 16.9069767,50.704186 C15.6288372,53.3311628 14.4902326,56.0695349 15.7888372,58.1453488 C16.1774419,58.7662791 17.1190698,59.8081395 19.0625581,59.8081395 C19.607907,59.8081395 20.1946512,59.8204651 20.815814,59.8334884 C21.4913953,59.847907 22.194186,59.8625581 22.9095349,59.8625581 C26.45,59.8625581 30.2855814,59.4981395 32.5074419,56.8969767 C33.9690698,55.1851163 34.4439535,52.8413953 33.9190698,49.9311628 Z M28.962093,53.8688372 C27.7265116,55.315814 23.7893023,55.2327907 20.9144186,55.1718605 C20.6234884,55.165814 20.3397674,55.16 20.0616279,55.1551163 C20.2546512,54.5732558 20.6011628,53.7669767 21.0997674,52.7430233 C21.2534884,52.4267442 21.3748837,52.1769767 21.4665116,51.9604651 C21.777907,51.2230233 22.1206977,50.4827907 22.4839535,49.6990698 C23.2404651,48.0660465 24.0227907,46.3769767 24.5618605,44.5997674 C25.1316279,42.7206977 24.8027907,40.934186 24.5386047,39.4986047 C24.3537209,38.4939535 24.1932558,37.6197674 24.3465116,36.9593023 C25.0013953,36.4334884 27.5476744,36.4986047 28.2251163,37.0774419 C28.354186,37.4474419 28.0153488,38.6883721 27.832093,39.3595349 C27.5669767,40.3293023 27.2932558,41.3318605 27.3132558,42.3346512 C27.3509302,44.2372093 27.9395349,46.0572093 28.5086047,47.8176744 C28.8483721,48.8690698 29.1697674,49.8623256 29.3311628,50.7581395 C29.5953488,52.225814 29.4713953,53.2725581 28.962093,53.8688372 Z" id="Shape"></path>
            </g>
        </g>
    </g>
</svg>