<?xml version="1.0" encoding="UTF-8"?>
<svg width="100px" height="100px" viewBox="0 0 100 100" version="1.1" xmlns="http://www.w3.org/2000/svg" xmlns:xlink="http://www.w3.org/1999/xlink">
    <!-- Generator: Sketch 60.1 (88133) - https://sketch.com -->
    <title>ic_flex</title>
    <desc>Created with Sketch.</desc>
    <g id="Page-1" stroke="none" stroke-width="1" fill="none" fill-rule="evenodd">
        <g id="02_Maritimo" transform="translate(-670.000000, -1746.000000)" fill="#B2B2B2">
            <g id="Group-14" transform="translate(540.000000, 1746.000000)">
                <g id="ic_flex" transform="translate(130.000000, 0.000000)">
                    <g id="clock-(5)">
                        <path d="M81.6129032,11.2903226 L85.483871,11.2903226 L85.483871,8.06451613 L77.4193548,8.06451613 C76.528573,8.06451613 75.8064516,8.7866375 75.8064516,9.67741935 L75.8064516,17.7419355 L79.0322581,17.7419355 L79.0322581,13.3548387 C97.9422797,28.3652898 102.320764,55.3018345 89.1385207,75.5288221 C75.9562776,95.7558097 49.5452076,102.626322 28.1774194,91.3870968 L26.6612903,94.2258065 C49.3729233,106.165136 77.4355933,98.9750891 91.6079128,77.5855772 C105.780232,56.1960653 101.461507,27.5506672 81.6129032,11.2903226 Z" id="Path"></path>
                        <path d="M20.9677419,86.6612903 C2.01089904,71.6648126 -2.39730929,44.6945809 10.798317,24.4428728 C23.9939433,4.19116464 50.4465372,-2.67075766 71.8225806,8.61290323 L73.3387097,5.77419355 C50.6270767,-6.16513605 22.5644067,1.02491085 8.39208716,22.4144228 C-5.78023239,43.8039347 -1.46150655,72.4493328 18.3870968,88.7096774 L14.516129,88.7096774 L14.516129,91.9354839 L22.5806452,91.9354839 C23.471427,91.9354839 24.1935484,91.2133625 24.1935484,90.3225806 L24.1935484,82.2580645 L20.9677419,82.2580645 L20.9677419,86.6612903 Z" id="Path"></path>
                        <path d="M12.9032258,50 C12.9032258,70.4879827 29.5120173,87.0967742 50,87.0967742 C70.4879827,87.0967742 87.0967742,70.4879827 87.0967742,50 C87.0967742,29.5120173 70.4879827,12.9032258 50,12.9032258 C29.5120173,12.9032258 12.9032258,29.5120173 12.9032258,50 Z M83.8709677,50 C83.8709677,68.7064189 68.7064189,83.8709677 50,83.8709677 C31.2935811,83.8709677 16.1290323,68.7064189 16.1290323,50 C16.1290323,31.2935811 31.2935811,16.1290323 50,16.1290323 C58.9831392,16.1290323 67.5983524,19.6975704 73.950391,26.049609 C80.3024296,32.4016476 83.8709677,41.0168608 83.8709677,50 Z" id="Shape"></path>
                        <path d="M19.3548387,50 C19.3548387,66.9248552 33.0751448,80.6451613 50,80.6451613 C66.9248552,80.6451613 80.6451613,66.9248552 80.6451613,50 C80.6451613,33.0751448 66.9248552,19.3548387 50,19.3548387 C33.0751448,19.3548387 19.3548387,33.0751448 19.3548387,50 Z M67.2741935,35.016129 L70.5,31.7903226 C74.6151394,36.382055 77.0540475,42.2320233 77.4193548,48.3870968 L72.5806452,48.3870968 L72.5806452,51.6129032 L77.4193548,51.6129032 C77.0603657,57.7507577 74.639261,63.5875522 70.5483871,68.1774194 L67.3225806,64.9516129 L65.0322581,67.2419355 L68.2580645,70.4677419 C63.6580246,74.6046668 57.7888543,77.0558416 51.6129032,77.4193548 L51.6129032,72.5806452 L48.3870968,72.5806452 L48.3870968,77.4193548 C42.2492423,77.0603657 36.4124478,74.639261 31.8225806,70.5483871 L35.0483871,67.3225806 L32.7580645,65.0322581 L29.5322581,68.2580645 C25.4246242,63.6468871 23.0023658,57.7788809 22.6612903,51.6129032 L27.4193548,51.6129032 L27.4193548,48.3870968 L22.6612903,48.3870968 C23.0202795,42.2492423 25.4413841,36.4124478 29.5322581,31.8225806 L32.7580645,35.0483871 L35.0483871,32.7580645 L31.8225806,29.5322581 C36.4124478,25.4413841 42.2492423,23.0202795 48.3870968,22.6612903 L48.3870968,27.4193548 L51.6129032,27.4193548 L51.6129032,22.6612903 C57.7507577,23.0202795 63.5875522,25.4413841 68.1774194,29.5322581 L64.9516129,32.7580645 L67.2741935,35.016129 Z" id="Shape"></path>
                        <path d="M51.6129032,30.6451613 L48.3870698,30.6451613 L48.3870698,50 C48.3846181,50.4287145 48.552925,50.8407761 48.8548387,51.1451613 L58.5322581,60.8225806 L60.8225806,58.5322581 L51.6129032,49.3387097 L51.6129032,30.6451613 Z" id="Path"></path>
                    </g>
                </g>
            </g>
        </g>
    </g>
</svg>