<?xml version="1.0" encoding="UTF-8"?>
<svg width="104px" height="95px" viewBox="0 0 104 95" version="1.1" xmlns="http://www.w3.org/2000/svg" xmlns:xlink="http://www.w3.org/1999/xlink">
    <!-- Generator: Sketch 60.1 (88133) - https://sketch.com -->
    <title>ic_grupaje</title>
    <desc>Created with Sketch.</desc>
    <g id="Page-1" stroke="none" stroke-width="1" fill="none" fill-rule="evenodd">
        <g id="03_Terrestre" transform="translate(-293.000000, -1359.000000)" fill="#B2B2B2">
            <g id="ic_grupaje" transform="translate(293.000000, 1359.000000)">
                <path d="M102.325956,60.4948372 L88.9336016,60.4948372 C88.0078551,60.4948372 87.2595573,61.2459814 87.2595573,62.1752493 L87.2595573,63.8556614 L82.2374245,63.8556614 C81.3116781,63.8556614 80.5633803,64.6068057 80.5633803,65.5360736 L80.5633803,67.2164857 L78.889336,67.2164857 L78.889336,5.04123643 C78.889336,2.26183474 76.6360724,0 73.8672032,0 L10.2535211,0 C7.48465191,0 5.23138833,2.26183474 5.23138833,5.04123643 L5.23138833,53.7731886 L1.8832998,53.7731886 C1.20698592,53.7731886 0.594285714,54.1815287 0.336482897,54.8100029 C0.0770060362,55.438477 0.220973843,56.1610542 0.699750503,56.6416521 L30.8325473,86.8890707 C31.1455936,87.2049882 31.5708008,87.3814314 32.0160966,87.3814314 L80.5633803,87.3814314 L80.5633803,89.0618436 C80.5633803,89.9911115 81.3116781,90.7422557 82.2374245,90.7422557 L87.2595573,90.7422557 L87.2595573,92.4226679 C87.2595573,93.3519358 88.0078551,94.10308 88.9336016,94.10308 L102.325956,94.10308 C103.251702,94.10308 104,93.3519358 104,92.4226679 L104,62.1752493 C104,61.2459814 103.251702,60.4948372 102.325956,60.4948372 Z M33.6901408,3.36082429 L50.4305835,3.36082429 L50.4305835,23.52577 L33.6901408,23.52577 L33.6901408,3.36082429 Z M8.57947686,5.04123643 C8.57947686,4.11364893 9.32944869,3.36082429 10.2535211,3.36082429 L30.3420523,3.36082429 L30.3420523,25.2061821 C30.3420523,26.1354501 31.0903501,26.8865943 32.0160966,26.8865943 L52.1046278,26.8865943 C53.0303742,26.8865943 53.778672,26.1354501 53.778672,25.2061821 L53.778672,3.36082429 L73.8672032,3.36082429 C74.7912757,3.36082429 75.5412475,4.11364893 75.5412475,5.04123643 L75.5412475,67.2164857 L72.8292958,67.2164857 L58.238326,54.1983329 C57.9319759,53.9244257 57.5369014,53.7731886 57.1267606,53.7731886 L50.4305835,53.7731886 L50.4305835,48.7319522 C50.4305835,47.8026842 49.6822857,47.05154 48.7565392,47.05154 L35.3641851,47.05154 C34.4384386,47.05154 33.6901408,47.8026842 33.6901408,48.7319522 L33.6901408,53.7731886 C33.013827,53.7731886 32.4011268,54.1815287 32.1433239,54.8100029 C31.8838471,55.438477 32.0278149,56.1610542 32.5065915,56.6416521 L33.6901408,57.8297035 L33.6901408,67.2164857 L27.6870181,67.2164857 L20.990841,60.4948372 L26.9939638,60.4948372 C27.9197103,60.4948372 28.668008,59.7436929 28.668008,58.814425 L28.668008,48.7319522 C28.668008,47.8026842 27.9197103,47.05154 26.9939638,47.05154 L13.6016097,47.05154 C12.6758632,47.05154 11.9275654,47.8026842 11.9275654,48.7319522 L11.9275654,53.7731886 L8.57947686,53.7731886 L8.57947686,5.04123643 Z M47.082495,53.7731886 L37.0382294,53.7731886 L37.0382294,50.4123643 L47.082495,50.4123643 L47.082495,53.7731886 Z M37.0382294,61.1905278 L39.2027686,63.3633007 C39.5158149,63.6792182 39.9410221,63.8556614 40.3863179,63.8556614 L48.7565392,63.8556614 C49.6806117,63.8556614 50.4305835,64.6084861 50.4305835,65.5360736 C50.4305835,66.4636611 49.6806117,67.2164857 48.7565392,67.2164857 L37.0382294,67.2164857 L37.0382294,61.1905278 Z M15.2756539,54.7579101 L15.2756539,50.4123643 L25.3199195,50.4123643 L25.3199195,57.1340129 L17.6427525,57.1340129 L15.2756539,54.7579101 Z M32.7091509,84.0206072 L5.92444266,57.1340129 L12.9085553,57.1340129 L25.8104145,70.0849493 C26.1234608,70.4008667 26.548668,70.57731 26.9939638,70.57731 L48.7565392,70.57731 C51.5254085,70.57731 53.778672,68.3154753 53.778672,65.5360736 C53.778672,62.7566719 51.5254085,60.4948372 48.7565392,60.4948372 L41.0793722,60.4948372 L37.7312837,57.1340129 L56.4906237,57.1340129 L71.0815936,70.1521657 C71.3879437,70.4260729 71.7830181,70.57731 72.193159,70.57731 L80.5633803,70.57731 L80.5633803,84.0206072 L32.7091509,84.0206072 Z M83.9114688,87.3814314 L83.9114688,67.2164857 L87.2595573,67.2164857 L87.2595573,87.3814314 L83.9114688,87.3814314 Z M100.651911,90.7422557 L90.6076459,90.7422557 L90.6076459,89.0618436 L90.6076459,65.5360736 L90.6076459,63.8556614 L100.651911,63.8556614 L100.651911,90.7422557 Z" id="Shape"></path>
                <polygon id="Path" points="11.9275654 40.3298914 28.668008 40.3298914 28.668008 43.6907157 11.9275654 43.6907157"></polygon>
                <polygon id="Path" points="11.9275654 33.6082429 28.668008 33.6082429 28.668008 36.9690672 11.9275654 36.9690672"></polygon>
                <polygon id="Path" points="68.8450704 42.0103036 72.193159 42.0103036 72.193159 58.814425 68.8450704 58.814425"></polygon>
                <polygon id="Path" points="63.8229376 42.0103036 67.1710262 42.0103036 67.1710262 58.814425 63.8229376 58.814425"></polygon>
                <polygon id="Path" points="45.4084507 8.40206072 48.7565392 8.40206072 48.7565392 21.8453579 45.4084507 21.8453579"></polygon>
            </g>
        </g>
    </g>
</svg>