<?xml version="1.0" encoding="UTF-8"?>
<svg width="95px" height="95px" viewBox="0 0 95 95" version="1.1" xmlns="http://www.w3.org/2000/svg" xmlns:xlink="http://www.w3.org/1999/xlink">
    <!-- Generator: Sketch 60.1 (88133) - https://sketch.com -->
    <title>ic_gestion_white</title>
    <desc>Created with Sketch.</desc>
    <g id="Page-1" stroke="none" stroke-width="1" fill="none" fill-rule="evenodd">
        <g id="08_Logística" transform="translate(-645.000000, -5400.000000)" fill="#FFFFFF" fill-rule="nonzero">
            <g id="Group-45" transform="translate(-5.000000, 1895.000000)">
                <g id="Group-29">
                    <g id="Group-25" transform="translate(5.000000, 2964.000000)">
                        <g id="ic_gestion_white" transform="translate(645.000000, 541.000000)">
                            <path d="M90.4032258,21.4516129 L88.8709677,21.4516129 L88.8709677,1.53225806 C88.8709677,0.686822802 88.1841449,0 87.3387097,0 L7.66129032,0 C6.81585506,0 6.12903226,0.686822802 6.12903226,1.53225806 L6.12903226,21.4516129 L4.59677419,21.4516129 C2.06271259,21.4516129 0,23.5143255 0,26.0483871 L0,72.016129 C0,74.5501906 2.06271259,76.6129032 4.59677419,76.6129032 L35.2419355,76.6129032 L35.2419355,82.7419355 L33.7096774,82.7419355 C27.7953708,82.7419355 22.983871,87.5534353 22.983871,93.4677419 C22.983871,94.3131772 23.6706938,95 24.516129,95 L70.483871,95 C71.3293062,95 72.016129,94.3131772 72.016129,93.4677419 C72.016129,87.5534353 67.2046292,82.7419355 61.2903226,82.7419355 L59.7580645,82.7419355 L59.7580645,76.6129032 L90.4032258,76.6129032 C92.9372874,76.6129032 95,74.5501906 95,72.016129 L95,26.0483871 C95,23.5143255 92.9372874,21.4516129 90.4032258,21.4516129 Z M9.19354839,15.3225806 L85.8064516,15.3225806 L85.8064516,67.4193548 L9.19354839,67.4193548 L9.19354839,15.3225806 Z M85.8064516,3.06451613 L85.8064516,12.2580645 L9.19354839,12.2580645 L9.19354839,3.06451613 L85.8064516,3.06451613 Z M68.7967411,91.9354839 L26.2032589,91.9354839 C26.9140231,88.443761 30.0107107,85.8064516 33.7096774,85.8064516 L61.2903226,85.8064516 C64.9907856,85.8064516 68.0859769,88.443761 68.7967411,91.9354839 Z M56.6935484,82.7419355 L38.3064516,82.7419355 L38.3064516,76.6129032 L56.6935484,76.6129032 L56.6935484,82.7419355 Z M91.9354839,72.016129 C91.9354839,72.860068 91.2471648,73.5483871 90.4032258,73.5483871 L4.59677419,73.5483871 C3.75283518,73.5483871 3.06451613,72.860068 3.06451613,72.016129 L3.06451613,26.0483871 C3.06451613,25.2044481 3.75283518,24.516129 4.59677419,24.516129 L6.12903226,24.516129 L6.12903226,68.9516129 C6.12903226,69.7970482 6.81585506,70.483871 7.66129032,70.483871 L87.3387097,70.483871 C88.1841449,70.483871 88.8709677,69.7970482 88.8709677,68.9516129 L88.8709677,24.516129 L90.4032258,24.516129 C91.2471648,24.516129 91.9354839,25.2044481 91.9354839,26.0483871 L91.9354839,72.016129 Z" id="Shape"></path>
                            <path d="M67.4193548,18.3870968 C63.9246393,18.3870968 60.7082442,19.5759434 58.1277958,21.5541125 C56.7780919,20.9443516 55.3647933,20.4909589 53.9066044,20.2231131 L53.3514601,23.2367533 C54.1482643,23.3841435 54.9256158,23.6056027 55.6850113,23.875693 C53.4494708,26.5384404 52.0967742,29.9680649 52.0967742,33.7096774 C52.0967742,40.3579418 56.3613596,46.0148769 62.2921261,48.1314579 C61.6905951,48.8497039 61.0419292,49.5275486 60.313957,50.1275832 L62.2651919,52.4903132 C63.5273596,51.4488566 64.6294182,50.2413054 65.5713677,48.9095577 C66.1796324,48.9828788 66.7923859,49.0322581 67.4193548,49.0322581 C75.8684712,49.0322581 82.7419355,42.1587937 82.7419355,33.7096774 C82.7419355,25.2605611 75.8684712,18.3870968 67.4193548,18.3870968 L67.4193548,18.3870968 Z M79.571927,32.1774194 L73.5192083,32.1774194 C73.3875299,28.5106241 72.7822581,24.8483178 71.6547615,22.2207346 C75.8684712,23.780675 78.9943376,27.5821414 79.571927,32.1774194 Z M67.4193548,45.9677419 C66.6839008,45.9677419 64.6488706,42.2859832 64.3840175,35.2419355 L70.4546922,35.2419355 C70.1898391,42.2859832 68.1548088,45.9677419 67.4193548,45.9677419 Z M55.2667827,32.1774194 C55.8443721,27.5821414 58.9702385,23.780675 63.1839482,22.2207346 C62.0564516,24.8483178 61.4511798,28.5106241 61.3195014,32.1774194 L55.2667827,32.1774194 Z M64.3840175,32.1774194 C64.6473744,25.1333716 66.6824046,21.4516129 67.4193548,21.4516129 C68.1563051,21.4516129 70.1898391,25.1333716 70.4546922,32.1774194 L64.3840175,32.1774194 Z M55.2667827,35.2419355 L61.3195014,35.2419355 C61.4511798,38.9087307 62.0564516,42.571037 63.1839482,45.1986202 C58.9702385,43.6386798 55.8443721,39.8372134 55.2667827,35.2419355 Z M71.6547615,45.1986202 C72.7822581,42.571037 73.3875299,38.9102272 73.5192083,35.2419355 L79.571927,35.2419355 C78.9943376,39.8372134 75.8684712,43.6386798 71.6547615,45.1986202 Z" id="Shape"></path>
                            <polygon id="Path" points="12.2580645 6.12903226 15.3225806 6.12903226 15.3225806 9.19354839 12.2580645 9.19354839"></polygon>
                            <polygon id="Path" points="18.3870968 6.12903226 21.4516129 6.12903226 21.4516129 9.19354839 18.3870968 9.19354839"></polygon>
                            <polygon id="Path" points="24.516129 6.12903226 27.5806452 6.12903226 27.5806452 9.19354839 24.516129 9.19354839"></polygon>
                            <path d="M48.4696321,40.1851138 L37.1422946,30.9159998 C37.7655226,29.7870069 38.5271627,28.7373203 39.420481,27.7893854 L37.1909258,25.6870195 C36.2489761,26.6858304 35.4379569,27.7841482 34.7451487,28.9550387 L31.6162896,26.3947912 C31.0529155,25.9316721 30.2403998,25.9316721 29.6755292,26.3947912 L12.8206905,40.1851138 C12.3194146,40.5958606 12.1293788,41.2759497 12.3470971,41.8857107 C12.5648153,42.4954716 13.142405,42.9032258 13.7903226,42.9032258 L15.3225806,42.9032258 L15.3225806,62.8225806 C15.3225806,63.6680159 16.0094034,64.3548387 16.8548387,64.3548387 L44.4354839,64.3548387 C45.2809191,64.3548387 45.9677419,63.6680159 45.9677419,62.8225806 L45.9677419,42.9032258 L47.5,42.9032258 C48.1479176,42.9032258 48.7255073,42.4954716 48.9432254,41.8857107 C49.1609438,41.2759497 48.970908,40.5958606 48.4696321,40.1851138 Z M30.6451613,29.5603107 L43.2084803,39.8387097 L18.0818422,39.8387097 L30.6451613,29.5603107 Z M33.7096774,61.2903226 L27.5806452,61.2903226 L27.5806452,52.0967742 L33.7096774,52.0967742 L33.7096774,61.2903226 Z M42.9032258,61.2903226 L36.7741935,61.2903226 L36.7741935,50.5645161 C36.7741935,49.7190809 36.0873707,49.0322581 35.2419355,49.0322581 L26.0483871,49.0322581 C25.2029518,49.0322581 24.516129,49.7190809 24.516129,50.5645161 L24.516129,61.2903226 L18.3870968,61.2903226 L18.3870968,42.9032258 L42.9032258,42.9032258 L42.9032258,61.2903226 Z" id="Shape"></path>
                            <path d="M49.1699219,53.5661857 L48.8945943,56.6187311 C49.4445014,56.6673623 50.0018901,56.6935484 50.5645161,56.6935484 C51.1271421,56.6935484 51.6845309,56.6673623 52.234438,56.6187311 L51.9576141,53.5661857 C51.0411022,53.6507292 50.0894263,53.6507292 49.1699219,53.5661857 Z" id="Path"></path>
                            <path d="M54.7445581,53.0529392 L55.579519,56.0022366 C56.7332015,55.6760333 57.8577054,55.2331149 58.9260963,54.6876969 L57.5300058,51.9606066 C56.6411762,52.4125032 55.7037156,52.779856 54.7445581,53.0529392 L54.7445581,53.0529392 Z" id="Path"></path>
                            <path d="M50.5645161,22.983871 L50.5645161,19.9193548 C49.4415087,19.9193548 48.3170048,20.0203582 47.2224278,20.2231131 L47.7760757,23.2367533 C48.6873504,23.0684145 49.6270556,22.983871 50.5645161,22.983871 Z" id="Path"></path>
                            <path d="M44.9928726,24.0290684 L43.8780951,21.1740407 C42.7101973,21.6311744 41.5856934,22.2087639 40.5345104,22.8948383 L42.2074251,25.4633158 C43.0842835,24.8902155 44.0202479,24.407644 44.9928726,24.0290684 Z" id="Path"></path>
                        </g>
                    </g>
                </g>
            </g>
        </g>
    </g>
</svg>