<?xml version="1.0" encoding="UTF-8"?>
<svg width="95px" height="95px" viewBox="0 0 95 95" version="1.1" xmlns="http://www.w3.org/2000/svg" xmlns:xlink="http://www.w3.org/1999/xlink">
    <!-- Generator: Sketch 60.1 (88133) - https://sketch.com -->
    <title>ic_high</title>
    <desc>Created with Sketch.</desc>
    <g id="Page-1" stroke="none" stroke-width="1" fill="none" fill-rule="evenodd">
        <g id="08_Logística" transform="translate(-127.000000, -400.000000)" fill="#B2B2B2" fill-rule="nonzero">
            <g id="Group-42" transform="translate(109.000000, 400.000000)">
                <g id="Group-31">
                    <g id="ic_high" transform="translate(18.000000, 0.000000)">
                        <path d="M79.6774194,42.9032258 L86.0885127,42.9032258 C86.7229633,44.6823808 88.408597,45.9677419 90.4032258,45.9677419 C92.9372874,45.9677419 95,43.9050293 95,41.3709677 C95,38.8369061 92.9372874,36.7741935 90.4032258,36.7741935 C88.408597,36.7741935 86.7229633,38.0595547 86.0885127,39.8387097 L79.6774194,39.8387097 L79.6774194,35.8763861 L84.9086442,30.6451613 L86.0885127,30.6451613 C86.7229633,32.4243163 88.408597,33.7096774 90.4032258,33.7096774 C92.9372874,33.7096774 95,31.6469648 95,29.1129032 C95,26.5788416 92.9372874,24.516129 90.4032258,24.516129 C88.408597,24.516129 86.7229633,25.8014901 86.0885127,27.5806452 L84.2741935,27.5806452 C83.8679356,27.5806452 83.4773895,27.7415024 83.1908392,28.0295489 L79.6774194,31.5429688 L79.6774194,22.983871 C79.6774194,18.7596868 76.2403132,15.3225806 72.016129,15.3225806 L63.4570312,15.3225806 L66.9704511,11.8091608 C67.2584976,11.5226105 67.4193548,11.1335606 67.4193548,10.7258065 L67.4193548,8.91148726 C69.1985099,8.27703665 70.483871,6.591403 70.483871,4.59677419 C70.483871,2.06271259 68.4211584,0 65.8870968,0 C63.3530352,0 61.2903226,2.06271259 61.2903226,4.59677419 C61.2903226,6.591403 62.5756837,8.27703665 64.3548387,8.91148726 L64.3548387,10.0913558 L60.2069682,14.2392263 C59.9189217,14.5257766 59.7580645,14.9148265 59.7580645,15.3225806 L55.1612903,15.3225806 L55.1612903,11.9760034 C56.9404453,11.3415528 58.2258065,9.65591913 58.2258065,7.66129032 C58.2258065,5.12722872 56.1630939,3.06451613 53.6290323,3.06451613 C51.0949707,3.06451613 49.0322581,5.12722872 49.0322581,7.66129032 C49.0322581,9.65591913 50.3176192,11.3415528 52.0967742,11.9760034 L52.0967742,15.3225806 L42.9032258,15.3225806 L42.9032258,8.91148726 C44.6823808,8.27703665 45.9677419,6.591403 45.9677419,4.59677419 C45.9677419,2.06271259 43.9050293,0 41.3709677,0 C38.8369061,0 36.7741935,2.06271259 36.7741935,4.59677419 C36.7741935,6.591403 38.0595547,8.27703665 39.8387097,8.91148726 L39.8387097,15.3225806 L35.8763861,15.3225806 L30.6451613,10.0913558 L30.6451613,8.91148726 C32.4243163,8.27703665 33.7096774,6.591403 33.7096774,4.59677419 C33.7096774,2.06271259 31.6469648,0 29.1129032,0 C26.5788416,0 24.516129,2.06271259 24.516129,4.59677419 C24.516129,6.591403 25.8014901,8.27703665 27.5806452,8.91148726 L27.5806452,10.7258065 C27.5806452,11.1335606 27.7415024,11.5226105 28.0295489,11.8091608 L31.5429688,15.3225806 L22.983871,15.3225806 C18.7596868,15.3225806 15.3225806,18.7596868 15.3225806,22.983871 L15.3225806,31.5429688 L11.8091608,28.0295489 C11.5226105,27.7415024 11.1320644,27.5806452 10.7258065,27.5806452 L8.91148726,27.5806452 C8.27703665,25.8014901 6.591403,24.516129 4.59677419,24.516129 C2.06271259,24.516129 0,26.5788416 0,29.1129032 C0,31.6469648 2.06271259,33.7096774 4.59677419,33.7096774 C6.591403,33.7096774 8.27703665,32.4243163 8.91148726,30.6451613 L10.0913558,30.6451613 L15.3225806,35.8763861 L15.3225806,39.8387097 L8.91148726,39.8387097 C8.27703665,38.0595547 6.591403,36.7741935 4.59677419,36.7741935 C2.06271259,36.7741935 0,38.8369061 0,41.3709677 C0,43.9050293 2.06271259,45.9677419 4.59677419,45.9677419 C6.591403,45.9677419 8.27703665,44.6823808 8.91148726,42.9032258 L15.3225806,42.9032258 L15.3225806,52.0967742 L11.9760034,52.0967742 C11.3415528,50.3176192 9.65591913,49.0322581 7.66129032,49.0322581 C5.12722872,49.0322581 3.06451613,51.0949707 3.06451613,53.6290323 C3.06451613,56.1630939 5.12722872,58.2258065 7.66129032,58.2258065 C9.65591913,58.2258065 11.3415528,56.9404453 11.9760034,55.1612903 L15.3225806,55.1612903 L15.3225806,59.7580645 C14.9163227,59.7580645 14.5257766,59.9189217 14.2392263,60.2069682 L10.0913558,64.3548387 L8.91148726,64.3548387 C8.27703665,62.5756837 6.591403,61.2903226 4.59677419,61.2903226 C2.06271259,61.2903226 0,63.3530352 0,65.8870968 C0,68.4211584 2.06271259,70.483871 4.59677419,70.483871 C6.591403,70.483871 8.27703665,69.1985099 8.91148726,67.4193548 L10.7258065,67.4193548 C11.1320644,67.4193548 11.5226105,67.2584976 11.8091608,66.9704511 L15.3225806,63.4570313 L15.3225806,72.016129 C15.3225806,76.2403132 18.7596868,79.6774194 22.983871,79.6774194 L30.6451613,79.6774194 L30.6451613,76.6129032 L22.983871,76.6129032 C20.4498094,76.6129032 18.3870968,74.5501906 18.3870968,72.016129 L18.3870968,22.983871 C18.3870968,20.4498094 20.4498094,18.3870968 22.983871,18.3870968 L72.016129,18.3870968 C74.5501906,18.3870968 76.6129032,20.4498094 76.6129032,22.983871 L76.6129032,72.016129 C76.6129032,74.5501906 74.5501906,76.6129032 72.016129,76.6129032 L64.3548387,76.6129032 L64.3548387,79.6774194 L72.016129,79.6774194 C76.2403132,79.6774194 79.6774194,76.2403132 79.6774194,72.016129 L79.6774194,63.4570313 L83.1908392,66.9704511 C83.4773895,67.2584976 83.8679356,67.4193548 84.2741935,67.4193548 L86.0885127,67.4193548 C86.7229633,69.1985099 88.408597,70.483871 90.4032258,70.483871 C92.9372874,70.483871 95,68.4211584 95,65.8870968 C95,63.3530352 92.9372874,61.2903226 90.4032258,61.2903226 C88.408597,61.2903226 86.7229633,62.5756837 86.0885127,64.3548387 L84.9086442,64.3548387 L80.7607737,60.2069682 C80.4742234,59.9189217 80.0836773,59.7580645 79.6774194,59.7580645 L79.6774194,55.1612903 L83.0239966,55.1612903 C83.6584472,56.9404453 85.3440809,58.2258065 87.3387097,58.2258065 C89.8727713,58.2258065 91.9354839,56.1630939 91.9354839,53.6290323 C91.9354839,51.0949707 89.8727713,49.0322581 87.3387097,49.0322581 C85.3440809,49.0322581 83.6584472,50.3176192 83.0239966,52.0967742 L79.6774194,52.0967742 L79.6774194,42.9032258 Z M90.4032258,39.8387097 C91.2471648,39.8387097 91.9354839,40.5255325 91.9354839,41.3709677 C91.9354839,42.216403 91.2471648,42.9032258 90.4032258,42.9032258 C89.5592868,42.9032258 88.8709677,42.216403 88.8709677,41.3709677 C88.8709677,40.5255325 89.5592868,39.8387097 90.4032258,39.8387097 Z M90.4032258,27.5806452 C91.2471648,27.5806452 91.9354839,28.267468 91.9354839,29.1129032 C91.9354839,29.9583385 91.2471648,30.6451613 90.4032258,30.6451613 C89.5592868,30.6451613 88.8709677,29.9583385 88.8709677,29.1129032 C88.8709677,28.267468 89.5592868,27.5806452 90.4032258,27.5806452 Z M65.8870968,3.06451613 C66.7310358,3.06451613 67.4193548,3.75133893 67.4193548,4.59677419 C67.4193548,5.44220946 66.7310358,6.12903226 65.8870968,6.12903226 C65.0431578,6.12903226 64.3548387,5.44220946 64.3548387,4.59677419 C64.3548387,3.75133893 65.0431578,3.06451613 65.8870968,3.06451613 Z M53.6290323,6.12903226 C54.4729713,6.12903226 55.1612903,6.81585506 55.1612903,7.66129032 C55.1612903,8.50672558 54.4729713,9.19354839 53.6290323,9.19354839 C52.7850932,9.19354839 52.0967742,8.50672558 52.0967742,7.66129032 C52.0967742,6.81585506 52.7850932,6.12903226 53.6290323,6.12903226 Z M41.3709677,3.06451613 C42.2149068,3.06451613 42.9032258,3.75133893 42.9032258,4.59677419 C42.9032258,5.44220946 42.2149068,6.12903226 41.3709677,6.12903226 C40.5270287,6.12903226 39.8387097,5.44220946 39.8387097,4.59677419 C39.8387097,3.75133893 40.5270287,3.06451613 41.3709677,3.06451613 Z M29.1129032,3.06451613 C29.9568422,3.06451613 30.6451613,3.75133893 30.6451613,4.59677419 C30.6451613,5.44220946 29.9568422,6.12903226 29.1129032,6.12903226 C28.2689642,6.12903226 27.5806452,5.44220946 27.5806452,4.59677419 C27.5806452,3.75133893 28.2689642,3.06451613 29.1129032,3.06451613 Z M4.59677419,30.6451613 C3.75283518,30.6451613 3.06451613,29.9583385 3.06451613,29.1129032 C3.06451613,28.267468 3.75283518,27.5806452 4.59677419,27.5806452 C5.44071321,27.5806452 6.12903226,28.267468 6.12903226,29.1129032 C6.12903226,29.9583385 5.44071321,30.6451613 4.59677419,30.6451613 Z M4.59677419,42.9032258 C3.75283518,42.9032258 3.06451613,42.216403 3.06451613,41.3709677 C3.06451613,40.5255325 3.75283518,39.8387097 4.59677419,39.8387097 C5.44071321,39.8387097 6.12903226,40.5255325 6.12903226,41.3709677 C6.12903226,42.216403 5.44071321,42.9032258 4.59677419,42.9032258 Z M7.66129032,55.1612903 C6.81735131,55.1612903 6.12903226,54.4744675 6.12903226,53.6290323 C6.12903226,52.783597 6.81735131,52.0967742 7.66129032,52.0967742 C8.50522933,52.0967742 9.19354839,52.783597 9.19354839,53.6290323 C9.19354839,54.4744675 8.50522933,55.1612903 7.66129032,55.1612903 Z M4.59677419,67.4193548 C3.75283518,67.4193548 3.06451613,66.732532 3.06451613,65.8870968 C3.06451613,65.0416615 3.75283518,64.3548387 4.59677419,64.3548387 C5.44071321,64.3548387 6.12903226,65.0416615 6.12903226,65.8870968 C6.12903226,66.732532 5.44071321,67.4193548 4.59677419,67.4193548 Z M90.4032258,64.3548387 C91.2471648,64.3548387 91.9354839,65.0416615 91.9354839,65.8870968 C91.9354839,66.732532 91.2471648,67.4193548 90.4032258,67.4193548 C89.5592868,67.4193548 88.8709677,66.732532 88.8709677,65.8870968 C88.8709677,65.0416615 89.5592868,64.3548387 90.4032258,64.3548387 Z M87.3387097,52.0967742 C88.1826487,52.0967742 88.8709677,52.783597 88.8709677,53.6290323 C88.8709677,54.4744675 88.1826487,55.1612903 87.3387097,55.1612903 C86.4947707,55.1612903 85.8064516,54.4744675 85.8064516,53.6290323 C85.8064516,52.783597 86.4947707,52.0967742 87.3387097,52.0967742 Z" id="Shape"></path>
                        <path d="M58.2258065,71.0704385 C66.6360178,66.9749402 72.016129,58.4345467 72.016129,49.0322581 C72.016129,35.5150185 61.0172395,24.516129 47.5,24.516129 C33.9827605,24.516129 22.983871,35.5150185 22.983871,49.0322581 C22.983871,58.4345467 28.3639822,66.9749402 36.7741935,71.0704385 L36.7741935,73.5483871 L33.7096774,73.5483871 L33.7096774,76.6129032 L36.7741935,76.6129032 L36.7741935,79.6774194 L33.7096774,79.6774194 L33.7096774,82.7419355 L36.7741935,82.7419355 L36.7741935,87.3387097 C36.7741935,88.1863895 37.4610164,88.8709677 38.3064516,88.8709677 L39.9935815,88.8709677 C40.7058421,92.3626906 43.799537,95 47.5,95 C51.200463,95 54.2941579,92.3626906 55.0064185,88.8709677 L56.6935484,88.8709677 C57.5389836,88.8709677 58.2258065,88.1863895 58.2258065,87.3387097 L58.2258065,82.7419355 L61.2903226,82.7419355 L61.2903226,79.6774194 L58.2258065,79.6774194 L58.2258065,76.6129032 L61.2903226,76.6129032 L61.2903226,73.5483871 L58.2258065,73.5483871 L58.2258065,71.0704385 Z M38.9192053,68.6867598 C32.5387869,65.8960748 28.0033628,60.2436287 26.549663,53.6290323 L32.4594805,53.6290323 C33.0939311,55.4081873 34.7795647,56.6935484 36.7741935,56.6935484 C39.3082552,56.6935484 41.3709677,54.6308358 41.3709677,52.0967742 C41.3709677,49.5627126 39.3082552,47.5 36.7741935,47.5 C34.7795647,47.5 33.0939311,48.7853611 32.4594805,50.5645161 L26.1052482,50.5645161 C26.0685878,50.0572548 26.0483871,49.547001 26.0483871,49.0322581 C26.0483871,48.1494141 26.1187154,47.2837781 26.2227113,46.4271202 L31.2796119,41.3709677 L35.5239966,41.3709677 C36.1584472,43.1501228 37.8440809,44.4354839 39.8387097,44.4354839 C42.3727713,44.4354839 44.4354839,42.3727713 44.4354839,39.8387097 C44.4354839,37.3046481 42.3727713,35.2419355 39.8387097,35.2419355 C37.8440809,35.2419355 36.1584472,36.5272966 35.5239966,38.3064516 L30.6451613,38.3064516 C30.2389034,38.3064516 29.8483572,38.4673088 29.561807,38.7553553 L27.8395129,40.4776494 C31.1509262,32.8979099 38.7127095,27.5806452 47.5,27.5806452 C56.2872905,27.5806452 63.8490738,32.8979099 67.1604871,40.4776494 L65.438193,38.7553553 C65.1516428,38.4673088 64.7610966,38.3064516 64.3548387,38.3064516 L59.4760034,38.3064516 C58.8415528,36.5272966 57.1559191,35.2419355 55.1612903,35.2419355 C52.6272287,35.2419355 50.5645161,37.3046481 50.5645161,39.8387097 C50.5645161,42.3727713 52.6272287,44.4354839 55.1612903,44.4354839 C57.1559191,44.4354839 58.8415528,43.1501228 59.4760034,41.3709677 L63.7203881,41.3709677 L68.7772887,46.4271202 C68.8812846,47.2837781 68.9516129,48.1494141 68.9516129,49.0322581 C68.9516129,49.547001 68.9314122,50.0572548 68.8947518,50.5645161 L62.5405195,50.5645161 C61.9060689,48.7853611 60.2204353,47.5 58.2258065,47.5 C55.6917448,47.5 53.6290323,49.5627126 53.6290323,52.0967742 C53.6290323,54.6308358 55.6917448,56.6935484 58.2258065,56.6935484 C60.2204353,56.6935484 61.9060689,55.4081873 62.5405195,53.6290323 L68.450337,53.6290323 C66.9966372,60.2436287 62.4612131,65.8960748 56.0807947,68.6867598 C55.5226579,68.9299159 55.1612903,69.4820674 55.1612903,70.0903319 L55.1612903,73.5483871 L49.0322581,73.5483871 L49.0322581,64.0727776 C50.8114131,63.438327 52.0967742,61.7526933 52.0967742,59.7580645 C52.0967742,57.2240029 50.0340616,55.1612903 47.5,55.1612903 C44.9659384,55.1612903 42.9032258,57.2240029 42.9032258,59.7580645 C42.9032258,61.7526933 44.1885869,63.438327 45.9677419,64.0727776 L45.9677419,73.5483871 L39.8387097,73.5483871 L39.8387097,70.0903319 C39.8387097,69.4820674 39.4788386,68.9299159 38.9192053,68.6867598 L38.9192053,68.6867598 Z M35.2419355,52.0967742 C35.2419355,51.2513389 35.9302545,50.5645161 36.7741935,50.5645161 C37.6181326,50.5645161 38.3064516,51.2513389 38.3064516,52.0967742 C38.3064516,52.9422095 37.6181326,53.6290323 36.7741935,53.6290323 C35.9302545,53.6290323 35.2419355,52.9422095 35.2419355,52.0967742 Z M38.3064516,39.8387097 C38.3064516,38.9932744 38.9947707,38.3064516 39.8387097,38.3064516 C40.6826487,38.3064516 41.3709677,38.9932744 41.3709677,39.8387097 C41.3709677,40.6841449 40.6826487,41.3709677 39.8387097,41.3709677 C38.9947707,41.3709677 38.3064516,40.6841449 38.3064516,39.8387097 Z M56.6935484,39.8387097 C56.6935484,40.6841449 56.0052293,41.3709677 55.1612903,41.3709677 C54.3173513,41.3709677 53.6290323,40.6841449 53.6290323,39.8387097 C53.6290323,38.9932744 54.3173513,38.3064516 55.1612903,38.3064516 C56.0052293,38.3064516 56.6935484,38.9932744 56.6935484,39.8387097 Z M59.7580645,52.0967742 C59.7580645,52.9422095 59.0697455,53.6290323 58.2258065,53.6290323 C57.3818674,53.6290323 56.6935484,52.9422095 56.6935484,52.0967742 C56.6935484,51.2513389 57.3818674,50.5645161 58.2258065,50.5645161 C59.0697455,50.5645161 59.7580645,51.2513389 59.7580645,52.0967742 Z M45.9677419,59.7580645 C45.9677419,58.9126293 46.656061,58.2258065 47.5,58.2258065 C48.343939,58.2258065 49.0322581,58.9126293 49.0322581,59.7580645 C49.0322581,60.6034998 48.343939,61.2903226 47.5,61.2903226 C46.656061,61.2903226 45.9677419,60.6034998 45.9677419,59.7580645 Z M47.5,91.9354839 C45.5053712,91.9354839 43.8197375,90.6501228 43.1852869,88.8709677 L51.8132166,88.8709677 C51.1802625,90.6501228 49.4946288,91.9354839 47.5,91.9354839 L47.5,91.9354839 Z M55.1612903,85.8064516 L39.8387097,85.8064516 L39.8387097,82.7419355 L55.1612903,82.7419355 L55.1612903,85.8064516 Z M55.1612903,79.6774194 L39.8387097,79.6774194 L39.8387097,76.6129032 L55.1612903,76.6129032 L55.1612903,79.6774194 Z" id="Shape"></path>
                    </g>
                </g>
            </g>
        </g>
    </g>
</svg>