<?xml version="1.0" encoding="UTF-8"?>
<svg width="100px" height="100px" viewBox="0 0 100 100" version="1.1" xmlns="http://www.w3.org/2000/svg" xmlns:xlink="http://www.w3.org/1999/xlink">
    <!-- Generator: Sketch 60.1 (88133) - https://sketch.com -->
    <title>ic_international</title>
    <desc>Created with Sketch.</desc>
    <g id="Page-1" stroke="none" stroke-width="1" fill="none" fill-rule="evenodd">
        <g id="04_Aereo" transform="translate(-299.000000, -1417.000000)" fill="#B2B2B2">
            <g id="ic_international" transform="translate(299.000000, 1417.000000)">
                <path d="M50,90.3225806 C30.0854839,90.3225806 13.7854839,74.5483871 12.9370968,54.8387097 L14.516129,54.8387097 C15.1370968,54.8387097 15.7,54.483871 15.9693548,53.9241935 C16.2370968,53.366129 16.1629032,52.7016129 15.7758065,52.2177419 L9.32419355,44.1532258 C8.70967742,43.3870968 7.41774194,43.3870968 6.80483871,44.1532258 L0.353225806,52.2177419 C-0.0338709677,52.7016129 -0.108064516,53.3645161 0.159677419,53.9241935 C0.429032258,54.483871 0.991935484,54.8387097 1.61290323,54.8387097 L3.25322581,54.8387097 C4.10645161,79.8854839 24.7483871,100 50,100 C50.8919355,100 51.6129032,99.2774194 51.6129032,98.3870968 L51.6129032,91.9354839 C51.6129032,91.0451613 50.8919355,90.3225806 50,90.3225806 Z M48.3870968,96.7451613 C25.1177419,95.8951613 6.4516129,76.6983871 6.4516129,53.2258065 C6.4516129,52.3774194 5.79677419,51.6822581 4.96451613,51.6177419 L8.06451613,47.7435484 L11.1645161,51.6177419 C10.3322581,51.6822581 9.67741935,52.3774194 9.67741935,53.2258065 C9.67741935,74.9193548 26.8983871,92.6677419 48.3870968,93.516129 L48.3870968,96.7451613 Z" id="Shape"></path>
                <path d="M98.3870968,45.1612903 L96.7467742,45.1612903 C95.8935484,20.1145161 75.2516129,0 50,0 C49.1080645,0 48.3870968,0.722580645 48.3870968,1.61290323 L48.3870968,8.06451613 C48.3870968,8.95483871 49.1080645,9.67741935 50,9.67741935 C69.9145161,9.67741935 86.2145161,25.4516129 87.0629032,45.1612903 L85.483871,45.1612903 C84.8629032,45.1612903 84.3,45.516129 84.0306452,46.0758065 C83.7629032,46.633871 83.8370968,47.2983871 84.2241935,47.7822581 L90.6758065,55.8467742 C90.9822581,56.2290323 91.4451613,56.4516129 91.9354839,56.4516129 C92.4258065,56.4516129 92.8887097,56.2290323 93.1951613,55.8467742 L99.6467742,47.7822581 C100.033871,47.2983871 100.108065,46.633871 99.8403226,46.0758065 C99.5709677,45.516129 99.0080645,45.1612903 98.3870968,45.1612903 Z M91.9354839,52.2564516 L88.8354839,48.3822581 C89.6677419,48.3177419 90.3225806,47.6225806 90.3225806,46.7741935 C90.3225806,25.0806452 73.1016129,7.33225806 51.6129032,6.48387097 L51.6129032,3.25483871 C74.8822581,4.10483871 93.5483871,23.3016129 93.5483871,46.7741935 C93.5483871,47.6225806 94.2032258,48.3177419 95.0354839,48.3822581 L91.9354839,52.2564516 Z" id="Shape"></path>
                <path d="M50,17.7419355 C32.2129032,17.7419355 17.7419355,32.2129032 17.7419355,50 C17.7419355,67.7870968 32.2129032,82.2580645 50,82.2580645 C67.7870968,82.2580645 82.2580645,67.7870968 82.2580645,50 C82.2580645,32.2129032 67.7870968,17.7419355 50,17.7419355 Z M73.0790323,32.4596774 C70.3483871,33.8903226 66.9322581,35.0290323 63.0693548,35.8193548 C61.8016129,29.9370968 59.766129,25.0983871 57.2225806,21.9145161 C63.6322581,23.5645161 69.1790323,27.3403226 73.0790323,32.4596774 Z M50,79.0322581 C45.5645161,79.0322581 42.033871,72.2193548 40.1677419,63.6145161 C43.2822581,63.1596774 46.5887097,62.9032258 50,62.9032258 C53.4096774,62.9032258 56.7177419,63.1596774 59.8322581,63.6145161 C57.966129,72.2193548 54.4354839,79.0322581 50,79.0322581 Z M50,59.6774194 C46.3903226,59.6774194 42.8790323,59.9580645 39.5612903,60.4532258 C39.0951613,57.5741935 38.8209677,54.5741935 38.7435484,51.6129032 L61.2564516,51.6129032 C61.1806452,54.5741935 60.9064516,57.5725806 60.4387097,60.4532258 C57.1209677,59.9564516 53.6080645,59.6774194 50,59.6774194 Z M50,20.9677419 C54.4354839,20.9677419 57.966129,27.7806452 59.8322581,36.3854839 C56.7177419,36.8403226 53.4096774,37.0967742 50,37.0967742 C46.5887097,37.0967742 43.2822581,36.8403226 40.1677419,36.3854839 C42.033871,27.7806452 45.5645161,20.9677419 50,20.9677419 Z M50,40.3225806 C53.6080645,40.3225806 57.1209677,40.0435484 60.4403226,39.5467742 C60.9064516,42.4258065 61.1806452,45.4258065 61.2580645,48.3870968 L38.7435484,48.3870968 C38.8193548,45.4258065 39.0935484,42.4274194 39.5612903,39.5467742 C42.8790323,40.0419355 46.3903226,40.3225806 50,40.3225806 Z M21.05,48.3870968 C21.3177419,43.5629032 22.7580645,39.0580645 25.1048387,35.1403226 C28.1629032,36.7887097 32.0064516,38.0903226 36.3419355,38.9758065 C35.8709677,41.9258065 35.5903226,45.0822581 35.5193548,48.3870968 L21.05,48.3870968 Z M35.5193548,51.6129032 C35.5903226,54.9177419 35.8709677,58.0741935 36.3403226,61.0241935 C32.0048387,61.9096774 28.1629032,63.2112903 25.1032258,64.8596774 C22.7564516,60.9419355 21.3145161,56.4370968 21.0483871,51.6129032 L35.5193548,51.6129032 Z M64.4806452,51.6129032 L78.95,51.6129032 C78.6822581,56.4370968 77.2419355,60.9419355 74.8951613,64.8596774 C71.8370968,63.2112903 67.9951613,61.9096774 63.6596774,61.0241935 C64.1290323,58.0741935 64.4096774,54.9177419 64.4806452,51.6129032 Z M64.4806452,48.3870968 C64.4096774,45.0822581 64.1290323,41.9258065 63.6596774,38.9758065 C67.9951613,38.0903226 71.8387097,36.7870968 74.8951613,35.1403226 C77.2419355,39.0580645 78.683871,43.5629032 78.95,48.3870968 L64.4806452,48.3870968 Z M42.7758065,21.9145161 C40.2322581,25.0967742 38.1983871,29.9354839 36.9290323,35.8193548 C33.066129,35.0290323 29.65,33.8919355 26.9177419,32.4612903 C30.8193548,27.3419355 36.366129,23.5645161 42.7758065,21.9145161 Z M26.9193548,67.5387097 C29.6516129,66.1080645 33.0677419,64.9709677 36.9306452,64.1806452 C38.1983871,70.0629032 40.233871,74.9016129 42.7774194,78.0854839 C36.366129,76.4354839 30.8193548,72.6580645 26.9193548,67.5387097 Z M57.2241935,78.0854839 C59.7677419,74.9032258 61.8016129,70.0645161 63.0709677,64.1806452 C66.933871,64.9709677 70.35,66.1096774 73.0806452,67.5403226 C69.1790323,72.6596774 63.6322581,76.4354839 57.2241935,78.0854839 Z" id="Shape"></path>
            </g>
        </g>
    </g>
</svg>