<?xml version="1.0" encoding="UTF-8"?>
<svg width="91px" height="100px" viewBox="0 0 91 100" version="1.1" xmlns="http://www.w3.org/2000/svg" xmlns:xlink="http://www.w3.org/1999/xlink">
    <!-- Generator: Sketch 60.1 (88133) - https://sketch.com -->
    <title>ic_intermodal</title>
    <desc>Created with Sketch.</desc>
    <g id="Page-1" stroke="none" stroke-width="1" fill="none" fill-rule="evenodd">
        <g id="03_Terrestre" transform="translate(-1064.000000, -1744.000000)" fill="#B2B2B2">
            <g id="Group-6" transform="translate(178.000000, 1510.000000)">
                <g id="Group-16" transform="translate(749.000000, 234.000000)">
                    <g id="ic_intermodal" transform="translate(137.000000, 0.000000)">
                        <path d="M88.7096774,25.8064516 C89.6,25.8064516 90.3225806,25.083871 90.3225806,24.1935484 L90.3225806,17.7419355 C90.3225806,16.8516129 89.6,16.1290323 88.7096774,16.1290323 C87.6274194,16.1290323 86.5548387,16.1693548 85.483871,16.2112903 L85.483871,11.2903226 C85.483871,10.4 84.7612903,9.67741935 83.8709677,9.67741935 L67.7419355,9.67741935 C66.8516129,9.67741935 66.1290323,10.4 66.1290323,11.2903226 L66.1290323,19.3064516 C63.3790323,20.0919355 60.6887097,21.016129 58.0645161,22.0741935 L58.0645161,6.4516129 C58.0645161,5.56129032 57.3419355,4.83870968 56.4516129,4.83870968 L51.6129032,4.83870968 L51.6129032,1.61290323 C51.6129032,0.722580645 50.8903226,0 50,0 L43.5483871,0 C42.6580645,0 41.9354839,0.722580645 41.9354839,1.61290323 L41.9354839,4.83870968 L16.1290323,4.83870968 L16.1290323,1.61290323 C16.1290323,0.722580645 15.4064516,0 14.516129,0 L8.06451613,0 C7.17419355,0 6.4516129,0.722580645 6.4516129,1.61290323 L6.4516129,4.83870968 L1.61290323,4.83870968 C0.722580645,4.83870968 0,5.56129032 0,6.4516129 L0,22.5806452 C0,23.4709677 0.722580645,24.1935484 1.61290323,24.1935484 L6.4516129,24.1935484 L6.4516129,40.3225806 L1.61290323,40.3225806 C0.722580645,40.3225806 0,41.0451613 0,41.9354839 L0,58.0645161 C0,58.9548387 0.722580645,59.6774194 1.61290323,59.6774194 L6.4516129,59.6774194 L6.4516129,75.8064516 L1.61290323,75.8064516 C0.722580645,75.8064516 0,76.5290323 0,77.4193548 L0,93.5483871 C0,94.4387097 0.722580645,95.1612903 1.61290323,95.1612903 L6.4516129,95.1612903 L6.4516129,98.3870968 C6.4516129,99.2774194 7.17419355,100 8.06451613,100 L14.516129,100 C15.4064516,100 16.1290323,99.2774194 16.1290323,98.3870968 C16.1290323,97.3048387 16.1645161,96.2322581 16.2112903,95.1612903 L41.9354839,95.1612903 L41.9354839,98.3870968 C41.9354839,99.2774194 42.6580645,100 43.5483871,100 L50,100 C50.8903226,100 51.6129032,99.2774194 51.6129032,98.3870968 C51.6129032,97.3 51.6693548,96.2258065 51.7612903,95.1612903 L56.4516129,95.1612903 C57.3419355,95.1612903 58.0645161,94.4387097 58.0645161,93.5483871 L58.0645161,81.3129032 L60.15,83.3983871 C60.4645161,83.7129032 60.8774194,83.8709677 61.2903226,83.8709677 C61.7032258,83.8709677 62.116129,83.7129032 62.4306452,83.3983871 L73.7209677,72.1080645 C74.3516129,71.4774194 74.3516129,70.4580645 73.7209677,69.8274194 L71.6354839,67.7419355 L83.8709677,67.7419355 C84.7612903,67.7419355 85.483871,67.0193548 85.483871,66.1290323 L85.483871,61.4387097 C86.5483871,61.3467742 87.6225806,61.2903226 88.7096774,61.2903226 C89.6,61.2903226 90.3225806,60.5677419 90.3225806,59.6774194 L90.3225806,53.2258065 C90.3225806,52.3354839 89.6,51.6129032 88.7096774,51.6129032 C87.6241935,51.6129032 86.5516129,51.6629032 85.483871,51.7370968 L85.483871,25.8887097 C86.5548387,25.8419355 87.6274194,25.8064516 88.7096774,25.8064516 Z M69.3548387,12.9032258 L82.2580645,12.9032258 L82.2580645,16.4064516 C77.8516129,16.75 73.5419355,17.4370968 69.3548387,18.4516129 L69.3548387,12.9032258 Z M54.8387097,8.06451613 L54.8387097,20.9677419 L51.6129032,20.9677419 L51.6129032,8.06451613 L54.8387097,8.06451613 Z M53.2096774,24.1935484 C52.6709677,24.4532258 52.1451613,24.733871 51.6129032,25.0048387 L51.6129032,24.1935484 L53.2096774,24.1935484 Z M48.3870968,3.22580645 L48.3870968,26.7306452 C47.2967742,27.3467742 46.2209677,27.9854839 45.1612903,28.6483871 L45.1612903,3.22580645 L48.3870968,3.22580645 Z M20.3,43.5483871 L24.1967742,47.4451613 C21.1612903,51.2806452 18.4516129,55.383871 16.1290323,59.7274194 L16.1290323,43.5483871 L20.3,43.5483871 Z M26.2564516,44.9435484 L23.2483871,41.9354839 L32.2580645,32.9258065 L35.266129,35.933871 C32.0354839,38.7016129 29.0241935,41.7129032 26.2564516,44.9435484 L26.2564516,44.9435484 Z M37.7677419,33.8741935 L33.3983871,29.5048387 C32.7677419,28.8741935 31.7483871,28.8741935 31.1177419,29.5048387 L20.3,40.3225806 L16.1290323,40.3225806 L16.1290323,24.1935484 L41.9354839,24.1935484 L41.9354839,30.7758065 C40.5112903,31.7645161 39.1241935,32.8 37.7677419,33.8741935 Z M41.9354839,8.06451613 L41.9354839,20.9677419 L16.1290323,20.9677419 L16.1290323,8.06451613 L41.9354839,8.06451613 Z M12.9032258,3.22580645 L12.9032258,66.4564516 C11.6467742,69.4274194 10.5822581,72.4967742 9.67741935,75.633871 L9.67741935,3.22580645 L12.9032258,3.22580645 Z M3.22580645,20.9677419 L3.22580645,8.06451613 L6.4516129,8.06451613 L6.4516129,20.9677419 L3.22580645,20.9677419 Z M3.22580645,56.4516129 L3.22580645,43.5483871 L6.4516129,43.5483871 L6.4516129,56.4516129 L3.22580645,56.4516129 Z M3.22580645,91.9354839 L3.22580645,79.0322581 L6.4516129,79.0322581 L6.4516129,91.9354839 L3.22580645,91.9354839 Z M12.9193548,96.7741935 L9.69354839,96.7741935 C10.5467742,54.4758065 44.7983871,20.2241935 87.0967742,19.3709677 L87.0967742,22.5967742 C46.5725806,23.4467742 13.7693548,56.25 12.9193548,96.7741935 Z M63.1419355,59.2483871 L58.0645161,54.1709677 L58.0645161,41.9354839 C58.0645161,41.0451613 57.3419355,40.3225806 56.4516129,40.3225806 L51.6129032,40.3225806 L51.6129032,36.0354839 C56.1548387,33.3225806 61.0193548,31.0983871 66.1290323,29.4209677 L66.1290323,57.4403226 C65.1080645,58.0064516 64.1145161,58.6112903 63.1419355,59.2483871 Z M31.083871,54.3322581 L33.2032258,56.4516129 L29.5258065,56.4516129 C30.033871,55.7370968 30.55,55.0274194 31.083871,54.3322581 Z M27.3596774,59.6774194 L36.4290323,59.6774194 L41.9354839,65.183871 L41.9354839,75.8064516 L19.7435484,75.8064516 C21.6225806,70.083871 24.1935484,64.6774194 27.3596774,59.6774194 L27.3596774,59.6774194 Z M45.1612903,68.4096774 L49.5709677,72.8193548 C47.8225806,75.4870968 46.3419355,78.3435484 45.1612903,81.3516129 L45.1612903,68.4096774 Z M51.4564516,70.1435484 L33.1112903,51.7983871 C35.8467742,48.5387097 38.8612903,45.5241935 42.1209677,42.7887097 L60.466129,61.133871 C57.0709677,63.7145161 54.0370968,66.7483871 51.4564516,70.1435484 Z M54.8387097,50.9451613 L51.6129032,47.7193548 L51.6129032,43.5483871 L54.8387097,43.5483871 L54.8387097,50.9451613 Z M48.3870968,44.4935484 L44.6548387,40.7612903 C45.8709677,39.8290323 47.1112903,38.9274194 48.3870968,38.0725806 L48.3870968,44.4935484 Z M16.4306452,91.9354839 C16.8225806,87.5080645 17.616129,83.1967742 18.7693548,79.0322581 L41.9354839,79.0322581 L41.9354839,91.9354839 L16.4306452,91.9354839 Z M52.1854839,91.9354839 C52.7177419,88.9112903 53.6177419,86.0129032 54.8387097,83.2854839 L54.8387097,91.9354839 L52.1854839,91.9354839 Z M61.2903226,79.9774194 L58.3790323,77.066129 C60.8435484,73.5709677 63.8935484,70.5209677 67.3887097,68.0564516 L70.3,70.9677419 L61.2903226,79.9774194 Z M82.2580645,64.516129 L73.6080645,64.516129 C76.333871,63.2951613 79.2322581,62.3967742 82.2580645,61.8629032 L82.2580645,64.516129 Z M87.0967742,58.0967742 C66.1419355,58.9241935 49.2467742,75.8193548 48.4193548,96.7741935 L45.1919355,96.7741935 C46.0209677,74.0387097 64.3612903,55.6983871 87.0967742,54.8677419 L87.0967742,58.0967742 Z M82.2580645,52.0677419 C77.716129,52.6967742 73.3854839,53.9822581 69.3548387,55.8209677 L69.3548387,28.4483871 C73.5193548,27.2935484 77.8306452,26.5016129 82.2580645,26.1096774 L82.2580645,52.0677419 Z" id="Shape"></path>
                    </g>
                </g>
            </g>
        </g>
    </g>
</svg>