<?xml version="1.0" encoding="UTF-8"?>
<svg width="90px" height="90px" viewBox="0 0 90 90" version="1.1" xmlns="http://www.w3.org/2000/svg" xmlns:xlink="http://www.w3.org/1999/xlink">
    <!-- Generator: Sketch 60.1 (88133) - https://sketch.com -->
    <title>ic_industrial</title>
    <desc>Created with Sketch.</desc>
    <g id="Page-1" stroke="none" stroke-width="1" fill="none" fill-rule="evenodd">
        <g id="08_Logística" transform="translate(-1214.000000, -403.000000)" fill="#B2B2B2" fill-rule="nonzero">
            <g id="Group-42" transform="translate(109.000000, 400.000000)">
                <g id="Group-41" transform="translate(1079.000000, 3.000000)">
                    <g id="ic_industrial" transform="translate(26.000000, 0.000000)">
                        <path d="M88.5483871,66.7741935 L87.0967742,66.7741935 L87.0967742,39.1935484 C87.0967742,38.3908065 86.4479032,37.7419355 85.6451613,37.7419355 L69.6774194,37.7419355 L69.6774194,18.8709677 C69.6774194,18.0682258 69.0285484,17.4193548 68.2258065,17.4193548 L59.516129,17.4193548 C58.7133871,17.4193548 58.0645161,18.0682258 58.0645161,18.8709677 L58.0645161,37.7419355 L56.6129032,37.7419355 C55.8101613,37.7419355 55.1612903,38.3908065 55.1612903,39.1935484 L55.1612903,42.9474194 L46.4516129,51.6570968 L46.4516129,4.35483871 C46.4516129,3.55209677 45.8027419,2.90322581 45,2.90322581 L10.1612903,2.90322581 C9.35854839,2.90322581 8.70967742,3.55209677 8.70967742,4.35483871 L8.70967742,37.7419355 L4.35483871,37.7419355 C3.55209677,37.7419355 2.90322581,38.3908065 2.90322581,39.1935484 L2.90322581,81.2903226 L1.4516129,81.2903226 C0.648870968,81.2903226 0,81.9391935 0,82.7419355 L0,88.5483871 C0,89.351129 0.648870968,90 1.4516129,90 L53.7096774,90 L88.5483871,90 C89.351129,90 90,89.351129 90,88.5483871 L90,68.2258065 C90,67.4230645 89.351129,66.7741935 88.5483871,66.7741935 Z M60.9677419,20.3225806 L66.7741935,20.3225806 L66.7741935,37.7419355 L60.9677419,37.7419355 L60.9677419,20.3225806 Z M84.1935484,40.6451613 L84.1935484,66.7741935 L58.0645161,66.7741935 L58.0645161,40.6451613 L84.1935484,40.6451613 Z M53.7096774,66.7741935 C52.9069355,66.7741935 52.2580645,67.4230645 52.2580645,68.2258065 L52.2580645,81.2903226 L46.4516129,81.2903226 L46.4516129,65.9235484 L55.1612903,57.213871 L55.1612903,66.7741935 L53.7096774,66.7741935 Z M34.8387097,40.6451613 L37.7419355,40.6451613 L37.7419355,46.4516129 L34.8387097,46.4516129 L34.8387097,40.6451613 Z M34.8387097,77.5364516 L43.5483871,68.8267742 L43.5483871,81.2903226 L34.8387097,81.2903226 L34.8387097,77.5364516 Z M55.1612903,53.1087097 L34.8387097,73.4312903 L34.8387097,67.3751613 L55.1612903,47.0525806 L55.1612903,53.1087097 Z M11.6129032,5.80645161 L43.5483871,5.80645161 L43.5483871,54.5603226 L34.8387097,63.27 L34.8387097,49.3548387 L39.1935484,49.3548387 C39.9962903,49.3548387 40.6451613,48.7059677 40.6451613,47.9032258 L40.6451613,39.1935484 C40.6451613,38.3908065 39.9962903,37.7419355 39.1935484,37.7419355 L33.3870968,37.7419355 L11.6129032,37.7419355 L11.6129032,5.80645161 Z M5.80645161,40.6451613 L31.9354839,40.6451613 L31.9354839,81.2903226 L5.80645161,81.2903226 L5.80645161,40.6451613 Z M2.90322581,84.1935484 L52.2580645,84.1935484 L52.2580645,87.0967742 L2.90322581,87.0967742 L2.90322581,84.1935484 Z M87.0967742,87.0967742 L55.1612903,87.0967742 L55.1612903,82.7419355 L55.1612903,69.6774194 L87.0967742,69.6774194 L87.0967742,87.0967742 Z" id="Shape"></path>
                        <path d="M65.3225806,14.516129 C67.4375806,14.516129 69.3508065,13.3519355 70.3625806,11.5606452 C71.1870968,11.6767742 72.0319355,11.6027419 72.8259677,11.3487097 C73.9030645,12.438871 75.3691935,13.0645161 76.9354839,13.0645161 C80.1377419,13.0645161 82.7419355,10.4603226 82.7419355,7.25806452 C82.7419355,4.05580645 80.1377419,1.4516129 76.9354839,1.4516129 C76.3577419,1.4516129 75.7887097,1.54016129 75.2385484,1.71580645 C74.1614516,0.625645161 72.6953226,0 71.1290323,0 C69.0140323,0 67.1008065,1.16419355 66.0890323,2.95548387 C65.8364516,2.92064516 65.5795161,2.90322581 65.3225806,2.90322581 C62.1203226,2.90322581 59.516129,5.50741935 59.516129,8.70967742 C59.516129,11.9119355 62.1203226,14.516129 65.3225806,14.516129 L65.3225806,14.516129 Z M65.3225806,5.80645161 C65.6840323,5.80645161 66.0469355,5.87903226 66.3996774,6.01983871 C66.7843548,6.17225806 67.2154839,6.15774194 67.5870968,5.9733871 C67.9587097,5.78758065 68.2330645,5.45370968 68.3419355,5.05306452 C68.6845161,3.78725806 69.8312903,2.90322581 71.1290323,2.90322581 C72.1233871,2.90322581 73.035,3.41129032 73.575,4.26048387 C73.9887097,4.91516129 74.8437097,5.13 75.5187097,4.74677419 C75.9759677,4.48693548 76.4520968,4.35483871 76.9354839,4.35483871 C78.5366129,4.35483871 79.8387097,5.65693548 79.8387097,7.25806452 C79.8387097,8.85919355 78.5366129,10.1612903 76.9354839,10.1612903 C75.941129,10.1612903 75.0295161,9.65322581 74.4895161,8.80403226 C74.0758065,8.14935484 73.2208065,7.93451613 72.5458065,8.31774194 C71.7445161,8.77064516 70.875,8.82580645 70.0504839,8.49483871 C69.6658065,8.34241935 69.2346774,8.35693548 68.8630645,8.54129032 C68.4914516,8.72709677 68.2170968,9.06096774 68.1082258,9.4616129 C67.7670968,10.728871 66.6203226,11.6129032 65.3225806,11.6129032 C63.7214516,11.6129032 62.4193548,10.3108065 62.4193548,8.70967742 C62.4193548,7.10854839 63.7214516,5.80645161 65.3225806,5.80645161 Z" id="Shape"></path>
                        <path d="M62.4193548,52.2580645 L68.2258065,52.2580645 C69.0285484,52.2580645 69.6774194,51.6091935 69.6774194,50.8064516 L69.6774194,45 C69.6774194,44.1972581 69.0285484,43.5483871 68.2258065,43.5483871 L62.4193548,43.5483871 C61.6166129,43.5483871 60.9677419,44.1972581 60.9677419,45 L60.9677419,50.8064516 C60.9677419,51.6091935 61.6166129,52.2580645 62.4193548,52.2580645 Z M63.8709677,46.4516129 L66.7741935,46.4516129 L66.7741935,49.3548387 L63.8709677,49.3548387 L63.8709677,46.4516129 Z" id="Shape"></path>
                        <path d="M74.0322581,52.2580645 L79.8387097,52.2580645 C80.6414516,52.2580645 81.2903226,51.6091935 81.2903226,50.8064516 L81.2903226,45 C81.2903226,44.1972581 80.6414516,43.5483871 79.8387097,43.5483871 L74.0322581,43.5483871 C73.2295161,43.5483871 72.5806452,44.1972581 72.5806452,45 L72.5806452,50.8064516 C72.5806452,51.6091935 73.2295161,52.2580645 74.0322581,52.2580645 Z M75.483871,46.4516129 L78.3870968,46.4516129 L78.3870968,49.3548387 L75.483871,49.3548387 L75.483871,46.4516129 Z" id="Shape"></path>
                        <path d="M62.4193548,63.8709677 L68.2258065,63.8709677 C69.0285484,63.8709677 69.6774194,63.2220968 69.6774194,62.4193548 L69.6774194,56.6129032 C69.6774194,55.8101613 69.0285484,55.1612903 68.2258065,55.1612903 L62.4193548,55.1612903 C61.6166129,55.1612903 60.9677419,55.8101613 60.9677419,56.6129032 L60.9677419,62.4193548 C60.9677419,63.2220968 61.6166129,63.8709677 62.4193548,63.8709677 Z M63.8709677,58.0645161 L66.7741935,58.0645161 L66.7741935,60.9677419 L63.8709677,60.9677419 L63.8709677,58.0645161 Z" id="Shape"></path>
                        <path d="M74.0322581,63.8709677 L79.8387097,63.8709677 C80.6414516,63.8709677 81.2903226,63.2220968 81.2903226,62.4193548 L81.2903226,56.6129032 C81.2903226,55.8101613 80.6414516,55.1612903 79.8387097,55.1612903 L74.0322581,55.1612903 C73.2295161,55.1612903 72.5806452,55.8101613 72.5806452,56.6129032 L72.5806452,62.4193548 C72.5806452,63.2220968 73.2295161,63.8709677 74.0322581,63.8709677 Z M75.483871,58.0645161 L78.3870968,58.0645161 L78.3870968,60.9677419 L75.483871,60.9677419 L75.483871,58.0645161 Z" id="Shape"></path>
                        <path d="M15.9677419,43.5483871 L10.1612903,43.5483871 C9.35854839,43.5483871 8.70967742,44.1972581 8.70967742,45 L8.70967742,50.8064516 C8.70967742,51.6091935 9.35854839,52.2580645 10.1612903,52.2580645 L15.9677419,52.2580645 C16.7704839,52.2580645 17.4193548,51.6091935 17.4193548,50.8064516 L17.4193548,45 C17.4193548,44.1972581 16.7704839,43.5483871 15.9677419,43.5483871 Z M14.516129,49.3548387 L11.6129032,49.3548387 L11.6129032,46.4516129 L14.516129,46.4516129 L14.516129,49.3548387 Z" id="Shape"></path>
                        <path d="M27.5806452,43.5483871 L21.7741935,43.5483871 C20.9714516,43.5483871 20.3225806,44.1972581 20.3225806,45 L20.3225806,50.8064516 C20.3225806,51.6091935 20.9714516,52.2580645 21.7741935,52.2580645 L27.5806452,52.2580645 C28.3833871,52.2580645 29.0322581,51.6091935 29.0322581,50.8064516 L29.0322581,45 C29.0322581,44.1972581 28.3833871,43.5483871 27.5806452,43.5483871 Z M26.1290323,49.3548387 L23.2258065,49.3548387 L23.2258065,46.4516129 L26.1290323,46.4516129 L26.1290323,49.3548387 Z" id="Shape"></path>
                        <path d="M15.9677419,55.1612903 L10.1612903,55.1612903 C9.35854839,55.1612903 8.70967742,55.8101613 8.70967742,56.6129032 L8.70967742,62.4193548 C8.70967742,63.2220968 9.35854839,63.8709677 10.1612903,63.8709677 L15.9677419,63.8709677 C16.7704839,63.8709677 17.4193548,63.2220968 17.4193548,62.4193548 L17.4193548,56.6129032 C17.4193548,55.8101613 16.7704839,55.1612903 15.9677419,55.1612903 Z M14.516129,60.9677419 L11.6129032,60.9677419 L11.6129032,58.0645161 L14.516129,58.0645161 L14.516129,60.9677419 Z" id="Shape"></path>
                        <path d="M27.5806452,55.1612903 L21.7741935,55.1612903 C20.9714516,55.1612903 20.3225806,55.8101613 20.3225806,56.6129032 L20.3225806,62.4193548 C20.3225806,63.2220968 20.9714516,63.8709677 21.7741935,63.8709677 L27.5806452,63.8709677 C28.3833871,63.8709677 29.0322581,63.2220968 29.0322581,62.4193548 L29.0322581,56.6129032 C29.0322581,55.8101613 28.3833871,55.1612903 27.5806452,55.1612903 Z M26.1290323,60.9677419 L23.2258065,60.9677419 L23.2258065,58.0645161 L26.1290323,58.0645161 L26.1290323,60.9677419 Z" id="Shape"></path>
                        <path d="M15.9677419,66.7741935 L10.1612903,66.7741935 C9.35854839,66.7741935 8.70967742,67.4230645 8.70967742,68.2258065 L8.70967742,74.0322581 C8.70967742,74.835 9.35854839,75.483871 10.1612903,75.483871 L15.9677419,75.483871 C16.7704839,75.483871 17.4193548,74.835 17.4193548,74.0322581 L17.4193548,68.2258065 C17.4193548,67.4230645 16.7704839,66.7741935 15.9677419,66.7741935 Z M14.516129,72.5806452 L11.6129032,72.5806452 L11.6129032,69.6774194 L14.516129,69.6774194 L14.516129,72.5806452 Z" id="Shape"></path>
                        <path d="M27.5806452,66.7741935 L21.7741935,66.7741935 C20.9714516,66.7741935 20.3225806,67.4230645 20.3225806,68.2258065 L20.3225806,74.0322581 C20.3225806,74.835 20.9714516,75.483871 21.7741935,75.483871 L27.5806452,75.483871 C28.3833871,75.483871 29.0322581,74.835 29.0322581,74.0322581 L29.0322581,68.2258065 C29.0322581,67.4230645 28.3833871,66.7741935 27.5806452,66.7741935 Z M26.1290323,72.5806452 L23.2258065,72.5806452 L23.2258065,69.6774194 L26.1290323,69.6774194 L26.1290323,72.5806452 Z" id="Shape"></path>
                        <path d="M15.9677419,20.3225806 L39.1935484,20.3225806 C39.9962903,20.3225806 40.6451613,19.6737097 40.6451613,18.8709677 L40.6451613,10.1612903 C40.6451613,9.35854839 39.9962903,8.70967742 39.1935484,8.70967742 L15.9677419,8.70967742 C15.165,8.70967742 14.516129,9.35854839 14.516129,10.1612903 L14.516129,18.8709677 C14.516129,19.6737097 15.165,20.3225806 15.9677419,20.3225806 Z M37.7419355,17.4193548 L29.0322581,17.4193548 L29.0322581,11.6129032 L37.7419355,11.6129032 L37.7419355,17.4193548 Z M17.4193548,11.6129032 L26.1290323,11.6129032 L26.1290323,17.4193548 L17.4193548,17.4193548 L17.4193548,11.6129032 Z" id="Shape"></path>
                        <path d="M40.6451613,33.3870968 L40.6451613,24.6774194 C40.6451613,23.8746774 39.9962903,23.2258065 39.1935484,23.2258065 L15.9677419,23.2258065 C15.165,23.2258065 14.516129,23.8746774 14.516129,24.6774194 L14.516129,33.3870968 C14.516129,34.1898387 15.165,34.8387097 15.9677419,34.8387097 L39.1935484,34.8387097 C39.9962903,34.8387097 40.6451613,34.1898387 40.6451613,33.3870968 Z M17.4193548,26.1290323 L26.1290323,26.1290323 L26.1290323,31.9354839 L17.4193548,31.9354839 L17.4193548,26.1290323 Z M37.7419355,31.9354839 L29.0322581,31.9354839 L29.0322581,26.1290323 L37.7419355,26.1290323 L37.7419355,31.9354839 Z" id="Shape"></path>
                    </g>
                </g>
            </g>
        </g>
    </g>
</svg>