<?xml version="1.0" encoding="UTF-8"?>
<svg width="95px" height="95px" viewBox="0 0 95 95" version="1.1" xmlns="http://www.w3.org/2000/svg" xmlns:xlink="http://www.w3.org/1999/xlink">
    <!-- Generator: Sketch 60.1 (88133) - https://sketch.com -->
    <title>ic_monitor</title>
    <desc>Created with Sketch.</desc>
    <g id="Page-1" stroke="none" stroke-width="1" fill="none" fill-rule="evenodd">
        <g id="04_Aereo" transform="translate(-673.000000, -2427.000000)" fill="#B2B2B2">
            <g id="ic_monitor" transform="translate(673.000000, 2427.000000)">
                <polygon id="Path" points="79.6774194 67.4193548 82.7419355 67.4193548 82.7419355 70.483871 79.6774194 70.483871"></polygon>
                <path d="M95,42.9032258 L91.9354839,42.9032258 L91.9354839,16.8548387 C91.9354839,16.0090323 91.2505645,15.3225806 90.4032258,15.3225806 L84.2741935,15.3225806 C83.4268548,15.3225806 82.7419355,16.0090323 82.7419355,16.8548387 L82.7419355,18.3870968 L63.4569355,18.3870968 L71.1182258,10.7258065 L79.6774194,10.7258065 C80.085,10.7258065 80.4741935,10.5649194 80.7607258,10.2768548 L85.8064516,5.23112903 L85.8064516,9.19354839 L88.8709677,9.19354839 L88.8709677,1.53225806 C88.8709677,0.686451613 88.1860484,0 87.3387097,0 L79.6774194,0 L79.6774194,3.06451613 L83.6398387,3.06451613 L79.0430645,7.66129032 L70.483871,7.66129032 C70.0762903,7.66129032 69.6870968,7.82217742 69.4005645,8.11024194 L59.1237097,18.3870968 L52.0967742,18.3870968 L52.0967742,10.7258065 C52.0967742,9.88 51.4118548,9.19354839 50.5645161,9.19354839 L1.53225806,9.19354839 C0.684919355,9.19354839 0,9.88 0,10.7258065 L0,53.6290323 C0,54.4748387 0.684919355,55.1612903 1.53225806,55.1612903 L6.12903226,55.1612903 L6.12903226,68.9516129 C6.12903226,73.1760484 9.5658871,76.6129032 13.7903226,76.6129032 L34.6075806,76.6129032 L35.5054839,77.5108065 C37.3120161,79.3173387 38.3064516,81.7183871 38.3064516,84.2741935 C38.3064516,86.83 37.3120161,89.2310484 35.5054839,91.0375806 L34.6075806,91.9354839 L19.9193548,91.9354839 L19.9193548,95 L75.0806452,95 L75.0806452,91.9354839 L60.3924194,91.9354839 L59.4945161,91.0375806 C57.6879839,89.2310484 56.6935484,86.83 56.6935484,84.2741935 C56.6935484,81.7183871 57.6879839,79.3173387 59.4945161,77.5108065 L60.3924194,76.6129032 L81.2096774,76.6129032 C85.4341129,76.6129032 88.8709677,73.1760484 88.8709677,68.9516129 L88.8709677,45.9677419 L95,45.9677419 L95,42.9032258 Z M88.8709677,18.3870968 L88.8709677,42.9032258 L85.8064516,42.9032258 L85.8064516,18.3870968 L88.8709677,18.3870968 Z M49.0322581,12.2580645 L49.0322581,21.4516129 L3.06451613,21.4516129 L3.06451613,12.2580645 L49.0322581,12.2580645 Z M3.06451613,24.516129 L49.0322581,24.516129 L49.0322581,52.0967742 L3.06451613,52.0967742 L3.06451613,24.516129 Z M56.2323387,91.9354839 L38.7676613,91.9354839 C40.4485484,89.7443548 41.3709677,87.0828226 41.3709677,84.2741935 C41.3709677,81.4655645 40.4485484,78.8040323 38.7676613,76.6129032 L56.2323387,76.6129032 C54.5514516,78.8040323 53.6290323,81.4655645 53.6290323,84.2741935 C53.6290323,87.0828226 54.5514516,89.7443548 56.2323387,91.9354839 Z M81.2096774,73.5483871 L13.7903226,73.5483871 C11.2559677,73.5483871 9.19354839,71.4859677 9.19354839,68.9516129 L9.19354839,64.3548387 L85.8064516,64.3548387 L85.8064516,68.9516129 C85.8064516,71.4859677 83.7440323,73.5483871 81.2096774,73.5483871 Z M85.8064516,61.2903226 L9.19354839,61.2903226 L9.19354839,55.1612903 L50.5645161,55.1612903 C51.4118548,55.1612903 52.0967742,54.4748387 52.0967742,53.6290323 L52.0967742,21.4516129 L56.0591935,21.4516129 L55.6102419,21.9005645 L57.7768548,24.0671774 L60.3924194,21.4516129 L82.7419355,21.4516129 L82.7419355,42.9032258 L79.6774194,42.9032258 L79.6774194,26.0483871 C79.6774194,25.2025806 78.9925,24.516129 78.1451613,24.516129 L72.016129,24.516129 C71.1687903,24.516129 70.483871,25.2025806 70.483871,26.0483871 L70.483871,42.9032258 L67.4193548,42.9032258 L67.4193548,32.1774194 C67.4193548,31.3316129 66.7344355,30.6451613 65.8870968,30.6451613 L59.7580645,30.6451613 C58.9107258,30.6451613 58.2258065,31.3316129 58.2258065,32.1774194 L58.2258065,42.9032258 L55.1612903,42.9032258 L55.1612903,45.9677419 L85.8064516,45.9677419 L85.8064516,61.2903226 Z M76.6129032,42.9032258 L73.5483871,42.9032258 L73.5483871,27.5806452 L76.6129032,27.5806452 L76.6129032,42.9032258 Z M64.3548387,42.9032258 L61.2903226,42.9032258 L61.2903226,33.7096774 L64.3548387,33.7096774 L64.3548387,42.9032258 Z" id="Shape"></path>
                <polygon id="Path" points="6.12903226 15.3225806 9.19354839 15.3225806 9.19354839 18.3870968 6.12903226 18.3870968"></polygon>
                <polygon id="Path" points="12.2580645 15.3225806 15.3225806 15.3225806 15.3225806 18.3870968 12.2580645 18.3870968"></polygon>
                <polygon id="Path" points="18.3870968 15.3225806 21.4516129 15.3225806 21.4516129 18.3870968 18.3870968 18.3870968"></polygon>
                <path d="M44.4354839,27.5806452 L7.66129032,27.5806452 C6.81395161,27.5806452 6.12903226,28.2670968 6.12903226,29.1129032 L6.12903226,35.2419355 C6.12903226,36.0877419 6.81395161,36.7741935 7.66129032,36.7741935 L44.4354839,36.7741935 C45.2828226,36.7741935 45.9677419,36.0877419 45.9677419,35.2419355 L45.9677419,29.1129032 C45.9677419,28.2670968 45.2828226,27.5806452 44.4354839,27.5806452 Z M9.19354839,30.6451613 L18.3870968,30.6451613 L18.3870968,33.7096774 L9.19354839,33.7096774 L9.19354839,30.6451613 Z M42.9032258,33.7096774 L21.4516129,33.7096774 L21.4516129,30.6451613 L42.9032258,30.6451613 L42.9032258,33.7096774 Z" id="Shape"></path>
                <polygon id="Path" points="6.12903226 39.8387097 39.8387097 39.8387097 39.8387097 42.9032258 6.12903226 42.9032258"></polygon>
                <polygon id="Path" points="12.2580645 45.9677419 45.9677419 45.9677419 45.9677419 49.0322581 12.2580645 49.0322581"></polygon>
            </g>
        </g>
    </g>
</svg>