<?xml version="1.0" encoding="UTF-8"?>
<svg width="100px" height="100px" viewBox="0 0 100 100" version="1.1" xmlns="http://www.w3.org/2000/svg" xmlns:xlink="http://www.w3.org/1999/xlink">
    <!-- Generator: Sketch 60.1 (88133) - https://sketch.com -->
    <title>ic_nacional</title>
    <desc>Created with Sketch.</desc>
    <g id="Page-1" stroke="none" stroke-width="1" fill="none" fill-rule="evenodd">
        <g id="03_Terrestre" transform="translate(-294.000000, -1747.000000)" fill="#B2B2B2">
            <g id="Group-6" transform="translate(178.000000, 1510.000000)">
                <g id="Group-11" transform="translate(0.000000, 237.000000)">
                    <g id="ic_nacional" transform="translate(116.000000, 0.000000)">
                        <circle id="Oval" cx="86.4257812" cy="62.8888672" r="1.46484375"></circle>
                        <circle id="Oval" cx="1.46484375" cy="98.5351562" r="1.46484375"></circle>
                        <circle id="Oval" cx="9.49628906" cy="95.6054688" r="1.46484375"></circle>
                        <path d="M86.4830078,55.0189453 C85.9111328,54.4466797 84.9835937,54.446875 84.4115234,55.0189453 L82.4603516,56.9703125 C81.8882813,57.5423828 81.8882813,58.4699219 82.4605469,59.0417969 C82.7464844,59.3279297 83.1214844,59.4708984 83.4962891,59.4708984 C83.8710937,59.4708984 84.2460938,59.3279297 84.5322266,59.0417969 L86.4833984,57.0904297 C87.0552734,56.5183594 87.0552734,55.5910156 86.4830078,55.0189453 L86.4830078,55.0189453 Z" id="Path"></path>
                        <path d="M99.5710937,37.4408203 L97.4996094,35.3693359 C96.9273437,34.7972656 96,34.7972656 95.4279297,35.3693359 C94.8558594,35.9414062 94.8558594,36.8689453 95.4279297,37.4408203 L97.4994141,39.5123047 C97.7855469,39.7982422 98.1605469,39.9414062 98.5353516,39.9414062 C98.9101562,39.9414062 99.2851562,39.7984375 99.5712891,39.5123047 C100.142969,38.9404297 100.142969,38.0128906 99.5710937,37.4408203 Z" id="Path"></path>
                        <path d="M93.0552734,40.1601562 C92.6230469,39.8931641 92.0837891,39.8691406 91.6298828,40.0960938 L82.8408203,44.490625 C82.4197266,44.7011719 82.1255859,45.1013672 82.05,45.5662109 C81.9746094,46.0308594 82.1273438,46.5037109 82.4601563,46.8365234 L86.8546875,51.2310547 C87.1294922,51.5058594 87.5019531,51.6601562 87.890625,51.6601562 C91.1214844,51.6601562 93.75,49.0316406 93.75,45.8007812 L93.75,41.40625 C93.75,40.8986328 93.4871094,40.4271484 93.0552734,40.1601562 Z M90.8203125,45.8007812 C90.8203125,47.2267578 89.7962891,48.4181641 88.4449219,48.6779297 L85.9689453,46.2021484 L90.8203125,43.7763672 L90.8203125,45.8007812 Z" id="Shape"></path>
                        <path d="M3.47890625,87.7355469 C2.90703125,87.1632813 1.97949219,87.1634766 1.40742188,87.7355469 C0.835351563,88.3076172 0.835351563,89.2351563 1.40761719,89.8070313 L3.35898438,91.7583984 C3.64472656,92.0445312 4.01972656,92.1875 4.39453125,92.1875 C4.76933594,92.1875 5.14433594,92.0445312 5.43046875,91.7583984 C6.00253906,91.1863281 6.00253906,90.2587891 5.43027344,89.6869141 L3.47890625,87.7355469 Z" id="Path"></path>
                        <path d="M24.1447266,91.2109375 L15.3556641,91.2109375 C14.5464844,91.2109375 13.8908203,91.8667969 13.8908203,92.6757812 L13.8908203,95.6054688 C13.8908203,98.0287109 15.8623047,100 18.2853516,100 C20.7083984,100 22.6798828,98.0287109 22.6798828,95.6054688 L22.6798828,94.140625 L24.1447266,94.140625 C24.9539063,94.140625 25.6095703,93.4847656 25.6095703,92.6757812 C25.6095703,91.8667969 24.9539062,91.2109375 24.1447266,91.2109375 L24.1447266,91.2109375 Z M19.7501953,95.6054688 C19.7501953,96.4132813 19.0931641,97.0703125 18.2853516,97.0703125 C17.4775391,97.0703125 16.8205078,96.4132813 16.8205078,95.6054688 L16.8205078,94.140625 L19.7501953,94.140625 L19.7501953,95.6054688 Z" id="Shape"></path>
                        <path d="M32.0757812,91.4623047 L28.9685547,94.5697266 C28.3962891,95.1417969 28.3962891,96.0691406 28.9683594,96.6412109 C29.2544922,96.9273437 29.6292969,97.0703125 30.0042969,97.0703125 C30.3791016,97.0703125 30.7541016,96.9273437 31.0402344,96.6412109 L34.1474609,93.5337891 C34.7197266,92.9617188 34.7197266,92.034375 34.1476562,91.4623047 C33.5755859,90.8902344 32.6480469,90.8902344 32.0757812,91.4623047 Z" id="Path"></path>
                        <path d="M38.1701172,85.3677734 L36.2189453,87.3191406 C35.646875,87.8912109 35.646875,88.81875 36.2191406,89.390625 C36.5050781,89.6767578 36.8800781,89.8197266 37.2548828,89.8197266 C37.6296875,89.8197266 38.0046875,89.6767578 38.2908203,89.390625 L40.2419922,87.4392578 C40.8140625,86.8671875 40.8140625,85.9396484 40.2417969,85.3677734 C39.6697266,84.7955078 38.7421875,84.7957031 38.1701172,85.3677734 Z" id="Path"></path>
                        <path d="M73.5167969,40.8863281 L78.8841797,32.1640625 C81.4353516,31.7886719 83.4568359,29.7628906 83.8261719,27.2097656 L99.3214844,17.3492188 C99.7439453,17.0802734 100,16.6142578 100,16.1132813 L100,10.2539063 C100,9.44492188 99.3443359,8.7890625 98.5351562,8.7890625 L83.8867188,8.7890625 C82.0558594,8.7890625 80.4830078,9.91425781 79.8234375,11.5095703 L64.7353516,8.99492188 C64.1369141,5.55410156 61.1289063,2.9296875 57.5195313,2.9296875 C56.7103516,2.9296875 56.0546875,3.58554688 56.0546875,4.39453125 C56.0546875,5.20351563 56.7103516,5.859375 57.5195313,5.859375 C59.9425781,5.859375 61.9140625,7.83066406 61.9140625,10.2539063 C61.9140625,10.9701172 62.4316406,11.5810547 63.1380859,11.6988281 L80.7162109,14.6285156 C81.1416016,14.6992188 81.5753906,14.5796875 81.9039063,14.3013672 C82.2324219,14.0228516 82.421875,13.6142578 82.421875,13.1835938 C82.421875,12.3757813 83.0789063,11.71875 83.8867188,11.71875 L97.0703125,11.71875 L97.0703125,15.3091797 L81.6355469,25.1314453 C81.2130859,25.4003906 80.9570313,25.8664063 80.9570313,26.3673828 C80.9570313,27.9828125 79.6427734,29.2970703 78.0273438,29.2970703 C77.51875,29.2970703 77.0464844,29.5609375 76.7796875,29.9941406 L70.5296875,40.1503906 C70.2298828,40.6375 70.2410156,41.2546875 70.5583984,41.7306641 L75.7515625,49.5205078 L67.8117188,57.4603516 C67.5371094,57.7349609 67.3828125,58.1076172 67.3828125,58.4960938 L67.3828125,62.890625 L60.0585938,62.890625 C59.5037109,62.890625 58.9964844,63.2041016 58.7484375,63.7003906 L53.2939453,74.609375 L36.6210938,74.609375 C35.8119141,74.609375 35.15625,75.2652344 35.15625,76.0742188 C35.15625,78.3041016 33.4865234,80.1515625 31.3316406,80.4320313 L25.9382812,75.0384766 C25.6634766,74.7636719 25.2910156,74.609375 24.9023438,74.609375 L19.1591797,74.609375 C16.7021484,74.609375 14.6789063,72.6634766 14.6486328,70.2714844 C14.6289063,68.6851563 15.4712891,67.2052734 16.8470703,66.4091797 C17.2994141,66.1472656 17.578125,65.6640625 17.578125,65.1414063 L17.578125,55.5664063 C17.578125,54.7574219 16.9224609,54.1015625 16.1132812,54.1015625 C15.3054688,54.1015625 14.6484375,53.4445313 14.6484375,52.6367188 L14.6484375,49.7070313 C14.6484375,48.8980469 13.9927734,48.2421875 13.1835938,48.2421875 C12.1013672,48.2421875 11.1542969,47.6523438 10.6470703,46.7773438 L16.1132812,46.7773438 C16.8472656,46.7773438 17.4677734,46.234375 17.5652344,45.5070313 L20.4949219,23.6320313 C20.5509766,23.2132813 20.4236328,22.7908203 20.1455078,22.4728516 C19.8671875,22.1550781 19.465625,21.9726563 19.0429688,21.9726563 C17.4275391,21.9726563 16.1132812,20.6583984 16.1132812,19.0429688 C16.1132812,18.2339844 15.4576172,17.578125 14.6484375,17.578125 L2.9296875,17.578125 L2.9296875,11.71875 C2.9296875,10.1033203 4.24394531,8.7890625 5.859375,8.7890625 L7.32421875,8.7890625 C8.13339844,8.7890625 8.7890625,8.13320313 8.7890625,7.32421875 C8.7890625,4.90097656 10.7605469,2.9296875 13.1835938,2.9296875 C14.7462891,2.9296875 16.2044922,3.77207031 16.9892578,5.128125 C17.2511719,5.58066406 17.734375,5.859375 18.2572266,5.859375 L51.6601562,5.859375 C52.4693359,5.859375 53.125,5.20351563 53.125,4.39453125 C53.125,3.58554688 52.4693359,2.9296875 51.6601562,2.9296875 L19.0408203,2.9296875 C17.6675781,1.10390625 15.4943359,5.68434189e-14 13.1835938,5.68434189e-14 C9.64667969,5.68434189e-14 6.68710938,2.52050781 6.00644531,5.859375 L5.859375,5.859375 C2.62851562,5.859375 0,8.48789063 0,11.71875 L0,19.0429688 C0,19.8519531 0.655664063,20.5078125 1.46484375,20.5078125 L13.3689453,20.5078125 C13.8845703,22.5041016 15.4289062,24.0914063 17.4001953,24.6679688 L14.8316406,43.8476563 L8.7890625,43.8476563 C7.97988281,43.8476563 7.32421875,44.5035156 7.32421875,45.3125 C7.32421875,48.0376953 9.19433594,50.334375 11.71875,50.9865234 L11.71875,52.6367188 C11.71875,54.5464844 12.9433594,56.1757813 14.6484375,56.7802734 L14.6484375,64.3570313 C12.7945312,65.75 11.6900391,67.9589844 11.7193359,70.3082031 C11.7693359,74.2953125 15.1068359,77.5390625 19.1591797,77.5390625 L24.2957031,77.5390625 L29.7259766,82.9693359 C30.0007813,83.2441406 30.3732422,83.3984375 30.7619141,83.3984375 C34.2988281,83.3984375 37.2583984,80.8779297 37.9390625,77.5390625 L54.1992188,77.5390625 C54.7541016,77.5390625 55.2613281,77.2255859 55.509375,76.7292969 L60.9638672,65.8203125 L68.8476563,65.8203125 C69.6568359,65.8203125 70.3125,65.1644531 70.3125,64.3554688 L70.3125,59.1027344 L78.6726563,50.7427734 C79.1662109,50.2490234 79.2429688,49.4753906 78.8556641,48.8945313 L73.5167969,40.8863281 Z" id="Path"></path>
                    </g>
                </g>
            </g>
        </g>
    </g>
</svg>