<?xml version="1.0" encoding="UTF-8"?>
<svg width="95px" height="95px" viewBox="0 0 95 95" version="1.1" xmlns="http://www.w3.org/2000/svg" xmlns:xlink="http://www.w3.org/1999/xlink">
    <!-- Generator: Sketch 60.1 (88133) - https://sketch.com -->
    <title>ic_puntualidad</title>
    <desc>Created with Sketch.</desc>
    <g id="Page-1" stroke="none" stroke-width="1" fill="none" fill-rule="evenodd">
        <g id="02_Maritimo" transform="translate(-297.000000, -1749.000000)" fill="#B2B2B2">
            <g id="Group-11" transform="translate(178.000000, 1749.000000)">
                <g id="ic_puntualidad" transform="translate(119.000000, 0.000000)">
                    <g id="online-appointment">
                        <path d="M93.4677419,79.6774194 L91.9354839,79.6774194 L91.9354839,29.1129032 C91.9354839,28.4141935 91.7654032,27.7476613 91.4712097,27.1347581 C93.6745968,24.2862903 95,20.7268548 95,16.8548387 C95,7.56169355 87.4383065,0 78.1451613,0 C72.8864516,0 68.1854839,2.42403226 65.0918548,6.20870968 C63.4508065,6.49830645 62.1208065,7.65669355 61.5722581,9.19354839 L57.9423387,9.19354839 C57.3095161,7.41459677 55.6240323,6.12903226 53.6290323,6.12903226 C51.6340323,6.12903226 49.9485484,7.41459677 49.3141935,9.19354839 L45.6842742,9.19354839 C45.0514516,7.41459677 43.3659677,6.12903226 41.3709677,6.12903226 C39.3759677,6.12903226 37.6904839,7.41459677 37.056129,9.19354839 L33.4262097,9.19354839 C32.7933871,7.41459677 31.1079032,6.12903226 29.1129032,6.12903226 C27.1179032,6.12903226 25.4324194,7.41459677 24.7980645,9.19354839 L16.8548387,9.19354839 C16.0090323,9.19354839 15.3225806,9.88 15.3225806,10.7258065 L15.3225806,24.516129 L7.66129032,24.516129 C5.12693548,24.516129 3.06451613,26.5785484 3.06451613,29.1129032 L3.06451613,79.6774194 L1.53225806,79.6774194 C0.686451613,79.6774194 0,80.3623387 0,81.2096774 L0,87.3387097 C0,91.5631452 3.43685484,95 7.66129032,95 L87.3387097,95 C91.5631452,95 95,91.5631452 95,87.3387097 L95,81.2096774 C95,80.3623387 94.3135484,79.6774194 93.4677419,79.6774194 Z M78.1451613,3.06451613 C85.7482258,3.06451613 91.9354839,9.25177419 91.9354839,16.8548387 C91.9354839,24.4579032 85.7482258,30.6451613 78.1451613,30.6451613 C70.5420968,30.6451613 64.3548387,24.4579032 64.3548387,16.8548387 C64.3548387,9.25177419 70.5420968,3.06451613 78.1451613,3.06451613 Z M65.1531452,27.5806452 L62.8225806,27.5806452 C61.9767742,27.5806452 61.2903226,28.2670968 61.2903226,29.1129032 L61.2903226,35.2419355 C61.2903226,36.0877419 61.9767742,36.7741935 62.8225806,36.7741935 L68.9516129,36.7741935 C69.7974194,36.7741935 70.483871,36.0877419 70.483871,35.2419355 L70.483871,31.8495161 C72.3547581,32.8087097 74.4217742,33.433871 76.6129032,33.6330645 L76.6129032,52.0967742 L18.3870968,52.0967742 L18.3870968,24.516129 L63.1504839,24.516129 C63.7112903,25.6101613 64.3762903,26.641371 65.1531452,27.5806452 Z M67.4193548,30.6451613 L67.4193548,33.7096774 L64.3548387,33.7096774 L64.3548387,30.6451613 L67.4193548,30.6451613 Z M18.3870968,55.1612903 L76.6129032,55.1612903 L76.6129032,58.2258065 L18.3870968,58.2258065 L18.3870968,55.1612903 Z M16.8548387,61.2903226 L78.1451613,61.2903226 C78.9909677,61.2903226 79.6774194,60.6054032 79.6774194,59.7580645 L79.6774194,33.6315323 C80.7316129,33.5365323 81.753629,33.3373387 82.7419355,33.0554032 L82.7419355,73.5483871 L12.2580645,73.5483871 L12.2580645,33.7096774 L15.3225806,33.7096774 L15.3225806,59.7580645 C15.3225806,60.6054032 16.0090323,61.2903226 16.8548387,61.2903226 Z M52.0967742,10.7258065 C52.0967742,9.88153226 52.7847581,9.19354839 53.6290323,9.19354839 C54.4733065,9.19354839 55.1612903,9.88153226 55.1612903,10.7258065 L55.1612903,13.7903226 C55.1612903,14.6345968 54.4733065,15.3225806 53.6290323,15.3225806 C52.7847581,15.3225806 52.0967742,14.6345968 52.0967742,13.7903226 L52.0967742,10.7258065 Z M39.8387097,10.7258065 C39.8387097,9.88153226 40.5266935,9.19354839 41.3709677,9.19354839 C42.2152419,9.19354839 42.9032258,9.88153226 42.9032258,10.7258065 L42.9032258,13.7903226 C42.9032258,14.6345968 42.2152419,15.3225806 41.3709677,15.3225806 C40.5266935,15.3225806 39.8387097,14.6345968 39.8387097,13.7903226 L39.8387097,10.7258065 Z M27.5806452,10.7258065 C27.5806452,9.88153226 28.268629,9.19354839 29.1129032,9.19354839 C29.9571774,9.19354839 30.6451613,9.88153226 30.6451613,10.7258065 L30.6451613,13.7903226 C30.6451613,14.6345968 29.9571774,15.3225806 29.1129032,15.3225806 C28.268629,15.3225806 27.5806452,14.6345968 27.5806452,13.7903226 L27.5806452,10.7258065 Z M24.516129,12.2580645 L24.516129,13.7903226 C24.516129,16.3246774 26.5785484,18.3870968 29.1129032,18.3870968 C31.6472581,18.3870968 33.7096774,16.3246774 33.7096774,13.7903226 L33.7096774,12.2580645 L36.7741935,12.2580645 L36.7741935,13.7903226 C36.7741935,16.3246774 38.8366129,18.3870968 41.3709677,18.3870968 C43.9053226,18.3870968 45.9677419,16.3246774 45.9677419,13.7903226 L45.9677419,12.2580645 L49.0322581,12.2580645 L49.0322581,13.7903226 C49.0322581,16.3246774 51.0946774,18.3870968 53.6290323,18.3870968 C56.1633871,18.3870968 58.2258065,16.3246774 58.2258065,13.7903226 L58.2258065,12.2580645 L61.2903226,12.2580645 L61.2903226,13.7903226 C61.2903226,14.1442742 61.3439516,14.4920968 61.423629,14.8337903 C61.3439516,15.4972581 61.2903226,16.1699194 61.2903226,16.8548387 C61.2903226,18.4499194 61.5278226,19.9883065 61.9430645,21.4516129 L18.3870968,21.4516129 L18.3870968,12.2580645 L24.516129,12.2580645 Z M6.12903226,29.1129032 C6.12903226,28.268629 6.81701613,27.5806452 7.66129032,27.5806452 L15.3225806,27.5806452 L15.3225806,30.6451613 L10.7258065,30.6451613 C9.88,30.6451613 9.19354839,31.3316129 9.19354839,32.1774194 L9.19354839,75.0806452 C9.19354839,75.9279839 9.88,76.6129032 10.7258065,76.6129032 L84.2741935,76.6129032 C85.12,76.6129032 85.8064516,75.9279839 85.8064516,75.0806452 L85.8064516,31.8495161 C86.9004839,31.2887097 87.9316935,30.6237097 88.8709677,29.8468548 L88.8709677,79.6774194 L6.12903226,79.6774194 L6.12903226,29.1129032 Z M36.7741935,82.7419355 L58.2258065,82.7419355 L58.2258065,84.2741935 C58.2258065,85.12 57.5378226,85.8064516 56.6935484,85.8064516 L38.3064516,85.8064516 C37.4621774,85.8064516 36.7741935,85.12 36.7741935,84.2741935 L36.7741935,82.7419355 Z M91.9354839,87.3387097 C91.9354839,89.8730645 89.8730645,91.9354839 87.3387097,91.9354839 L7.66129032,91.9354839 C5.12693548,91.9354839 3.06451613,89.8730645 3.06451613,87.3387097 L3.06451613,82.7419355 L33.7096774,82.7419355 L33.7096774,84.2741935 C33.7096774,86.8085484 35.7720968,88.8709677 38.3064516,88.8709677 L56.6935484,88.8709677 C59.2279032,88.8709677 61.2903226,86.8085484 61.2903226,84.2741935 L61.2903226,82.7419355 L91.9354839,82.7419355 L91.9354839,87.3387097 Z" id="Shape"></path>
                        <path d="M75.0806452,22.983871 C75.4729032,22.983871 75.8651613,22.8337097 76.1639516,22.5349194 L86.8897581,11.8091129 L84.7231452,9.6425 L75.0806452,19.285 L71.5671774,15.7715323 L69.4005645,17.9381452 L73.9973387,22.5349194 C74.296129,22.8337097 74.6883871,22.983871 75.0806452,22.983871 L75.0806452,22.983871 Z" id="Path"></path>
                        <path d="M26.0483871,36.7741935 L32.1774194,36.7741935 C33.0232258,36.7741935 33.7096774,36.0877419 33.7096774,35.2419355 L33.7096774,29.1129032 C33.7096774,28.2670968 33.0232258,27.5806452 32.1774194,27.5806452 L26.0483871,27.5806452 C25.2025806,27.5806452 24.516129,28.2670968 24.516129,29.1129032 L24.516129,35.2419355 C24.516129,36.0877419 25.2025806,36.7741935 26.0483871,36.7741935 Z M27.5806452,30.6451613 L30.6451613,30.6451613 L30.6451613,33.7096774 L27.5806452,33.7096774 L27.5806452,30.6451613 Z" id="Shape"></path>
                        <path d="M38.3064516,36.7741935 L44.4354839,36.7741935 C45.2812903,36.7741935 45.9677419,36.0877419 45.9677419,35.2419355 L45.9677419,29.1129032 C45.9677419,28.2670968 45.2812903,27.5806452 44.4354839,27.5806452 L38.3064516,27.5806452 C37.4606452,27.5806452 36.7741935,28.2670968 36.7741935,29.1129032 L36.7741935,35.2419355 C36.7741935,36.0877419 37.4606452,36.7741935 38.3064516,36.7741935 Z M39.8387097,30.6451613 L42.9032258,30.6451613 L42.9032258,33.7096774 L39.8387097,33.7096774 L39.8387097,30.6451613 Z" id="Shape"></path>
                        <path d="M50.5645161,36.7741935 L56.6935484,36.7741935 C57.5393548,36.7741935 58.2258065,36.0877419 58.2258065,35.2419355 L58.2258065,29.1129032 C58.2258065,28.2670968 57.5393548,27.5806452 56.6935484,27.5806452 L50.5645161,27.5806452 C49.7187097,27.5806452 49.0322581,28.2670968 49.0322581,29.1129032 L49.0322581,35.2419355 C49.0322581,36.0877419 49.7187097,36.7741935 50.5645161,36.7741935 Z M52.0967742,30.6451613 L55.1612903,30.6451613 L55.1612903,33.7096774 L52.0967742,33.7096774 L52.0967742,30.6451613 Z" id="Shape"></path>
                        <path d="M26.0483871,49.0322581 L32.1774194,49.0322581 C33.0232258,49.0322581 33.7096774,48.3458065 33.7096774,47.5 L33.7096774,41.3709677 C33.7096774,40.5251613 33.0232258,39.8387097 32.1774194,39.8387097 L26.0483871,39.8387097 C25.2025806,39.8387097 24.516129,40.5251613 24.516129,41.3709677 L24.516129,47.5 C24.516129,48.3458065 25.2025806,49.0322581 26.0483871,49.0322581 Z M27.5806452,42.9032258 L30.6451613,42.9032258 L30.6451613,45.9677419 L27.5806452,45.9677419 L27.5806452,42.9032258 Z" id="Shape"></path>
                        <path d="M38.3064516,49.0322581 L44.4354839,49.0322581 C45.2812903,49.0322581 45.9677419,48.3458065 45.9677419,47.5 L45.9677419,41.3709677 C45.9677419,40.5251613 45.2812903,39.8387097 44.4354839,39.8387097 L38.3064516,39.8387097 C37.4606452,39.8387097 36.7741935,40.5251613 36.7741935,41.3709677 L36.7741935,47.5 C36.7741935,48.3458065 37.4606452,49.0322581 38.3064516,49.0322581 Z M39.8387097,42.9032258 L42.9032258,42.9032258 L42.9032258,45.9677419 L39.8387097,45.9677419 L39.8387097,42.9032258 Z" id="Shape"></path>
                        <path d="M50.5645161,49.0322581 L56.6935484,49.0322581 C57.5393548,49.0322581 58.2258065,48.3458065 58.2258065,47.5 L58.2258065,41.3709677 C58.2258065,40.5251613 57.5393548,39.8387097 56.6935484,39.8387097 L50.5645161,39.8387097 C49.7187097,39.8387097 49.0322581,40.5251613 49.0322581,41.3709677 L49.0322581,47.5 C49.0322581,48.3458065 49.7187097,49.0322581 50.5645161,49.0322581 Z M52.0967742,42.9032258 L55.1612903,42.9032258 L55.1612903,45.9677419 L52.0967742,45.9677419 L52.0967742,42.9032258 Z" id="Shape"></path>
                        <path d="M62.8225806,49.0322581 L68.9516129,49.0322581 C69.7974194,49.0322581 70.483871,48.3458065 70.483871,47.5 L70.483871,41.3709677 C70.483871,40.5251613 69.7974194,39.8387097 68.9516129,39.8387097 L62.8225806,39.8387097 C61.9767742,39.8387097 61.2903226,40.5251613 61.2903226,41.3709677 L61.2903226,47.5 C61.2903226,48.3458065 61.9767742,49.0322581 62.8225806,49.0322581 Z M64.3548387,42.9032258 L67.4193548,42.9032258 L67.4193548,45.9677419 L64.3548387,45.9677419 L64.3548387,42.9032258 Z" id="Shape"></path>
                    </g>
                </g>
            </g>
        </g>
    </g>
</svg>