<?xml version="1.0" encoding="UTF-8"?>
<svg width="90px" height="90px" viewBox="0 0 90 90" version="1.1" xmlns="http://www.w3.org/2000/svg" xmlns:xlink="http://www.w3.org/1999/xlink">
    <!-- Generator: Sketch 60.1 (88133) - https://sketch.com -->
    <title>ic_puerta</title>
    <desc>Created with Sketch.</desc>
    <g id="Page-1" stroke="none" stroke-width="1" fill="none" fill-rule="evenodd">
        <g id="04_Aereo" transform="translate(-304.000000, -2123.000000)" fill="#B2B2B2">
            <g id="ic_puerta" transform="translate(304.000000, 2123.000000)">
                <path d="M72.5806452,87.0967742 L72.5806452,1.4516129 C72.5806452,0.650322581 71.9303226,0 71.1290323,0 L18.8709677,0 C18.0696774,0 17.4193548,0.650322581 17.4193548,1.4516129 L17.4193548,87.0967742 L0,87.0967742 L0,90 L90,90 L90,87.0967742 L72.5806452,87.0967742 Z M20.3225806,2.90322581 L69.6774194,2.90322581 L69.6774194,87.0967742 L66.7741935,87.0967742 L66.7741935,7.25806452 C66.7741935,6.45677419 66.123871,5.80645161 65.3225806,5.80645161 L24.6774194,5.80645161 C23.876129,5.80645161 23.2258065,6.45677419 23.2258065,7.25806452 L23.2258065,87.0967742 L20.3225806,87.0967742 L20.3225806,2.90322581 Z M63.8709677,87.0967742 L26.1290323,87.0967742 L26.1290323,8.70967742 L63.8709677,8.70967742 L63.8709677,87.0967742 Z" id="Shape"></path>
                <polygon id="Path" points="59.516129 39.1935484 62.4193548 39.1935484 62.4193548 50.8064516 59.516129 50.8064516"></polygon>
                <path d="M33.3870968,55.1612903 L56.6129032,55.1612903 C57.4141935,55.1612903 58.0645161,54.5124194 58.0645161,53.7096774 L58.0645161,13.0645161 C58.0645161,12.2632258 57.4141935,11.6129032 56.6129032,11.6129032 L33.3870968,11.6129032 C32.5858065,11.6129032 31.9354839,12.2632258 31.9354839,13.0645161 L31.9354839,53.7096774 C31.9354839,54.5124194 32.5858065,55.1612903 33.3870968,55.1612903 Z M34.8387097,14.516129 L55.1612903,14.516129 L55.1612903,52.2580645 L34.8387097,52.2580645 L34.8387097,14.516129 Z" id="Shape"></path>
                <path d="M33.3870968,84.1935484 L56.6129032,84.1935484 C57.4141935,84.1935484 58.0645161,83.5446774 58.0645161,82.7419355 L58.0645161,59.516129 C58.0645161,58.7133871 57.4141935,58.0645161 56.6129032,58.0645161 L33.3870968,58.0645161 C32.5858065,58.0645161 31.9354839,58.7133871 31.9354839,59.516129 L31.9354839,82.7419355 C31.9354839,83.5446774 32.5858065,84.1935484 33.3870968,84.1935484 Z M34.8387097,60.9677419 L55.1612903,60.9677419 L55.1612903,81.2903226 L34.8387097,81.2903226 L34.8387097,60.9677419 Z" id="Shape"></path>
                <path d="M52.2580645,15.9677419 L37.7419355,15.9677419 C36.9406452,15.9677419 36.2903226,16.6180645 36.2903226,17.4193548 L36.2903226,49.3548387 C36.2903226,50.1575806 36.9406452,50.8064516 37.7419355,50.8064516 L52.2580645,50.8064516 C53.0593548,50.8064516 53.7096774,50.1575806 53.7096774,49.3548387 L53.7096774,17.4193548 C53.7096774,16.6180645 53.0593548,15.9677419 52.2580645,15.9677419 Z M50.8064516,47.9032258 L39.1935484,47.9032258 L39.1935484,18.8709677 L50.8064516,18.8709677 L50.8064516,47.9032258 Z" id="Shape"></path>
                <path d="M52.2580645,62.4193548 L37.7419355,62.4193548 C36.9406452,62.4193548 36.2903226,63.0682258 36.2903226,63.8709677 L36.2903226,78.3870968 C36.2903226,79.1898387 36.9406452,79.8387097 37.7419355,79.8387097 L52.2580645,79.8387097 C53.0593548,79.8387097 53.7096774,79.1898387 53.7096774,78.3870968 L53.7096774,63.8709677 C53.7096774,63.0682258 53.0593548,62.4193548 52.2580645,62.4193548 Z M50.8064516,76.9354839 L39.1935484,76.9354839 L39.1935484,65.3225806 L50.8064516,65.3225806 L50.8064516,76.9354839 Z" id="Shape"></path>
            </g>
        </g>
    </g>
</svg>