<?xml version="1.0" encoding="UTF-8"?>
<svg width="90px" height="90px" viewBox="0 0 90 90" version="1.1" xmlns="http://www.w3.org/2000/svg" xmlns:xlink="http://www.w3.org/1999/xlink">
    <!-- Generator: Sketch 60.1 (88133) - https://sketch.com -->
    <title>ic_planificacion</title>
    <desc>Created with Sketch.</desc>
    <g id="Page-1" stroke="none" stroke-width="1" fill="none" fill-rule="evenodd">
        <g id="04_Aereo" transform="translate(-685.000000, -1777.000000)" fill="#B2B2B2">
            <g id="ic_planificacion" transform="translate(685.000000, 1777.000000)">
                <path d="M88.5483871,75.483871 L71.1290323,75.483871 L71.1290323,1.4516129 C71.1290323,0.648870968 70.4801613,0 69.6774194,0 L1.4516129,0 C0.648870968,0 0,0.648870968 0,1.4516129 L0,76.9354839 C0,84.1398387 5.86016129,90 13.0645161,90 L76.9354839,90 C84.1398387,90 90,84.1398387 90,76.9354839 C90,76.1327419 89.351129,75.483871 88.5483871,75.483871 Z M13.0645161,87.0967742 C7.46274194,87.0967742 2.90322581,82.5372581 2.90322581,76.9354839 L2.90322581,2.90322581 L68.2258065,2.90322581 L68.2258065,75.483871 L59.516129,75.483871 L59.516129,60.9358065 C63.0275806,59.2693548 65.3225806,55.7041935 65.3225806,51.7630645 C65.3225806,47.4633871 62.6008065,43.6122581 58.5479032,42.1795161 C58.1037097,42.0241935 57.6101613,42.0909677 57.2269355,42.363871 C56.8408065,42.6353226 56.6129032,43.0780645 56.6129032,43.5483871 L56.6129032,49.0122581 L55.7158065,50.8064516 L54.6067742,50.8064516 L53.7096774,49.0122581 L53.7096774,43.5483871 C53.7096774,43.0780645 53.4817742,42.6353226 53.0956452,42.363871 C52.7109677,42.0909677 52.2174194,42.0241935 51.7746774,42.1795161 C47.7217742,43.6108065 45,47.4619355 45,51.7616129 C45,55.7027419 47.295,59.2679032 50.8064516,60.9343548 L50.8064516,75.483871 L24.6774194,75.483871 C23.8746774,75.483871 23.2258065,76.1327419 23.2258065,76.9354839 C23.2258065,82.5372581 18.6662903,87.0967742 13.0645161,87.0967742 Z M52.7429032,58.5972581 C49.8483871,57.5724194 47.9032258,54.8259677 47.9032258,51.7616129 C47.9032258,49.4390323 49.0151613,47.3022581 50.8064516,45.9537097 L50.8064516,49.3548387 C50.8064516,49.5798387 50.8587097,49.8033871 50.958871,50.0037097 L52.4104839,52.9069355 C52.6572581,53.3990323 53.1595161,53.7096774 53.7096774,53.7096774 L56.6129032,53.7096774 C57.1630645,53.7096774 57.6653226,53.3990323 57.9120968,52.9069355 L59.3637097,50.0037097 C59.463871,49.8033871 59.516129,49.5798387 59.516129,49.3548387 L59.516129,45.9537097 C61.3074194,47.3022581 62.4193548,49.4390323 62.4193548,51.7616129 C62.4193548,54.8245161 60.4741935,57.5724194 57.5796774,58.5972581 C57.0004839,58.8019355 56.6129032,59.3506452 56.6129032,59.966129 L56.6129032,75.483871 L53.7096774,75.483871 L53.7096774,59.966129 C53.7096774,59.3506452 53.3220968,58.8019355 52.7429032,58.5972581 L52.7429032,58.5972581 Z M76.9354839,87.0967742 L21.2675806,87.0967742 C23.876129,84.986129 25.6587097,81.8941935 26.0477419,78.3870968 L86.9922581,78.3870968 C86.2867742,83.3051613 82.0466129,87.0967742 76.9354839,87.0967742 Z" id="Shape"></path>
                <path d="M7.81258065,24.6774194 L8.39467742,25.8430645 L6.23177419,28.0059677 C5.66419355,28.5735484 5.66419355,29.4909677 6.23177419,30.0585484 L10.5866129,34.4133871 C11.1541935,34.9809677 12.0716129,34.9809677 12.6391935,34.4133871 L14.8020968,32.2504839 L15.9677419,32.8325806 L15.9677419,34.8387097 C15.9677419,35.6414516 16.6166129,36.2903226 17.4193548,36.2903226 L23.2258065,36.2903226 C24.0285484,36.2903226 24.6774194,35.6414516 24.6774194,34.8387097 L24.6774194,32.8325806 L25.8430645,32.2504839 L28.0059677,34.4133871 C28.5735484,34.9809677 29.4909677,34.9809677 30.0585484,34.4133871 L34.4133871,30.0585484 C34.9809677,29.4909677 34.9809677,28.5735484 34.4133871,28.0059677 L32.2504839,25.8430645 L32.8325806,24.6774194 L34.8387097,24.6774194 C35.6414516,24.6774194 36.2903226,24.0285484 36.2903226,23.2258065 L36.2903226,17.4193548 C36.2903226,16.6166129 35.6414516,15.9677419 34.8387097,15.9677419 L32.8325806,15.9677419 L32.2504839,14.8020968 L34.4133871,12.6391935 C34.9809677,12.0716129 34.9809677,11.1541935 34.4133871,10.5866129 L30.0585484,6.23177419 C29.4909677,5.66419355 28.5735484,5.66419355 28.0059677,6.23177419 L25.8430645,8.39467742 L24.6774194,7.81258065 L24.6774194,5.80645161 C24.6774194,5.00370968 24.0285484,4.35483871 23.2258065,4.35483871 L17.4193548,4.35483871 C16.6166129,4.35483871 15.9677419,5.00370968 15.9677419,5.80645161 L15.9677419,7.81258065 L14.8020968,8.39467742 L12.6391935,6.23177419 C12.0716129,5.66419355 11.1541935,5.66419355 10.5866129,6.23177419 L6.23177419,10.5866129 C5.66419355,11.1541935 5.66419355,12.0716129 6.23177419,12.6391935 L8.39467742,14.8020968 L7.81258065,15.9677419 L5.80645161,15.9677419 C5.00370968,15.9677419 4.35483871,16.6166129 4.35483871,17.4193548 L4.35483871,23.2258065 C4.35483871,24.0285484 5.00370968,24.6774194 5.80645161,24.6774194 L7.81258065,24.6774194 Z M7.25806452,18.8709677 L8.70967742,18.8709677 C9.25983871,18.8709677 9.76209677,18.5603226 10.008871,18.0682258 L11.4604839,15.165 C11.7391935,14.606129 11.6303226,13.931129 11.1875806,13.4898387 L9.31064516,11.6129032 L11.6129032,9.31064516 L13.4898387,11.1875806 C13.9340323,11.6332258 14.6075806,11.7391935 15.165,11.4604839 L18.0682258,10.008871 C18.5603226,9.76209677 18.8709677,9.25983871 18.8709677,8.70967742 L18.8709677,7.25806452 L21.7741935,7.25806452 L21.7741935,8.70967742 C21.7741935,9.25983871 22.0848387,9.76209677 22.5769355,10.008871 L25.4801613,11.4604839 C26.0375806,11.7377419 26.7125806,11.6317742 27.1553226,11.1875806 L29.0322581,9.31064516 L31.3345161,11.6129032 L29.4575806,13.4898387 C29.0148387,13.9325806 28.9059677,14.6075806 29.1846774,15.165 L30.6362903,18.0682258 C30.8830645,18.5603226 31.3853226,18.8709677 31.9354839,18.8709677 L33.3870968,18.8709677 L33.3870968,21.7741935 L31.9354839,21.7741935 C31.3853226,21.7741935 30.8830645,22.0848387 30.6362903,22.5769355 L29.1846774,25.4801613 C28.9059677,26.0390323 29.0148387,26.7140323 29.4575806,27.1553226 L31.3345161,29.0322581 L29.0322581,31.3345161 L27.1553226,29.4575806 C26.711129,29.0133871 26.0375806,28.9074194 25.4801613,29.1846774 L22.5769355,30.6362903 C22.0848387,30.8830645 21.7741935,31.3853226 21.7741935,31.9354839 L21.7741935,33.3870968 L18.8709677,33.3870968 L18.8709677,31.9354839 C18.8709677,31.3853226 18.5603226,30.8830645 18.0682258,30.6362903 L15.165,29.1846774 C14.6046774,28.9059677 13.931129,29.0119355 13.4898387,29.4575806 L11.6129032,31.3345161 L9.31064516,29.0322581 L11.1875806,27.1553226 C11.6303226,26.7125806 11.7391935,26.0375806 11.4604839,25.4801613 L10.008871,22.5769355 C9.76209677,22.0848387 9.25983871,21.7741935 8.70967742,21.7741935 L7.25806452,21.7741935 L7.25806452,18.8709677 Z" id="Shape"></path>
                <path d="M20.3225806,27.5806452 C24.3246774,27.5806452 27.5806452,24.3246774 27.5806452,20.3225806 C27.5806452,16.3204839 24.3246774,13.0645161 20.3225806,13.0645161 C16.3204839,13.0645161 13.0645161,16.3204839 13.0645161,20.3225806 C13.0645161,24.3246774 16.3204839,27.5806452 20.3225806,27.5806452 Z M20.3225806,15.9677419 C22.7235484,15.9677419 24.6774194,17.9216129 24.6774194,20.3225806 C24.6774194,22.7235484 22.7235484,24.6774194 20.3225806,24.6774194 C17.9216129,24.6774194 15.9677419,22.7235484 15.9677419,20.3225806 C15.9677419,17.9216129 17.9216129,15.9677419 20.3225806,15.9677419 Z" id="Shape"></path>
                <polygon id="Path" points="39.1935484 10.1612903 65.3225806 10.1612903 65.3225806 13.0645161 39.1935484 13.0645161"></polygon>
                <polygon id="Path" points="39.1935484 27.5806452 65.3225806 27.5806452 65.3225806 30.483871 39.1935484 30.483871"></polygon>
                <polygon id="Path" points="39.1935484 15.9677419 59.516129 15.9677419 59.516129 18.8709677 39.1935484 18.8709677"></polygon>
                <polygon id="Path" points="62.4193548 15.9677419 65.3225806 15.9677419 65.3225806 18.8709677 62.4193548 18.8709677"></polygon>
                <polygon id="Path" points="39.1935484 33.3870968 59.516129 33.3870968 59.516129 36.2903226 39.1935484 36.2903226"></polygon>
                <polygon id="Path" points="62.4193548 33.3870968 65.3225806 33.3870968 65.3225806 36.2903226 62.4193548 36.2903226"></polygon>
                <polygon id="Path" points="45 21.7741935 65.3225806 21.7741935 65.3225806 24.6774194 45 24.6774194"></polygon>
                <polygon id="Path" points="39.1935484 21.7741935 42.0967742 21.7741935 42.0967742 24.6774194 39.1935484 24.6774194"></polygon>
                <path d="M40.6451613,71.1290323 L40.6451613,45 C40.6451613,44.1972581 39.9962903,43.5483871 39.1935484,43.5483871 L7.25806452,43.5483871 C6.45532258,43.5483871 5.80645161,44.1972581 5.80645161,45 L5.80645161,71.1290323 C5.80645161,71.9317742 6.45532258,72.5806452 7.25806452,72.5806452 L39.1935484,72.5806452 C39.9962903,72.5806452 40.6451613,71.9317742 40.6451613,71.1290323 Z M29.0322581,69.6774194 L29.0322581,66.7741935 L26.1290323,66.7741935 L26.1290323,69.6774194 L8.70967742,69.6774194 L8.70967742,60.9677419 L11.6129032,60.9677419 L11.6129032,58.0645161 L8.70967742,58.0645161 L8.70967742,46.4516129 L14.516129,46.4516129 L14.516129,49.3548387 L17.4193548,49.3548387 L17.4193548,46.4516129 L37.7419355,46.4516129 L37.7419355,49.3548387 L20.3225806,49.3548387 L20.3225806,52.2580645 L31.9354839,52.2580645 L31.9354839,55.1612903 L34.8387097,55.1612903 L34.8387097,52.2580645 L37.7419355,52.2580645 L37.7419355,58.0645161 L20.3225806,58.0645161 L20.3225806,60.9677419 L26.1290323,60.9677419 L26.1290323,63.8709677 L29.0322581,63.8709677 L29.0322581,60.9677419 L37.7419355,60.9677419 L37.7419355,69.6774194 L29.0322581,69.6774194 Z" id="Shape"></path>
                <polygon id="Path" points="14.516129 52.2580645 17.4193548 52.2580645 17.4193548 55.1612903 14.516129 55.1612903"></polygon>
                <polygon id="Path" points="14.516129 58.0645161 17.4193548 58.0645161 17.4193548 60.9677419 14.516129 60.9677419"></polygon>
            </g>
        </g>
    </g>
</svg>