<?xml version="1.0" encoding="UTF-8"?>
<svg width="95px" height="95px" viewBox="0 0 95 95" version="1.1" xmlns="http://www.w3.org/2000/svg" xmlns:xlink="http://www.w3.org/1999/xlink">
    <!-- Generator: Sketch 60.1 (88133) - https://sketch.com -->
    <title>ic_rapidez</title>
    <desc>Created with Sketch.</desc>
    <g id="Page-1" stroke="none" stroke-width="1" fill="none" fill-rule="evenodd">
        <g id="04_Aereo" transform="translate(-304.000000, -1777.000000)" fill="#B2B2B2">
            <g id="ic_rapidez" transform="translate(304.000000, 1777.000000)">
                <path d="M47.5,18.3870968 C28.066371,18.3870968 12.2580645,34.1954032 12.2580645,53.6290323 C12.2580645,73.0626613 28.066371,88.8709677 47.5,88.8709677 C66.933629,88.8709677 82.7419355,73.0626613 82.7419355,53.6290323 C82.7419355,34.1954032 66.933629,18.3870968 47.5,18.3870968 Z M71.2745161,75.2354032 L65.9192742,69.8801613 L63.7526613,72.0467742 L69.1079032,77.4020161 C63.745,82.2807258 56.7471774,85.3620968 49.0337903,85.7283065 L49.0337903,78.1451613 L45.9692742,78.1451613 L45.9692742,85.7283065 C38.2543548,85.3620968 31.2565323,82.2807258 25.8951613,77.4020161 L31.2504032,72.0467742 L29.0837903,69.8801613 L23.7285484,75.2354032 C18.8498387,69.8725 15.7684677,62.8746774 15.4022581,55.1612903 L22.983871,55.1612903 L22.983871,52.0967742 L15.4007258,52.0967742 C15.7669355,44.3818548 18.8483065,37.3840323 23.7270161,32.0226613 L29.0822581,37.3779032 L31.248871,35.2112903 L25.893629,29.8560484 C31.2565323,24.9773387 38.2543548,21.8959677 45.9677419,21.5297581 L45.9677419,29.1129032 L49.0322581,29.1129032 L49.0322581,21.5297581 C56.7471774,21.8959677 63.745,24.9773387 69.106371,29.8560484 L63.751129,35.2112903 L65.9177419,37.3779032 L71.2729839,32.0226613 C76.1516935,37.3855645 79.2330645,44.3833871 79.5992742,52.0967742 L72.016129,52.0967742 L72.016129,55.1612903 L79.5992742,55.1612903 C79.2345968,62.8762097 76.1516935,69.8740323 71.2745161,75.2354032 Z" id="Shape"></path>
                <path d="M50.9000806,48.5342742 L58.1078226,31.2350806 L55.2792742,30.0552419 L47.9903226,47.5490323 C47.826371,47.5367742 47.6685484,47.5 47.5,47.5 C44.1198387,47.5 41.3709677,50.248871 41.3709677,53.6290323 C41.3709677,57.0091935 44.1198387,59.7580645 47.5,59.7580645 C50.3484677,59.7580645 52.7265323,57.7983065 53.4114516,55.1612903 L62.8225806,55.1612903 L62.8225806,52.0967742 L53.4114516,52.0967742 C53.0283871,50.6242742 52.1304839,49.358629 50.9000806,48.5342742 L50.9000806,48.5342742 Z M47.5,56.6935484 C45.8099194,56.6935484 44.4354839,55.3191129 44.4354839,53.6290323 C44.4354839,51.9389516 45.8099194,50.5645161 47.5,50.5645161 C49.1900806,50.5645161 50.5645161,51.9389516 50.5645161,53.6290323 C50.5645161,55.3191129 49.1900806,56.6935484 47.5,56.6935484 Z" id="Shape"></path>
                <path d="M88.8709677,47.5 L88.4143548,47.5 C85.7420968,29.5848387 71.5441935,15.3869355 53.6290323,12.7146774 L53.6290323,6.12903226 C53.6290323,2.74887097 50.8801613,0 47.5,0 C44.1198387,0 41.3709677,2.74887097 41.3709677,6.12903226 L41.3709677,12.7146774 C21.4562097,15.6857258 6.12903226,32.8991129 6.12903226,53.6290323 C6.12903226,76.4412903 24.6877419,95 47.5,95 C68.2299194,95 85.4433065,79.6728226 88.4143548,59.7580645 L88.8709677,59.7580645 C92.251129,59.7580645 95,57.0091935 95,53.6290323 C95,50.248871 92.251129,47.5 88.8709677,47.5 Z M44.4354839,6.12903226 C44.4354839,4.43895161 45.8099194,3.06451613 47.5,3.06451613 C49.1900806,3.06451613 50.5645161,4.43895161 50.5645161,6.12903226 L50.5645161,12.3837097 C49.5516935,12.308629 48.5312097,12.2580645 47.5,12.2580645 C46.4687903,12.2580645 45.4483065,12.308629 44.4354839,12.3837097 L44.4354839,6.12903226 Z M47.5,91.9354839 C26.3778226,91.9354839 9.19354839,74.7512097 9.19354839,53.6290323 C9.19354839,32.5068548 26.3778226,15.3225806 47.5,15.3225806 C68.6221774,15.3225806 85.8064516,32.5068548 85.8064516,53.6290323 C85.8064516,74.7512097 68.6221774,91.9354839 47.5,91.9354839 Z M88.8709677,56.6935484 L88.7453226,56.6935484 C88.8204032,55.6807258 88.8709677,54.6602419 88.8709677,53.6290323 C88.8709677,52.5978226 88.8204032,51.5773387 88.7453226,50.5645161 L88.8709677,50.5645161 C90.5610484,50.5645161 91.9354839,51.9389516 91.9354839,53.6290323 C91.9354839,55.3191129 90.5610484,56.6935484 88.8709677,56.6935484 Z" id="Shape"></path>
                <path d="M18.3870968,3.06451613 L18.3870968,0 C8.24814516,0 0,8.24814516 0,18.3870968 L3.06451613,18.3870968 C3.06451613,9.93822581 9.93822581,3.06451613 18.3870968,3.06451613 Z" id="Path"></path>
                <path d="M18.3870968,6.12903226 C11.6283065,6.12903226 6.12903226,11.6283065 6.12903226,18.3870968 L9.19354839,18.3870968 C9.19354839,13.3168548 13.3168548,9.19354839 18.3870968,9.19354839 L18.3870968,6.12903226 Z" id="Path"></path>
                <path d="M15.3225806,18.3870968 C15.3225806,16.6970161 16.6970161,15.3225806 18.3870968,15.3225806 L18.3870968,12.2580645 C15.0069355,12.2580645 12.2580645,15.0069355 12.2580645,18.3870968 L15.3225806,18.3870968 Z" id="Path"></path>
                <path d="M91.9354839,18.3870968 L95,18.3870968 C95,8.24814516 86.7518548,0 76.6129032,0 L76.6129032,3.06451613 C85.0617742,3.06451613 91.9354839,9.93822581 91.9354839,18.3870968 Z" id="Path"></path>
                <path d="M85.8064516,18.3870968 L88.8709677,18.3870968 C88.8709677,11.6283065 83.3716935,6.12903226 76.6129032,6.12903226 L76.6129032,9.19354839 C81.6831452,9.19354839 85.8064516,13.3168548 85.8064516,18.3870968 Z" id="Path"></path>
                <path d="M79.6774194,18.3870968 L82.7419355,18.3870968 C82.7419355,15.0069355 79.9930645,12.2580645 76.6129032,12.2580645 L76.6129032,15.3225806 C78.3029839,15.3225806 79.6774194,16.6970161 79.6774194,18.3870968 Z" id="Path"></path>
            </g>
        </g>
    </g>
</svg>