<?xml version="1.0" encoding="UTF-8"?>
<svg width="95px" height="95px" viewBox="0 0 95 95" version="1.1" xmlns="http://www.w3.org/2000/svg" xmlns:xlink="http://www.w3.org/1999/xlink">
    <!-- Generator: Sketch 60.1 (88133) - https://sketch.com -->
    <title>ic_reduccion</title>
    <desc>Created with Sketch.</desc>
    <g id="Page-1" stroke="none" stroke-width="1" fill="none" fill-rule="evenodd">
        <g id="05_Tren" transform="translate(-298.000000, -1441.000000)" fill="#B2B2B2">
            <g id="ic_reduccion" transform="translate(298.000000, 1441.000000)">
                <path d="M42.9032258,38.3064516 L6.12903226,38.3064516 C5.28169355,38.3064516 4.59677419,38.9929032 4.59677419,39.8387097 L4.59677419,52.0967742 C4.59677419,52.9441129 5.28169355,53.6290323 6.12903226,53.6290323 L42.9032258,53.6290323 C43.7505645,53.6290323 44.4354839,52.9441129 44.4354839,52.0967742 L44.4354839,39.8387097 C44.4354839,38.9929032 43.7505645,38.3064516 42.9032258,38.3064516 Z M41.3709677,50.5645161 L7.66129032,50.5645161 L7.66129032,41.3709677 L41.3709677,41.3709677 L41.3709677,50.5645161 Z" id="Shape"></path>
                <path d="M15.3225806,55.1612903 L6.12903226,55.1612903 C5.28169355,55.1612903 4.59677419,55.8462097 4.59677419,56.6935484 L4.59677419,62.8225806 C4.59677419,63.6699194 5.28169355,64.3548387 6.12903226,64.3548387 L15.3225806,64.3548387 C16.1699194,64.3548387 16.8548387,63.6699194 16.8548387,62.8225806 L16.8548387,56.6935484 C16.8548387,55.8462097 16.1699194,55.1612903 15.3225806,55.1612903 Z M13.7903226,61.2903226 L7.66129032,61.2903226 L7.66129032,58.2258065 L13.7903226,58.2258065 L13.7903226,61.2903226 Z" id="Shape"></path>
                <path d="M29.1129032,55.1612903 L19.9193548,55.1612903 C19.0720161,55.1612903 18.3870968,55.8462097 18.3870968,56.6935484 L18.3870968,62.8225806 C18.3870968,63.6699194 19.0720161,64.3548387 19.9193548,64.3548387 L29.1129032,64.3548387 C29.9602419,64.3548387 30.6451613,63.6699194 30.6451613,62.8225806 L30.6451613,56.6935484 C30.6451613,55.8462097 29.9602419,55.1612903 29.1129032,55.1612903 Z M27.5806452,61.2903226 L21.4516129,61.2903226 L21.4516129,58.2258065 L27.5806452,58.2258065 L27.5806452,61.2903226 Z" id="Shape"></path>
                <path d="M42.9032258,55.1612903 L33.7096774,55.1612903 C32.8623387,55.1612903 32.1774194,55.8462097 32.1774194,56.6935484 L32.1774194,62.8225806 C32.1774194,63.6699194 32.8623387,64.3548387 33.7096774,64.3548387 L42.9032258,64.3548387 C43.7505645,64.3548387 44.4354839,63.6699194 44.4354839,62.8225806 L44.4354839,56.6935484 C44.4354839,55.8462097 43.7505645,55.1612903 42.9032258,55.1612903 Z M41.3709677,61.2903226 L35.2419355,61.2903226 L35.2419355,58.2258065 L41.3709677,58.2258065 L41.3709677,61.2903226 Z" id="Shape"></path>
                <path d="M15.3225806,67.4193548 L6.12903226,67.4193548 C5.28169355,67.4193548 4.59677419,68.1042742 4.59677419,68.9516129 L4.59677419,75.0806452 C4.59677419,75.9279839 5.28169355,76.6129032 6.12903226,76.6129032 L15.3225806,76.6129032 C16.1699194,76.6129032 16.8548387,75.9279839 16.8548387,75.0806452 L16.8548387,68.9516129 C16.8548387,68.1042742 16.1699194,67.4193548 15.3225806,67.4193548 Z M13.7903226,73.5483871 L7.66129032,73.5483871 L7.66129032,70.483871 L13.7903226,70.483871 L13.7903226,73.5483871 Z" id="Shape"></path>
                <path d="M29.1129032,67.4193548 L19.9193548,67.4193548 C19.0720161,67.4193548 18.3870968,68.1042742 18.3870968,68.9516129 L18.3870968,75.0806452 C18.3870968,75.9279839 19.0720161,76.6129032 19.9193548,76.6129032 L29.1129032,76.6129032 C29.9602419,76.6129032 30.6451613,75.9279839 30.6451613,75.0806452 L30.6451613,68.9516129 C30.6451613,68.1042742 29.9602419,67.4193548 29.1129032,67.4193548 Z M27.5806452,73.5483871 L21.4516129,73.5483871 L21.4516129,70.483871 L27.5806452,70.483871 L27.5806452,73.5483871 Z" id="Shape"></path>
                <path d="M42.9032258,67.4193548 L33.7096774,67.4193548 C32.8623387,67.4193548 32.1774194,68.1042742 32.1774194,68.9516129 L32.1774194,75.0806452 C32.1774194,75.9279839 32.8623387,76.6129032 33.7096774,76.6129032 L42.9032258,76.6129032 C43.7505645,76.6129032 44.4354839,75.9279839 44.4354839,75.0806452 L44.4354839,68.9516129 C44.4354839,68.1042742 43.7505645,67.4193548 42.9032258,67.4193548 Z M41.3709677,73.5483871 L35.2419355,73.5483871 L35.2419355,70.483871 L41.3709677,70.483871 L41.3709677,73.5483871 Z" id="Shape"></path>
                <path d="M15.3225806,79.6774194 L6.12903226,79.6774194 C5.28169355,79.6774194 4.59677419,80.3623387 4.59677419,81.2096774 L4.59677419,87.3387097 C4.59677419,88.1860484 5.28169355,88.8709677 6.12903226,88.8709677 L15.3225806,88.8709677 C16.1699194,88.8709677 16.8548387,88.1860484 16.8548387,87.3387097 L16.8548387,81.2096774 C16.8548387,80.3623387 16.1699194,79.6774194 15.3225806,79.6774194 Z M13.7903226,85.8064516 L7.66129032,85.8064516 L7.66129032,82.7419355 L13.7903226,82.7419355 L13.7903226,85.8064516 Z" id="Shape"></path>
                <path d="M29.1129032,79.6774194 L19.9193548,79.6774194 C19.0720161,79.6774194 18.3870968,80.3623387 18.3870968,81.2096774 L18.3870968,87.3387097 C18.3870968,88.1860484 19.0720161,88.8709677 19.9193548,88.8709677 L29.1129032,88.8709677 C29.9602419,88.8709677 30.6451613,88.1860484 30.6451613,87.3387097 L30.6451613,81.2096774 C30.6451613,80.3623387 29.9602419,79.6774194 29.1129032,79.6774194 Z M27.5806452,85.8064516 L21.4516129,85.8064516 L21.4516129,82.7419355 L27.5806452,82.7419355 L27.5806452,85.8064516 Z" id="Shape"></path>
                <path d="M42.9032258,79.6774194 L33.7096774,79.6774194 C32.8623387,79.6774194 32.1774194,80.3623387 32.1774194,81.2096774 L32.1774194,87.3387097 C32.1774194,88.1860484 32.8623387,88.8709677 33.7096774,88.8709677 L42.9032258,88.8709677 C43.7505645,88.8709677 44.4354839,88.1860484 44.4354839,87.3387097 L44.4354839,81.2096774 C44.4354839,80.3623387 43.7505645,79.6774194 42.9032258,79.6774194 Z M41.3709677,85.8064516 L35.2419355,85.8064516 L35.2419355,82.7419355 L41.3709677,82.7419355 L41.3709677,85.8064516 Z" id="Shape"></path>
                <polygon id="Path" points="85.8064516 70.483871 88.8709677 70.483871 88.8709677 73.5483871 85.8064516 73.5483871"></polygon>
                <polygon id="Path" points="52.0967742 70.483871 82.7419355 70.483871 82.7419355 73.5483871 52.0967742 73.5483871"></polygon>
                <polygon id="Path" points="52.0967742 64.3548387 55.1612903 64.3548387 55.1612903 67.4193548 52.0967742 67.4193548"></polygon>
                <polygon id="Path" points="58.2258065 64.3548387 88.8709677 64.3548387 88.8709677 67.4193548 58.2258065 67.4193548"></polygon>
                <polygon id="Path" points="79.6774194 39.8387097 79.6774194 58.2258065 76.6129032 58.2258065 76.6129032 42.9032258 73.5483871 42.9032258 73.5483871 58.2258065 70.483871 58.2258065 70.483871 45.9677419 67.4193548 45.9677419 67.4193548 58.2258065 64.3548387 58.2258065 64.3548387 49.0322581 61.2903226 49.0322581 61.2903226 58.2258065 58.2258065 58.2258065 58.2258065 52.0967742 55.1612903 52.0967742 55.1612903 58.2258065 52.0967742 58.2258065 52.0967742 61.2903226 88.8709677 61.2903226 88.8709677 58.2258065 82.7419355 58.2258065 82.7419355 39.8387097"></polygon>
                <path d="M94.5495161,15.77 L79.23,0.450483871 C78.9526613,0.171612903 78.5695968,0 78.1451613,0 L35.2419355,0 C34.3945968,0 33.7096774,0.686451613 33.7096774,1.53225806 L33.7096774,33.7096774 L4.59677419,33.7096774 C2.06241935,33.7096774 0,35.7720968 0,38.3064516 L0,90.4032258 C0,92.9375806 2.06241935,95 4.59677419,95 L44.4354839,95 C46.9698387,95 49.0322581,92.9375806 49.0322581,90.4032258 L49.0322581,79.6774194 L93.4677419,79.6774194 C94.3150806,79.6774194 95,78.9925 95,78.1451613 L95,16.8548387 C95,16.4304032 94.8283871,16.0473387 94.5495161,15.77 Z M79.6774194,5.23112903 L89.768871,15.3225806 L79.6774194,15.3225806 L79.6774194,5.23112903 Z M45.9677419,90.4032258 C45.9677419,91.2490323 45.2812903,91.9354839 44.4354839,91.9354839 L4.59677419,91.9354839 C3.75096774,91.9354839 3.06451613,91.2490323 3.06451613,90.4032258 L3.06451613,38.3064516 C3.06451613,37.4621774 3.75096774,36.7741935 4.59677419,36.7741935 L44.4354839,36.7741935 C45.2812903,36.7741935 45.9677419,37.4621774 45.9677419,38.3064516 L45.9677419,90.4032258 Z M91.9354839,76.6129032 L49.0322581,76.6129032 L49.0322581,38.3064516 C49.0322581,35.7720968 46.9698387,33.7096774 44.4354839,33.7096774 L36.7741935,33.7096774 L36.7741935,3.06451613 L76.6129032,3.06451613 L76.6129032,16.8548387 C76.6129032,17.7006452 77.2978226,18.3870968 78.1451613,18.3870968 L91.9354839,18.3870968 L91.9354839,76.6129032 Z" id="Shape"></path>
                <path d="M71.7648387,27.5591935 L76.9040323,28.4157258 L52.8307258,43.1269355 L54.428871,45.7425 L79.1487903,30.6359677 L78.1681452,36.521371 L81.1912903,37.0254839 L82.7235484,27.8319355 C82.8629839,26.9968548 82.2991129,26.2077419 81.4640323,26.0683065 L72.2704839,24.5360484 L71.7648387,27.5591935 Z" id="Path"></path>
                <polygon id="Path" points="39.8387097 6.12903226 67.4193548 6.12903226 67.4193548 9.19354839 39.8387097 9.19354839"></polygon>
                <polygon id="Path" points="70.483871 6.12903226 73.5483871 6.12903226 73.5483871 9.19354839 70.483871 9.19354839"></polygon>
                <polygon id="Path" points="39.8387097 12.2580645 67.4193548 12.2580645 67.4193548 15.3225806 39.8387097 15.3225806"></polygon>
                <polygon id="Path" points="70.483871 12.2580645 73.5483871 12.2580645 73.5483871 15.3225806 70.483871 15.3225806"></polygon>
            </g>
        </g>
    </g>
</svg>