<?xml version="1.0" encoding="UTF-8"?>
<svg width="90px" height="90px" viewBox="0 0 90 90" version="1.1" xmlns="http://www.w3.org/2000/svg" xmlns:xlink="http://www.w3.org/1999/xlink">
    <!-- Generator: Sketch 60.1 (88133) - https://sketch.com -->
    <title>ic_rutas</title>
    <desc>Created with Sketch.</desc>
    <g id="Page-1" stroke="none" stroke-width="1" fill="none" fill-rule="evenodd">
        <g id="04_Aereo" transform="translate(-684.000000, -1427.000000)" fill="#B2B2B2">
            <g id="ic_rutas" transform="translate(684.000000, 1427.000000)">
                <path d="M87.1591935,10.5866129 L80.2016129,17.5441935 L72.0929032,9.43548387 L79.0504839,2.47790323 L76.9979032,0.425322581 L0.0624193548,77.3608065 L2.115,79.4133871 L9.07258065,72.4558065 L17.1812903,80.5645161 L10.2237097,87.5220968 L12.2762903,89.5746774 L89.2117742,12.6391935 L87.1591935,10.5866129 Z M78.1490323,19.5967742 L75.8467742,21.8990323 L67.7380645,13.7903226 L70.0403226,11.4880645 L78.1490323,19.5967742 Z M19.8348387,61.6935484 L22.1370968,59.3912903 L30.2458065,67.5 L27.9435484,69.8022581 L19.8348387,61.6935484 Z M25.8909677,71.8548387 L23.5887097,74.1570968 L15.48,66.0483871 L17.7822581,63.746129 L25.8909677,71.8548387 Z M24.1896774,57.3387097 L26.4919355,55.0364516 L34.6006452,63.1451613 L32.2983871,65.4474194 L24.1896774,57.3387097 Z M28.5445161,52.983871 L30.8467742,50.6816129 L38.9554839,58.7903226 L36.6532258,61.0925806 L28.5445161,52.983871 Z M32.8993548,48.6290323 L35.2016129,46.3267742 L43.3103226,54.4354839 L41.0080645,56.7377419 L32.8993548,48.6290323 Z M37.2541935,44.2741935 L39.5564516,41.9719355 L47.6651613,50.0806452 L45.3629032,52.3829032 L37.2541935,44.2741935 Z M41.6090323,39.9193548 L43.9112903,37.6170968 L52.02,45.7258065 L49.7177419,48.0280645 L41.6090323,39.9193548 Z M45.963871,35.5645161 L48.266129,33.2622581 L56.3748387,41.3709677 L54.0725806,43.6732258 L45.963871,35.5645161 Z M50.3187097,31.2096774 L52.6209677,28.9074194 L60.7296774,37.016129 L58.4274194,39.3183871 L50.3187097,31.2096774 Z M54.6735484,26.8548387 L56.9758065,24.5525806 L65.0845161,32.6612903 L62.7822581,34.9635484 L54.6735484,26.8548387 Z M59.0283871,22.5 L61.3306452,20.1977419 L69.4393548,28.3064516 L67.1370968,30.6087097 L59.0283871,22.5 Z M63.3832258,18.1451613 L65.6854839,15.8429032 L73.7941935,23.9516129 L71.4919355,26.253871 L63.3832258,18.1451613 Z M11.1251613,70.4032258 L13.4274194,68.1009677 L21.536129,76.2096774 L19.233871,78.5119355 L11.1251613,70.4032258 Z" id="Shape"></path>
                <path d="M87.1591935,17.8446774 L17.4817742,87.5220968 L19.5343548,89.5746774 L24.3145161,84.7945161 L24.3145161,88.5483871 C24.3145161,89.351129 24.9648387,90 25.766129,90 L31.5725806,90 C32.373871,90 33.0241935,89.351129 33.0241935,88.5483871 L33.0241935,76.0848387 L43.7864516,65.3225806 L46.0887097,65.3225806 L46.0887097,63.0203226 L56.25,52.8590323 L56.25,88.5483871 C56.25,89.351129 56.9003226,90 57.7016129,90 L63.5080645,90 C64.3093548,90 64.9596774,89.351129 64.9596774,88.5483871 L64.9596774,44.1493548 L89.2117742,19.8972581 L87.1591935,17.8446774 Z M30.1209677,87.0967742 L27.2177419,87.0967742 L27.2177419,81.8912903 L30.1209677,78.9880645 L30.1209677,87.0967742 Z M62.0564516,87.0967742 L59.1532258,87.0967742 L59.1532258,49.9558065 L62.0564516,47.0525806 L62.0564516,87.0967742 Z" id="Shape"></path>
                <path d="M2.115,72.1553226 L71.7924194,2.47790323 L69.7398387,0.425322581 L64.9596774,5.20548387 L64.9596774,1.4516129 C64.9596774,0.650322581 64.3093548,0 63.5080645,0 L57.7016129,0 C56.9003226,0 56.25,0.650322581 56.25,1.4516129 L56.25,13.9151613 L45.4877419,24.6774194 L43.1854839,24.6774194 L43.1854839,26.9796774 L33.0241935,37.1409677 L33.0241935,1.4516129 C33.0241935,0.650322581 32.373871,0 31.5725806,0 L25.766129,0 C24.9648387,0 24.3145161,0.650322581 24.3145161,1.4516129 L24.3145161,45.8506452 L0.0624193548,70.1027419 L2.115,72.1553226 Z M59.1532258,2.90322581 L62.0564516,2.90322581 L62.0564516,8.10870968 L59.1532258,11.0119355 L59.1532258,2.90322581 Z M27.2177419,2.90322581 L30.1209677,2.90322581 L30.1209677,40.0441935 L27.2177419,42.9474194 L27.2177419,2.90322581 Z" id="Shape"></path>
                <polygon id="Path" points="43.1854839 1.4516129 46.0887097 1.4516129 46.0887097 7.25806452 43.1854839 7.25806452"></polygon>
                <polygon id="Path" points="43.1854839 13.0645161 46.0887097 13.0645161 46.0887097 18.8709677 43.1854839 18.8709677"></polygon>
                <polygon id="Path" points="43.1854839 71.1290323 46.0887097 71.1290323 46.0887097 76.9354839 43.1854839 76.9354839"></polygon>
                <polygon id="Path" points="43.1854839 82.7419355 46.0887097 82.7419355 46.0887097 88.5483871 43.1854839 88.5483871"></polygon>
            </g>
        </g>
    </g>
</svg>