<?xml version="1.0" encoding="UTF-8"?>
<svg width="90px" height="90px" viewBox="0 0 90 90" version="1.1" xmlns="http://www.w3.org/2000/svg" xmlns:xlink="http://www.w3.org/1999/xlink">
    <!-- Generator: Sketch 60.1 (88133) - https://sketch.com -->
    <title>ic_retail</title>
    <desc>Created with Sketch.</desc>
    <g id="Page-1" stroke="none" stroke-width="1" fill="none" fill-rule="evenodd">
        <g id="08_Logística" transform="translate(-675.000000, -403.000000)" fill="#B2B2B2" fill-rule="nonzero">
            <g id="Group-42" transform="translate(109.000000, 400.000000)">
                <g id="Group-35" transform="translate(563.000000, 3.000000)">
                    <g id="ic_retail" transform="translate(3.000000, 0.000000)">
                        <path d="M88.5483871,81.2903226 L87.0967742,81.2903226 L87.0967742,1.4516129 C87.0967742,0.650322581 86.4464516,0 85.6451613,0 L27.5806452,0 C26.7793548,0 26.1290323,0.650322581 26.1290323,1.4516129 L26.1290323,20.3225806 L4.35483871,20.3225806 C3.55354839,20.3225806 2.90322581,20.9729032 2.90322581,21.7741935 L2.90322581,81.2903226 L1.4516129,81.2903226 C0.650322581,81.2903226 0,81.9406452 0,82.7419355 L0,88.5483871 C0,89.3496774 0.650322581,90 1.4516129,90 L88.5483871,90 C89.3496774,90 90,89.3496774 90,88.5483871 L90,82.7419355 C90,81.9406452 89.3496774,81.2903226 88.5483871,81.2903226 Z M72.5806452,81.2903226 L72.5806452,68.2258065 C72.5806452,67.4245161 71.9303226,66.7741935 71.1290323,66.7741935 L63.8709677,66.7741935 L63.8709677,63.8709677 L84.1935484,63.8709677 L84.1935484,81.2903226 L72.5806452,81.2903226 Z M5.80645161,55.1612903 L5.80645161,43.5483871 L17.4193548,43.5483871 L17.4193548,55.1612903 L5.80645161,55.1612903 Z M20.3225806,43.5483871 L31.9354839,43.5483871 L31.9354839,55.1612903 L20.3225806,55.1612903 L20.3225806,43.5483871 Z M34.8387097,43.5483871 L46.4516129,43.5483871 L46.4516129,55.1612903 L34.8387097,55.1612903 L34.8387097,43.5483871 Z M49.3548387,43.5483871 L60.9677419,43.5483871 L60.9677419,55.1612903 L49.3548387,55.1612903 L49.3548387,43.5483871 Z M63.8709677,23.2258065 L69.6774194,23.2258065 L69.6774194,34.8387097 L63.8709677,34.8387097 L63.8709677,23.2258065 Z M84.1935484,60.9677419 L63.8709677,60.9677419 L63.8709677,58.0645161 L84.1935484,58.0645161 L84.1935484,60.9677419 Z M63.8709677,55.1612903 L63.8709677,43.5483871 L69.6774194,43.5483871 L69.6774194,55.1612903 L63.8709677,55.1612903 Z M84.1935484,55.1612903 L72.5806452,55.1612903 L72.5806452,43.5483871 L84.1935484,43.5483871 L84.1935484,55.1612903 Z M84.1935484,34.8387097 L72.5806452,34.8387097 L72.5806452,23.2258065 L84.1935484,23.2258065 L84.1935484,34.8387097 Z M63.8709677,37.7419355 L84.1935484,37.7419355 L84.1935484,40.6451613 L63.8709677,40.6451613 L63.8709677,37.7419355 Z M63.8709677,69.6774194 L69.6774194,69.6774194 L69.6774194,81.2903226 L63.8709677,81.2903226 L63.8709677,69.6774194 Z M84.1935484,14.516129 L72.5806452,14.516129 L72.5806452,2.90322581 L84.1935484,2.90322581 L84.1935484,14.516129 Z M43.5483871,14.516129 L43.5483871,2.90322581 L55.1612903,2.90322581 L55.1612903,14.516129 L43.5483871,14.516129 Z M58.0645161,2.90322581 L69.6774194,2.90322581 L69.6774194,14.516129 L58.0645161,14.516129 L58.0645161,2.90322581 Z M40.6451613,2.90322581 L40.6451613,14.516129 L29.0322581,14.516129 L29.0322581,2.90322581 L40.6451613,2.90322581 Z M29.0322581,17.4193548 L84.1935484,17.4193548 L84.1935484,20.3225806 L62.4193548,20.3225806 L29.0322581,20.3225806 L29.0322581,17.4193548 Z M60.9677419,23.2258065 L60.9677419,40.6451613 L5.80645161,40.6451613 L5.80645161,23.2258065 L60.9677419,23.2258065 Z M5.80645161,58.0645161 L60.9677419,58.0645161 L60.9677419,81.2903226 L58.0645161,81.2903226 L58.0645161,68.2258065 C58.0645161,67.4245161 57.4141935,66.7741935 56.6129032,66.7741935 L39.1935484,66.7741935 C38.3922581,66.7741935 37.7419355,67.4245161 37.7419355,68.2258065 L37.7419355,81.2903226 L29.0322581,81.2903226 L29.0322581,68.2258065 C29.0322581,67.4245161 28.3819355,66.7741935 27.5806452,66.7741935 L10.1612903,66.7741935 C9.36,66.7741935 8.70967742,67.4245161 8.70967742,68.2258065 L8.70967742,81.2903226 L5.80645161,81.2903226 L5.80645161,58.0645161 Z M40.6451613,81.2903226 L40.6451613,69.6774194 L46.4516129,69.6774194 L46.4516129,81.2903226 L40.6451613,81.2903226 Z M49.3548387,69.6774194 L55.1612903,69.6774194 L55.1612903,81.2903226 L49.3548387,81.2903226 L49.3548387,69.6774194 Z M11.6129032,81.2903226 L11.6129032,69.6774194 L17.4193548,69.6774194 L17.4193548,81.2903226 L11.6129032,81.2903226 Z M20.3225806,69.6774194 L26.1290323,69.6774194 L26.1290323,81.2903226 L20.3225806,81.2903226 L20.3225806,69.6774194 Z M87.0967742,87.0967742 L2.90322581,87.0967742 L2.90322581,84.1935484 L87.0967742,84.1935484 L87.0967742,87.0967742 Z" id="Shape"></path>
                        <path d="M17.4193548,33.7296774 L17.5717742,34.0359677 C18.063871,35.0201613 19.6766129,35.0201613 20.1687097,34.0359677 L20.3225806,33.7296774 L20.3225806,37.7419355 L23.2258065,37.7419355 L23.2258065,27.5806452 C23.2258065,26.9070968 22.7627419,26.3220968 22.1080645,26.1682258 C21.4490323,26.0143548 20.7769355,26.3293548 20.475,26.9317742 L18.8709677,30.1412903 L17.2669355,26.9317742 C16.965,26.3293548 16.2943548,26.0158065 15.633871,26.1682258 C14.9791935,26.3220968 14.516129,26.9070968 14.516129,27.5806452 L14.516129,37.7419355 L17.4193548,37.7419355 L17.4193548,33.7296774 Z" id="Path"></path>
                        <path d="M29.0322581,34.8387097 L31.9354839,34.8387097 L31.9354839,37.7419355 L34.8387097,37.7419355 L34.8387097,30.483871 C34.8387097,28.0829032 32.8848387,26.1290323 30.483871,26.1290323 C28.0829032,26.1290323 26.1290323,28.0829032 26.1290323,30.483871 L26.1290323,37.7419355 L29.0322581,37.7419355 L29.0322581,34.8387097 Z M30.483871,29.0322581 C31.2837097,29.0322581 31.9354839,29.6840323 31.9354839,30.483871 L31.9354839,31.9354839 L29.0322581,31.9354839 L29.0322581,30.483871 C29.0322581,29.6840323 29.6840323,29.0322581 30.483871,29.0322581 Z" id="Shape"></path>
                        <path d="M39.1935484,37.7419355 L43.5483871,37.7419355 L43.5483871,34.8387097 L40.6451613,34.8387097 L40.6451613,26.1290323 L37.7419355,26.1290323 L37.7419355,36.2903226 C37.7419355,37.0916129 38.3922581,37.7419355 39.1935484,37.7419355 Z" id="Path"></path>
                        <path d="M47.9032258,37.7419355 L52.2580645,37.7419355 L52.2580645,34.8387097 L49.3548387,34.8387097 L49.3548387,26.1290323 L46.4516129,26.1290323 L46.4516129,36.2903226 C46.4516129,37.0916129 47.1019355,37.7419355 47.9032258,37.7419355 Z" id="Path"></path>
                        <polygon id="Path" points="8.70967742 60.9677419 29.0322581 60.9677419 29.0322581 63.8709677 8.70967742 63.8709677"></polygon>
                        <polygon id="Path" points="37.7419355 60.9677419 58.0645161 60.9677419 58.0645161 63.8709677 37.7419355 63.8709677"></polygon>
                    </g>
                </g>
            </g>
        </g>
    </g>
</svg>