<?xml version="1.0" encoding="UTF-8"?>
<svg width="95px" height="95px" viewBox="0 0 95 95" version="1.1" xmlns="http://www.w3.org/2000/svg" xmlns:xlink="http://www.w3.org/1999/xlink">
    <!-- Generator: Sketch 60.1 (88133) - https://sketch.com -->
    <title>ic_sistemas_iwhite</title>
    <desc>Created with Sketch.</desc>
    <g id="Page-1" stroke="none" stroke-width="1" fill="none" fill-rule="evenodd">
        <g id="08_Logística" transform="translate(-1034.000000, -5111.000000)" fill="#FFFFFF" fill-rule="nonzero">
            <g id="Group-45" transform="translate(-5.000000, 1895.000000)">
                <g id="Group-29">
                    <g id="Group-25" transform="translate(5.000000, 2964.000000)">
                        <g id="Group-20" transform="translate(94.000000, 252.000000)">
                            <g id="ic_sistemas_iwhite" transform="translate(940.000000, 0.000000)">
                                <path d="M94.9233871,47.4616935 C94.9233871,37.9616935 92.1653226,28.7681452 86.8024194,20.953629 C90.0201613,16.9697581 89.2540323,11.1471774 85.2701613,8.08266129 C81.8991935,5.47782258 77.1491935,5.47782258 73.9314516,8.08266129 C57.8427419,-2.64314516 37.0040323,-2.64314516 20.9153226,8.08266129 C16.9314516,4.86491935 11.108871,5.63104839 8.04435484,9.61491935 C5.43951613,12.9858871 5.43951613,17.7358871 8.04435484,20.953629 C-2.68145161,37.0423387 -2.68145161,57.8810484 8.04435484,73.9697581 C4.8266129,77.953629 5.59274194,83.7762097 9.5766129,86.8407258 C12.9475806,89.4455645 17.6975806,89.4455645 20.9153226,86.8407258 C37.0040323,97.5665323 57.8427419,97.5665323 73.9314516,86.8407258 C77.9153226,90.0584677 83.7379032,89.2923387 86.8024194,85.3084677 C89.4072581,81.9375 89.4072581,77.1875 86.8024194,73.9697581 C92.1653226,66.1552419 94.9233871,56.9616935 94.9233871,47.4616935 Z M79.6008065,9.15524194 C82.9717742,9.15524194 85.7298387,11.9133065 85.7298387,15.2842742 C85.7298387,18.6552419 82.9717742,21.4133065 79.6008065,21.4133065 C76.2298387,21.4133065 73.4717742,18.6552419 73.4717742,15.2842742 C73.4717742,11.9133065 76.2298387,9.15524194 79.6008065,9.15524194 Z M15.2459677,9.15524194 C18.6169355,9.15524194 21.375,11.9133065 21.375,15.2842742 C21.375,18.6552419 18.6169355,21.4133065 15.2459677,21.4133065 C11.875,21.4133065 9.11693548,18.6552419 9.11693548,15.2842742 C9.11693548,11.9133065 11.875,9.15524194 15.2459677,9.15524194 Z M15.2459677,85.7681452 C11.875,85.7681452 9.11693548,83.0100806 9.11693548,79.6391129 C9.11693548,76.2681452 11.875,73.5100806 15.2459677,73.5100806 C18.6169355,73.5100806 21.375,76.2681452 21.375,79.6391129 C21.375,83.0100806 18.6169355,85.7681452 15.2459677,85.7681452 Z M79.6008065,85.7681452 C76.2298387,85.7681452 73.4717742,83.0100806 73.4717742,79.6391129 C73.4717742,76.2681452 76.2298387,73.5100806 79.6008065,73.5100806 C82.9717742,73.5100806 85.7298387,76.2681452 85.7298387,79.6391129 C85.7298387,83.0100806 82.9717742,85.7681452 79.6008065,85.7681452 Z M84.6572581,71.9778226 C80.3669355,69.2197581 74.6975806,70.4455645 71.9395161,74.7358871 C69.9475806,77.8004032 69.9475806,81.6310484 71.9395161,84.5423387 C57.0766129,94.3487903 37.7701613,94.3487903 23.0604839,84.5423387 C25.8185484,80.2520161 24.5927419,74.5826613 20.3024194,71.8245968 C17.2379032,69.8326613 13.4072581,69.8326613 10.4959677,71.8245968 C0.689516129,56.9616935 0.689516129,37.8084677 10.4959677,22.9455645 C14.7862903,25.703629 20.4556452,24.4778226 23.2137097,20.1875 C25.2056452,17.1229839 25.2056452,13.2923387 23.2137097,10.3810484 C38.0766129,0.574596774 57.2298387,0.574596774 72.0927419,10.3810484 C69.3346774,14.671371 70.5604839,20.3407258 74.8508065,23.0987903 C77.9153226,25.0907258 81.7459677,25.0907258 84.6572581,23.0987903 C94.4637097,37.9616935 94.4637097,57.1149194 84.6572581,71.9778226 Z" id="Shape"></path>
                                <path d="M44.358871,48.9939516 C45.2782258,48.9939516 45.891129,48.3810484 45.891129,47.4616935 L45.891129,38.2681452 C45.891129,37.3487903 45.2782258,36.7358871 44.358871,36.7358871 L32.1008065,36.7358871 L32.1008065,39.8004032 L42.8266129,39.8004032 L42.8266129,45.9294355 L33.6330645,45.9294355 C32.7137097,45.9294355 32.1008065,46.5423387 32.1008065,47.4616935 L32.1008065,56.6552419 C32.1008065,57.5745968 32.7137097,58.1875 33.6330645,58.1875 L45.891129,58.1875 L45.891129,55.1229839 L35.1653226,55.1229839 L35.1653226,48.9939516 L44.358871,48.9939516 Z" id="Path"></path>
                                <path d="M61.2137097,36.7358871 L61.2137097,45.9294355 L52.0201613,45.9294355 L52.0201613,36.7358871 L48.9556452,36.7358871 L48.9556452,47.4616935 C48.9556452,48.3810484 49.5685484,48.9939516 50.4879032,48.9939516 L61.2137097,48.9939516 L61.2137097,58.1875 L64.2782258,58.1875 L64.2782258,36.7358871 L61.2137097,36.7358871 Z" id="Path"></path>
                                <path d="M78.9879032,41.0262097 C75.9233871,26.0100806 62.7459677,15.2842742 47.4233871,15.2842742 C30.2620968,15.2842742 16.1653226,28.7681452 15.3991935,45.9294355 L10.1895161,41.7923387 L8.19758065,44.2439516 L15.858871,50.3729839 C16.4717742,50.8326613 17.2379032,50.8326613 17.8508065,50.3729839 L25.5120968,44.2439516 L23.5201613,41.7923387 L18.4637097,45.9294355 C19.5362903,29.9939516 33.3266129,17.8891129 49.2620968,18.9616935 C65.1975806,20.0342742 77.3024194,33.8245968 76.2298387,49.7600806 C75.1572581,65.6955645 61.3669355,77.4939516 45.4314516,76.5745968 C32.4072581,75.6552419 21.5282258,66.1552419 18.9233871,53.2842742 L15.858871,53.8971774 C19.3830645,71.3649194 36.391129,82.5504032 53.858871,79.0262097 C71.3266129,75.5020161 82.5120968,58.4939516 78.9879032,41.0262097 Z" id="Path"></path>
                            </g>
                        </g>
                    </g>
                </g>
            </g>
        </g>
    </g>
</svg>