<?xml version="1.0" encoding="UTF-8"?>
<svg width="90px" height="90px" viewBox="0 0 90 90" version="1.1" xmlns="http://www.w3.org/2000/svg" xmlns:xlink="http://www.w3.org/1999/xlink">
    <!-- Generator: Sketch 60.1 (88133) - https://sketch.com -->
    <title>ic_seguridad</title>
    <desc>Created with Sketch.</desc>
    <g id="Page-1" stroke="none" stroke-width="1" fill="none" fill-rule="evenodd">
        <g id="04_Aereo" transform="translate(-294.000000, -2433.000000)" fill="#B2B2B2">
            <g id="ic_seguridad" transform="translate(294.000000, 2433.000000)">
                <path d="M79.8387097,0 L10.1612903,0 C4.54936464,0 0,4.54936464 0,10.1612903 L0,56.6129032 C0,62.2248289 4.54936464,66.7741935 10.1612903,66.7741935 L31.9354839,66.7741935 L31.9354839,78.3870968 L29.0322581,78.3870968 C26.6271471,78.3870968 24.6774194,80.3368245 24.6774194,82.7419355 L24.6774194,88.5483871 C24.6774194,89.3500908 25.3273286,90 26.1290323,90 L63.8709677,90 C64.6726714,90 65.3225806,89.3500908 65.3225806,88.5483871 L65.3225806,82.7419355 C65.3225806,80.3368245 63.3728529,78.3870968 60.9677419,78.3870968 L58.0645161,78.3870968 L58.0645161,66.7741935 L79.8387097,66.7741935 C85.4506354,66.7741935 90,62.2248289 90,56.6129032 L90,10.1612903 C90,4.54936464 85.4506354,0 79.8387097,0 Z M10.1612903,2.90322581 L79.8387097,2.90322581 C83.847228,2.90322581 87.0967742,6.15277198 87.0967742,10.1612903 L87.0967742,37.7419355 L85.383871,37.7419355 C85.1400998,37.0620357 84.7310466,36.4534444 84.1935484,35.9709677 L84.1935484,10.1612903 C84.1935484,7.75617932 82.2438207,5.80645161 79.8387097,5.80645161 L10.1612903,5.80645161 C7.75617932,5.80645161 5.80645161,7.75617932 5.80645161,10.1612903 L5.80645161,35.9709677 C5.26895336,36.4534444 4.85990017,37.0620357 4.61612903,37.7419355 L2.90322581,37.7419355 L2.90322581,10.1612903 C2.90322581,6.15277198 6.15277198,2.90322581 10.1612903,2.90322581 Z M81.2903226,34.8387097 L78.3870968,34.8387097 C76.5460816,34.8438838 74.9072153,36.0062003 74.2935484,37.7419355 L72.3193548,37.7419355 C71.705688,36.0062003 70.0668217,34.8438838 68.2258065,34.8387097 L65.3225806,34.8387097 C63.4815654,34.8438838 61.8426991,36.0062003 61.2290323,37.7419355 L58.0645161,37.7419355 L58.0645161,31.9354839 C58.0645161,31.1337802 57.4146069,30.483871 56.6129032,30.483871 L55.1612903,30.483871 L55.1612903,26.1290323 C55.1612903,20.5171066 50.6119257,15.9677419 45,15.9677419 C39.3880743,15.9677419 34.8387097,20.5171066 34.8387097,26.1290323 L34.8387097,30.483871 L33.3870968,30.483871 C32.5853931,30.483871 31.9354839,31.1337802 31.9354839,31.9354839 L31.9354839,37.7419355 L28.7709677,37.7419355 C28.1573009,36.0062003 26.5184346,34.8438838 24.6774194,34.8387097 L21.7741935,34.8387097 C19.9331783,34.8438838 18.294312,36.0062003 17.6806452,37.7419355 L15.7064516,37.7419355 C15.0927847,36.0062003 13.4539184,34.8438838 11.6129032,34.8387097 L8.70967742,34.8387097 L8.70967742,10.1612903 C8.70967742,9.35958665 9.35958665,8.70967742 10.1612903,8.70967742 L79.8387097,8.70967742 C80.6404133,8.70967742 81.2903226,9.35958665 81.2903226,10.1612903 L81.2903226,34.8387097 Z M81.2903226,37.7419355 C82.0920262,37.7419355 82.7419355,38.3918447 82.7419355,39.1935484 C82.7419355,39.9952521 82.0920262,40.6451613 81.2903226,40.6451613 L78.3870968,40.6451613 C77.5853931,40.6451613 76.9354839,39.9952521 76.9354839,39.1935484 C76.9354839,38.3918447 77.5853931,37.7419355 78.3870968,37.7419355 L81.2903226,37.7419355 Z M69.6774194,39.1935484 C69.6774194,39.9952521 69.0275101,40.6451613 68.2258065,40.6451613 L65.3225806,40.6451613 C64.520877,40.6451613 63.8709677,39.9952521 63.8709677,39.1935484 C63.8709677,38.3918447 64.520877,37.7419355 65.3225806,37.7419355 L68.2258065,37.7419355 C69.0275101,37.7419355 69.6774194,38.3918447 69.6774194,39.1935484 Z M52.2580645,30.483871 L49.3548387,30.483871 L49.3548387,26.1290323 C49.3548387,23.7239213 47.405111,21.7741935 45,21.7741935 C42.594889,21.7741935 40.6451613,23.7239213 40.6451613,26.1290323 L40.6451613,30.483871 L37.7419355,30.483871 L37.7419355,26.1290323 C37.7419355,22.1205139 40.9914817,18.8709677 45,18.8709677 C49.0085183,18.8709677 52.2580645,22.1205139 52.2580645,26.1290323 L52.2580645,30.483871 Z M46.4516129,30.483871 L43.5483871,30.483871 L43.5483871,26.1290323 C43.5483871,25.3273286 44.1982963,24.6774194 45,24.6774194 C45.8017037,24.6774194 46.4516129,25.3273286 46.4516129,26.1290323 L46.4516129,30.483871 Z M55.1612903,33.3870968 L55.1612903,47.9032258 L34.8387097,47.9032258 L34.8387097,33.3870968 L55.1612903,33.3870968 Z M26.1290323,39.1935484 C26.1290323,39.9952521 25.479123,40.6451613 24.6774194,40.6451613 L21.7741935,40.6451613 C20.9724899,40.6451613 20.3225806,39.9952521 20.3225806,39.1935484 C20.3225806,38.3918447 20.9724899,37.7419355 21.7741935,37.7419355 L24.6774194,37.7419355 C25.479123,37.7419355 26.1290323,38.3918447 26.1290323,39.1935484 Z M7.25806452,39.1935484 C7.25806452,38.3918447 7.90797375,37.7419355 8.70967742,37.7419355 L11.6129032,37.7419355 C12.4146069,37.7419355 13.0645161,38.3918447 13.0645161,39.1935484 C13.0645161,39.9952521 12.4146069,40.6451613 11.6129032,40.6451613 L8.70967742,40.6451613 C7.90797375,40.6451613 7.25806452,39.9952521 7.25806452,39.1935484 Z M8.70967742,43.5483871 L11.6129032,43.5483871 C13.4539184,43.543213 15.0927847,42.3808965 15.7064516,40.6451613 L17.6806452,40.6451613 C18.294312,42.3808965 19.9331783,43.543213 21.7741935,43.5483871 L24.6774194,43.5483871 C26.5184346,43.543213 28.1573009,42.3808965 28.7709677,40.6451613 L31.9354839,40.6451613 L31.9354839,49.3548387 C31.9354839,50.1565424 32.5853931,50.8064516 33.3870968,50.8064516 L56.6129032,50.8064516 C57.4146069,50.8064516 58.0645161,50.1565424 58.0645161,49.3548387 L58.0645161,40.6451613 L61.2290323,40.6451613 C61.8426991,42.3808965 63.4815654,43.543213 65.3225806,43.5483871 L68.2258065,43.5483871 C70.0668217,43.543213 71.705688,42.3808965 72.3193548,40.6451613 L74.2935484,40.6451613 C74.9072153,42.3808965 76.5460816,43.543213 78.3870968,43.5483871 L81.2903226,43.5483871 L81.2903226,56.6129032 C81.2903226,57.4146069 80.6404133,58.0645161 79.8387097,58.0645161 L10.1612903,58.0645161 C9.35958665,58.0645161 8.70967742,57.4146069 8.70967742,56.6129032 L8.70967742,43.5483871 Z M62.4193548,82.7419355 L62.4193548,87.0967742 L27.5806452,87.0967742 L27.5806452,82.7419355 C27.5806452,81.9402318 28.2305544,81.2903226 29.0322581,81.2903226 L60.9677419,81.2903226 C61.7694456,81.2903226 62.4193548,81.9402318 62.4193548,82.7419355 Z M55.1612903,78.3870968 L34.8387097,78.3870968 L34.8387097,66.7741935 L55.1612903,66.7741935 L55.1612903,78.3870968 Z M79.8387097,63.8709677 L10.1612903,63.8709677 C6.15277198,63.8709677 2.90322581,60.6214216 2.90322581,56.6129032 L2.90322581,40.6451613 L4.61612903,40.6451613 C4.85990017,41.3250611 5.26895336,41.9336524 5.80645161,42.416129 L5.80645161,56.6129032 C5.80645161,59.0180142 7.75617932,60.9677419 10.1612903,60.9677419 L79.8387097,60.9677419 C82.2438207,60.9677419 84.1935484,59.0180142 84.1935484,56.6129032 L84.1935484,42.416129 C84.7310466,41.9336524 85.1400998,41.3250611 85.383871,40.6451613 L87.0967742,40.6451613 L87.0967742,56.6129032 C87.0967742,60.6214216 83.847228,63.8709677 79.8387097,63.8709677 Z" id="Shape"></path>
                <path d="M45,45 C47.405111,45 49.3548387,43.0502723 49.3548387,40.6451613 C49.3548387,38.2400503 47.405111,36.2903226 45,36.2903226 C42.594889,36.2903226 40.6451613,38.2400503 40.6451613,40.6451613 C40.6451613,43.0502723 42.594889,45 45,45 Z M45,39.1935484 C45.8017037,39.1935484 46.4516129,39.8434576 46.4516129,40.6451613 C46.4516129,41.446865 45.8017037,42.0967742 45,42.0967742 C44.1982963,42.0967742 43.5483871,41.446865 43.5483871,40.6451613 C43.5483871,39.8434576 44.1982963,39.1935484 45,39.1935484 Z" id="Shape"></path>
            </g>
        </g>
    </g>
</svg>