<?xml version="1.0" encoding="UTF-8"?>
<svg width="95px" height="95px" viewBox="0 0 95 95" version="1.1" xmlns="http://www.w3.org/2000/svg" xmlns:xlink="http://www.w3.org/1999/xlink">
    <!-- Generator: Sketch 60.1 (88133) - https://sketch.com -->
    <title>ic_seguimiento</title>
    <desc>Created with Sketch.</desc>
    <g id="Page-1" stroke="none" stroke-width="1" fill="none" fill-rule="evenodd">
        <g id="04_Aereo" transform="translate(-686.000000, -2118.000000)" fill="#B2B2B2">
            <g id="Group-6" transform="translate(178.000000, 1570.000000)">
                <g id="Group-9" transform="translate(357.000000, 548.000000)">
                    <g id="Group-14">
                        <g id="ic_seguimiento" transform="translate(151.000000, 0.000000)">
                            <polygon id="Path" points="21.4516129 6.12903226 30.6451613 6.12903226 30.6451613 9.19354839 21.4516129 9.19354839"></polygon>
                            <path d="M26.0483871,79.6774194 C23.5140323,79.6774194 21.4516129,81.7398387 21.4516129,84.2741935 C21.4516129,86.8085484 23.5140323,88.8709677 26.0483871,88.8709677 C28.5827419,88.8709677 30.6451613,86.8085484 30.6451613,84.2741935 C30.6451613,81.7398387 28.5827419,79.6774194 26.0483871,79.6774194 Z M26.0483871,85.8064516 C25.2041129,85.8064516 24.516129,85.12 24.516129,84.2741935 C24.516129,83.4283871 25.2041129,82.7419355 26.0483871,82.7419355 C26.8926613,82.7419355 27.5806452,83.4283871 27.5806452,84.2741935 C27.5806452,85.12 26.8926613,85.8064516 26.0483871,85.8064516 Z" id="Shape"></path>
                            <path d="M21.6370161,27.1316935 C19.9515323,25.4446774 17.7083065,24.516129 15.3225806,24.516129 C12.9368548,24.516129 10.693629,25.4446774 9.00814516,27.1316935 L8.74459677,27.3952419 C7.08209677,29.0577419 6.12903226,31.3591935 6.12903226,33.7096774 C6.12903226,36.0371774 6.84306452,38.2681452 8.19604839,40.1589516 L14.0753226,48.3902419 C14.3633871,48.7932258 14.8276613,49.0322581 15.3225806,49.0322581 C15.8175,49.0322581 16.2817742,48.7932258 16.5683065,48.3902419 L22.4475806,40.1589516 C23.8020968,38.2681452 24.516129,36.0371774 24.516129,33.7096774 C24.516129,31.3591935 23.5630645,29.0577419 21.9005645,27.3952419 L21.6370161,27.1316935 Z M19.9545968,38.3784677 L15.3225806,44.8629839 L10.6890323,38.3784677 C9.70991935,37.0070968 9.19354839,35.3951613 9.19354839,33.7096774 C9.19354839,32.1651613 9.82024194,30.6543548 10.9112097,29.5618548 L11.1747581,29.2983065 C12.2825806,28.1904839 13.7566129,27.5806452 15.3225806,27.5806452 C16.8885484,27.5806452 18.3625806,28.1904839 19.4704032,29.2983065 L19.7339516,29.5618548 C20.8249194,30.6543548 21.4516129,32.1651613 21.4516129,33.7096774 C21.4516129,35.3951613 20.9352419,37.0070968 19.9545968,38.3784677 L19.9545968,38.3784677 Z" id="Shape"></path>
                            <path d="M92.3844355,70.2984677 L92.1208871,70.0349194 C90.4354032,68.3479032 88.1921774,67.4193548 85.8064516,67.4193548 C83.4207258,67.4193548 81.1775,68.3479032 79.4920161,70.0349194 L79.2284677,70.2984677 C77.5659677,71.9609677 76.6129032,74.2624194 76.6129032,76.6129032 C76.6129032,78.9404032 77.3269355,81.171371 78.6799194,83.0621774 L84.5591935,91.2934677 C84.8472581,91.6964516 85.3115323,91.9354839 85.8064516,91.9354839 C86.301371,91.9354839 86.7656452,91.6964516 87.0521774,91.2934677 L92.9314516,83.0621774 C94.2859677,81.171371 95,78.9404032 95,76.6129032 C95,74.2624194 94.0469355,71.9609677 92.3844355,70.2984677 L92.3844355,70.2984677 Z M90.4384677,81.2816935 L85.8064516,87.7662097 L81.1729032,81.2816935 C80.1937903,79.9103226 79.6774194,78.2983871 79.6774194,76.6129032 C79.6774194,75.0683871 80.3041129,73.5575806 81.3950806,72.4650806 L81.658629,72.2015323 C82.7664516,71.0937097 84.2404839,70.483871 85.8064516,70.483871 C87.3724194,70.483871 88.8464516,71.0937097 89.9542742,72.2015323 L90.2178226,72.4650806 C91.3087903,73.5575806 91.9354839,75.0683871 91.9354839,76.6129032 C91.9354839,78.2983871 91.4191129,79.9103226 90.4384677,81.2816935 Z" id="Shape"></path>
                            <polygon id="Path" points="13.7903226 52.0967742 16.8548387 52.0967742 16.8548387 55.1612903 13.7903226 55.1612903"></polygon>
                            <polygon id="Path" points="13.7903226 58.2258065 16.8548387 58.2258065 16.8548387 61.2903226 13.7903226 61.2903226"></polygon>
                            <polygon id="Path" points="13.7903226 64.3548387 16.8548387 64.3548387 16.8548387 67.4193548 13.7903226 67.4193548"></polygon>
                            <polygon id="Path" points="19.9193548 64.3548387 22.983871 64.3548387 22.983871 67.4193548 19.9193548 67.4193548"></polygon>
                            <polygon id="Path" points="26.0483871 64.3548387 29.1129032 64.3548387 29.1129032 67.4193548 26.0483871 67.4193548"></polygon>
                            <polygon id="Path" points="32.1774194 64.3548387 35.2419355 64.3548387 35.2419355 67.4193548 32.1774194 67.4193548"></polygon>
                            <polygon id="Path" points="38.3064516 64.3548387 41.3709677 64.3548387 41.3709677 67.4193548 38.3064516 67.4193548"></polygon>
                            <polygon id="Path" points="44.4354839 64.3548387 47.5 64.3548387 47.5 67.4193548 44.4354839 67.4193548"></polygon>
                            <polygon id="Path" points="53.6290323 64.3548387 56.6935484 64.3548387 56.6935484 67.4193548 53.6290323 67.4193548"></polygon>
                            <polygon id="Path" points="59.7580645 64.3548387 62.8225806 64.3548387 62.8225806 67.4193548 59.7580645 67.4193548"></polygon>
                            <polygon id="Path" points="59.7580645 70.483871 62.8225806 70.483871 62.8225806 73.5483871 59.7580645 73.5483871"></polygon>
                            <polygon id="Path" points="59.7580645 76.6129032 62.8225806 76.6129032 62.8225806 79.6774194 59.7580645 79.6774194"></polygon>
                            <polygon id="Path" points="59.7580645 82.7419355 62.8225806 82.7419355 62.8225806 85.8064516 59.7580645 85.8064516"></polygon>
                            <polygon id="Path" points="59.7580645 88.8709677 62.8225806 88.8709677 62.8225806 91.9354839 59.7580645 91.9354839"></polygon>
                            <polygon id="Path" points="65.8870968 88.8709677 68.9516129 88.8709677 68.9516129 91.9354839 65.8870968 91.9354839"></polygon>
                            <polygon id="Path" points="72.016129 88.8709677 75.0806452 88.8709677 75.0806452 91.9354839 72.016129 91.9354839"></polygon>
                            <polygon id="Path" points="78.1451613 88.8709677 81.2096774 88.8709677 81.2096774 91.9354839 78.1451613 91.9354839"></polygon>
                            <path d="M90.4032258,24.516129 C90.4032258,16.0672581 83.5295161,9.19354839 75.0806452,9.19354839 C67.681371,9.19354839 61.4910484,14.4660484 60.0675806,21.4516129 L52.0967742,21.4516129 L52.0967742,9.19354839 C52.0967742,4.12330645 47.9734677,0 42.9032258,0 L9.19354839,0 C4.12330645,0 0,4.12330645 0,9.19354839 L0,85.8064516 C0,90.8766935 4.12330645,95 9.19354839,95 L42.9032258,95 C47.9734677,95 52.0967742,90.8766935 52.0967742,85.8064516 L52.0967742,58.2258065 L68.9516129,58.2258065 C69.7974194,58.2258065 70.483871,57.5408871 70.483871,56.6935484 L70.483871,39.1323387 C71.9364516,39.5889516 73.4794355,39.8387097 75.0806452,39.8387097 C83.5295161,39.8387097 90.4032258,32.965 90.4032258,24.516129 Z M47.5,24.516129 L53.6290323,24.516129 L53.6290323,34.6075806 L51.6478226,32.626371 C51.0487097,32.0272581 50.0803226,32.0272581 49.4812097,32.626371 L47.5,34.6075806 L47.5,24.516129 Z M9.19354839,3.06451613 L42.9032258,3.06451613 C46.2833871,3.06451613 49.0322581,5.8133871 49.0322581,9.19354839 L49.0322581,12.2580645 L3.06451613,12.2580645 L3.06451613,9.19354839 C3.06451613,5.8133871 5.8133871,3.06451613 9.19354839,3.06451613 Z M42.9032258,91.9354839 L9.19354839,91.9354839 C5.8133871,91.9354839 3.06451613,89.1866129 3.06451613,85.8064516 L3.06451613,76.6129032 L49.0322581,76.6129032 L49.0322581,85.8064516 C49.0322581,89.1866129 46.2833871,91.9354839 42.9032258,91.9354839 Z M49.0322581,73.5483871 L3.06451613,73.5483871 L3.06451613,15.3225806 L49.0322581,15.3225806 L49.0322581,21.4516129 L32.1774194,21.4516129 C31.3316129,21.4516129 30.6451613,22.1365323 30.6451613,22.983871 L30.6451613,56.6935484 C30.6451613,57.5408871 31.3316129,58.2258065 32.1774194,58.2258065 L49.0322581,58.2258065 L49.0322581,73.5483871 Z M33.7096774,55.1612903 L33.7096774,52.0967742 L67.4193548,52.0967742 L67.4193548,55.1612903 L33.7096774,55.1612903 Z M67.4193548,49.0322581 L33.7096774,49.0322581 L33.7096774,24.516129 L44.4354839,24.516129 L44.4354839,38.3064516 C44.4354839,38.9254839 44.8093548,39.4862903 45.3808871,39.7222581 C45.9539516,39.9612903 46.6112903,39.8279839 47.0510484,39.3897581 L50.5645161,35.8762903 L54.0779839,39.3897581 C54.3706452,39.6824194 54.7629032,39.8387097 55.1612903,39.8387097 C55.3589516,39.8387097 55.5581452,39.8019355 55.7481452,39.7222581 C56.3196774,39.4862903 56.6935484,38.9254839 56.6935484,38.3064516 L56.6935484,24.516129 L59.7580645,24.516129 C59.7580645,30.1716935 62.8470968,35.1116935 67.4193548,37.7655645 L67.4193548,49.0322581 Z M75.0806452,36.7741935 C68.3218548,36.7741935 62.8225806,31.2749194 62.8225806,24.516129 C62.8225806,17.7573387 68.3218548,12.2580645 75.0806452,12.2580645 C81.8394355,12.2580645 87.3387097,17.7573387 87.3387097,24.516129 C87.3387097,31.2749194 81.8394355,36.7741935 75.0806452,36.7741935 Z" id="Shape"></path>
                            <path d="M72.016129,26.9462903 L70.0349194,24.9650806 L67.8683065,27.1316935 L70.9328226,30.1962097 C71.2316129,30.495 71.623871,30.6451613 72.016129,30.6451613 C72.4083871,30.6451613 72.8006452,30.495 73.0994355,30.1962097 L82.2929839,21.0026613 L80.126371,18.8360484 L72.016129,26.9462903 Z" id="Path"></path>
                        </g>
                    </g>
                </g>
            </g>
        </g>
    </g>
</svg>