<?xml version="1.0" encoding="UTF-8"?>
<svg width="90px" height="90px" viewBox="0 0 90 90" version="1.1" xmlns="http://www.w3.org/2000/svg" xmlns:xlink="http://www.w3.org/1999/xlink">
    <!-- Generator: Sketch 60.1 (88133) - https://sketch.com -->
    <title>ic_sanitario</title>
    <desc>Created with Sketch.</desc>
    <g id="Page-1" stroke="none" stroke-width="1" fill="none" fill-rule="evenodd">
        <g id="08_Logística" transform="translate(-404.000000, -403.000000)" fill="#B2B2B2" fill-rule="nonzero">
            <g id="Group-42" transform="translate(109.000000, 400.000000)">
                <g id="Group-30" transform="translate(112.000000, 3.000000)">
                    <g id="Group-32">
                        <g id="ic_sanitario" transform="translate(183.000000, 0.000000)">
                            <path d="M88.5483871,11.6129032 L84.1935484,11.6129032 L84.1935484,10.1612903 C84.1935484,7.76032258 82.2396774,5.80645161 79.8387097,5.80645161 L71.1290323,5.80645161 C68.7280645,5.80645161 66.7741935,7.76032258 66.7741935,10.1612903 L66.7741935,11.6129032 L60.9677419,11.6129032 L60.9677419,7.25806452 C60.9677419,3.25596774 57.7117742,0 53.7096774,0 L36.2903226,0 C32.2882258,0 29.0322581,3.25596774 29.0322581,7.25806452 L29.0322581,11.6129032 L23.2258065,11.6129032 L23.2258065,10.1612903 C23.2258065,7.76032258 21.2719355,5.80645161 18.8709677,5.80645161 L10.1612903,5.80645161 C7.76032258,5.80645161 5.80645161,7.76032258 5.80645161,10.1612903 L5.80645161,11.6129032 L1.4516129,11.6129032 C0.648870968,11.6129032 0,12.2617742 0,13.0645161 L0,65.3225806 C0,66.1253226 0.648870968,66.7741935 1.4516129,66.7741935 L61.3843548,66.7741935 L60.7891935,67.7424194 C59.0066129,70.6383871 58.0645161,73.9683871 58.0645161,77.3695161 C58.0645161,80.2277419 59.0472581,83.0293548 60.8312903,85.2604839 C63.2424194,88.2725806 66.8380645,90 70.695,90 L71.5630645,90 C75.42,90 79.0156452,88.2725806 81.4253226,85.2590323 C83.2108065,83.0293548 84.1935484,80.2277419 84.1935484,77.3695161 C84.1935484,73.9683871 83.2514516,70.6383871 81.468871,67.7409677 L80.8737097,66.7741935 L88.5483871,66.7741935 C89.351129,66.7741935 90,66.1253226 90,65.3225806 L90,13.0645161 C90,12.2617742 89.351129,11.6129032 88.5483871,11.6129032 Z M69.6774194,10.1612903 C69.6774194,9.36 70.3277419,8.70967742 71.1290323,8.70967742 L79.8387097,8.70967742 C80.64,8.70967742 81.2903226,9.36 81.2903226,10.1612903 L81.2903226,11.6129032 L69.6774194,11.6129032 L69.6774194,10.1612903 Z M31.9354839,7.25806452 C31.9354839,4.85709677 33.8893548,2.90322581 36.2903226,2.90322581 L53.7096774,2.90322581 C56.1106452,2.90322581 58.0645161,4.85709677 58.0645161,7.25806452 L58.0645161,11.6129032 L55.1612903,11.6129032 L55.1612903,7.25806452 C55.1612903,6.45532258 54.5124194,5.80645161 53.7096774,5.80645161 L36.2903226,5.80645161 C35.4875806,5.80645161 34.8387097,6.45532258 34.8387097,7.25806452 L34.8387097,11.6129032 L31.9354839,11.6129032 L31.9354839,7.25806452 Z M52.2580645,11.6129032 L37.7419355,11.6129032 L37.7419355,8.70967742 L52.2580645,8.70967742 L52.2580645,11.6129032 Z M8.70967742,10.1612903 C8.70967742,9.36 9.36,8.70967742 10.1612903,8.70967742 L18.8709677,8.70967742 C19.6722581,8.70967742 20.3225806,9.36 20.3225806,10.1612903 L20.3225806,11.6129032 L8.70967742,11.6129032 L8.70967742,10.1612903 Z M79.1579032,83.4445161 C77.3027419,85.7656452 74.5345161,87.0967742 71.5630645,87.0967742 L70.695,87.0967742 C67.7235484,87.0967742 64.9553226,85.7656452 63.1001613,83.4445161 L63.0987097,83.4445161 C61.7240323,81.7287097 60.9677419,79.5701613 60.9677419,77.3695161 C60.9677419,74.5054839 61.7617742,71.703871 63.2612903,69.2637097 L71.1290323,56.4793548 L78.9967742,69.2622581 C80.4962903,71.703871 81.2903226,74.5054839 81.2903226,77.3695161 C81.2903226,79.5701613 80.5340323,81.7287097 79.1579032,83.4445161 Z M87.0967742,63.8709677 L79.0867742,63.8709677 L72.3643548,52.9490323 C71.8374194,52.0896774 70.4191935,52.0896774 69.8922581,52.9490323 L63.1712903,63.8709677 L2.90322581,63.8709677 L2.90322581,14.516129 L87.0967742,14.516129 L87.0967742,63.8709677 Z" id="Shape"></path>
                            <path d="M40.6451613,43.5483871 L40.6451613,47.9032258 C40.6451613,48.7059677 41.2940323,49.3548387 42.0967742,49.3548387 L47.9032258,49.3548387 C48.7059677,49.3548387 49.3548387,48.7059677 49.3548387,47.9032258 L49.3548387,43.5483871 L53.7096774,43.5483871 C54.5124194,43.5483871 55.1612903,42.8995161 55.1612903,42.0967742 L55.1612903,36.2903226 C55.1612903,35.4875806 54.5124194,34.8387097 53.7096774,34.8387097 L49.3548387,34.8387097 L49.3548387,30.483871 C49.3548387,29.681129 48.7059677,29.0322581 47.9032258,29.0322581 L42.0967742,29.0322581 C41.2940323,29.0322581 40.6451613,29.681129 40.6451613,30.483871 L40.6451613,34.8387097 L36.2903226,34.8387097 C35.4875806,34.8387097 34.8387097,35.4875806 34.8387097,36.2903226 L34.8387097,42.0967742 C34.8387097,42.8995161 35.4875806,43.5483871 36.2903226,43.5483871 L40.6451613,43.5483871 Z M37.7419355,37.7419355 L42.0967742,37.7419355 C42.8995161,37.7419355 43.5483871,37.0930645 43.5483871,36.2903226 L43.5483871,31.9354839 L46.4516129,31.9354839 L46.4516129,36.2903226 C46.4516129,37.0930645 47.1004839,37.7419355 47.9032258,37.7419355 L52.2580645,37.7419355 L52.2580645,40.6451613 L47.9032258,40.6451613 C47.1004839,40.6451613 46.4516129,41.2940323 46.4516129,42.0967742 L46.4516129,46.4516129 L43.5483871,46.4516129 L43.5483871,42.0967742 C43.5483871,41.2940323 42.8995161,40.6451613 42.0967742,40.6451613 L37.7419355,40.6451613 L37.7419355,37.7419355 Z" id="Shape"></path>
                            <path d="M45,55.1612903 C53.8040323,55.1612903 60.9677419,47.9975806 60.9677419,39.1935484 C60.9677419,30.3895161 53.8040323,23.2258065 45,23.2258065 C36.1959677,23.2258065 29.0322581,30.3895161 29.0322581,39.1935484 C29.0322581,47.9975806 36.1959677,55.1612903 45,55.1612903 Z M45,26.1290323 C52.2043548,26.1290323 58.0645161,31.9891935 58.0645161,39.1935484 C58.0645161,46.3979032 52.2043548,52.2580645 45,52.2580645 C37.7956452,52.2580645 31.9354839,46.3979032 31.9354839,39.1935484 C31.9354839,31.9891935 37.7956452,26.1290323 45,26.1290323 Z" id="Shape"></path>
                            <path d="M71.1290323,81.2903226 L71.1290323,84.1935484 C75.131129,84.1935484 78.3870968,80.9375806 78.3870968,76.9354839 L75.483871,76.9354839 C75.483871,79.3364516 73.53,81.2903226 71.1290323,81.2903226 Z" id="Path"></path>
                            <path d="M50.8064516,81.2903226 L45,81.2903226 C44.1987097,81.2903226 43.5483871,80.64 43.5483871,79.8387097 C43.5483871,77.4377419 41.5945161,75.483871 39.1935484,75.483871 L10.1612903,75.483871 C7.76032258,75.483871 5.80645161,77.4377419 5.80645161,79.8387097 C5.80645161,82.2396774 7.76032258,84.1935484 10.1612903,84.1935484 L15.9677419,84.1935484 C16.7690323,84.1935484 17.4193548,84.843871 17.4193548,85.6451613 C17.4193548,88.046129 19.3732258,90 21.7741935,90 L50.8064516,90 C53.2074194,90 55.1612903,88.046129 55.1612903,85.6451613 C55.1612903,83.2441935 53.2074194,81.2903226 50.8064516,81.2903226 Z M50.8064516,87.0967742 L21.7741935,87.0967742 C20.9729032,87.0967742 20.3225806,86.4464516 20.3225806,85.6451613 C20.3225806,83.2441935 18.3687097,81.2903226 15.9677419,81.2903226 L10.1612903,81.2903226 C9.36,81.2903226 8.70967742,80.64 8.70967742,79.8387097 C8.70967742,79.0374194 9.36,78.3870968 10.1612903,78.3870968 L39.1935484,78.3870968 C39.9948387,78.3870968 40.6451613,79.0374194 40.6451613,79.8387097 C40.6451613,82.2396774 42.5990323,84.1935484 45,84.1935484 L50.8064516,84.1935484 C51.6077419,84.1935484 52.2580645,84.843871 52.2580645,85.6451613 C52.2580645,86.4464516 51.6077419,87.0967742 50.8064516,87.0967742 Z" id="Shape"></path>
                            <polygon id="Path" points="15.9677419 69.6774194 39.1935484 69.6774194 39.1935484 72.5806452 15.9677419 72.5806452"></polygon>
                            <polygon id="Path" points="10.1612903 69.6774194 13.0645161 69.6774194 13.0645161 72.5806452 10.1612903 72.5806452"></polygon>
                        </g>
                    </g>
                </g>
            </g>
        </g>
    </g>
</svg>