<?xml version="1.0" encoding="UTF-8"?>
<svg width="90px" height="90px" viewBox="0 0 90 90" version="1.1" xmlns="http://www.w3.org/2000/svg" xmlns:xlink="http://www.w3.org/1999/xlink">
    <!-- Generator: Sketch 60.1 (88133) - https://sketch.com -->
    <title>ic_servicio</title>
    <desc>Created with Sketch.</desc>
    <g id="Page-1" stroke="none" stroke-width="1" fill="none" fill-rule="evenodd">
        <g id="06_Courier" transform="translate(-675.000000, -1779.000000)" fill="#B2B2B2">
            <g id="ic_servicio" transform="translate(675.000000, 1779.000000)">
                <path d="M88.5483871,0 L1.4516129,0 C0.648870968,0 0,0.650322581 0,1.4516129 L0,88.5483871 C0,89.3496774 0.648870968,90 1.4516129,90 L88.5483871,90 C89.351129,90 90,89.3496774 90,88.5483871 L90,1.4516129 C90,0.650322581 89.351129,0 88.5483871,0 Z M87.0967742,2.90322581 L87.0967742,23.2258065 L2.90322581,23.2258065 L2.90322581,2.90322581 L87.0967742,2.90322581 Z M2.90322581,87.0967742 L2.90322581,26.1290323 L87.0967742,26.1290323 L87.0967742,87.0967742 L2.90322581,87.0967742 Z" id="Shape"></path>
                <path d="M79.8387097,17.4193548 C82.2396774,17.4193548 84.1935484,15.4654839 84.1935484,13.0645161 C84.1935484,10.6635484 82.2396774,8.70967742 79.8387097,8.70967742 C77.4377419,8.70967742 75.483871,10.6635484 75.483871,13.0645161 C75.483871,15.4654839 77.4377419,17.4193548 79.8387097,17.4193548 Z M79.8387097,11.6129032 C80.64,11.6129032 81.2903226,12.2646774 81.2903226,13.0645161 C81.2903226,13.8643548 80.64,14.516129 79.8387097,14.516129 C79.0374194,14.516129 78.3870968,13.8643548 78.3870968,13.0645161 C78.3870968,12.2646774 79.0374194,11.6129032 79.8387097,11.6129032 Z" id="Shape"></path>
                <path d="M68.2258065,17.4193548 C70.6267742,17.4193548 72.5806452,15.4654839 72.5806452,13.0645161 C72.5806452,10.6635484 70.6267742,8.70967742 68.2258065,8.70967742 C65.8248387,8.70967742 63.8709677,10.6635484 63.8709677,13.0645161 C63.8709677,15.4654839 65.8248387,17.4193548 68.2258065,17.4193548 Z M68.2258065,11.6129032 C69.0270968,11.6129032 69.6774194,12.2646774 69.6774194,13.0645161 C69.6774194,13.8643548 69.0270968,14.516129 68.2258065,14.516129 C67.4245161,14.516129 66.7741935,13.8643548 66.7741935,13.0645161 C66.7741935,12.2646774 67.4245161,11.6129032 68.2258065,11.6129032 Z" id="Shape"></path>
                <path d="M56.6129032,17.4193548 C59.013871,17.4193548 60.9677419,15.4654839 60.9677419,13.0645161 C60.9677419,10.6635484 59.013871,8.70967742 56.6129032,8.70967742 C54.2119355,8.70967742 52.2580645,10.6635484 52.2580645,13.0645161 C52.2580645,15.4654839 54.2119355,17.4193548 56.6129032,17.4193548 Z M56.6129032,11.6129032 C57.4141935,11.6129032 58.0645161,12.2646774 58.0645161,13.0645161 C58.0645161,13.8643548 57.4141935,14.516129 56.6129032,14.516129 C55.8116129,14.516129 55.1612903,13.8643548 55.1612903,13.0645161 C55.1612903,12.2646774 55.8116129,11.6129032 56.6129032,11.6129032 Z" id="Shape"></path>
                <path d="M28.7506452,72.5806452 L21.7422581,40.3374194 C21.5956452,39.6696774 21.0062903,39.1935484 20.3225806,39.1935484 L8.70967742,39.1935484 L8.70967742,42.0967742 L19.1525806,42.0967742 L26.1609677,74.34 C26.3075806,75.0077419 26.8969355,75.483871 27.5806452,75.483871 L32.7425806,75.483871 C32.2432258,76.3417742 31.9354839,77.3245161 31.9354839,78.3870968 C31.9354839,81.5893548 34.5396774,84.1935484 37.7419355,84.1935484 C40.9441935,84.1935484 43.5483871,81.5893548 43.5483871,78.3870968 C43.5483871,77.3245161 43.2406452,76.3417742 42.7412903,75.483871 L54.5182258,75.483871 C54.0174194,76.3417742 53.7096774,77.3245161 53.7096774,78.3870968 C53.7096774,81.5893548 56.313871,84.1935484 59.516129,84.1935484 C62.7183871,84.1935484 65.3225806,81.5893548 65.3225806,78.3870968 C65.3225806,77.3245161 65.0148387,76.3417742 64.5154839,75.483871 L68.2258065,75.483871 L68.2258065,72.5806452 L28.7506452,72.5806452 Z M40.6451613,78.3870968 C40.6451613,79.9882258 39.3430645,81.2903226 37.7419355,81.2903226 C36.1408065,81.2903226 34.8387097,79.9882258 34.8387097,78.3870968 C34.8387097,76.7859677 36.1408065,75.483871 37.7419355,75.483871 C39.3430645,75.483871 40.6451613,76.7859677 40.6451613,78.3870968 Z M62.4193548,78.3870968 C62.4193548,79.9882258 61.1172581,81.2903226 59.516129,81.2903226 C57.915,81.2903226 56.6129032,79.9882258 56.6129032,78.3870968 C56.6129032,76.7859677 57.915,75.483871 59.516129,75.483871 C61.1172581,75.483871 62.4193548,76.7859677 62.4193548,78.3870968 Z" id="Shape"></path>
                <path d="M66.7741935,29.0322581 C61.1724194,29.0322581 56.6129032,33.5903226 56.6129032,39.1935484 C56.6129032,39.6870968 56.6608065,40.1690323 56.7290323,40.6451613 L26.1290323,40.6451613 C25.6877419,40.6451613 25.2725806,40.8454839 24.9967742,41.1895161 C24.7224194,41.5320968 24.6164516,41.9820968 24.7122581,42.4117742 L30.5187097,68.5408065 C30.6667742,69.2041935 31.2546774,69.6774194 31.9354839,69.6774194 L63.8709677,69.6774194 C64.5517742,69.6774194 65.1396774,69.2041935 65.2891935,68.5408065 L69.6469355,48.9353226 C73.8537097,47.6927419 76.9354839,43.7980645 76.9354839,39.1935484 C76.9354839,33.5903226 72.3759677,29.0322581 66.7741935,29.0322581 Z M50.8064516,43.5483871 L50.8064516,66.7741935 L45,66.7741935 L45,43.5483871 L50.8064516,43.5483871 Z M27.9391935,43.5483871 L42.0967742,43.5483871 L42.0967742,66.7741935 L33.0996774,66.7741935 L27.9391935,43.5483871 Z M62.7067742,66.7741935 L53.7096774,66.7741935 L53.7096774,43.5483871 L57.6072581,43.5483871 C59.2156452,46.9190323 62.6196774,49.2691935 66.5796774,49.3446774 L62.7067742,66.7741935 Z M66.7741935,46.4516129 C62.7720968,46.4516129 59.516129,43.1956452 59.516129,39.1935484 C59.516129,35.1914516 62.7720968,31.9354839 66.7741935,31.9354839 C70.7762903,31.9354839 74.0322581,35.1914516 74.0322581,39.1935484 C74.0322581,43.1956452 70.7762903,46.4516129 66.7741935,46.4516129 Z" id="Shape"></path>
                <polygon id="Path" points="68.2258065 34.8387097 65.3225806 34.8387097 65.3225806 37.7419355 62.4193548 37.7419355 62.4193548 40.6451613 65.3225806 40.6451613 65.3225806 43.5483871 68.2258065 43.5483871 68.2258065 40.6451613 71.1290323 40.6451613 71.1290323 37.7419355 68.2258065 37.7419355"></polygon>
            </g>
        </g>
    </g>
</svg>