<?xml version="1.0" encoding="UTF-8"?>
<svg width="71px" height="95px" viewBox="0 0 71 95" version="1.1" xmlns="http://www.w3.org/2000/svg" xmlns:xlink="http://www.w3.org/1999/xlink">
    <!-- Generator: Sketch 60.1 (88133) - https://sketch.com -->
    <title>ic_transparencia</title>
    <desc>Created with Sketch.</desc>
    <g id="Page-1" stroke="none" stroke-width="1" fill="none" fill-rule="evenodd">
        <g id="04_Aereo" transform="translate(-1075.000000, -2121.000000)" fill="#B2B2B2">
            <g id="ic_transparencia" transform="translate(1075.000000, 2121.000000)">
                <path d="M61.9675806,53.6581452 L41.3709677,49.3218548 L41.3709677,44.5120968 C45.9033871,42.2504839 49.0322581,37.5770968 49.0322581,32.1774194 C51.5666129,32.1774194 53.6290323,30.115 53.6290323,27.5806452 C53.6290323,25.0462903 51.5666129,22.983871 49.0322581,22.983871 L49.0322581,21.3259677 C50.7866935,20.8969355 52.0967742,19.3233065 52.0967742,17.438629 C52.0967742,16.8195968 51.9496774,16.1990323 51.673871,15.6443548 L50.5645161,13.4287097 L50.5645161,7.66129032 C50.5645161,3.43685484 47.1276613,0 42.9032258,0 L27.5806452,0 C23.3562097,0 19.9193548,3.43685484 19.9193548,7.66129032 L19.9193548,13.4287097 L18.81,15.6458871 C18.5341935,16.2005645 18.3870968,16.821129 18.3870968,17.4401613 C18.3870968,19.3248387 19.6971774,20.8984677 21.4516129,21.3275 L21.4516129,22.983871 C18.9172581,22.983871 16.8548387,25.0462903 16.8548387,27.5806452 C16.8548387,30.115 18.9172581,32.1774194 21.4516129,32.1774194 C21.4516129,37.578629 24.5804839,42.2504839 29.1129032,44.5120968 L29.1129032,49.3203226 L8.51629032,53.6566129 C3.5808871,54.6954839 0,59.1099194 0,64.1525806 L0,93.4677419 C0,94.3135484 0.686451613,95 1.53225806,95 L68.9516129,95 C69.7974194,95 70.483871,94.3135484 70.483871,93.4677419 L70.483871,64.1525806 C70.483871,59.1099194 66.9029839,54.6954839 61.9675806,53.6581452 Z M58.2258065,91.9354839 L12.2580645,91.9354839 L12.2580645,70.483871 L29.1129032,70.483871 L29.1129032,81.2096774 C29.1129032,82.0554839 29.7993548,82.7419355 30.6451613,82.7419355 L39.8387097,82.7419355 C40.6845161,82.7419355 41.3709677,82.0554839 41.3709677,81.2096774 L41.3709677,70.483871 L58.2258065,70.483871 L58.2258065,91.9354839 Z M30.1487097,52.2346774 L33.2193548,55.3053226 L30.5823387,58.8203226 L25.8491935,53.1402419 L30.1487097,52.2346774 Z M40.3351613,52.2346774 L44.6362097,53.1402419 L39.9030645,58.8203226 L37.2660484,55.3053226 L40.3351613,52.2346774 Z M22.983871,67.4193548 L22.983871,54.4901613 L29.4683871,62.2709677 C29.7671774,62.6310484 30.216129,62.8654839 30.6834677,62.8210484 C31.1523387,62.8087903 31.5890323,62.5835484 31.8694355,62.2096774 L35.2404032,57.7140323 L38.611371,62.2096774 C38.8917742,62.5850806 39.33,62.8103226 39.7973387,62.8210484 L39.8356452,62.8210484 C40.2891935,62.8210484 40.7212903,62.6203226 41.0124194,62.2694355 L47.5,54.4901613 L47.5,67.4193548 L22.983871,67.4193548 Z M32.1774194,70.483871 L38.3064516,70.483871 L38.3064516,79.6774194 L32.1774194,79.6774194 L32.1774194,70.483871 Z M19.9193548,67.4193548 L16.8548387,67.4193548 L16.8548387,55.0341129 L19.9193548,54.3890323 L19.9193548,67.4193548 Z M50.5645161,67.4193548 L50.5645161,54.3890323 L53.6290323,55.0341129 L53.6290323,67.4193548 L50.5645161,67.4193548 Z M50.5645161,27.5806452 C50.5645161,28.4249194 49.8765323,29.1129032 49.0322581,29.1129032 L49.0322581,26.0483871 C49.8765323,26.0483871 50.5645161,26.736371 50.5645161,27.5806452 Z M48.0853226,18.3870968 L47.5,18.3870968 L22.983871,18.3870968 L22.3985484,18.3870968 C21.8760484,18.3870968 21.4516129,17.9626613 21.4516129,17.4401613 C21.4516129,17.2945968 21.4853226,17.1475 21.5512097,17.0172581 L22.3985484,15.3225806 L48.0853226,15.3225806 L48.9326613,17.0157258 C48.9985484,17.1475 49.0322581,17.2945968 49.0322581,17.4401613 C49.0322581,17.9626613 48.6078226,18.3870968 48.0853226,18.3870968 Z M41.3709677,12.2580645 L29.1129032,12.2580645 L29.1129032,10.7258065 C29.1129032,9.88153226 29.8008871,9.19354839 30.6451613,9.19354839 L39.8387097,9.19354839 C40.6829839,9.19354839 41.3709677,9.88153226 41.3709677,10.7258065 L41.3709677,12.2580645 Z M27.5806452,3.06451613 L42.9032258,3.06451613 C45.4375806,3.06451613 47.5,5.12693548 47.5,7.66129032 L47.5,12.2580645 L44.4354839,12.2580645 L44.4354839,10.7258065 C44.4354839,8.19145161 42.3730645,6.12903226 39.8387097,6.12903226 L30.6451613,6.12903226 C28.1108065,6.12903226 26.0483871,8.19145161 26.0483871,10.7258065 L26.0483871,12.2580645 L22.983871,12.2580645 L22.983871,7.66129032 C22.983871,5.12693548 25.0462903,3.06451613 27.5806452,3.06451613 Z M19.9193548,27.5806452 C19.9193548,26.736371 20.6073387,26.0483871 21.4516129,26.0483871 L21.4516129,29.1129032 C20.6073387,29.1129032 19.9193548,28.4249194 19.9193548,27.5806452 Z M24.516129,32.1774194 L24.516129,21.4516129 L45.9677419,21.4516129 L45.9677419,32.1774194 C45.9677419,38.0919355 41.1564516,42.9032258 35.2419355,42.9032258 C29.3274194,42.9032258 24.516129,38.0919355 24.516129,32.1774194 Z M35.2419355,45.9677419 C36.296129,45.9677419 37.3196774,45.8375 38.3064516,45.6122581 L38.3064516,49.9301613 L35.2419355,52.9946774 L32.1774194,49.9301613 L32.1774194,45.6122581 C33.1641935,45.8375 34.1877419,45.9677419 35.2419355,45.9677419 L35.2419355,45.9677419 Z M3.06451613,64.1525806 C3.06451613,60.5502419 5.6233871,57.3983871 9.14758065,56.6552419 L13.7903226,55.6791935 L13.7903226,67.4193548 L10.7258065,67.4193548 C9.88,67.4193548 9.19354839,68.1058065 9.19354839,68.9516129 L9.19354839,91.9354839 L3.06451613,91.9354839 L3.06451613,64.1525806 Z M67.4193548,91.9354839 L61.2903226,91.9354839 L61.2903226,68.9516129 C61.2903226,68.1058065 60.603871,67.4193548 59.7580645,67.4193548 L56.6935484,67.4193548 L56.6935484,55.6791935 L61.3362903,56.6567742 C64.8604839,57.3983871 67.4193548,60.5517742 67.4193548,64.1541129 L67.4193548,91.9354839 Z" id="Shape"></path>
                <polygon id="Path" points="18.3870968 87.3387097 27.5806452 87.3387097 27.5806452 90.4032258 18.3870968 90.4032258"></polygon>
                <polygon id="Path" points="42.9032258 87.3387097 52.0967742 87.3387097 52.0967742 90.4032258 42.9032258 90.4032258"></polygon>
            </g>
        </g>
    </g>
</svg>