<?xml version="1.0" encoding="UTF-8"?>
<svg width="100px" height="100px" viewBox="0 0 100 100" version="1.1" xmlns="http://www.w3.org/2000/svg" xmlns:xlink="http://www.w3.org/1999/xlink">
    <!-- Generator: Sketch 60.1 (88133) - https://sketch.com -->
    <title>tarifas</title>
    <desc>Created with Sketch.</desc>
    <g id="Page-1" stroke="none" stroke-width="1" fill="none" fill-rule="evenodd">
        <g id="02_Maritimo" transform="translate(-300.000000, -1441.000000)" fill="#B2B2B2">
            <g id="Group-17" transform="translate(171.000000, 1441.000000)">
                <g id="tarifas" transform="translate(129.000000, 0.000000)">
                    <g id="mission">
                        <path d="M50,0 C22.4290323,0 0,22.4290323 0,50 C0,77.5709677 22.4290323,100 50,100 C77.5709677,100 100,77.5709677 100,50 C100,22.4290323 77.5709677,0 50,0 Z M50,96.7741935 C24.2096774,96.7741935 3.22580645,75.7903226 3.22580645,50 C3.22580645,24.2096774 24.2096774,3.22580645 50,3.22580645 C75.7903226,3.22580645 96.7741935,24.2096774 96.7741935,50 C96.7741935,75.7903226 75.7903226,96.7741935 50,96.7741935 Z" id="Shape"></path>
                        <path d="M93.5483871,48.3870968 L90.2822581,48.3870968 C89.4516129,27.4354839 72.5645161,10.5483871 51.6129032,9.71774194 L51.6129032,6.4516129 L48.3870968,6.4516129 L48.3870968,9.71774194 C27.4354839,10.5483871 10.5483871,27.4354839 9.71774194,48.3870968 L6.4516129,48.3870968 L6.4516129,51.6129032 L9.71774194,51.6129032 C10.5483871,72.5645161 27.4354839,89.4516129 48.3870968,90.2822581 L48.3870968,93.5483871 L51.6129032,93.5483871 L51.6129032,90.2822581 C72.5645161,89.4516129 89.4516129,72.5645161 90.2822581,51.6129032 L93.5483871,51.6129032 L93.5483871,48.3870968 Z M51.6129032,87.0564516 L51.6129032,83.8709677 L48.3870968,83.8709677 L48.3870968,87.0564516 C29.2129032,86.2306452 13.7693548,70.7870968 12.9435484,51.6129032 L16.1290323,51.6129032 L16.1290323,48.3870968 L12.9435484,48.3870968 C13.7693548,29.2129032 29.2129032,13.7693548 48.3870968,12.9435484 L48.3870968,16.1290323 L51.6129032,16.1290323 L51.6129032,12.9435484 C70.7870968,13.7693548 86.2306452,29.2129032 87.0564516,48.3870968 L83.8709677,48.3870968 L83.8709677,51.6129032 L87.0564516,51.6129032 C86.2306452,70.7870968 70.7870968,86.2306452 51.6129032,87.0564516 Z" id="Shape"></path>
                        <path d="M50,29.0322581 C38.4387097,29.0322581 29.0322581,38.4387097 29.0322581,50 C29.0322581,61.5612903 38.4387097,70.9677419 50,70.9677419 C61.5612903,70.9677419 70.9677419,61.5612903 70.9677419,50 C70.9677419,38.4387097 61.5612903,29.0322581 50,29.0322581 Z M50,67.7419355 C40.2177419,67.7419355 32.2580645,59.7822581 32.2580645,50 C32.2580645,40.2177419 40.2177419,32.2580645 50,32.2580645 C59.7822581,32.2580645 67.7419355,40.2177419 67.7419355,50 C67.7419355,59.7822581 59.7822581,67.7419355 50,67.7419355 Z" id="Shape"></path>
                        <path d="M51.6129032,40.3225806 C51.6129032,39.6709677 51.2209677,39.0806452 50.6177419,38.8322581 C50.0129032,38.5806452 49.3209677,38.7193548 48.8596774,39.1822581 L42.4080645,45.633871 L44.6887097,47.9145161 L48.3870968,44.216129 L48.3870968,58.0645161 L43.5483871,58.0645161 L43.5483871,61.2903226 L56.4516129,61.2903226 L56.4516129,58.0645161 L51.6129032,58.0645161 L51.6129032,40.3225806 Z" id="Path"></path>
                    </g>
                </g>
            </g>
        </g>
    </g>
</svg>