<?xml version="1.0" encoding="UTF-8"?>
<svg width="90px" height="90px" viewBox="0 0 90 90" version="1.1" xmlns="http://www.w3.org/2000/svg" xmlns:xlink="http://www.w3.org/1999/xlink">
    <!-- Generator: Sketch 60.1 (88133) - https://sketch.com -->
    <title>ic_world</title>
    <desc>Created with Sketch.</desc>
    <g id="Page-1" stroke="none" stroke-width="1" fill="none" fill-rule="evenodd">
        <g id="06_Courier" transform="translate(-297.000000, -1473.000000)" fill="#B2B2B2">
            <g id="ic_world" transform="translate(297.000000, 1473.000000)">
                <path d="M44.9317048,0.00935502905 C26.9597713,0.00673596674 10.7171102,10.7193555 3.64340956,27.2406237 L3.08357588,27.426237 L3.3006237,28.0773805 C-6.01297297,51.0481497 5.05814969,77.2198129 28.0289189,86.5334096 C33.3939293,88.7087526 39.1290437,89.8254262 44.91842,89.8222521 C69.719501,89.8259875 89.8278586,69.7236175 89.8316008,44.9225364 C89.835343,20.1214553 69.732973,0.0129106029 44.9317048,0.00935502905 Z M80.1557588,67.5568815 L77.8498129,65.2524324 L77.8498129,59.8846154 C77.8524324,59.652973 77.8011642,59.4239501 77.7001247,59.2155094 L71.8622869,47.5562994 L71.8622869,41.9220374 C71.8622869,41.4217048 71.6124948,40.9543035 71.1961746,40.676632 L66.7055301,37.682869 C66.3535759,37.4478586 65.9185447,37.3728274 65.5080249,37.4762994 L60.0084823,38.8504366 L50.7712266,34.8866944 L49.5003742,25.9832432 L53.0225364,22.462578 L60.5832848,22.462578 L63.1279834,26.2871102 C63.3577547,26.6310187 63.7198129,26.8647193 64.1279002,26.9322661 L73.1091892,28.4291476 C73.3498129,28.4695634 73.5964241,28.4499168 73.8276923,28.3722661 L82.0994595,25.6150104 C89.0373181,38.9288358 88.2952391,54.9419127 80.1557588,67.5568815 Z M73.9818711,14.7596258 L71.5479418,16.3822453 L64.762578,15.0245738 L60.3602495,13.5591268 C60.0908108,13.4676299 59.80079,13.4560291 59.5249896,13.5261954 L53.9595842,14.9167983 L51.5196674,14.1039917 L53.3279002,10.487526 L58.3903534,10.487526 C58.6225572,10.4877131 58.85158,10.4340125 59.0594595,10.3303534 L64.2386694,7.74074844 C67.8053638,9.6024948 71.0865281,11.9660707 73.9818711,14.7596258 Z M28.5230769,6.34565489 L32.1155925,8.74066528 C32.2922245,8.85817048 32.491684,8.93675676 32.7008732,8.97118503 L39.9547609,10.1806653 L39.246736,12.2987526 L35.4671102,13.5606237 C35.1286279,13.673264 34.8414137,13.9030353 34.6572973,14.2087734 L30.3582536,21.3728482 L23.4531393,25.5162162 L13.2743451,26.9696881 C12.5365696,27.0739085 11.9879626,27.7050312 11.987027,28.450104 L11.987027,32.9407484 C11.987027,33.3377963 12.144948,33.7183784 12.4256133,33.9990437 L14.98079,36.5542204 L14.98079,39.1258628 L8.75376299,34.9735135 L6.49496881,28.197131 C10.7925156,18.3775884 18.6692931,10.5638669 28.5230769,6.34565489 Z M24.2614553,55.4239085 L17.4955509,54.0692308 L14.98079,49.0531809 L14.98079,45.5355094 L20.5581705,39.9581289 L22.6223701,44.0880249 C22.8759044,44.5954678 23.3947609,44.9159875 23.962079,44.9158004 L33.5930146,44.9158004 L37.6480665,51.6742204 C37.9186279,52.1245946 38.4054886,52.4000208 38.930894,52.4002079 L43.0922245,52.4002079 L42.0444075,57.6497713 L36.3772141,63.3169647 C36.0959875,63.5974428 35.9376923,63.9780249 35.937131,64.3752599 L35.937131,68.1174636 L30.5483576,72.1590437 C30.1715177,72.4417672 29.949605,72.8854054 29.949605,73.3565489 L29.949605,78.7632848 L28.0874844,78.1465696 L25.4589605,71.5722661 L25.4589605,56.8908524 C25.4591476,56.1794595 24.9584407,55.5661123 24.2614553,55.4239085 Z M19.7618295,78.4349064 C5.64829522,67.8465281 -0.32033264,49.5516424 4.83343035,32.6772973 L6.07733888,36.407526 C6.18212058,36.7231809 6.38906445,36.995052 6.66561331,37.1799168 L14.1275676,42.1540541 L12.4256133,43.8575052 C12.144948,44.1381705 11.987027,44.5187526 11.987027,44.9158004 L11.987027,49.4064449 C11.9868399,49.6386486 12.0405405,49.8676715 12.1441996,50.0755509 L15.1379626,56.0630769 C15.3452807,56.4765904 15.7320374,56.7711019 16.1857796,56.8609148 L22.4726819,58.1167983 L22.4726819,71.8596674 C22.4724948,72.0497713 22.5086071,72.2383784 22.5789605,72.4150104 L25.5727235,79.8994179 C25.736632,80.3082536 26.0723077,80.6242827 26.4903119,80.7631185 L30.9809563,82.26 C31.1310187,82.310894 31.2881913,82.3370894 31.4464865,82.3378378 C32.2731393,82.3378378 32.943368,81.6676091 32.943368,80.8409563 L32.943368,74.1049896 L38.3321414,70.0634096 C38.7089813,69.7806861 38.930894,69.3370478 38.930894,68.8659044 L38.930894,64.9949688 L44.4798337,59.4460291 C44.6884615,59.237027 44.8306653,58.9707692 44.8884823,58.6811227 L46.3853638,51.1967152 C46.5474012,50.3859667 46.0216216,49.5974844 45.2108732,49.435447 C45.1145114,49.4161746 45.0166528,49.4064449 44.91842,49.4064449 L39.7781289,49.4064449 L35.7230769,42.6480249 C35.4525156,42.1976507 34.9656549,41.9222245 34.4402495,41.9220374 L24.8871518,41.9220374 L22.3155094,36.7622869 C22.1001455,36.3315593 21.6907484,36.0306861 21.2153015,35.9539709 C20.7400416,35.8718295 20.2548649,36.0286279 19.9175052,36.3730977 L17.974553,38.3085655 L17.974553,35.9345114 C17.974553,35.5374636 17.816632,35.1568815 17.5359667,34.8762162 L14.98079,32.3210395 L14.98079,29.7479002 L24.1746362,28.4351351 C24.3720374,28.4065073 24.5619543,28.3387734 24.732973,28.2360499 L32.2173805,23.7454054 C32.4273181,23.6192931 32.6032017,23.4434096 32.7293139,23.2334719 L36.9355509,16.2235759 L40.90079,14.9003326 C41.3485447,14.7534511 41.6999376,14.4022453 41.8468191,13.9543035 L43.3437006,9.46365904 C43.6030353,8.67873181 43.1769854,7.83205821 42.3920582,7.57272349 C42.3196466,7.54877339 42.2453638,7.53043659 42.1701455,7.5177131 L33.5061954,6.07322245 L31.9838669,5.0583368 C41.4035551,1.99234927 51.6059252,2.37180873 60.7718919,6.12860707 L58.0370894,7.49376299 L52.4028274,7.49376299 C51.8327027,7.49058212 51.3104782,7.8116632 51.0556341,8.32153846 L48.0618711,14.3090644 C47.6930769,15.0488981 47.993763,15.9477755 48.7335967,16.3165696 C48.7966528,16.3480042 48.8617672,16.374948 48.9285655,16.3972141 L53.41921,17.8940956 C53.6886486,17.9855925 53.9786694,17.9971933 54.2544699,17.927027 L59.8198753,16.5364241 L63.8973805,17.8940956 C63.9557588,17.915052 64.0158212,17.9311435 64.0770062,17.9419958 L71.5614137,19.4388773 C71.9506029,19.5182121 72.3555094,19.4385031 72.6855717,19.2173389 L76.092474,16.9450728 C77.7691684,18.8126195 79.2759667,20.8259252 80.5950936,22.9610395 L73.2304366,25.4159252 L65.2565489,24.0866944 L62.6220374,20.1349272 C62.3458628,19.7208524 61.8818295,19.4712474 61.3841164,19.468815 L52.4028274,19.468815 C52.0057796,19.468815 51.6251975,19.626736 51.3445322,19.9074012 L46.8538877,24.3980457 C46.5204574,24.731289 46.3634719,25.2022453 46.4302703,25.6688981 L47.9271518,36.1470686 C48.0025572,36.6651767 48.3430977,37.1061954 48.8252807,37.3101455 L59.3034511,41.80079 C59.6035759,41.9308316 59.9385031,41.9575884 60.2554678,41.877131 L65.6008316,40.5404158 L68.8685239,42.722869 L68.8685239,47.9095634 C68.8659044,48.1412058 68.9171726,48.3702287 69.0182121,48.5786694 L74.8560499,60.2378794 L74.8560499,65.8721414 C74.8560499,66.2691892 75.0139709,66.6497713 75.2946362,66.9304366 L78.4261123,70.0634096 C64.5382328,88.5747817 38.2732017,92.322973 19.7618295,78.4349064 Z" id="Shape"></path>
            </g>
        </g>
    </g>
</svg>