<?xml version="1.0" encoding="UTF-8"?>
<svg width="16px" height="17px" viewBox="0 0 16 17" version="1.1" xmlns="http://www.w3.org/2000/svg" xmlns:xlink="http://www.w3.org/1999/xlink">
    <!-- Generator: Sketch 60.1 (88133) - https://sketch.com -->
    <title>phone-call</title>
    <desc>Created with Sketch.</desc>
    <g id="Page-1" stroke="none" stroke-width="1" fill="none" fill-rule="evenodd">
        <g id="01_Freightol" transform="translate(-100.000000, -4376.000000)" fill="#01044B">
            <g id="Group-42" transform="translate(0.000000, 4175.000000)">
                <g id="Group-21" transform="translate(99.000000, 54.000000)">
                    <g id="Group-41" transform="translate(0.000000, 141.000000)">
                        <g id="Group-32" transform="translate(1.000000, 0.000000)">
                            <g id="phone-call" transform="translate(0.000000, 6.500000)">
                                <path d="M12.744,15.8565333 C12.0842667,15.8565333 11.2874667,15.6912 10.4112,15.3605333 C8.49013333,14.6362667 6.4,13.2048 4.52586667,11.3306667 C2.6512,9.456 1.21973333,7.36533333 0.494933333,5.44426667 C-0.163733333,3.6976 -0.165333333,2.264 0.4912,1.608 C0.5856,1.5136 0.6816,1.41226667 0.7808,1.30773333 C1.37973333,0.677866667 2.05653333,-0.0309333333 2.9536,0.00106666667 C3.57173333,0.0266666667 4.17066667,0.410666667 4.784,1.17386667 C6.59626667,3.42773333 5.7792,4.23093333 4.8336,5.16213333 L4.66666667,5.32746667 C4.512,5.48213333 4.21973333,6.1984 6.93866667,8.91733333 C7.82613333,9.8048 8.58293333,10.4544 9.18773333,10.8474667 C9.56853333,11.0949333 10.2496,11.4693333 10.5290667,11.1898667 L10.6970667,11.0202667 C11.6272,10.0768 12.4304,9.2624 14.6826667,11.0730667 C15.4458667,11.6864 15.8293333,12.2848 15.8549333,12.904 C15.8917333,13.8005333 15.1776,14.4789333 14.5472,15.0773333 C14.4432,15.1765333 14.3418667,15.2725333 14.2474667,15.3664 C13.9216,15.6928 13.4005333,15.8565333 12.744,15.8565333 Z" id="Shape"></path>
                            </g>
                        </g>
                    </g>
                </g>
            </g>
        </g>
    </g>
</svg>