<?xml version="1.0" encoding="UTF-8"?>
<svg width="31px" height="25px" viewBox="0 0 31 25" version="1.1" xmlns="http://www.w3.org/2000/svg" xmlns:xlink="http://www.w3.org/1999/xlink">
    <!-- Generator: Sketch 60.1 (88133) - https://sketch.com -->
    <title>twitter</title>
    <desc>Created with Sketch.</desc>
    <g id="Page-1" stroke="none" stroke-width="1" fill="none" fill-rule="evenodd">
        <g id="10_Blog_open" transform="translate(-705.000000, -1852.000000)" fill="#06CCFF">
            <g id="Group-7" transform="translate(642.000000, 1852.000000)">
                <path d="M93.2631579,2.95944166 C92.1299167,3.46975656 90.9278969,3.80472645 89.6970703,3.95321227 C90.979117,3.17213501 91.9634971,1.93526912 92.4270199,0.461556579 C91.2082806,1.19671288 89.874874,1.7146773 88.4844161,1.99306884 C87.3517938,0.766537208 85.738271,0 83.95239,0 C80.5234324,0 77.7433594,2.82581737 77.7433594,6.31110428 C77.7433594,6.8058266 77.7983296,7.28745085 77.9041324,7.74948809 C72.7440275,7.48620497 68.1690892,4.97365967 65.1067177,1.15527335 C64.5723838,2.08739894 64.2662058,3.17165435 64.2662058,4.32812936 C64.2662058,6.51778934 65.3624178,8.44945349 67.02831,9.58129452 C66.0423331,9.54990572 65.0780491,9.27920946 64.2159642,8.79180566 C64.2156096,8.81824212 64.2156096,8.84467858 64.2156096,8.87123521 C64.2156096,11.9290926 66.3557823,14.4799708 69.1960269,15.0597704 C68.2817331,15.312527 67.322701,15.3495186 66.3921926,15.1679196 C67.1822266,17.6752978 69.4752519,19.4998943 72.1920796,19.5509647 C70.0671567,21.2436192 67.3899311,22.2526509 64.4811215,22.2526509 C63.979888,22.2526509 63.4857473,22.2227296 63,22.1644492 C65.7476819,23.955159 69.0112562,25 72.5175267,25 C83.9379677,25 90.1829359,15.3830163 90.1829359,7.04303375 C90.1829359,6.76929621 90.1770251,6.49712083 90.1649671,6.2265076 C91.3804959,5.33329715 92.4296391,4.22696761 93.2631579,2.95944166" id="twitter"></path>
            </g>
        </g>
    </g>
</svg>