<?xml version="1.0" encoding="UTF-8"?>
<svg width="93px" height="82px" viewBox="0 0 93 82" version="1.1" xmlns="http://www.w3.org/2000/svg" xmlns:xlink="http://www.w3.org/1999/xlink">
    <!-- Generator: Sketch 60.1 (88133) - https://sketch.com -->
    <title>Optimización</title>
    <desc>Created with Sketch.</desc>
    <g id="Page-1" stroke="none" stroke-width="1" fill="none" fill-rule="evenodd" stroke-linecap="square">
        <g id="01_Freightol" transform="translate(-706.000000, -3267.000000)" stroke="#06CCFF" stroke-width="2">
            <g id="Group-45" transform="translate(-11.000000, 3217.000000)">
                <g id="Group-20" transform="translate(718.000000, 51.000000)">
                    <g id="Optimización">
                        <circle id="Oval" cx="45.4368932" cy="40" r="40"></circle>
                        <path d="M45.4368932,65.2427184 C59.3780616,65.2427184 70.6796117,53.9411684 70.6796117,40 C70.6796117,26.0588316 59.3780616,14.7572816 45.4368932,14.7572816 C31.4957248,14.7572816 20.1941748,26.0588316 20.1941748,40 C20.1941748,53.9411684 31.4957248,65.2427184 45.4368932,65.2427184 Z" id="Oval" fill="#CDF5FF" stroke-dasharray="5,4" transform="translate(45.436893, 40.000000) rotate(-30.000000) translate(-45.436893, -40.000000) "></path>
                        <circle id="Oval" cx="45.4368932" cy="40" r="2.7184466"></circle>
                        <line x1="47.7669903" y1="15.1456311" x2="43.1067961" y2="10.4854369" id="Line-5"></line>
                        <line x1="47.7669903" y1="15.1456311" x2="43.1067961" y2="19.8058252" id="Line-5"></line>
                        <line x1="47.7669903" y1="69.5145631" x2="43.1067961" y2="64.8543689" id="Line-5" transform="translate(45.436893, 67.184466) rotate(-180.000000) translate(-45.436893, -67.184466) "></line>
                        <line x1="47.7669903" y1="60.1941748" x2="43.1067961" y2="64.8543689" id="Line-5" transform="translate(45.436893, 62.524272) rotate(-180.000000) translate(-45.436893, -62.524272) "></line>
                        <line x1="9.70873786" y1="43.1067961" x2="5.04854369" y2="38.4466019" id="Line-5" transform="translate(7.378641, 40.776699) rotate(-270.000000) translate(-7.378641, -40.776699) "></line>
                        <line x1="5.04854369" y1="38.4466019" x2="0.388349515" y2="43.1067961" id="Line-5" transform="translate(2.718447, 40.776699) rotate(-270.000000) translate(-2.718447, -40.776699) "></line>
                        <line x1="85.0485437" y1="43.1067961" x2="80.3883495" y2="38.4466019" id="Line-5" transform="translate(82.718447, 40.776699) rotate(-90.000000) translate(-82.718447, -40.776699) "></line>
                        <line x1="89.7087379" y1="38.4466019" x2="85.0485437" y2="43.1067961" id="Line-5" transform="translate(87.378641, 40.776699) rotate(-90.000000) translate(-87.378641, -40.776699) "></line>
                    </g>
                </g>
            </g>
        </g>
    </g>
</svg>