<?xml version="1.0" encoding="UTF-8"?>
<svg width="241px" height="31px" viewBox="0 0 241 31" version="1.1" xmlns="http://www.w3.org/2000/svg" xmlns:xlink="http://www.w3.org/1999/xlink">
    <!-- Generator: Sketch 60.1 (88133) - https://sketch.com -->
    <title>logo</title>
    <desc>Created with Sketch.</desc>
    <g id="Mi-Chollo-App" stroke="none" stroke-width="1" fill="none" fill-rule="evenodd">
        <g id="logo" transform="translate(0.000000, -1.000000)" fill-rule="nonzero">
            <g id="Group-16" transform="translate(0.000000, 0.244400)">
                <g id="Group-3" transform="translate(10.000000, 11.000000)" fill="#FFFFFF">
                    <g id="Fill-1-Clipped">
                        <path d="M9.2496,8.9823 C8.5966,9.6353 7.8126,10.0723 6.9806,10.3033 C6.1346,10.5343 5.2436,10.5483 4.3956,10.3373 C3.5246,10.1233 2.7036,9.6753 2.0236,8.9963 C1.3106,8.2833 0.8536,7.4063 0.6526,6.4893 C0.6526,6.4893 0.6496,6.4863 0.6526,6.4833 C0.4936,5.7403 0.4986,4.9633 0.6736,4.2263 C0.8846,3.3283 1.3386,2.4753 2.0406,1.7733 C2.6936,1.1203 3.4776,0.6833 4.3096,0.4523 C5.1846,0.2113 6.1116,0.2063 6.9896,0.4403 C6.9896,0.4403 6.9926,0.4433 6.9956,0.4403 C7.8276,0.6623 8.6156,1.1023 9.2706,1.7563 C9.8946,2.3803 10.3216,3.1293 10.5536,3.9193 C10.8356,4.8783 10.8276,5.9073 10.5346,6.8673 C10.2906,7.6403 9.8636,8.3693 9.2496,8.9823" id="Fill-1"></path>
                    </g>
                </g>
                <g id="Group-6" transform="translate(5.000000, 0.000000)" fill="#000E6F">
                    <g id="Fill-4-Clipped">
                        <path d="M9.3991,21.3348 C8.3941,21.2218 7.4011,20.9578 6.4621,20.5438 C5.3401,20.0518 4.2901,19.3498 3.3681,18.4278 C2.7631,17.8218 2.2501,17.1588 1.8291,16.4548 C0.1141,13.5858 -0.0689,10.0548 1.2861,7.0448 C1.7801,5.9378 2.4831,4.9008 3.3921,3.9918 C7.3891,-0.0052 13.8491,-0.0182 17.8281,3.9608 C18.7461,4.8798 19.4521,5.9328 19.9441,7.0558 C16.9851,5.7508 13.5291,5.9318 10.6931,7.5848 C9.9451,8.0178 9.2401,8.5598 8.6001,9.1998 C7.6911,10.1088 6.9881,11.1458 6.4951,12.2538 C6.0671,13.2038 5.7961,14.2068 5.6731,15.2268 C5.4981,15.9698 5.4901,16.7428 5.6521,17.4828 C5.6521,17.4828 5.6561,17.4858 5.6521,17.4888 C5.8511,18.4098 6.3111,19.2828 7.0241,19.9958 C7.7041,20.6758 8.5281,21.1198 9.3991,21.3348" id="Fill-4"></path>
                    </g>
                </g>
                <g id="Group-9" transform="translate(10.000000, 6.000000)" fill="#00CCFF">
                    <g id="Fill-7-Clipped">
                        <path d="M18.0084,17.6082 C17.0994,18.5172 16.0624,19.2192 14.9544,19.7132 C16.3064,16.7012 16.1304,13.1702 14.4124,10.3032 C13.9914,9.6002 13.4784,8.9362 12.8734,8.3322 C11.9544,7.4132 10.9074,6.7072 9.7814,6.2172 C8.8884,5.8232 7.9454,5.5632 6.9864,5.4432 C6.9824,5.4402 6.9794,5.4432 6.9794,5.4432 C6.1024,5.2102 5.1754,5.2142 4.3004,5.4552 C3.4704,5.6832 2.6834,6.1242 2.0304,6.7762 C1.3284,7.4792 0.8744,8.3312 0.6634,9.2292 C0.7834,8.2132 1.0574,7.2082 1.4854,6.2562 C1.9814,5.1512 2.6814,4.1122 3.5904,3.2032 C4.2304,2.5632 4.9354,2.0212 5.6834,1.5872 C8.5194,-0.0658 11.9724,-0.2428 14.9344,1.0592 C16.0704,1.5452 17.1204,2.2542 18.0394,3.1722 C22.0144,7.1482 22.0054,13.6112 18.0084,17.6082" id="Fill-7"></path>
                    </g>
                </g>
                <g id="Group-12" transform="translate(0.000000, 7.000000)" fill="#00CCFF">
                    <g id="Fill-10-Clipped">
                        <path d="M17.6413,16.5594 C17.0013,17.1994 16.2963,17.7414 15.5483,18.1744 C12.7113,19.8284 9.2593,20.0044 6.2973,18.7034 C5.1743,18.2104 4.1243,17.5084 3.2023,16.5864 C-0.7737,12.6044 -0.7607,6.1444 3.2333,2.1504 C4.1413,1.2414 5.1783,0.5384 6.2863,0.0454 C4.9343,3.0584 5.1113,6.5884 6.8283,9.4554 C7.2503,10.1594 7.7633,10.8224 8.3683,11.4274 C9.2863,12.3464 10.3403,13.0514 11.4623,13.5434 C12.4013,13.9574 13.3933,14.2214 14.3993,14.3344 C15.2473,14.5454 16.1413,14.5344 16.9833,14.2994 C17.8123,14.0724 18.5993,13.6314 19.2533,12.9794 C19.8673,12.3654 20.2903,11.6404 20.5283,10.8674 C20.3893,11.7714 20.1313,12.6564 19.7533,13.5054 C19.2533,14.6134 18.5503,15.6504 17.6413,16.5594" id="Fill-10"></path>
                    </g>
                </g>
                <g id="Group-15" transform="translate(6.000000, 11.000000)" fill="#000E6F">
                    <g id="Fill-13-Clipped">
                        <path d="M16.8493,17.7674 C12.8553,21.7614 6.3923,21.7704 2.4163,17.7944 C1.4983,16.8754 0.7923,15.8294 0.3033,14.7034 C3.2623,16.0004 6.7183,15.8284 9.5553,14.1744 C10.3023,13.7414 11.0073,13.1994 11.6473,12.5594 C12.5573,11.6504 13.2593,10.6134 13.7533,9.5054 C14.1343,8.6604 14.3913,7.7684 14.5283,6.8674 C14.8213,5.9074 14.8293,4.8774 14.5463,3.9184 C14.3123,3.1264 13.8883,2.3804 13.2633,1.7564 C12.6093,1.1024 11.8243,0.6644 10.9893,0.4404 C11.9493,0.5594 12.8883,0.8174 13.7853,1.2144 C14.9083,1.7064 15.9613,2.4134 16.8763,3.3284 C17.4813,3.9334 17.9943,4.5964 18.4153,5.3004 C20.1303,8.1634 20.3093,11.6974 18.9583,14.7094 C18.4613,15.8214 17.7583,16.8584 16.8493,17.7674" id="Fill-13"></path>
                    </g>
                </g>
            </g>
            <polygon id="Fill-17" fill="#000A4B" points="43.1974 8.4215 55.6954 8.4215 55.6954 4.0025 37.5104 4.0025 37.5104 28.9975 43.1974 28.9975 43.1974 18.6725 54.4994 18.6725 54.4994 14.2545 43.1974 14.2545"></polygon>
            <g id="Group-29" transform="translate(59.000000, 3.244400)" fill="#000A4B">
                <path d="M19.0704,19.5584 C18.7804,16.6604 17.8024,14.6674 15.2664,13.7264 C18.4184,12.8204 20.2294,10.7554 20.2294,7.5674 C20.2294,3.1844 17.2224,1.3734 13.6004,0.9384 C12.2964,0.7934 11.3184,0.7574 9.8334,0.7574 L0.3414,0.7574 L0.3414,25.7524 L6.0294,25.7524 L6.0294,15.9354 L8.2754,15.9354 C8.9634,15.9354 9.5794,15.9354 10.2674,15.9724 C12.1514,16.1174 13.2014,17.7104 13.5284,20.4274 C13.7454,22.5294 14.1074,24.0134 14.7234,25.7524 L20.9174,25.7524 C19.9034,24.3034 19.3964,22.4934 19.0704,19.5584 L19.0704,19.5584 Z M6.0294,11.7704 L6.0294,5.1774 L9.1804,5.1774 C9.9774,5.1774 10.5934,5.2134 11.1004,5.2494 C12.9484,5.4664 14.2884,6.1914 14.2884,8.4734 C14.2884,10.7554 12.7314,11.5524 10.8834,11.7334 C10.3764,11.7704 9.7604,11.7704 8.9634,11.7704 L6.0294,11.7704 Z" id="Fill-18"></path>
                <polygon id="Fill-20" points="43.0065 21.2967 30.1465 21.2967 30.1465 15.4287 41.8105 15.4287 41.8105 11.0097 30.1465 11.0097 30.1465 5.1767 42.6445 5.1767 42.6445 0.7577 24.4595 0.7577 24.4595 25.7527 43.0065 25.7527"></polygon>
                <g id="Fill-22-Clipped" transform="translate(47.000000, 0.000000)">
                    <polygon id="Fill-22" points="0.124 25.753 5.811 25.753 5.811 0.758 0.124 0.758"></polygon>
                </g>
                <g id="Fill-24-Clipped" transform="translate(56.000000, 0.000000)">
                    <path d="M13.7208,12.7479 L13.7208,17.1679 L18.7928,17.1679 C18.1408,20.3549 16.1128,22.0579 13.2138,22.0579 C9.6638,22.0579 6.8388,19.3409 6.8388,13.0739 C6.8388,7.5319 9.6278,4.4529 13.2858,4.4529 C16.3288,4.4529 18.1048,6.0099 18.6838,8.9079 L18.7568,9.2699 L24.4078,9.2699 L24.3708,8.9079 C23.8648,3.9819 20.3148,0.2499 13.3588,0.2499 C6.4398,0.2499 0.8618,4.9959 0.8618,13.3999 C0.8618,21.5509 5.3888,26.2599 12.1998,26.2599 C14.9168,26.2599 16.7278,25.7169 18.1408,24.4129 L19.2638,21.8049 L19.6988,25.7529 L24.1908,25.7529 L24.1908,12.7479 L13.7208,12.7479 Z" id="Fill-24"></path>
                </g>
                <g id="Fill-25-Clipped" transform="translate(85.000000, 0.000000)">
                    <polygon id="Fill-25" points="22.382 0.7577 16.731 0.7577 16.731 11.2627 5.791 11.2627 5.791 0.7577 0.104 0.7577 0.104 25.7527 5.791 25.7527 5.791 15.7187 16.731 15.7187 16.731 25.7527 22.382 25.7527"></polygon>
                </g>
                <g id="Fill-26-Clipped" transform="translate(110.000000, 0.000000)">
                    <polygon id="Fill-26" points="22.5548 5.1771 22.5548 0.7581 0.2408 0.7581 0.2408 5.1771 8.5718 5.1771 8.5718 25.7531 14.2228 25.7531 14.2228 5.1771"></polygon>
                </g>
                <g id="Fill-27-Clipped" transform="translate(134.000000, 0.000000)">
                    <path d="M12.7169,0.2503 C4.9639,0.2503 0.1469,5.3223 0.1469,13.2543 C0.1469,21.1523 4.9639,26.2593 12.7169,26.2593 C20.4329,26.2593 25.2499,21.1523 25.2499,13.2543 C25.2499,5.3223 20.4329,0.2503 12.7169,0.2503 M12.7169,22.0573 C8.5509,22.0573 6.0149,18.8333 6.0149,13.2543 C6.0149,7.6403 8.5509,4.4523 12.7169,4.4523 C16.8459,4.4523 19.3819,7.6403 19.3819,13.2543 C19.3819,18.8333 16.8459,22.0573 12.7169,22.0573" id="Fill-27"></path>
                </g>
                <g id="Fill-28-Clipped" transform="translate(163.000000, 0.000000)">
                    <polygon id="Fill-28" points="18.9552 20.9715 6.0962 20.9715 6.0962 0.7575 0.4082 0.7575 0.4082 25.7525 18.9552 25.7525"></polygon>
                </g>
            </g>
        </g>
    </g>
</svg>